G04 (created by PCBNEW-RS274X (2010-03-14)-final) date Mon 08 Apr 2013 04:17:26 PM EDT*
G01*
G70*
G90*
%MOIN*%
G04 Gerber Fmt 3.4, Leading zero omitted, Abs format*
%FSLAX34Y34*%
G04 APERTURE LIST*
%ADD10C,0.002000*%
%ADD11C,0.007000*%
%ADD12C,0.005000*%
%ADD13C,0.008300*%
%ADD14C,0.003300*%
%ADD15C,0.006700*%
%ADD16C,0.004200*%
%ADD17C,0.018300*%
%ADD18C,0.010000*%
%ADD19C,0.005800*%
%ADD20C,0.015000*%
%ADD21C,0.006000*%
%ADD22C,0.001000*%
%ADD23C,0.002600*%
%ADD24C,0.008000*%
%ADD25C,0.003700*%
%ADD26C,0.003500*%
%ADD27C,0.003000*%
%ADD28C,0.004000*%
G04 APERTURE END LIST*
G54D10*
G54D11*
X63701Y-19480D02*
X63728Y-19480D01*
X56815Y-19480D02*
X57098Y-19480D01*
X56815Y-20709D02*
X56815Y-19480D01*
X55673Y-20709D02*
X56815Y-20709D01*
X55673Y-21315D02*
X55673Y-20709D01*
X55642Y-21315D02*
X55673Y-21315D01*
X55275Y-21315D02*
X55642Y-21315D01*
X55212Y-21378D02*
X55275Y-21315D01*
X55212Y-21378D02*
X53905Y-21378D01*
X55212Y-24142D02*
X55212Y-21382D01*
X63736Y-31512D02*
X56964Y-31512D01*
X63728Y-26248D02*
X63728Y-26252D01*
X57539Y-26248D02*
X63728Y-26248D01*
X57539Y-26929D02*
X57539Y-26248D01*
X55571Y-26929D02*
X57539Y-26929D01*
X55571Y-26575D02*
X55571Y-26929D01*
X57894Y-26248D02*
X57563Y-26248D01*
X57901Y-26248D02*
X63728Y-26248D01*
X55571Y-25374D02*
X55256Y-25374D01*
X55571Y-26575D02*
X55571Y-25374D01*
X56433Y-31216D02*
X56433Y-31276D01*
X55677Y-30335D02*
X55677Y-30339D01*
X51972Y-30335D02*
X55677Y-30335D01*
X51791Y-30335D02*
X51783Y-30343D01*
X51964Y-30335D02*
X51791Y-30335D01*
X55677Y-31220D02*
X56433Y-31220D01*
X55677Y-30854D02*
X55677Y-31220D01*
X55677Y-30854D02*
X55677Y-30339D01*
X24567Y-13161D02*
X24567Y-13535D01*
G54D12*
X61734Y-32845D02*
X61562Y-32845D01*
X61648Y-32845D02*
X61648Y-32545D01*
X61619Y-32588D01*
X61591Y-32617D01*
X61562Y-32631D01*
X61848Y-32574D02*
X61862Y-32560D01*
X61891Y-32545D01*
X61962Y-32545D01*
X61991Y-32560D01*
X62005Y-32574D01*
X62020Y-32603D01*
X62020Y-32631D01*
X62005Y-32674D01*
X61834Y-32845D01*
X62020Y-32845D01*
X62120Y-32645D02*
X62191Y-32845D01*
X62263Y-32645D01*
X62377Y-32731D02*
X62606Y-32731D01*
X62734Y-32831D02*
X62777Y-32845D01*
X62848Y-32845D01*
X62877Y-32831D01*
X62891Y-32817D01*
X62906Y-32788D01*
X62906Y-32760D01*
X62891Y-32731D01*
X62877Y-32717D01*
X62848Y-32703D01*
X62791Y-32688D01*
X62763Y-32674D01*
X62748Y-32660D01*
X62734Y-32631D01*
X62734Y-32603D01*
X62748Y-32574D01*
X62763Y-32560D01*
X62791Y-32545D01*
X62863Y-32545D01*
X62906Y-32560D01*
X63006Y-32545D02*
X63077Y-32845D01*
X63134Y-32631D01*
X63192Y-32845D01*
X63263Y-32545D01*
G54D11*
X42929Y-27866D02*
X42925Y-27866D01*
X42929Y-27779D02*
X42929Y-27866D01*
X47626Y-27779D02*
X42929Y-27779D01*
X47630Y-27779D02*
X47618Y-27779D01*
X47630Y-30642D02*
X47630Y-27779D01*
X47631Y-30642D02*
X47634Y-30645D01*
X47768Y-30779D02*
X47631Y-30642D01*
X47768Y-31488D02*
X47768Y-30779D01*
X48520Y-31488D02*
X47768Y-31488D01*
X48520Y-31972D02*
X48520Y-31488D01*
X47500Y-32138D02*
X47512Y-32138D01*
X47500Y-31972D02*
X47500Y-32138D01*
X48516Y-31972D02*
X47500Y-31972D01*
G54D12*
X42743Y-33416D02*
X42443Y-33416D01*
X42658Y-33316D01*
X42443Y-33216D01*
X42743Y-33216D01*
X42658Y-33087D02*
X42658Y-32944D01*
X42743Y-33115D02*
X42443Y-33015D01*
X42743Y-32915D01*
X42586Y-32716D02*
X42586Y-32816D01*
X42743Y-32816D02*
X42443Y-32816D01*
X42443Y-32673D01*
X42629Y-32559D02*
X42629Y-32330D01*
X42715Y-32016D02*
X42729Y-32030D01*
X42743Y-32073D01*
X42743Y-32102D01*
X42729Y-32145D01*
X42701Y-32173D01*
X42672Y-32188D01*
X42615Y-32202D01*
X42572Y-32202D01*
X42515Y-32188D01*
X42486Y-32173D01*
X42458Y-32145D01*
X42443Y-32102D01*
X42443Y-32073D01*
X42458Y-32030D01*
X42472Y-32016D01*
X42743Y-31888D02*
X42443Y-31888D01*
X42443Y-31773D01*
X42458Y-31745D01*
X42472Y-31730D01*
X42501Y-31716D01*
X42543Y-31716D01*
X42572Y-31730D01*
X42586Y-31745D01*
X42601Y-31773D01*
X42601Y-31888D01*
X42443Y-31588D02*
X42686Y-31588D01*
X42715Y-31573D01*
X42729Y-31559D01*
X42743Y-31530D01*
X42743Y-31473D01*
X42729Y-31445D01*
X42715Y-31430D01*
X42686Y-31416D01*
X42443Y-31416D01*
X42629Y-31274D02*
X42629Y-31045D01*
X42729Y-30917D02*
X42743Y-30874D01*
X42743Y-30803D01*
X42729Y-30774D01*
X42715Y-30760D01*
X42686Y-30745D01*
X42658Y-30745D01*
X42629Y-30760D01*
X42615Y-30774D01*
X42601Y-30803D01*
X42586Y-30860D01*
X42572Y-30888D01*
X42558Y-30903D01*
X42529Y-30917D01*
X42501Y-30917D01*
X42472Y-30903D01*
X42458Y-30888D01*
X42443Y-30860D01*
X42443Y-30788D01*
X42458Y-30745D01*
X42743Y-30617D02*
X42543Y-30617D01*
X42443Y-30617D02*
X42458Y-30631D01*
X42472Y-30617D01*
X42458Y-30602D01*
X42443Y-30617D01*
X42472Y-30617D01*
X42543Y-30345D02*
X42786Y-30345D01*
X42815Y-30359D01*
X42829Y-30374D01*
X42843Y-30402D01*
X42843Y-30445D01*
X42829Y-30474D01*
X42729Y-30345D02*
X42743Y-30374D01*
X42743Y-30431D01*
X42729Y-30459D01*
X42715Y-30474D01*
X42686Y-30488D01*
X42601Y-30488D01*
X42572Y-30474D01*
X42558Y-30459D01*
X42543Y-30431D01*
X42543Y-30374D01*
X42558Y-30345D01*
X42543Y-30203D02*
X42743Y-30203D01*
X42572Y-30203D02*
X42558Y-30188D01*
X42543Y-30160D01*
X42543Y-30117D01*
X42558Y-30088D01*
X42586Y-30074D01*
X42743Y-30074D01*
X42743Y-29803D02*
X42586Y-29803D01*
X42558Y-29817D01*
X42543Y-29846D01*
X42543Y-29903D01*
X42558Y-29932D01*
X42729Y-29803D02*
X42743Y-29832D01*
X42743Y-29903D01*
X42729Y-29932D01*
X42701Y-29946D01*
X42672Y-29946D01*
X42643Y-29932D01*
X42629Y-29903D01*
X42629Y-29832D01*
X42615Y-29803D01*
X42743Y-29618D02*
X42729Y-29646D01*
X42701Y-29661D01*
X42443Y-29661D01*
G54D11*
X13807Y-09902D02*
X13823Y-09902D01*
X13807Y-13622D02*
X13807Y-09902D01*
X53909Y-25358D02*
X52476Y-25358D01*
X52039Y-25968D02*
X52043Y-25968D01*
X52476Y-25968D02*
X52039Y-25968D01*
X52476Y-25354D02*
X52476Y-25968D01*
X52063Y-25968D02*
X52059Y-25968D01*
X38409Y-31142D02*
X38401Y-31142D01*
X38409Y-32382D02*
X38409Y-31142D01*
X38079Y-32382D02*
X38409Y-32382D01*
X38079Y-32768D02*
X38079Y-32382D01*
X37925Y-32768D02*
X38079Y-32768D01*
G54D13*
X44648Y-36505D02*
X44624Y-36529D01*
X44553Y-36552D01*
X44505Y-36552D01*
X44433Y-36529D01*
X44386Y-36481D01*
X44362Y-36433D01*
X44338Y-36338D01*
X44338Y-36267D01*
X44362Y-36171D01*
X44386Y-36124D01*
X44433Y-36076D01*
X44505Y-36052D01*
X44553Y-36052D01*
X44624Y-36076D01*
X44648Y-36100D01*
X44862Y-36552D02*
X44862Y-36052D01*
X44862Y-36290D02*
X45148Y-36290D01*
X45148Y-36552D02*
X45148Y-36052D01*
X45315Y-36052D02*
X45600Y-36052D01*
X45457Y-36552D02*
X45457Y-36052D01*
X44694Y-28893D02*
X44765Y-28917D01*
X44789Y-28941D01*
X44813Y-28989D01*
X44813Y-29060D01*
X44789Y-29108D01*
X44765Y-29132D01*
X44718Y-29155D01*
X44527Y-29155D01*
X44527Y-28655D01*
X44694Y-28655D01*
X44741Y-28679D01*
X44765Y-28703D01*
X44789Y-28751D01*
X44789Y-28798D01*
X44765Y-28846D01*
X44741Y-28870D01*
X44694Y-28893D01*
X44527Y-28893D01*
X45313Y-29155D02*
X45146Y-28917D01*
X45027Y-29155D02*
X45027Y-28655D01*
X45218Y-28655D01*
X45265Y-28679D01*
X45289Y-28703D01*
X45313Y-28751D01*
X45313Y-28822D01*
X45289Y-28870D01*
X45265Y-28893D01*
X45218Y-28917D01*
X45027Y-28917D01*
X45456Y-28655D02*
X45622Y-29155D01*
X45789Y-28655D01*
X48071Y-29792D02*
X48071Y-29292D01*
X48238Y-29650D01*
X48404Y-29292D01*
X48404Y-29792D01*
X48618Y-29650D02*
X48856Y-29650D01*
X48571Y-29792D02*
X48737Y-29292D01*
X48904Y-29792D01*
X49000Y-29292D02*
X49285Y-29292D01*
X49142Y-29792D02*
X49142Y-29292D01*
X54631Y-31478D02*
X54727Y-31478D01*
X54774Y-31502D01*
X54822Y-31550D01*
X54846Y-31645D01*
X54846Y-31812D01*
X54822Y-31907D01*
X54774Y-31955D01*
X54727Y-31978D01*
X54631Y-31978D01*
X54584Y-31955D01*
X54536Y-31907D01*
X54512Y-31812D01*
X54512Y-31645D01*
X54536Y-31550D01*
X54584Y-31502D01*
X54631Y-31478D01*
X55036Y-31526D02*
X55060Y-31502D01*
X55108Y-31478D01*
X55227Y-31478D01*
X55274Y-31502D01*
X55298Y-31526D01*
X55322Y-31574D01*
X55322Y-31621D01*
X55298Y-31693D01*
X55012Y-31978D01*
X55322Y-31978D01*
G54D12*
X32001Y-25261D02*
X32015Y-25242D01*
X32044Y-25223D01*
X32115Y-25223D01*
X32144Y-25242D01*
X32158Y-25261D01*
X32173Y-25299D01*
X32173Y-25337D01*
X32158Y-25394D01*
X31987Y-25623D01*
X32173Y-25623D01*
X32359Y-25223D02*
X32387Y-25223D01*
X32416Y-25242D01*
X32430Y-25261D01*
X32444Y-25299D01*
X32459Y-25375D01*
X32459Y-25471D01*
X32444Y-25547D01*
X32430Y-25585D01*
X32416Y-25604D01*
X32387Y-25623D01*
X32359Y-25623D01*
X32330Y-25604D01*
X32316Y-25585D01*
X32301Y-25547D01*
X32287Y-25471D01*
X32287Y-25375D01*
X32301Y-25299D01*
X32316Y-25261D01*
X32330Y-25242D01*
X32359Y-25223D01*
X32745Y-25623D02*
X32573Y-25623D01*
X32659Y-25623D02*
X32659Y-25223D01*
X32630Y-25280D01*
X32602Y-25318D01*
X32573Y-25337D01*
X32859Y-25261D02*
X32873Y-25242D01*
X32902Y-25223D01*
X32973Y-25223D01*
X33002Y-25242D01*
X33016Y-25261D01*
X33031Y-25299D01*
X33031Y-25337D01*
X33016Y-25394D01*
X32845Y-25623D01*
X33031Y-25623D01*
G54D11*
X50630Y-30342D02*
X50630Y-30339D01*
X51787Y-30342D02*
X50630Y-30342D01*
X56964Y-34004D02*
X56968Y-34004D01*
X56964Y-31276D02*
X56964Y-34004D01*
X56433Y-31276D02*
X56964Y-31276D01*
X63728Y-25079D02*
X63724Y-25083D01*
X57819Y-19480D02*
X57827Y-19480D01*
X53901Y-22559D02*
X53905Y-22563D01*
G54D14*
X48140Y-24042D02*
X48073Y-23947D01*
X48026Y-24042D02*
X48026Y-23842D01*
X48102Y-23842D01*
X48121Y-23851D01*
X48130Y-23861D01*
X48140Y-23880D01*
X48140Y-23909D01*
X48130Y-23928D01*
X48121Y-23937D01*
X48102Y-23947D01*
X48026Y-23947D01*
X48207Y-23842D02*
X48340Y-24042D01*
X48340Y-23842D02*
X48207Y-24042D01*
X47962Y-22515D02*
X48076Y-22515D01*
X48019Y-22715D02*
X48019Y-22515D01*
X48124Y-22515D02*
X48257Y-22715D01*
X48257Y-22515D02*
X48124Y-22715D01*
X46919Y-24038D02*
X46852Y-23943D01*
X46805Y-24038D02*
X46805Y-23838D01*
X46881Y-23838D01*
X46900Y-23847D01*
X46909Y-23857D01*
X46919Y-23876D01*
X46919Y-23905D01*
X46909Y-23924D01*
X46900Y-23933D01*
X46881Y-23943D01*
X46805Y-23943D01*
X46986Y-23838D02*
X47119Y-24038D01*
X47119Y-23838D02*
X46986Y-24038D01*
X47299Y-24038D02*
X47185Y-24038D01*
X47242Y-24038D02*
X47242Y-23838D01*
X47223Y-23867D01*
X47204Y-23886D01*
X47185Y-23895D01*
X46788Y-22842D02*
X46902Y-22842D01*
X46845Y-23042D02*
X46845Y-22842D01*
X46950Y-22842D02*
X47083Y-23042D01*
X47083Y-22842D02*
X46950Y-23042D01*
X47263Y-23042D02*
X47149Y-23042D01*
X47206Y-23042D02*
X47206Y-22842D01*
X47187Y-22871D01*
X47168Y-22890D01*
X47149Y-22899D01*
X46640Y-21609D02*
X46754Y-21609D01*
X46697Y-21809D02*
X46697Y-21609D01*
X46802Y-21609D02*
X46935Y-21809D01*
X46935Y-21609D02*
X46802Y-21809D01*
X47125Y-21790D02*
X47115Y-21799D01*
X47087Y-21809D01*
X47068Y-21809D01*
X47039Y-21799D01*
X47020Y-21780D01*
X47011Y-21761D01*
X47001Y-21723D01*
X47001Y-21695D01*
X47011Y-21657D01*
X47020Y-21638D01*
X47039Y-21618D01*
X47068Y-21609D01*
X47087Y-21609D01*
X47115Y-21618D01*
X47125Y-21628D01*
X47201Y-21752D02*
X47296Y-21752D01*
X47182Y-21809D02*
X47249Y-21609D01*
X47315Y-21809D01*
X47382Y-21809D02*
X47382Y-21609D01*
X47496Y-21809D01*
X47496Y-21609D01*
X47630Y-21609D02*
X47649Y-21609D01*
X47668Y-21618D01*
X47677Y-21628D01*
X47687Y-21647D01*
X47696Y-21685D01*
X47696Y-21733D01*
X47687Y-21771D01*
X47677Y-21790D01*
X47668Y-21799D01*
X47649Y-21809D01*
X47630Y-21809D01*
X47611Y-21799D01*
X47601Y-21790D01*
X47592Y-21771D01*
X47582Y-21733D01*
X47582Y-21685D01*
X47592Y-21647D01*
X47601Y-21628D01*
X47611Y-21618D01*
X47630Y-21609D01*
X46771Y-20908D02*
X46704Y-20813D01*
X46657Y-20908D02*
X46657Y-20708D01*
X46733Y-20708D01*
X46752Y-20717D01*
X46761Y-20727D01*
X46771Y-20746D01*
X46771Y-20775D01*
X46761Y-20794D01*
X46752Y-20803D01*
X46733Y-20813D01*
X46657Y-20813D01*
X46838Y-20708D02*
X46971Y-20908D01*
X46971Y-20708D02*
X46838Y-20908D01*
X47161Y-20889D02*
X47151Y-20898D01*
X47123Y-20908D01*
X47104Y-20908D01*
X47075Y-20898D01*
X47056Y-20879D01*
X47047Y-20860D01*
X47037Y-20822D01*
X47037Y-20794D01*
X47047Y-20756D01*
X47056Y-20737D01*
X47075Y-20717D01*
X47104Y-20708D01*
X47123Y-20708D01*
X47151Y-20717D01*
X47161Y-20727D01*
X47237Y-20851D02*
X47332Y-20851D01*
X47218Y-20908D02*
X47285Y-20708D01*
X47351Y-20908D01*
X47418Y-20908D02*
X47418Y-20708D01*
X47532Y-20908D01*
X47532Y-20708D01*
X47666Y-20708D02*
X47685Y-20708D01*
X47704Y-20717D01*
X47713Y-20727D01*
X47723Y-20746D01*
X47732Y-20784D01*
X47732Y-20832D01*
X47723Y-20870D01*
X47713Y-20889D01*
X47704Y-20898D01*
X47685Y-20908D01*
X47666Y-20908D01*
X47647Y-20898D01*
X47637Y-20889D01*
X47628Y-20870D01*
X47618Y-20832D01*
X47618Y-20784D01*
X47628Y-20746D01*
X47637Y-20727D01*
X47647Y-20717D01*
X47666Y-20708D01*
G54D11*
X53905Y-21382D02*
X53905Y-21634D01*
X60929Y-19480D02*
X57094Y-19480D01*
X52240Y-20894D02*
X52240Y-20866D01*
X49520Y-20894D02*
X52240Y-20894D01*
G54D12*
X57784Y-11663D02*
X57755Y-11648D01*
X57712Y-11648D01*
X57669Y-11663D01*
X57641Y-11691D01*
X57626Y-11720D01*
X57612Y-11777D01*
X57612Y-11820D01*
X57626Y-11877D01*
X57641Y-11906D01*
X57669Y-11934D01*
X57712Y-11948D01*
X57741Y-11948D01*
X57784Y-11934D01*
X57798Y-11920D01*
X57798Y-11820D01*
X57741Y-11820D01*
X57926Y-11948D02*
X57926Y-11648D01*
X58098Y-11948D01*
X58098Y-11648D01*
X58240Y-11948D02*
X58240Y-11648D01*
X58312Y-11648D01*
X58355Y-11663D01*
X58383Y-11691D01*
X58398Y-11720D01*
X58412Y-11777D01*
X58412Y-11820D01*
X58398Y-11877D01*
X58383Y-11906D01*
X58355Y-11934D01*
X58312Y-11948D01*
X58240Y-11948D01*
G54D11*
X52323Y-16114D02*
X52240Y-16197D01*
X52323Y-14311D02*
X52323Y-16114D01*
X52311Y-14307D02*
X52315Y-14307D01*
X52059Y-14055D02*
X52311Y-14307D01*
X52059Y-12827D02*
X52059Y-14055D01*
X52311Y-12575D02*
X52059Y-12827D01*
X52311Y-09898D02*
X52311Y-12575D01*
G54D12*
X51900Y-13780D02*
X51758Y-13880D01*
X51900Y-13952D02*
X51600Y-13952D01*
X51600Y-13837D01*
X51615Y-13809D01*
X51629Y-13794D01*
X51658Y-13780D01*
X51700Y-13780D01*
X51729Y-13794D01*
X51743Y-13809D01*
X51758Y-13837D01*
X51758Y-13952D01*
X51900Y-13652D02*
X51600Y-13652D01*
X51600Y-13537D01*
X51615Y-13509D01*
X51629Y-13494D01*
X51658Y-13480D01*
X51700Y-13480D01*
X51729Y-13494D01*
X51743Y-13509D01*
X51758Y-13537D01*
X51758Y-13652D01*
X51900Y-13352D02*
X51600Y-13352D01*
X51815Y-13252D01*
X51600Y-13152D01*
X51900Y-13152D01*
X51900Y-12851D02*
X51900Y-13023D01*
X51900Y-12937D02*
X51600Y-12937D01*
X51643Y-12966D01*
X51672Y-12994D01*
X51686Y-13023D01*
X51786Y-12723D02*
X51786Y-12494D01*
X51886Y-12366D02*
X51900Y-12323D01*
X51900Y-12252D01*
X51886Y-12223D01*
X51872Y-12209D01*
X51843Y-12194D01*
X51815Y-12194D01*
X51786Y-12209D01*
X51772Y-12223D01*
X51758Y-12252D01*
X51743Y-12309D01*
X51729Y-12337D01*
X51715Y-12352D01*
X51686Y-12366D01*
X51658Y-12366D01*
X51629Y-12352D01*
X51615Y-12337D01*
X51600Y-12309D01*
X51600Y-12237D01*
X51615Y-12194D01*
X51900Y-12066D02*
X51600Y-12066D01*
X51900Y-11937D02*
X51743Y-11937D01*
X51715Y-11951D01*
X51700Y-11980D01*
X51700Y-12023D01*
X51715Y-12051D01*
X51729Y-12066D01*
X51900Y-11795D02*
X51700Y-11795D01*
X51600Y-11795D02*
X51615Y-11809D01*
X51629Y-11795D01*
X51615Y-11780D01*
X51600Y-11795D01*
X51629Y-11795D01*
X51886Y-11537D02*
X51900Y-11566D01*
X51900Y-11623D01*
X51886Y-11652D01*
X51858Y-11666D01*
X51743Y-11666D01*
X51715Y-11652D01*
X51700Y-11623D01*
X51700Y-11566D01*
X51715Y-11537D01*
X51743Y-11523D01*
X51772Y-11523D01*
X51800Y-11666D01*
X51900Y-11352D02*
X51886Y-11380D01*
X51858Y-11395D01*
X51600Y-11395D01*
X51900Y-11109D02*
X51600Y-11109D01*
X51886Y-11109D02*
X51900Y-11138D01*
X51900Y-11195D01*
X51886Y-11223D01*
X51872Y-11238D01*
X51843Y-11252D01*
X51758Y-11252D01*
X51729Y-11238D01*
X51715Y-11223D01*
X51700Y-11195D01*
X51700Y-11138D01*
X51715Y-11109D01*
X49703Y-10290D02*
X49603Y-10148D01*
X49531Y-10290D02*
X49531Y-09990D01*
X49646Y-09990D01*
X49674Y-10005D01*
X49689Y-10019D01*
X49703Y-10048D01*
X49703Y-10090D01*
X49689Y-10119D01*
X49674Y-10133D01*
X49646Y-10148D01*
X49531Y-10148D01*
X49831Y-10290D02*
X49831Y-09990D01*
X49946Y-09990D01*
X49974Y-10005D01*
X49989Y-10019D01*
X50003Y-10048D01*
X50003Y-10090D01*
X49989Y-10119D01*
X49974Y-10133D01*
X49946Y-10148D01*
X49831Y-10148D01*
X50131Y-10290D02*
X50131Y-09990D01*
X50231Y-10205D01*
X50331Y-09990D01*
X50331Y-10290D01*
X50632Y-10290D02*
X50460Y-10290D01*
X50546Y-10290D02*
X50546Y-09990D01*
X50517Y-10033D01*
X50489Y-10062D01*
X50460Y-10076D01*
X50760Y-10176D02*
X50989Y-10176D01*
X50875Y-10290D02*
X50875Y-10062D01*
X47041Y-10298D02*
X46941Y-10156D01*
X46869Y-10298D02*
X46869Y-09998D01*
X46984Y-09998D01*
X47012Y-10013D01*
X47027Y-10027D01*
X47041Y-10056D01*
X47041Y-10098D01*
X47027Y-10127D01*
X47012Y-10141D01*
X46984Y-10156D01*
X46869Y-10156D01*
X47169Y-10298D02*
X47169Y-09998D01*
X47284Y-09998D01*
X47312Y-10013D01*
X47327Y-10027D01*
X47341Y-10056D01*
X47341Y-10098D01*
X47327Y-10127D01*
X47312Y-10141D01*
X47284Y-10156D01*
X47169Y-10156D01*
X47469Y-10298D02*
X47469Y-09998D01*
X47569Y-10213D01*
X47669Y-09998D01*
X47669Y-10298D01*
X47970Y-10298D02*
X47798Y-10298D01*
X47884Y-10298D02*
X47884Y-09998D01*
X47855Y-10041D01*
X47827Y-10070D01*
X47798Y-10084D01*
X48098Y-10184D02*
X48327Y-10184D01*
X44411Y-10290D02*
X44311Y-10148D01*
X44239Y-10290D02*
X44239Y-09990D01*
X44354Y-09990D01*
X44382Y-10005D01*
X44397Y-10019D01*
X44411Y-10048D01*
X44411Y-10090D01*
X44397Y-10119D01*
X44382Y-10133D01*
X44354Y-10148D01*
X44239Y-10148D01*
X44539Y-10290D02*
X44539Y-09990D01*
X44654Y-09990D01*
X44682Y-10005D01*
X44697Y-10019D01*
X44711Y-10048D01*
X44711Y-10090D01*
X44697Y-10119D01*
X44682Y-10133D01*
X44654Y-10148D01*
X44539Y-10148D01*
X44839Y-10290D02*
X44839Y-09990D01*
X44939Y-10205D01*
X45039Y-09990D01*
X45039Y-10290D01*
X45240Y-09990D02*
X45268Y-09990D01*
X45297Y-10005D01*
X45311Y-10019D01*
X45325Y-10048D01*
X45340Y-10105D01*
X45340Y-10176D01*
X45325Y-10233D01*
X45311Y-10262D01*
X45297Y-10276D01*
X45268Y-10290D01*
X45240Y-10290D01*
X45211Y-10276D01*
X45197Y-10262D01*
X45182Y-10233D01*
X45168Y-10176D01*
X45168Y-10105D01*
X45182Y-10048D01*
X45197Y-10019D01*
X45211Y-10005D01*
X45240Y-09990D01*
X45468Y-10176D02*
X45697Y-10176D01*
X41470Y-10546D02*
X41370Y-10404D01*
X41298Y-10546D02*
X41298Y-10246D01*
X41413Y-10246D01*
X41441Y-10261D01*
X41456Y-10275D01*
X41470Y-10304D01*
X41470Y-10346D01*
X41456Y-10375D01*
X41441Y-10389D01*
X41413Y-10404D01*
X41298Y-10404D01*
X41598Y-10546D02*
X41598Y-10246D01*
X41713Y-10246D01*
X41741Y-10261D01*
X41756Y-10275D01*
X41770Y-10304D01*
X41770Y-10346D01*
X41756Y-10375D01*
X41741Y-10389D01*
X41713Y-10404D01*
X41598Y-10404D01*
X41898Y-10546D02*
X41898Y-10246D01*
X41998Y-10461D01*
X42098Y-10246D01*
X42098Y-10546D01*
X42299Y-10246D02*
X42327Y-10246D01*
X42356Y-10261D01*
X42370Y-10275D01*
X42384Y-10304D01*
X42399Y-10361D01*
X42399Y-10432D01*
X42384Y-10489D01*
X42370Y-10518D01*
X42356Y-10532D01*
X42327Y-10546D01*
X42299Y-10546D01*
X42270Y-10532D01*
X42256Y-10518D01*
X42241Y-10489D01*
X42227Y-10432D01*
X42227Y-10361D01*
X42241Y-10304D01*
X42256Y-10275D01*
X42270Y-10261D01*
X42299Y-10246D01*
X42527Y-10432D02*
X42756Y-10432D01*
X42642Y-10546D02*
X42642Y-10318D01*
X39190Y-13456D02*
X39332Y-13356D01*
X39190Y-13284D02*
X39490Y-13284D01*
X39490Y-13399D01*
X39475Y-13427D01*
X39461Y-13442D01*
X39432Y-13456D01*
X39390Y-13456D01*
X39361Y-13442D01*
X39347Y-13427D01*
X39332Y-13399D01*
X39332Y-13284D01*
X39190Y-13584D02*
X39490Y-13584D01*
X39490Y-13699D01*
X39475Y-13727D01*
X39461Y-13742D01*
X39432Y-13756D01*
X39390Y-13756D01*
X39361Y-13742D01*
X39347Y-13727D01*
X39332Y-13699D01*
X39332Y-13584D01*
X39190Y-13884D02*
X39490Y-13884D01*
X39275Y-13984D01*
X39490Y-14084D01*
X39190Y-14084D01*
X39490Y-14285D02*
X39490Y-14313D01*
X39475Y-14342D01*
X39461Y-14356D01*
X39432Y-14370D01*
X39375Y-14385D01*
X39304Y-14385D01*
X39247Y-14370D01*
X39218Y-14356D01*
X39204Y-14342D01*
X39190Y-14313D01*
X39190Y-14285D01*
X39204Y-14256D01*
X39218Y-14242D01*
X39247Y-14227D01*
X39304Y-14213D01*
X39375Y-14213D01*
X39432Y-14227D01*
X39461Y-14242D01*
X39475Y-14256D01*
X39490Y-14285D01*
X39304Y-14513D02*
X39304Y-14742D01*
X39204Y-14870D02*
X39190Y-14913D01*
X39190Y-14984D01*
X39204Y-15013D01*
X39218Y-15027D01*
X39247Y-15042D01*
X39275Y-15042D01*
X39304Y-15027D01*
X39318Y-15013D01*
X39332Y-14984D01*
X39347Y-14927D01*
X39361Y-14899D01*
X39375Y-14884D01*
X39404Y-14870D01*
X39432Y-14870D01*
X39461Y-14884D01*
X39475Y-14899D01*
X39490Y-14927D01*
X39490Y-14999D01*
X39475Y-15042D01*
X39190Y-15170D02*
X39490Y-15170D01*
X39190Y-15299D02*
X39347Y-15299D01*
X39375Y-15285D01*
X39390Y-15256D01*
X39390Y-15213D01*
X39375Y-15185D01*
X39361Y-15170D01*
X39190Y-15441D02*
X39390Y-15441D01*
X39490Y-15441D02*
X39475Y-15427D01*
X39461Y-15441D01*
X39475Y-15456D01*
X39490Y-15441D01*
X39461Y-15441D01*
X39204Y-15699D02*
X39190Y-15670D01*
X39190Y-15613D01*
X39204Y-15584D01*
X39232Y-15570D01*
X39347Y-15570D01*
X39375Y-15584D01*
X39390Y-15613D01*
X39390Y-15670D01*
X39375Y-15699D01*
X39347Y-15713D01*
X39318Y-15713D01*
X39290Y-15570D01*
X39190Y-15884D02*
X39204Y-15856D01*
X39232Y-15841D01*
X39490Y-15841D01*
X39190Y-16127D02*
X39490Y-16127D01*
X39204Y-16127D02*
X39190Y-16098D01*
X39190Y-16041D01*
X39204Y-16013D01*
X39218Y-15998D01*
X39247Y-15984D01*
X39332Y-15984D01*
X39361Y-15998D01*
X39375Y-16013D01*
X39390Y-16041D01*
X39390Y-16098D01*
X39375Y-16127D01*
G54D11*
X39031Y-16496D02*
X39035Y-16500D01*
X39709Y-16496D02*
X39031Y-16496D01*
X39709Y-14968D02*
X39709Y-16496D01*
X42279Y-14968D02*
X39709Y-14968D01*
X36961Y-11650D02*
X36961Y-11626D01*
X36961Y-09902D02*
X36961Y-11650D01*
X36961Y-11626D02*
X36961Y-11650D01*
X39039Y-11626D02*
X36961Y-11626D01*
G54D12*
X36755Y-12966D02*
X36455Y-12966D01*
X36455Y-12851D01*
X36470Y-12823D01*
X36484Y-12808D01*
X36513Y-12794D01*
X36555Y-12794D01*
X36584Y-12808D01*
X36598Y-12823D01*
X36613Y-12851D01*
X36613Y-12966D01*
X36755Y-12666D02*
X36455Y-12666D01*
X36755Y-12494D02*
X36584Y-12623D01*
X36455Y-12494D02*
X36627Y-12666D01*
X36455Y-12223D02*
X36455Y-12366D01*
X36598Y-12380D01*
X36584Y-12366D01*
X36570Y-12337D01*
X36570Y-12266D01*
X36584Y-12237D01*
X36598Y-12223D01*
X36627Y-12208D01*
X36698Y-12208D01*
X36727Y-12223D01*
X36741Y-12237D01*
X36755Y-12266D01*
X36755Y-12337D01*
X36741Y-12366D01*
X36727Y-12380D01*
X36499Y-15713D02*
X36499Y-15813D01*
X36656Y-15813D02*
X36356Y-15813D01*
X36356Y-15670D01*
X36656Y-15427D02*
X36499Y-15427D01*
X36471Y-15441D01*
X36456Y-15470D01*
X36456Y-15527D01*
X36471Y-15556D01*
X36642Y-15427D02*
X36656Y-15456D01*
X36656Y-15527D01*
X36642Y-15556D01*
X36614Y-15570D01*
X36585Y-15570D01*
X36556Y-15556D01*
X36542Y-15527D01*
X36542Y-15456D01*
X36528Y-15427D01*
X36456Y-15285D02*
X36656Y-15285D01*
X36485Y-15285D02*
X36471Y-15270D01*
X36456Y-15242D01*
X36456Y-15199D01*
X36471Y-15170D01*
X36499Y-15156D01*
X36656Y-15156D01*
X36542Y-15014D02*
X36542Y-14785D01*
X36356Y-14585D02*
X36356Y-14528D01*
X36371Y-14500D01*
X36399Y-14471D01*
X36456Y-14457D01*
X36556Y-14457D01*
X36614Y-14471D01*
X36642Y-14500D01*
X36656Y-14528D01*
X36656Y-14585D01*
X36642Y-14614D01*
X36614Y-14643D01*
X36556Y-14657D01*
X36456Y-14657D01*
X36399Y-14643D01*
X36371Y-14614D01*
X36356Y-14585D01*
X36456Y-14200D02*
X36656Y-14200D01*
X36456Y-14329D02*
X36614Y-14329D01*
X36642Y-14314D01*
X36656Y-14286D01*
X36656Y-14243D01*
X36642Y-14214D01*
X36628Y-14200D01*
X36456Y-14100D02*
X36456Y-13986D01*
X36356Y-14058D02*
X36614Y-14058D01*
X36642Y-14043D01*
X36656Y-14015D01*
X36656Y-13986D01*
G54D11*
X33378Y-12618D02*
X33425Y-12618D01*
X33378Y-13984D02*
X33378Y-12618D01*
X24571Y-09902D02*
X24571Y-10181D01*
X13811Y-13626D02*
X13811Y-13618D01*
X15532Y-13626D02*
X13811Y-13626D01*
X16024Y-14118D02*
X15532Y-13626D01*
X25295Y-14118D02*
X16024Y-14118D01*
X25295Y-16335D02*
X25295Y-14118D01*
X27768Y-16335D02*
X25295Y-16335D01*
X27768Y-14842D02*
X27768Y-16335D01*
G54D15*
X28094Y-15741D02*
X28113Y-15684D01*
X28132Y-15665D01*
X28171Y-15646D01*
X28228Y-15646D01*
X28266Y-15665D01*
X28285Y-15684D01*
X28304Y-15722D01*
X28304Y-15875D01*
X27904Y-15875D01*
X27904Y-15741D01*
X27923Y-15703D01*
X27942Y-15684D01*
X27980Y-15665D01*
X28018Y-15665D01*
X28056Y-15684D01*
X28075Y-15703D01*
X28094Y-15741D01*
X28094Y-15875D01*
X28304Y-15475D02*
X27904Y-15475D01*
X27904Y-15380D01*
X27923Y-15322D01*
X27961Y-15284D01*
X27999Y-15265D01*
X28075Y-15246D01*
X28132Y-15246D01*
X28209Y-15265D01*
X28247Y-15284D01*
X28285Y-15322D01*
X28304Y-15380D01*
X28304Y-15475D01*
X28304Y-15075D02*
X27904Y-15075D01*
X28190Y-14941D01*
X27904Y-14808D01*
X28304Y-14808D01*
G54D12*
X33766Y-27857D02*
X33623Y-27857D01*
X33623Y-27557D01*
X33852Y-27843D02*
X33895Y-27857D01*
X33966Y-27857D01*
X33995Y-27843D01*
X34009Y-27829D01*
X34024Y-27800D01*
X34024Y-27772D01*
X34009Y-27743D01*
X33995Y-27729D01*
X33966Y-27715D01*
X33909Y-27700D01*
X33881Y-27686D01*
X33866Y-27672D01*
X33852Y-27643D01*
X33852Y-27615D01*
X33866Y-27586D01*
X33881Y-27572D01*
X33909Y-27557D01*
X33981Y-27557D01*
X34024Y-27572D01*
X34152Y-27857D02*
X34152Y-27557D01*
X34224Y-27557D01*
X34267Y-27572D01*
X34295Y-27600D01*
X34310Y-27629D01*
X34324Y-27686D01*
X34324Y-27729D01*
X34310Y-27786D01*
X34295Y-27815D01*
X34267Y-27843D01*
X34224Y-27857D01*
X34152Y-27857D01*
X34452Y-27743D02*
X34681Y-27743D01*
X34809Y-27586D02*
X34823Y-27572D01*
X34852Y-27557D01*
X34923Y-27557D01*
X34952Y-27572D01*
X34966Y-27586D01*
X34981Y-27615D01*
X34981Y-27643D01*
X34966Y-27686D01*
X34795Y-27857D01*
X34981Y-27857D01*
G54D14*
X35951Y-37653D02*
X35885Y-37653D01*
X35885Y-37758D02*
X35885Y-37558D01*
X35980Y-37558D01*
X36056Y-37558D02*
X36056Y-37720D01*
X36065Y-37739D01*
X36075Y-37748D01*
X36094Y-37758D01*
X36132Y-37758D01*
X36151Y-37748D01*
X36160Y-37739D01*
X36170Y-37720D01*
X36170Y-37558D01*
X36266Y-37653D02*
X36332Y-37653D01*
X36361Y-37758D02*
X36266Y-37758D01*
X36266Y-37558D01*
X36361Y-37558D01*
X36542Y-37758D02*
X36447Y-37758D01*
X36447Y-37558D01*
X36609Y-37682D02*
X36761Y-37682D01*
G54D12*
X29469Y-37746D02*
X29526Y-37746D01*
X29554Y-37761D01*
X29583Y-37789D01*
X29597Y-37846D01*
X29597Y-37946D01*
X29583Y-38004D01*
X29554Y-38032D01*
X29526Y-38046D01*
X29469Y-38046D01*
X29440Y-38032D01*
X29411Y-38004D01*
X29397Y-37946D01*
X29397Y-37846D01*
X29411Y-37789D01*
X29440Y-37761D01*
X29469Y-37746D01*
X29725Y-37746D02*
X29725Y-37989D01*
X29740Y-38018D01*
X29754Y-38032D01*
X29783Y-38046D01*
X29840Y-38046D01*
X29868Y-38032D01*
X29883Y-38018D01*
X29897Y-37989D01*
X29897Y-37746D01*
X29997Y-37746D02*
X30168Y-37746D01*
X30082Y-38046D02*
X30082Y-37746D01*
X30268Y-38046D02*
X30268Y-37746D01*
X30383Y-37746D01*
X30411Y-37761D01*
X30426Y-37775D01*
X30440Y-37804D01*
X30440Y-37846D01*
X30426Y-37875D01*
X30411Y-37889D01*
X30383Y-37904D01*
X30268Y-37904D01*
X30568Y-37746D02*
X30568Y-37989D01*
X30583Y-38018D01*
X30597Y-38032D01*
X30626Y-38046D01*
X30683Y-38046D01*
X30711Y-38032D01*
X30726Y-38018D01*
X30740Y-37989D01*
X30740Y-37746D01*
X30840Y-37746D02*
X31011Y-37746D01*
X30925Y-38046D02*
X30925Y-37746D01*
X31111Y-37932D02*
X31340Y-37932D01*
X31640Y-38046D02*
X31468Y-38046D01*
X31554Y-38046D02*
X31554Y-37746D01*
X31525Y-37789D01*
X31497Y-37818D01*
X31468Y-37832D01*
X31754Y-37775D02*
X31768Y-37761D01*
X31797Y-37746D01*
X31868Y-37746D01*
X31897Y-37761D01*
X31911Y-37775D01*
X31926Y-37804D01*
X31926Y-37832D01*
X31911Y-37875D01*
X31740Y-38046D01*
X31926Y-38046D01*
X32026Y-37846D02*
X32097Y-38046D01*
X32169Y-37846D01*
X33092Y-32275D02*
X32992Y-32275D01*
X32992Y-32432D02*
X32992Y-32132D01*
X33135Y-32132D01*
X33235Y-32347D02*
X33378Y-32347D01*
X33207Y-32432D02*
X33307Y-32132D01*
X33407Y-32432D01*
X33506Y-32432D02*
X33506Y-32132D01*
X33678Y-32432D01*
X33678Y-32132D01*
X46705Y-36146D02*
X46748Y-36160D01*
X46819Y-36160D01*
X46848Y-36146D01*
X46862Y-36132D01*
X46877Y-36103D01*
X46877Y-36075D01*
X46862Y-36046D01*
X46848Y-36032D01*
X46819Y-36018D01*
X46762Y-36003D01*
X46734Y-35989D01*
X46719Y-35975D01*
X46705Y-35946D01*
X46705Y-35918D01*
X46719Y-35889D01*
X46734Y-35875D01*
X46762Y-35860D01*
X46834Y-35860D01*
X46877Y-35875D01*
X47120Y-36146D02*
X47091Y-36160D01*
X47034Y-36160D01*
X47005Y-36146D01*
X46991Y-36118D01*
X46991Y-36003D01*
X47005Y-35975D01*
X47034Y-35960D01*
X47091Y-35960D01*
X47120Y-35975D01*
X47134Y-36003D01*
X47134Y-36032D01*
X46991Y-36060D01*
X47262Y-35960D02*
X47262Y-36160D01*
X47262Y-35989D02*
X47277Y-35975D01*
X47305Y-35960D01*
X47348Y-35960D01*
X47377Y-35975D01*
X47391Y-36003D01*
X47391Y-36160D01*
X47519Y-36146D02*
X47548Y-36160D01*
X47605Y-36160D01*
X47633Y-36146D01*
X47648Y-36118D01*
X47648Y-36103D01*
X47633Y-36075D01*
X47605Y-36060D01*
X47562Y-36060D01*
X47533Y-36046D01*
X47519Y-36018D01*
X47519Y-36003D01*
X47533Y-35975D01*
X47562Y-35960D01*
X47605Y-35960D01*
X47633Y-35975D01*
X47819Y-36160D02*
X47791Y-36146D01*
X47776Y-36132D01*
X47762Y-36103D01*
X47762Y-36018D01*
X47776Y-35989D01*
X47791Y-35975D01*
X47819Y-35960D01*
X47862Y-35960D01*
X47891Y-35975D01*
X47905Y-35989D01*
X47919Y-36018D01*
X47919Y-36103D01*
X47905Y-36132D01*
X47891Y-36146D01*
X47862Y-36160D01*
X47819Y-36160D01*
X48047Y-36160D02*
X48047Y-35960D01*
X48047Y-36018D02*
X48062Y-35989D01*
X48076Y-35975D01*
X48105Y-35960D01*
X48133Y-35960D01*
X48233Y-36046D02*
X48462Y-36046D01*
X48762Y-35875D02*
X48733Y-35860D01*
X48690Y-35860D01*
X48647Y-35875D01*
X48619Y-35903D01*
X48604Y-35932D01*
X48590Y-35989D01*
X48590Y-36032D01*
X48604Y-36089D01*
X48619Y-36118D01*
X48647Y-36146D01*
X48690Y-36160D01*
X48719Y-36160D01*
X48762Y-36146D01*
X48776Y-36132D01*
X48776Y-36032D01*
X48719Y-36032D01*
X48904Y-36160D02*
X48904Y-35860D01*
X49076Y-36160D01*
X49076Y-35860D01*
X49218Y-36160D02*
X49218Y-35860D01*
X49290Y-35860D01*
X49333Y-35875D01*
X49361Y-35903D01*
X49376Y-35932D01*
X49390Y-35989D01*
X49390Y-36032D01*
X49376Y-36089D01*
X49361Y-36118D01*
X49333Y-36146D01*
X49290Y-36160D01*
X49218Y-36160D01*
X48376Y-37703D02*
X48547Y-37703D01*
X48461Y-38003D02*
X48461Y-37703D01*
X48647Y-38003D02*
X48647Y-37703D01*
X48762Y-37703D01*
X48790Y-37718D01*
X48805Y-37732D01*
X48819Y-37761D01*
X48819Y-37803D01*
X48805Y-37832D01*
X48790Y-37846D01*
X48762Y-37861D01*
X48647Y-37861D01*
X48933Y-37989D02*
X48976Y-38003D01*
X49047Y-38003D01*
X49076Y-37989D01*
X49090Y-37975D01*
X49105Y-37946D01*
X49105Y-37918D01*
X49090Y-37889D01*
X49076Y-37875D01*
X49047Y-37861D01*
X48990Y-37846D01*
X48962Y-37832D01*
X48947Y-37818D01*
X48933Y-37789D01*
X48933Y-37761D01*
X48947Y-37732D01*
X48962Y-37718D01*
X48990Y-37703D01*
X49062Y-37703D01*
X49105Y-37718D01*
X49233Y-37889D02*
X49462Y-37889D01*
X49747Y-37703D02*
X49604Y-37703D01*
X49590Y-37846D01*
X49604Y-37832D01*
X49633Y-37818D01*
X49704Y-37818D01*
X49733Y-37832D01*
X49747Y-37846D01*
X49762Y-37875D01*
X49762Y-37946D01*
X49747Y-37975D01*
X49733Y-37989D01*
X49704Y-38003D01*
X49633Y-38003D01*
X49604Y-37989D01*
X49590Y-37975D01*
X49862Y-37803D02*
X49933Y-38003D01*
X50005Y-37803D01*
G54D16*
X54638Y-38172D02*
X54673Y-38184D01*
X54733Y-38184D01*
X54757Y-38172D01*
X54769Y-38160D01*
X54780Y-38137D01*
X54780Y-38113D01*
X54769Y-38089D01*
X54757Y-38077D01*
X54733Y-38065D01*
X54685Y-38053D01*
X54661Y-38041D01*
X54650Y-38029D01*
X54638Y-38006D01*
X54638Y-37982D01*
X54650Y-37958D01*
X54661Y-37946D01*
X54685Y-37934D01*
X54745Y-37934D01*
X54780Y-37946D01*
X54983Y-38172D02*
X54959Y-38184D01*
X54911Y-38184D01*
X54888Y-38172D01*
X54876Y-38148D01*
X54876Y-38053D01*
X54888Y-38029D01*
X54911Y-38018D01*
X54959Y-38018D01*
X54983Y-38029D01*
X54995Y-38053D01*
X54995Y-38077D01*
X54876Y-38101D01*
X55102Y-38018D02*
X55102Y-38184D01*
X55102Y-38041D02*
X55113Y-38029D01*
X55137Y-38018D01*
X55173Y-38018D01*
X55197Y-38029D01*
X55209Y-38053D01*
X55209Y-38184D01*
X55316Y-38172D02*
X55339Y-38184D01*
X55387Y-38184D01*
X55411Y-38172D01*
X55423Y-38148D01*
X55423Y-38137D01*
X55411Y-38113D01*
X55387Y-38101D01*
X55351Y-38101D01*
X55328Y-38089D01*
X55316Y-38065D01*
X55316Y-38053D01*
X55328Y-38029D01*
X55351Y-38018D01*
X55387Y-38018D01*
X55411Y-38029D01*
X55565Y-38184D02*
X55541Y-38172D01*
X55530Y-38160D01*
X55518Y-38137D01*
X55518Y-38065D01*
X55530Y-38041D01*
X55541Y-38029D01*
X55565Y-38018D01*
X55601Y-38018D01*
X55625Y-38029D01*
X55637Y-38041D01*
X55649Y-38065D01*
X55649Y-38137D01*
X55637Y-38160D01*
X55625Y-38172D01*
X55601Y-38184D01*
X55565Y-38184D01*
X55756Y-38184D02*
X55756Y-38018D01*
X55756Y-38065D02*
X55767Y-38041D01*
X55779Y-38029D01*
X55803Y-38018D01*
X55827Y-38018D01*
X55911Y-38089D02*
X56101Y-38089D01*
X56351Y-37946D02*
X56328Y-37934D01*
X56292Y-37934D01*
X56256Y-37946D01*
X56232Y-37970D01*
X56221Y-37994D01*
X56209Y-38041D01*
X56209Y-38077D01*
X56221Y-38125D01*
X56232Y-38148D01*
X56256Y-38172D01*
X56292Y-38184D01*
X56316Y-38184D01*
X56351Y-38172D01*
X56363Y-38160D01*
X56363Y-38077D01*
X56316Y-38077D01*
X56471Y-38184D02*
X56471Y-37934D01*
X56613Y-38184D01*
X56613Y-37934D01*
X56733Y-38184D02*
X56733Y-37934D01*
X56792Y-37934D01*
X56828Y-37946D01*
X56852Y-37970D01*
X56863Y-37994D01*
X56875Y-38041D01*
X56875Y-38077D01*
X56863Y-38125D01*
X56852Y-38148D01*
X56828Y-38172D01*
X56792Y-38184D01*
X56733Y-38184D01*
G54D12*
X56987Y-36844D02*
X56958Y-36829D01*
X56915Y-36829D01*
X56872Y-36844D01*
X56844Y-36872D01*
X56829Y-36901D01*
X56815Y-36958D01*
X56815Y-37001D01*
X56829Y-37058D01*
X56844Y-37087D01*
X56872Y-37115D01*
X56915Y-37129D01*
X56944Y-37129D01*
X56987Y-37115D01*
X57001Y-37101D01*
X57001Y-37001D01*
X56944Y-37001D01*
X57129Y-37129D02*
X57129Y-36829D01*
X57301Y-37129D01*
X57301Y-36829D01*
X57443Y-37129D02*
X57443Y-36829D01*
X57515Y-36829D01*
X57558Y-36844D01*
X57586Y-36872D01*
X57601Y-36901D01*
X57615Y-36958D01*
X57615Y-37001D01*
X57601Y-37058D01*
X57586Y-37087D01*
X57558Y-37115D01*
X57515Y-37129D01*
X57443Y-37129D01*
X57729Y-36858D02*
X57743Y-36844D01*
X57772Y-36829D01*
X57843Y-36829D01*
X57872Y-36844D01*
X57886Y-36858D01*
X57901Y-36887D01*
X57901Y-36915D01*
X57886Y-36958D01*
X57715Y-37129D01*
X57901Y-37129D01*
X53646Y-35356D02*
X53817Y-35356D01*
X53731Y-35656D02*
X53731Y-35356D01*
X53917Y-35656D02*
X53917Y-35356D01*
X54032Y-35356D01*
X54060Y-35371D01*
X54075Y-35385D01*
X54089Y-35414D01*
X54089Y-35456D01*
X54075Y-35485D01*
X54060Y-35499D01*
X54032Y-35514D01*
X53917Y-35514D01*
X54203Y-35642D02*
X54246Y-35656D01*
X54317Y-35656D01*
X54346Y-35642D01*
X54360Y-35628D01*
X54375Y-35599D01*
X54375Y-35571D01*
X54360Y-35542D01*
X54346Y-35528D01*
X54317Y-35514D01*
X54260Y-35499D01*
X54232Y-35485D01*
X54217Y-35471D01*
X54203Y-35442D01*
X54203Y-35414D01*
X54217Y-35385D01*
X54232Y-35371D01*
X54260Y-35356D01*
X54332Y-35356D01*
X54375Y-35371D01*
G54D16*
X57102Y-32817D02*
X57137Y-32829D01*
X57197Y-32829D01*
X57221Y-32817D01*
X57233Y-32805D01*
X57244Y-32782D01*
X57244Y-32758D01*
X57233Y-32734D01*
X57221Y-32722D01*
X57197Y-32710D01*
X57149Y-32698D01*
X57125Y-32686D01*
X57114Y-32674D01*
X57102Y-32651D01*
X57102Y-32627D01*
X57114Y-32603D01*
X57125Y-32591D01*
X57149Y-32579D01*
X57209Y-32579D01*
X57244Y-32591D01*
X57447Y-32817D02*
X57423Y-32829D01*
X57375Y-32829D01*
X57352Y-32817D01*
X57340Y-32793D01*
X57340Y-32698D01*
X57352Y-32674D01*
X57375Y-32663D01*
X57423Y-32663D01*
X57447Y-32674D01*
X57459Y-32698D01*
X57459Y-32722D01*
X57340Y-32746D01*
X57566Y-32663D02*
X57566Y-32829D01*
X57566Y-32686D02*
X57577Y-32674D01*
X57601Y-32663D01*
X57637Y-32663D01*
X57661Y-32674D01*
X57673Y-32698D01*
X57673Y-32829D01*
X57780Y-32817D02*
X57803Y-32829D01*
X57851Y-32829D01*
X57875Y-32817D01*
X57887Y-32793D01*
X57887Y-32782D01*
X57875Y-32758D01*
X57851Y-32746D01*
X57815Y-32746D01*
X57792Y-32734D01*
X57780Y-32710D01*
X57780Y-32698D01*
X57792Y-32674D01*
X57815Y-32663D01*
X57851Y-32663D01*
X57875Y-32674D01*
X58029Y-32829D02*
X58005Y-32817D01*
X57994Y-32805D01*
X57982Y-32782D01*
X57982Y-32710D01*
X57994Y-32686D01*
X58005Y-32674D01*
X58029Y-32663D01*
X58065Y-32663D01*
X58089Y-32674D01*
X58101Y-32686D01*
X58113Y-32710D01*
X58113Y-32782D01*
X58101Y-32805D01*
X58089Y-32817D01*
X58065Y-32829D01*
X58029Y-32829D01*
X58220Y-32829D02*
X58220Y-32663D01*
X58220Y-32710D02*
X58231Y-32686D01*
X58243Y-32674D01*
X58267Y-32663D01*
X58291Y-32663D01*
X58375Y-32734D02*
X58565Y-32734D01*
X58815Y-32591D02*
X58792Y-32579D01*
X58756Y-32579D01*
X58720Y-32591D01*
X58696Y-32615D01*
X58685Y-32639D01*
X58673Y-32686D01*
X58673Y-32722D01*
X58685Y-32770D01*
X58696Y-32793D01*
X58720Y-32817D01*
X58756Y-32829D01*
X58780Y-32829D01*
X58815Y-32817D01*
X58827Y-32805D01*
X58827Y-32722D01*
X58780Y-32722D01*
X58935Y-32829D02*
X58935Y-32579D01*
X59077Y-32829D01*
X59077Y-32579D01*
X59197Y-32829D02*
X59197Y-32579D01*
X59256Y-32579D01*
X59292Y-32591D01*
X59316Y-32615D01*
X59327Y-32639D01*
X59339Y-32686D01*
X59339Y-32722D01*
X59327Y-32770D01*
X59316Y-32793D01*
X59292Y-32817D01*
X59256Y-32829D01*
X59197Y-32829D01*
G54D12*
X54230Y-21763D02*
X54230Y-21463D01*
X54330Y-21678D01*
X54430Y-21463D01*
X54430Y-21763D01*
X54559Y-21678D02*
X54702Y-21678D01*
X54531Y-21763D02*
X54631Y-21463D01*
X54731Y-21763D01*
X54930Y-21606D02*
X54830Y-21606D01*
X54830Y-21763D02*
X54830Y-21463D01*
X54973Y-21463D01*
G54D16*
X25804Y-37721D02*
X25804Y-37971D01*
X25792Y-38021D01*
X25768Y-38054D01*
X25733Y-38071D01*
X25709Y-38071D01*
X25911Y-37971D02*
X26030Y-37971D01*
X25887Y-38071D02*
X25970Y-37721D01*
X26053Y-38071D01*
X26267Y-37737D02*
X26244Y-37721D01*
X26208Y-37721D01*
X26172Y-37737D01*
X26148Y-37771D01*
X26137Y-37804D01*
X26125Y-37871D01*
X26125Y-37921D01*
X26137Y-37987D01*
X26148Y-38021D01*
X26172Y-38054D01*
X26208Y-38071D01*
X26232Y-38071D01*
X26267Y-38054D01*
X26279Y-38037D01*
X26279Y-37921D01*
X26232Y-37921D01*
X26565Y-37754D02*
X26577Y-37737D01*
X26600Y-37721D01*
X26660Y-37721D01*
X26684Y-37737D01*
X26696Y-37754D01*
X26707Y-37787D01*
X26707Y-37821D01*
X26696Y-37871D01*
X26553Y-38071D01*
X26707Y-38071D01*
X26862Y-37721D02*
X26886Y-37721D01*
X26910Y-37737D01*
X26922Y-37754D01*
X26934Y-37787D01*
X26945Y-37854D01*
X26945Y-37937D01*
X26934Y-38004D01*
X26922Y-38037D01*
X26910Y-38054D01*
X26886Y-38071D01*
X26862Y-38071D01*
X26838Y-38054D01*
X26826Y-38037D01*
X26815Y-38004D01*
X26803Y-37937D01*
X26803Y-37854D01*
X26815Y-37787D01*
X26826Y-37754D01*
X26838Y-37737D01*
X26862Y-37721D01*
X27183Y-38071D02*
X27041Y-38071D01*
X27112Y-38071D02*
X27112Y-37721D01*
X27088Y-37771D01*
X27064Y-37804D01*
X27041Y-37821D01*
X27279Y-37754D02*
X27291Y-37737D01*
X27314Y-37721D01*
X27374Y-37721D01*
X27398Y-37737D01*
X27410Y-37754D01*
X27421Y-37787D01*
X27421Y-37821D01*
X27410Y-37871D01*
X27267Y-38071D01*
X27421Y-38071D01*
G54D12*
X27623Y-25623D02*
X27673Y-25223D01*
X27654Y-25375D02*
X27685Y-25356D01*
X27742Y-25356D01*
X27769Y-25375D01*
X27780Y-25394D01*
X27790Y-25432D01*
X27775Y-25547D01*
X27757Y-25585D01*
X27740Y-25604D01*
X27709Y-25623D01*
X27652Y-25623D01*
X27625Y-25604D01*
X27899Y-25356D02*
X27937Y-25623D01*
X28042Y-25356D02*
X27937Y-25623D01*
X27897Y-25718D01*
X27879Y-25737D01*
X27849Y-25756D01*
X28352Y-25509D02*
X28495Y-25509D01*
X28310Y-25623D02*
X28460Y-25223D01*
X28510Y-25623D01*
X28642Y-25356D02*
X28609Y-25623D01*
X28637Y-25394D02*
X28655Y-25375D01*
X28685Y-25356D01*
X28728Y-25356D01*
X28755Y-25375D01*
X28764Y-25413D01*
X28738Y-25623D01*
X29009Y-25623D02*
X29059Y-25223D01*
X29011Y-25604D02*
X28980Y-25623D01*
X28923Y-25623D01*
X28897Y-25604D01*
X28885Y-25585D01*
X28875Y-25547D01*
X28890Y-25432D01*
X28908Y-25394D01*
X28926Y-25375D01*
X28956Y-25356D01*
X29013Y-25356D01*
X29040Y-25375D01*
X29156Y-25356D02*
X29194Y-25623D01*
X29299Y-25356D02*
X29194Y-25623D01*
X29154Y-25718D01*
X29136Y-25737D01*
X29106Y-25756D01*
X29814Y-25242D02*
X29788Y-25223D01*
X29745Y-25223D01*
X29699Y-25242D01*
X29667Y-25280D01*
X29647Y-25318D01*
X29623Y-25394D01*
X29616Y-25451D01*
X29621Y-25528D01*
X29631Y-25566D01*
X29654Y-25604D01*
X29695Y-25623D01*
X29724Y-25623D01*
X29769Y-25604D01*
X29786Y-25585D01*
X29802Y-25451D01*
X29745Y-25451D01*
X29952Y-25623D02*
X29926Y-25604D01*
X29914Y-25585D01*
X29904Y-25547D01*
X29919Y-25432D01*
X29937Y-25394D01*
X29955Y-25375D01*
X29985Y-25356D01*
X30028Y-25356D01*
X30055Y-25375D01*
X30066Y-25394D01*
X30076Y-25432D01*
X30061Y-25547D01*
X30043Y-25585D01*
X30026Y-25604D01*
X29995Y-25623D01*
X29952Y-25623D01*
X30168Y-25604D02*
X30195Y-25623D01*
X30252Y-25623D01*
X30282Y-25604D01*
X30302Y-25566D01*
X30304Y-25547D01*
X30294Y-25509D01*
X30268Y-25490D01*
X30225Y-25490D01*
X30199Y-25471D01*
X30190Y-25432D01*
X30192Y-25413D01*
X30211Y-25375D01*
X30242Y-25356D01*
X30285Y-25356D01*
X30311Y-25375D01*
X30411Y-25604D02*
X30438Y-25623D01*
X30495Y-25623D01*
X30525Y-25604D01*
X30545Y-25566D01*
X30547Y-25547D01*
X30537Y-25509D01*
X30511Y-25490D01*
X30468Y-25490D01*
X30442Y-25471D01*
X30433Y-25432D01*
X30435Y-25413D01*
X30454Y-25375D01*
X30485Y-25356D01*
X30528Y-25356D01*
X30554Y-25375D01*
G54D17*
X28255Y-23206D02*
X28139Y-24135D01*
X28064Y-24320D01*
X27943Y-24444D01*
X27779Y-24506D01*
X27674Y-24506D01*
X29088Y-24506D02*
X29173Y-23825D01*
X29136Y-23701D01*
X29039Y-23640D01*
X28830Y-23640D01*
X28717Y-23701D01*
X29095Y-24444D02*
X28984Y-24506D01*
X28722Y-24506D01*
X28624Y-24444D01*
X28588Y-24320D01*
X28603Y-24197D01*
X28671Y-24073D01*
X28783Y-24011D01*
X29045Y-24011D01*
X29157Y-23949D01*
X30191Y-23640D02*
X30059Y-24692D01*
X29992Y-24816D01*
X29932Y-24878D01*
X29819Y-24940D01*
X29662Y-24940D01*
X29565Y-24878D01*
X30090Y-24444D02*
X29979Y-24506D01*
X29769Y-24506D01*
X29671Y-24444D01*
X29627Y-24382D01*
X29590Y-24259D01*
X29637Y-23887D01*
X29704Y-23763D01*
X29764Y-23701D01*
X29877Y-23640D01*
X30087Y-23640D01*
X30183Y-23701D01*
X31186Y-23640D02*
X31078Y-24506D01*
X30715Y-23640D02*
X30630Y-24320D01*
X30666Y-24444D01*
X30764Y-24506D01*
X30921Y-24506D01*
X31033Y-24444D01*
X31093Y-24382D01*
X32073Y-24506D02*
X32158Y-23825D01*
X32121Y-23701D01*
X32024Y-23640D01*
X31815Y-23640D01*
X31702Y-23701D01*
X32080Y-24444D02*
X31969Y-24506D01*
X31707Y-24506D01*
X31609Y-24444D01*
X31573Y-24320D01*
X31588Y-24197D01*
X31656Y-24073D01*
X31768Y-24011D01*
X32030Y-24011D01*
X32142Y-23949D01*
X32597Y-24506D02*
X32705Y-23640D01*
X32674Y-23887D02*
X32741Y-23763D01*
X32802Y-23701D01*
X32914Y-23640D01*
X33019Y-23640D01*
G54D12*
X34935Y-11471D02*
X34935Y-11171D01*
X35236Y-11186D02*
X35207Y-11171D01*
X35164Y-11171D01*
X35121Y-11186D01*
X35093Y-11214D01*
X35078Y-11243D01*
X35064Y-11300D01*
X35064Y-11343D01*
X35078Y-11400D01*
X35093Y-11429D01*
X35121Y-11457D01*
X35164Y-11471D01*
X35193Y-11471D01*
X35236Y-11457D01*
X35250Y-11443D01*
X35250Y-11343D01*
X35193Y-11343D01*
X35364Y-11200D02*
X35378Y-11186D01*
X35407Y-11171D01*
X35478Y-11171D01*
X35507Y-11186D01*
X35521Y-11200D01*
X35536Y-11229D01*
X35536Y-11257D01*
X35521Y-11300D01*
X35350Y-11471D01*
X35536Y-11471D01*
X34939Y-10298D02*
X34939Y-09998D01*
X35240Y-10013D02*
X35211Y-09998D01*
X35168Y-09998D01*
X35125Y-10013D01*
X35097Y-10041D01*
X35082Y-10070D01*
X35068Y-10127D01*
X35068Y-10170D01*
X35082Y-10227D01*
X35097Y-10256D01*
X35125Y-10284D01*
X35168Y-10298D01*
X35197Y-10298D01*
X35240Y-10284D01*
X35254Y-10270D01*
X35254Y-10170D01*
X35197Y-10170D01*
X35540Y-10298D02*
X35368Y-10298D01*
X35454Y-10298D02*
X35454Y-09998D01*
X35425Y-10041D01*
X35397Y-10070D01*
X35368Y-10084D01*
X23794Y-12712D02*
X23794Y-12412D01*
X24095Y-12427D02*
X24066Y-12412D01*
X24023Y-12412D01*
X23980Y-12427D01*
X23952Y-12455D01*
X23937Y-12484D01*
X23923Y-12541D01*
X23923Y-12584D01*
X23937Y-12641D01*
X23952Y-12670D01*
X23980Y-12698D01*
X24023Y-12712D01*
X24052Y-12712D01*
X24095Y-12698D01*
X24109Y-12684D01*
X24109Y-12584D01*
X24052Y-12584D01*
X24209Y-12412D02*
X24395Y-12412D01*
X24295Y-12527D01*
X24337Y-12527D01*
X24366Y-12541D01*
X24380Y-12555D01*
X24395Y-12584D01*
X24395Y-12655D01*
X24380Y-12684D01*
X24366Y-12698D01*
X24337Y-12712D01*
X24252Y-12712D01*
X24223Y-12698D01*
X24209Y-12684D01*
X23821Y-11593D02*
X23821Y-11293D01*
X24122Y-11308D02*
X24093Y-11293D01*
X24050Y-11293D01*
X24007Y-11308D01*
X23979Y-11336D01*
X23964Y-11365D01*
X23950Y-11422D01*
X23950Y-11465D01*
X23964Y-11522D01*
X23979Y-11551D01*
X24007Y-11579D01*
X24050Y-11593D01*
X24079Y-11593D01*
X24122Y-11579D01*
X24136Y-11565D01*
X24136Y-11465D01*
X24079Y-11465D01*
X24393Y-11393D02*
X24393Y-11593D01*
X24322Y-11279D02*
X24250Y-11493D01*
X24436Y-11493D01*
X29290Y-13534D02*
X29290Y-13234D01*
X29562Y-13334D02*
X29562Y-13577D01*
X29548Y-13606D01*
X29533Y-13620D01*
X29505Y-13634D01*
X29462Y-13634D01*
X29433Y-13620D01*
X29562Y-13520D02*
X29533Y-13534D01*
X29476Y-13534D01*
X29448Y-13520D01*
X29433Y-13506D01*
X29419Y-13477D01*
X29419Y-13392D01*
X29433Y-13363D01*
X29448Y-13349D01*
X29476Y-13334D01*
X29533Y-13334D01*
X29562Y-13349D01*
X29704Y-13334D02*
X29704Y-13534D01*
X29704Y-13363D02*
X29719Y-13349D01*
X29747Y-13334D01*
X29790Y-13334D01*
X29819Y-13349D01*
X29833Y-13377D01*
X29833Y-13534D01*
X29975Y-13534D02*
X29975Y-13334D01*
X29975Y-13234D02*
X29961Y-13249D01*
X29975Y-13263D01*
X29990Y-13249D01*
X29975Y-13234D01*
X29975Y-13263D01*
X30076Y-13334D02*
X30190Y-13334D01*
X30118Y-13234D02*
X30118Y-13492D01*
X30133Y-13520D01*
X30161Y-13534D01*
X30190Y-13534D01*
X30332Y-13534D02*
X30304Y-13520D01*
X30289Y-13506D01*
X30275Y-13477D01*
X30275Y-13392D01*
X30289Y-13363D01*
X30304Y-13349D01*
X30332Y-13334D01*
X30375Y-13334D01*
X30404Y-13349D01*
X30418Y-13363D01*
X30432Y-13392D01*
X30432Y-13477D01*
X30418Y-13506D01*
X30404Y-13520D01*
X30375Y-13534D01*
X30332Y-13534D01*
X30560Y-13534D02*
X30560Y-13334D01*
X30560Y-13392D02*
X30575Y-13363D01*
X30589Y-13349D01*
X30618Y-13334D01*
X30646Y-13334D01*
X30732Y-13263D02*
X30746Y-13249D01*
X30775Y-13234D01*
X30846Y-13234D01*
X30875Y-13249D01*
X30889Y-13263D01*
X30904Y-13292D01*
X30904Y-13320D01*
X30889Y-13363D01*
X30718Y-13534D01*
X30904Y-13534D01*
X29168Y-10763D02*
X29168Y-10463D01*
X29440Y-10563D02*
X29440Y-10806D01*
X29426Y-10835D01*
X29411Y-10849D01*
X29383Y-10863D01*
X29340Y-10863D01*
X29311Y-10849D01*
X29440Y-10749D02*
X29411Y-10763D01*
X29354Y-10763D01*
X29326Y-10749D01*
X29311Y-10735D01*
X29297Y-10706D01*
X29297Y-10621D01*
X29311Y-10592D01*
X29326Y-10578D01*
X29354Y-10563D01*
X29411Y-10563D01*
X29440Y-10578D01*
X29582Y-10563D02*
X29582Y-10763D01*
X29582Y-10592D02*
X29597Y-10578D01*
X29625Y-10563D01*
X29668Y-10563D01*
X29697Y-10578D01*
X29711Y-10606D01*
X29711Y-10763D01*
X29853Y-10763D02*
X29853Y-10563D01*
X29853Y-10463D02*
X29839Y-10478D01*
X29853Y-10492D01*
X29868Y-10478D01*
X29853Y-10463D01*
X29853Y-10492D01*
X29954Y-10563D02*
X30068Y-10563D01*
X29996Y-10463D02*
X29996Y-10721D01*
X30011Y-10749D01*
X30039Y-10763D01*
X30068Y-10763D01*
X30210Y-10763D02*
X30182Y-10749D01*
X30167Y-10735D01*
X30153Y-10706D01*
X30153Y-10621D01*
X30167Y-10592D01*
X30182Y-10578D01*
X30210Y-10563D01*
X30253Y-10563D01*
X30282Y-10578D01*
X30296Y-10592D01*
X30310Y-10621D01*
X30310Y-10706D01*
X30296Y-10735D01*
X30282Y-10749D01*
X30253Y-10763D01*
X30210Y-10763D01*
X30438Y-10763D02*
X30438Y-10563D01*
X30438Y-10621D02*
X30453Y-10592D01*
X30467Y-10578D01*
X30496Y-10563D01*
X30524Y-10563D01*
X30782Y-10763D02*
X30610Y-10763D01*
X30696Y-10763D02*
X30696Y-10463D01*
X30667Y-10506D01*
X30639Y-10535D01*
X30610Y-10549D01*
X18791Y-13684D02*
X18791Y-13384D01*
X19063Y-13484D02*
X19063Y-13727D01*
X19049Y-13756D01*
X19034Y-13770D01*
X19006Y-13784D01*
X18963Y-13784D01*
X18934Y-13770D01*
X19063Y-13670D02*
X19034Y-13684D01*
X18977Y-13684D01*
X18949Y-13670D01*
X18934Y-13656D01*
X18920Y-13627D01*
X18920Y-13542D01*
X18934Y-13513D01*
X18949Y-13499D01*
X18977Y-13484D01*
X19034Y-13484D01*
X19063Y-13499D01*
X19205Y-13484D02*
X19205Y-13684D01*
X19205Y-13513D02*
X19220Y-13499D01*
X19248Y-13484D01*
X19291Y-13484D01*
X19320Y-13499D01*
X19334Y-13527D01*
X19334Y-13684D01*
X19476Y-13684D02*
X19476Y-13484D01*
X19476Y-13384D02*
X19462Y-13399D01*
X19476Y-13413D01*
X19491Y-13399D01*
X19476Y-13384D01*
X19476Y-13413D01*
X19577Y-13484D02*
X19691Y-13484D01*
X19619Y-13384D02*
X19619Y-13642D01*
X19634Y-13670D01*
X19662Y-13684D01*
X19691Y-13684D01*
X19833Y-13684D02*
X19805Y-13670D01*
X19790Y-13656D01*
X19776Y-13627D01*
X19776Y-13542D01*
X19790Y-13513D01*
X19805Y-13499D01*
X19833Y-13484D01*
X19876Y-13484D01*
X19905Y-13499D01*
X19919Y-13513D01*
X19933Y-13542D01*
X19933Y-13627D01*
X19919Y-13656D01*
X19905Y-13670D01*
X19876Y-13684D01*
X19833Y-13684D01*
X20061Y-13684D02*
X20061Y-13484D01*
X20061Y-13542D02*
X20076Y-13513D01*
X20090Y-13499D01*
X20119Y-13484D01*
X20147Y-13484D01*
X20219Y-13384D02*
X20405Y-13384D01*
X20305Y-13499D01*
X20347Y-13499D01*
X20376Y-13513D01*
X20390Y-13527D01*
X20405Y-13556D01*
X20405Y-13627D01*
X20390Y-13656D01*
X20376Y-13670D01*
X20347Y-13684D01*
X20262Y-13684D01*
X20233Y-13670D01*
X20219Y-13656D01*
X18771Y-10759D02*
X18771Y-10459D01*
X19043Y-10559D02*
X19043Y-10802D01*
X19029Y-10831D01*
X19014Y-10845D01*
X18986Y-10859D01*
X18943Y-10859D01*
X18914Y-10845D01*
X19043Y-10745D02*
X19014Y-10759D01*
X18957Y-10759D01*
X18929Y-10745D01*
X18914Y-10731D01*
X18900Y-10702D01*
X18900Y-10617D01*
X18914Y-10588D01*
X18929Y-10574D01*
X18957Y-10559D01*
X19014Y-10559D01*
X19043Y-10574D01*
X19185Y-10559D02*
X19185Y-10759D01*
X19185Y-10588D02*
X19200Y-10574D01*
X19228Y-10559D01*
X19271Y-10559D01*
X19300Y-10574D01*
X19314Y-10602D01*
X19314Y-10759D01*
X19456Y-10759D02*
X19456Y-10559D01*
X19456Y-10459D02*
X19442Y-10474D01*
X19456Y-10488D01*
X19471Y-10474D01*
X19456Y-10459D01*
X19456Y-10488D01*
X19557Y-10559D02*
X19671Y-10559D01*
X19599Y-10459D02*
X19599Y-10717D01*
X19614Y-10745D01*
X19642Y-10759D01*
X19671Y-10759D01*
X19813Y-10759D02*
X19785Y-10745D01*
X19770Y-10731D01*
X19756Y-10702D01*
X19756Y-10617D01*
X19770Y-10588D01*
X19785Y-10574D01*
X19813Y-10559D01*
X19856Y-10559D01*
X19885Y-10574D01*
X19899Y-10588D01*
X19913Y-10617D01*
X19913Y-10702D01*
X19899Y-10731D01*
X19885Y-10745D01*
X19856Y-10759D01*
X19813Y-10759D01*
X20041Y-10759D02*
X20041Y-10559D01*
X20041Y-10617D02*
X20056Y-10588D01*
X20070Y-10574D01*
X20099Y-10559D01*
X20127Y-10559D01*
X20356Y-10559D02*
X20356Y-10759D01*
X20285Y-10445D02*
X20213Y-10659D01*
X20399Y-10659D01*
G54D11*
X24567Y-13169D02*
X24567Y-10197D01*
X34535Y-17713D02*
X34535Y-21319D01*
X34531Y-17713D02*
X34535Y-17713D01*
X35260Y-17713D02*
X34531Y-17713D01*
X35260Y-16622D02*
X35260Y-17713D01*
G54D15*
X34680Y-13895D02*
X34680Y-13666D01*
X34680Y-13780D02*
X35080Y-13780D01*
X35023Y-13742D01*
X34985Y-13704D01*
X34966Y-13666D01*
G54D12*
X26938Y-23039D02*
X26938Y-22867D01*
X26938Y-22953D02*
X27238Y-22953D01*
X27195Y-22924D01*
X27166Y-22896D01*
X27152Y-22867D01*
G54D11*
X27770Y-13850D02*
X27930Y-13850D01*
X27770Y-14840D02*
X27770Y-13850D01*
X54920Y-37850D02*
X54920Y-36810D01*
X54110Y-37850D02*
X54920Y-37850D01*
X54110Y-38270D02*
X54110Y-37850D01*
X54550Y-35210D02*
X56860Y-35210D01*
X54550Y-35050D02*
X54550Y-35210D01*
X56860Y-34010D02*
X59450Y-34010D01*
X56860Y-36680D02*
X56860Y-34010D01*
X56690Y-36680D02*
X56860Y-36680D01*
X56690Y-36810D02*
X56690Y-36680D01*
X54920Y-36810D02*
X56690Y-36810D01*
X59450Y-33900D02*
X59450Y-34010D01*
X61860Y-33900D02*
X59450Y-33900D01*
X61860Y-33500D02*
X61860Y-33900D01*
X62740Y-33500D02*
X61860Y-33500D01*
X62740Y-33980D02*
X62740Y-33500D01*
X63730Y-33980D02*
X62740Y-33980D01*
X50330Y-35270D02*
X50320Y-35270D01*
X50330Y-32620D02*
X50330Y-35270D01*
X52890Y-32510D02*
X52890Y-32500D01*
X51850Y-32510D02*
X52890Y-32510D01*
X51850Y-32620D02*
X51850Y-32510D01*
X50330Y-32620D02*
X51850Y-32620D01*
X52890Y-31260D02*
X52890Y-31270D01*
X51780Y-31260D02*
X52890Y-31260D01*
X51780Y-30340D02*
X51780Y-31260D01*
X47500Y-32110D02*
X47500Y-33410D01*
X50330Y-35260D02*
X50320Y-35260D01*
X50330Y-35730D02*
X50330Y-35260D01*
X47200Y-35730D02*
X50330Y-35730D01*
X47230Y-33420D02*
X47480Y-33420D01*
X47230Y-35730D02*
X47230Y-33420D01*
X44400Y-35730D02*
X47230Y-35730D01*
X46570Y-36750D02*
X46570Y-36740D01*
X46570Y-35730D02*
X46570Y-36750D01*
X47000Y-36750D02*
X47000Y-38270D01*
X46570Y-36750D02*
X47000Y-36750D01*
X44400Y-33730D02*
X44400Y-35730D01*
X44170Y-29820D02*
X44170Y-29830D01*
X42930Y-29820D02*
X44170Y-29820D01*
X44170Y-29820D02*
X44150Y-29820D01*
X44170Y-33080D02*
X44170Y-29820D01*
X43570Y-33080D02*
X44170Y-33080D01*
X43570Y-33540D02*
X43570Y-33080D01*
X44400Y-33690D02*
X44400Y-33730D01*
X43570Y-33690D02*
X44400Y-33690D01*
X43570Y-33530D02*
X43570Y-33690D01*
X42280Y-33530D02*
X43570Y-33530D01*
X42280Y-33530D02*
X42290Y-33530D01*
X42280Y-30410D02*
X42280Y-33530D01*
X42120Y-30410D02*
X42280Y-30410D01*
X42120Y-30410D02*
X39810Y-30410D01*
X39800Y-27750D02*
X39750Y-27750D01*
X39800Y-31140D02*
X39800Y-27750D01*
X39760Y-31140D02*
X39800Y-31140D01*
X36880Y-38260D02*
X36880Y-38270D01*
X27660Y-38260D02*
X36880Y-38260D01*
X27661Y-34848D02*
X27661Y-38268D01*
X27303Y-34493D02*
X27673Y-34863D01*
X27299Y-33082D02*
X27299Y-34482D01*
X27786Y-32591D02*
X27296Y-33081D01*
X27780Y-32130D02*
X27780Y-32580D01*
X35170Y-27390D02*
X35170Y-26790D01*
X33590Y-27390D02*
X33590Y-26480D01*
X30080Y-26480D02*
X33590Y-26480D01*
X30080Y-26620D02*
X30080Y-26480D01*
X28850Y-26620D02*
X30080Y-26620D01*
X28570Y-26620D02*
X28850Y-26620D01*
X28570Y-27600D02*
X28570Y-26620D01*
G54D12*
X28018Y-30751D02*
X28075Y-30751D01*
X28103Y-30766D01*
X28132Y-30794D01*
X28146Y-30851D01*
X28146Y-30951D01*
X28132Y-31009D01*
X28103Y-31037D01*
X28075Y-31051D01*
X28018Y-31051D01*
X27989Y-31037D01*
X27960Y-31009D01*
X27946Y-30951D01*
X27946Y-30851D01*
X27960Y-30794D01*
X27989Y-30766D01*
X28018Y-30751D01*
X28274Y-30751D02*
X28274Y-30994D01*
X28289Y-31023D01*
X28303Y-31037D01*
X28332Y-31051D01*
X28389Y-31051D01*
X28417Y-31037D01*
X28432Y-31023D01*
X28446Y-30994D01*
X28446Y-30751D01*
X28546Y-30751D02*
X28717Y-30751D01*
X28631Y-31051D02*
X28631Y-30751D01*
X28817Y-30937D02*
X29046Y-30937D01*
X29346Y-30766D02*
X29317Y-30751D01*
X29274Y-30751D01*
X29231Y-30766D01*
X29203Y-30794D01*
X29188Y-30823D01*
X29174Y-30880D01*
X29174Y-30923D01*
X29188Y-30980D01*
X29203Y-31009D01*
X29231Y-31037D01*
X29274Y-31051D01*
X29303Y-31051D01*
X29346Y-31037D01*
X29360Y-31023D01*
X29360Y-30923D01*
X29303Y-30923D01*
X29488Y-31051D02*
X29488Y-30751D01*
X29660Y-31051D01*
X29660Y-30751D01*
X29802Y-31051D02*
X29802Y-30751D01*
X29874Y-30751D01*
X29917Y-30766D01*
X29945Y-30794D01*
X29960Y-30823D01*
X29974Y-30880D01*
X29974Y-30923D01*
X29960Y-30980D01*
X29945Y-31009D01*
X29917Y-31037D01*
X29874Y-31051D01*
X29802Y-31051D01*
G54D11*
X27760Y-32130D02*
X27760Y-31980D01*
X30110Y-32130D02*
X27760Y-32130D01*
X27760Y-30580D02*
X27760Y-31990D01*
X28570Y-30580D02*
X27760Y-30580D01*
X30080Y-31680D02*
X30080Y-31620D01*
X30080Y-31550D02*
X30080Y-31680D01*
X30080Y-30580D02*
X30080Y-31550D01*
X28570Y-30580D02*
X30080Y-30580D01*
X28570Y-27600D02*
X28570Y-30580D01*
X25748Y-30480D02*
X26748Y-30480D01*
X25748Y-22480D02*
X25748Y-30480D01*
X26748Y-22480D02*
X25748Y-22480D01*
X26759Y-30491D02*
X26759Y-22491D01*
G54D12*
X26962Y-23414D02*
X27262Y-23414D01*
X27162Y-23557D02*
X26962Y-23557D01*
X27133Y-23557D02*
X27147Y-23572D01*
X27162Y-23600D01*
X27162Y-23643D01*
X27147Y-23672D01*
X27119Y-23686D01*
X26962Y-23686D01*
X27162Y-23828D02*
X26904Y-23828D01*
X26876Y-23814D01*
X26862Y-23786D01*
X26862Y-23771D01*
X27262Y-23828D02*
X27247Y-23814D01*
X27233Y-23828D01*
X27247Y-23843D01*
X27262Y-23828D01*
X27233Y-23828D01*
X26976Y-24086D02*
X26962Y-24057D01*
X26962Y-24000D01*
X26976Y-23971D01*
X27004Y-23957D01*
X27119Y-23957D01*
X27147Y-23971D01*
X27162Y-24000D01*
X27162Y-24057D01*
X27147Y-24086D01*
X27119Y-24100D01*
X27090Y-24100D01*
X27062Y-23957D01*
X26976Y-24357D02*
X26962Y-24328D01*
X26962Y-24271D01*
X26976Y-24243D01*
X26990Y-24228D01*
X27019Y-24214D01*
X27104Y-24214D01*
X27133Y-24228D01*
X27147Y-24243D01*
X27162Y-24271D01*
X27162Y-24328D01*
X27147Y-24357D01*
X27162Y-24443D02*
X27162Y-24557D01*
X27262Y-24485D02*
X27004Y-24485D01*
X26976Y-24500D01*
X26962Y-24528D01*
X26962Y-24557D01*
X26962Y-24699D02*
X26976Y-24671D01*
X26990Y-24656D01*
X27019Y-24642D01*
X27104Y-24642D01*
X27133Y-24656D01*
X27147Y-24671D01*
X27162Y-24699D01*
X27162Y-24742D01*
X27147Y-24771D01*
X27133Y-24785D01*
X27104Y-24799D01*
X27019Y-24799D01*
X26990Y-24785D01*
X26976Y-24771D01*
X26962Y-24742D01*
X26962Y-24699D01*
X26962Y-24927D02*
X27162Y-24927D01*
X27104Y-24927D02*
X27133Y-24942D01*
X27147Y-24956D01*
X27162Y-24985D01*
X27162Y-25013D01*
X26976Y-25099D02*
X26962Y-25128D01*
X26962Y-25185D01*
X26976Y-25213D01*
X27004Y-25228D01*
X27019Y-25228D01*
X27047Y-25213D01*
X27062Y-25185D01*
X27062Y-25142D01*
X27076Y-25113D01*
X27104Y-25099D01*
X27119Y-25099D01*
X27147Y-25113D01*
X27162Y-25142D01*
X27162Y-25185D01*
X27147Y-25213D01*
X27076Y-25356D02*
X27076Y-25585D01*
X26962Y-25727D02*
X27262Y-25727D01*
X26962Y-25870D02*
X27262Y-25870D01*
X26962Y-26042D01*
X27262Y-26042D01*
G54D11*
X48200Y-16020D02*
X48200Y-16530D01*
X46730Y-16020D02*
X48200Y-16020D01*
X46030Y-16720D02*
X46730Y-16020D01*
X42280Y-16720D02*
X46030Y-16720D01*
X42280Y-14960D02*
X42280Y-16720D01*
X39040Y-16500D02*
X38970Y-16500D01*
X39040Y-15020D02*
X39040Y-16500D01*
X52310Y-09900D02*
X52310Y-09910D01*
X13810Y-09900D02*
X52310Y-09900D01*
X30450Y-13850D02*
X27940Y-13850D01*
X30590Y-13990D02*
X30450Y-13850D01*
X33380Y-13990D02*
X30590Y-13990D01*
X52240Y-16200D02*
X52310Y-16130D01*
X52240Y-17990D02*
X52240Y-16200D01*
X52240Y-20890D02*
X52230Y-20890D01*
X52240Y-18000D02*
X52240Y-20890D01*
X49520Y-20900D02*
X49520Y-23830D01*
X49760Y-23840D02*
X49760Y-23880D01*
X49200Y-23840D02*
X49760Y-23840D01*
X49120Y-23920D02*
X49200Y-23840D01*
X49120Y-24690D02*
X49120Y-23920D01*
X49050Y-24760D02*
X49120Y-24690D01*
X48870Y-24760D02*
X49050Y-24760D01*
X48730Y-24900D02*
X48870Y-24760D01*
X48730Y-27620D02*
X48730Y-24900D01*
X50630Y-27620D02*
X50630Y-27610D01*
X48740Y-27620D02*
X50630Y-27620D01*
X55210Y-25360D02*
X55210Y-24140D01*
X53910Y-25360D02*
X55210Y-25360D01*
X50630Y-25970D02*
X52060Y-25970D01*
X50630Y-30340D02*
X50630Y-25970D01*
X51950Y-23860D02*
X49760Y-23860D01*
X53900Y-23860D02*
X53900Y-23820D01*
X51960Y-23860D02*
X53900Y-23860D01*
X53900Y-21620D02*
X53900Y-23800D01*
G54D18*
X49176Y-25963D02*
X49176Y-25363D01*
X49376Y-25791D01*
X49576Y-25363D01*
X49576Y-25963D01*
X49833Y-25791D02*
X50119Y-25791D01*
X49776Y-25963D02*
X49976Y-25363D01*
X50176Y-25963D01*
X50576Y-25649D02*
X50376Y-25649D01*
X50376Y-25963D02*
X50376Y-25363D01*
X50662Y-25363D01*
G54D16*
X59291Y-30573D02*
X59291Y-30323D01*
X59374Y-30502D01*
X59457Y-30323D01*
X59457Y-30573D01*
X59565Y-30502D02*
X59684Y-30502D01*
X59541Y-30573D02*
X59624Y-30323D01*
X59707Y-30573D01*
X59791Y-30573D02*
X59791Y-30323D01*
X59886Y-30323D01*
X59910Y-30335D01*
X59921Y-30347D01*
X59933Y-30371D01*
X59933Y-30407D01*
X59921Y-30430D01*
X59910Y-30442D01*
X59886Y-30454D01*
X59791Y-30454D01*
X59435Y-29233D02*
X59412Y-29221D01*
X59376Y-29221D01*
X59340Y-29233D01*
X59316Y-29257D01*
X59305Y-29281D01*
X59293Y-29328D01*
X59293Y-29364D01*
X59305Y-29412D01*
X59316Y-29435D01*
X59340Y-29459D01*
X59376Y-29471D01*
X59400Y-29471D01*
X59435Y-29459D01*
X59447Y-29447D01*
X59447Y-29364D01*
X59400Y-29364D01*
X59555Y-29471D02*
X59555Y-29221D01*
X59697Y-29471D01*
X59697Y-29221D01*
X59817Y-29471D02*
X59817Y-29221D01*
X59876Y-29221D01*
X59912Y-29233D01*
X59936Y-29257D01*
X59947Y-29281D01*
X59959Y-29328D01*
X59959Y-29364D01*
X59947Y-29412D01*
X59936Y-29435D01*
X59912Y-29459D01*
X59876Y-29471D01*
X59817Y-29471D01*
X59433Y-28119D02*
X59314Y-28119D01*
X59302Y-28238D01*
X59314Y-28226D01*
X59337Y-28214D01*
X59397Y-28214D01*
X59421Y-28226D01*
X59433Y-28238D01*
X59444Y-28262D01*
X59444Y-28322D01*
X59433Y-28345D01*
X59421Y-28357D01*
X59397Y-28369D01*
X59337Y-28369D01*
X59314Y-28357D01*
X59302Y-28345D01*
X59528Y-28203D02*
X59587Y-28369D01*
X59647Y-28203D01*
G54D11*
X36960Y-16500D02*
X36960Y-11650D01*
X39000Y-16500D02*
X36960Y-16500D01*
X33590Y-27390D02*
X35160Y-27390D01*
X30080Y-32100D02*
X30080Y-31910D01*
X30110Y-32130D02*
X30080Y-32100D01*
X32500Y-32130D02*
X30110Y-32130D01*
X32540Y-32090D02*
X32500Y-32130D01*
X32820Y-31810D02*
X32550Y-32080D01*
X30080Y-31890D02*
X30080Y-31910D01*
X32970Y-31650D02*
X32810Y-31810D01*
X52240Y-16200D02*
X52240Y-18020D01*
X52310Y-16130D02*
X52240Y-16200D01*
X17288Y-30550D02*
X17278Y-30550D01*
X30110Y-28330D02*
X30110Y-28340D01*
X48990Y-19170D02*
X49000Y-19170D01*
X48990Y-20000D02*
X48990Y-19170D01*
X48230Y-20000D02*
X48990Y-20000D01*
X48230Y-20580D02*
X48230Y-20000D01*
X47200Y-20580D02*
X48230Y-20580D01*
X47200Y-16530D02*
X47200Y-20580D01*
X48330Y-16530D02*
X47200Y-16530D01*
X47020Y-16830D02*
X47020Y-17830D01*
X39720Y-16830D02*
X47020Y-16830D01*
X39720Y-17840D02*
X39720Y-16830D01*
X47010Y-17840D02*
X39720Y-17840D01*
X35260Y-12620D02*
X33390Y-12620D01*
X35260Y-16620D02*
X35260Y-12620D01*
X33380Y-21320D02*
X34530Y-21320D01*
X33380Y-13850D02*
X33380Y-21320D01*
X39040Y-15020D02*
X39040Y-11630D01*
X44870Y-16720D02*
X42400Y-16720D01*
X49000Y-16530D02*
X48330Y-16530D01*
X49000Y-19170D02*
X49000Y-16530D01*
X56110Y-09870D02*
X56110Y-10920D01*
X63710Y-09870D02*
X56110Y-09870D01*
X63710Y-14120D02*
X63710Y-09870D01*
X55080Y-09900D02*
X52310Y-09900D01*
X56950Y-11770D02*
X55080Y-09900D01*
X56950Y-12740D02*
X56950Y-11770D01*
X58330Y-14120D02*
X56950Y-12740D01*
X63710Y-14120D02*
X58330Y-14120D01*
X60920Y-19480D02*
X63710Y-19480D01*
X63720Y-34040D02*
X63720Y-38130D01*
X63720Y-34010D02*
X63720Y-34030D01*
X63720Y-38080D02*
X63710Y-38090D01*
X63720Y-38270D02*
X63720Y-38080D01*
X54920Y-38270D02*
X63720Y-38270D01*
X53430Y-33620D02*
X50330Y-33620D01*
X53430Y-34220D02*
X53430Y-33620D01*
X54550Y-34220D02*
X53430Y-34220D01*
X54550Y-35070D02*
X54550Y-34220D01*
X56820Y-36680D02*
X56820Y-35070D01*
X47650Y-38270D02*
X54920Y-38270D01*
X52890Y-32510D02*
X52890Y-31260D01*
X47500Y-32070D02*
X47500Y-32100D01*
X42930Y-29820D02*
X42930Y-27790D01*
X44400Y-35730D02*
X44400Y-35720D01*
X39950Y-38270D02*
X47640Y-38270D01*
X37890Y-32780D02*
X37920Y-32780D01*
X41020Y-33530D02*
X42120Y-33530D01*
X41020Y-34270D02*
X41020Y-33530D01*
X39950Y-34270D02*
X41020Y-34270D01*
X39950Y-38270D02*
X39950Y-34270D01*
X36890Y-38270D02*
X39950Y-38270D01*
X37890Y-30560D02*
X37850Y-30560D01*
X37890Y-31140D02*
X37890Y-30560D01*
X39760Y-31140D02*
X37890Y-31140D01*
X35160Y-29100D02*
X35170Y-29100D01*
X35160Y-30550D02*
X35160Y-29100D01*
X37860Y-30550D02*
X35160Y-30550D01*
X37860Y-26790D02*
X37860Y-30550D01*
X35170Y-26790D02*
X37860Y-26790D01*
X35170Y-28030D02*
X35170Y-26790D01*
X30080Y-31680D02*
X30080Y-31900D01*
X31860Y-32790D02*
X31840Y-32790D01*
X34730Y-31620D02*
X34510Y-31620D01*
X35010Y-31900D02*
X34730Y-31620D01*
X35010Y-34860D02*
X35010Y-31900D01*
X33160Y-34860D02*
X35010Y-34860D01*
X36890Y-36370D02*
X36860Y-36370D01*
X36890Y-38270D02*
X36890Y-36370D01*
X31520Y-38270D02*
X36890Y-38270D01*
X27301Y-34484D02*
X27301Y-33554D01*
X27670Y-34864D02*
X27310Y-34504D01*
X27665Y-38276D02*
X27665Y-34836D01*
X31530Y-38280D02*
X27660Y-38280D01*
G54D15*
X25752Y-36658D02*
X26202Y-36525D01*
X25752Y-36391D01*
X26181Y-36105D02*
X26202Y-36143D01*
X26202Y-36220D01*
X26181Y-36258D01*
X26138Y-36277D01*
X25966Y-36277D01*
X25924Y-36258D01*
X25902Y-36220D01*
X25902Y-36143D01*
X25924Y-36105D01*
X25966Y-36086D01*
X26009Y-36086D01*
X26052Y-36277D01*
X26202Y-35915D02*
X25902Y-35915D01*
X25988Y-35915D02*
X25945Y-35896D01*
X25924Y-35877D01*
X25902Y-35839D01*
X25902Y-35800D01*
X26181Y-35686D02*
X26202Y-35648D01*
X26202Y-35572D01*
X26181Y-35533D01*
X26138Y-35514D01*
X26116Y-35514D01*
X26074Y-35533D01*
X26052Y-35572D01*
X26052Y-35629D01*
X26031Y-35667D01*
X25988Y-35686D01*
X25966Y-35686D01*
X25924Y-35667D01*
X25902Y-35629D01*
X25902Y-35572D01*
X25924Y-35533D01*
X26202Y-35343D02*
X25902Y-35343D01*
X25752Y-35343D02*
X25774Y-35362D01*
X25795Y-35343D01*
X25774Y-35324D01*
X25752Y-35343D01*
X25795Y-35343D01*
X26202Y-35096D02*
X26181Y-35134D01*
X26159Y-35153D01*
X26116Y-35172D01*
X25988Y-35172D01*
X25945Y-35153D01*
X25924Y-35134D01*
X25902Y-35096D01*
X25902Y-35038D01*
X25924Y-35000D01*
X25945Y-34981D01*
X25988Y-34962D01*
X26116Y-34962D01*
X26159Y-34981D01*
X26181Y-35000D01*
X26202Y-35038D01*
X26202Y-35096D01*
X25902Y-34791D02*
X26202Y-34791D01*
X25945Y-34791D02*
X25924Y-34772D01*
X25902Y-34734D01*
X25902Y-34676D01*
X25924Y-34638D01*
X25966Y-34619D01*
X26202Y-34619D01*
X25752Y-34048D02*
X25752Y-34009D01*
X25774Y-33971D01*
X25795Y-33952D01*
X25838Y-33933D01*
X25924Y-33914D01*
X26031Y-33914D01*
X26116Y-33933D01*
X26159Y-33952D01*
X26181Y-33971D01*
X26202Y-34009D01*
X26202Y-34048D01*
X26181Y-34086D01*
X26159Y-34105D01*
X26116Y-34124D01*
X26031Y-34143D01*
X25924Y-34143D01*
X25838Y-34124D01*
X25795Y-34105D01*
X25774Y-34086D01*
X25752Y-34048D01*
X26159Y-33743D02*
X26181Y-33724D01*
X26202Y-33743D01*
X26181Y-33762D01*
X26159Y-33743D01*
X26202Y-33743D01*
X25752Y-33362D02*
X25752Y-33553D01*
X25966Y-33572D01*
X25945Y-33553D01*
X25924Y-33515D01*
X25924Y-33419D01*
X25945Y-33381D01*
X25966Y-33362D01*
X26009Y-33343D01*
X26116Y-33343D01*
X26159Y-33362D01*
X26181Y-33381D01*
X26202Y-33419D01*
X26202Y-33515D01*
X26181Y-33553D01*
X26159Y-33572D01*
X26031Y-33172D02*
X26031Y-32867D01*
X26202Y-32505D02*
X25966Y-32505D01*
X25924Y-32524D01*
X25902Y-32562D01*
X25902Y-32639D01*
X25924Y-32677D01*
X26181Y-32505D02*
X26202Y-32543D01*
X26202Y-32639D01*
X26181Y-32677D01*
X26138Y-32696D01*
X26095Y-32696D01*
X26052Y-32677D01*
X26031Y-32639D01*
X26031Y-32543D01*
X26009Y-32505D01*
X26202Y-32258D02*
X26181Y-32296D01*
X26138Y-32315D01*
X25752Y-32315D01*
X25902Y-32105D02*
X26352Y-32105D01*
X25924Y-32105D02*
X25902Y-32067D01*
X25902Y-31990D01*
X25924Y-31952D01*
X25945Y-31933D01*
X25988Y-31914D01*
X26116Y-31914D01*
X26159Y-31933D01*
X26181Y-31952D01*
X26202Y-31990D01*
X26202Y-32067D01*
X26181Y-32105D01*
X26202Y-31743D02*
X25752Y-31743D01*
X26202Y-31571D02*
X25966Y-31571D01*
X25924Y-31590D01*
X25902Y-31628D01*
X25902Y-31686D01*
X25924Y-31724D01*
X25945Y-31743D01*
X26202Y-31209D02*
X25966Y-31209D01*
X25924Y-31228D01*
X25902Y-31266D01*
X25902Y-31343D01*
X25924Y-31381D01*
X26181Y-31209D02*
X26202Y-31247D01*
X26202Y-31343D01*
X26181Y-31381D01*
X26138Y-31400D01*
X26095Y-31400D01*
X26052Y-31381D01*
X26031Y-31343D01*
X26031Y-31247D01*
X26009Y-31209D01*
X26612Y-36067D02*
X26976Y-36067D01*
X27019Y-36086D01*
X27041Y-36105D01*
X27062Y-36144D01*
X27062Y-36201D01*
X27041Y-36239D01*
X26891Y-36067D02*
X26912Y-36105D01*
X26912Y-36182D01*
X26891Y-36220D01*
X26869Y-36239D01*
X26826Y-36258D01*
X26698Y-36258D01*
X26655Y-36239D01*
X26634Y-36220D01*
X26612Y-36182D01*
X26612Y-36105D01*
X26634Y-36067D01*
X26912Y-35877D02*
X26612Y-35877D01*
X26462Y-35877D02*
X26484Y-35896D01*
X26505Y-35877D01*
X26484Y-35858D01*
X26462Y-35877D01*
X26505Y-35877D01*
X26612Y-35744D02*
X26612Y-35592D01*
X26462Y-35687D02*
X26848Y-35687D01*
X26891Y-35668D01*
X26912Y-35630D01*
X26912Y-35592D01*
X26869Y-35458D02*
X26891Y-35439D01*
X26912Y-35458D01*
X26891Y-35477D01*
X26869Y-35458D01*
X26912Y-35458D01*
X26634Y-35458D02*
X26655Y-35439D01*
X26676Y-35458D01*
X26655Y-35477D01*
X26634Y-35458D01*
X26676Y-35458D01*
X26891Y-34810D02*
X26912Y-34848D01*
X26912Y-34925D01*
X26891Y-34963D01*
X26848Y-34982D01*
X26676Y-34982D01*
X26634Y-34963D01*
X26612Y-34925D01*
X26612Y-34848D01*
X26634Y-34810D01*
X26676Y-34791D01*
X26719Y-34791D01*
X26762Y-34982D01*
X26462Y-34448D02*
X26462Y-34525D01*
X26484Y-34563D01*
X26505Y-34582D01*
X26569Y-34620D01*
X26655Y-34639D01*
X26826Y-34639D01*
X26869Y-34620D01*
X26891Y-34601D01*
X26912Y-34563D01*
X26912Y-34486D01*
X26891Y-34448D01*
X26869Y-34429D01*
X26826Y-34410D01*
X26719Y-34410D01*
X26676Y-34429D01*
X26655Y-34448D01*
X26634Y-34486D01*
X26634Y-34563D01*
X26655Y-34601D01*
X26676Y-34620D01*
X26719Y-34639D01*
X26462Y-34277D02*
X26462Y-34010D01*
X26912Y-34182D01*
X26462Y-33782D02*
X26462Y-33743D01*
X26484Y-33705D01*
X26505Y-33686D01*
X26548Y-33667D01*
X26634Y-33648D01*
X26741Y-33648D01*
X26826Y-33667D01*
X26869Y-33686D01*
X26891Y-33705D01*
X26912Y-33743D01*
X26912Y-33782D01*
X26891Y-33820D01*
X26869Y-33839D01*
X26826Y-33858D01*
X26741Y-33877D01*
X26634Y-33877D01*
X26548Y-33858D01*
X26505Y-33839D01*
X26484Y-33820D01*
X26462Y-33782D01*
X26912Y-33477D02*
X26462Y-33477D01*
X26634Y-33477D02*
X26612Y-33439D01*
X26612Y-33362D01*
X26634Y-33324D01*
X26655Y-33305D01*
X26698Y-33286D01*
X26826Y-33286D01*
X26869Y-33305D01*
X26891Y-33324D01*
X26912Y-33362D01*
X26912Y-33439D01*
X26891Y-33477D01*
X26655Y-33058D02*
X26634Y-33096D01*
X26612Y-33115D01*
X26569Y-33134D01*
X26548Y-33134D01*
X26505Y-33115D01*
X26484Y-33096D01*
X26462Y-33058D01*
X26462Y-32981D01*
X26484Y-32943D01*
X26505Y-32924D01*
X26548Y-32905D01*
X26569Y-32905D01*
X26612Y-32924D01*
X26634Y-32943D01*
X26655Y-32981D01*
X26655Y-33058D01*
X26676Y-33096D01*
X26698Y-33115D01*
X26741Y-33134D01*
X26826Y-33134D01*
X26869Y-33115D01*
X26891Y-33096D01*
X26912Y-33058D01*
X26912Y-32981D01*
X26891Y-32943D01*
X26869Y-32924D01*
X26826Y-32905D01*
X26741Y-32905D01*
X26698Y-32924D01*
X26676Y-32943D01*
X26655Y-32981D01*
X26462Y-32772D02*
X26462Y-32524D01*
X26634Y-32658D01*
X26634Y-32600D01*
X26655Y-32562D01*
X26676Y-32543D01*
X26719Y-32524D01*
X26826Y-32524D01*
X26869Y-32543D01*
X26891Y-32562D01*
X26912Y-32600D01*
X26912Y-32715D01*
X26891Y-32753D01*
X26869Y-32772D01*
X26612Y-32410D02*
X26612Y-32258D01*
X26912Y-32353D02*
X26526Y-32353D01*
X26484Y-32334D01*
X26462Y-32296D01*
X26462Y-32258D01*
X26912Y-31952D02*
X26676Y-31952D01*
X26634Y-31971D01*
X26612Y-32009D01*
X26612Y-32086D01*
X26634Y-32124D01*
X26891Y-31952D02*
X26912Y-31990D01*
X26912Y-32086D01*
X26891Y-32124D01*
X26848Y-32143D01*
X26805Y-32143D01*
X26762Y-32124D01*
X26741Y-32086D01*
X26741Y-31990D01*
X26719Y-31952D01*
X26462Y-31800D02*
X26462Y-31533D01*
X26912Y-31705D01*
X37744Y-12212D02*
X37744Y-11812D01*
X37897Y-11812D01*
X37935Y-11831D01*
X37954Y-11850D01*
X37973Y-11888D01*
X37973Y-11945D01*
X37954Y-11983D01*
X37935Y-12002D01*
X37897Y-12021D01*
X37744Y-12021D01*
X38125Y-11850D02*
X38144Y-11831D01*
X38182Y-11812D01*
X38278Y-11812D01*
X38316Y-11831D01*
X38335Y-11850D01*
X38354Y-11888D01*
X38354Y-11926D01*
X38335Y-11983D01*
X38106Y-12212D01*
X38354Y-12212D01*
X38601Y-11812D02*
X38640Y-11812D01*
X38678Y-11831D01*
X38697Y-11850D01*
X38716Y-11888D01*
X38735Y-11964D01*
X38735Y-12060D01*
X38716Y-12136D01*
X38697Y-12174D01*
X38678Y-12193D01*
X38640Y-12212D01*
X38601Y-12212D01*
X38563Y-12193D01*
X38544Y-12174D01*
X38525Y-12136D01*
X38506Y-12060D01*
X38506Y-11964D01*
X38525Y-11888D01*
X38544Y-11850D01*
X38563Y-11831D01*
X38601Y-11812D01*
X33514Y-13182D02*
X33514Y-12782D01*
X33667Y-12782D01*
X33705Y-12801D01*
X33724Y-12820D01*
X33743Y-12858D01*
X33743Y-12915D01*
X33724Y-12953D01*
X33705Y-12972D01*
X33667Y-12991D01*
X33514Y-12991D01*
X33876Y-12782D02*
X34124Y-12782D01*
X33990Y-12934D01*
X34048Y-12934D01*
X34086Y-12953D01*
X34105Y-12972D01*
X34124Y-13010D01*
X34124Y-13106D01*
X34105Y-13144D01*
X34086Y-13163D01*
X34048Y-13182D01*
X33933Y-13182D01*
X33895Y-13163D01*
X33876Y-13144D01*
X34257Y-12782D02*
X34505Y-12782D01*
X34371Y-12934D01*
X34429Y-12934D01*
X34467Y-12953D01*
X34486Y-12972D01*
X34505Y-13010D01*
X34505Y-13106D01*
X34486Y-13144D01*
X34467Y-13163D01*
X34429Y-13182D01*
X34314Y-13182D01*
X34276Y-13163D01*
X34257Y-13144D01*
G54D12*
X28947Y-29023D02*
X28804Y-29023D01*
X28804Y-28723D01*
X29033Y-29009D02*
X29076Y-29023D01*
X29147Y-29023D01*
X29176Y-29009D01*
X29190Y-28995D01*
X29205Y-28966D01*
X29205Y-28938D01*
X29190Y-28909D01*
X29176Y-28895D01*
X29147Y-28881D01*
X29090Y-28866D01*
X29062Y-28852D01*
X29047Y-28838D01*
X29033Y-28809D01*
X29033Y-28781D01*
X29047Y-28752D01*
X29062Y-28738D01*
X29090Y-28723D01*
X29162Y-28723D01*
X29205Y-28738D01*
X29333Y-29023D02*
X29333Y-28723D01*
X29405Y-28723D01*
X29448Y-28738D01*
X29476Y-28766D01*
X29491Y-28795D01*
X29505Y-28852D01*
X29505Y-28895D01*
X29491Y-28952D01*
X29476Y-28981D01*
X29448Y-29009D01*
X29405Y-29023D01*
X29333Y-29023D01*
X29633Y-28909D02*
X29862Y-28909D01*
X29990Y-28752D02*
X30004Y-28738D01*
X30033Y-28723D01*
X30104Y-28723D01*
X30133Y-28738D01*
X30147Y-28752D01*
X30162Y-28781D01*
X30162Y-28809D01*
X30147Y-28852D01*
X29976Y-29023D01*
X30162Y-29023D01*
G54D19*
X33767Y-37418D02*
X33650Y-37418D01*
X33650Y-37602D02*
X33650Y-37252D01*
X33817Y-37252D01*
X33950Y-37252D02*
X33950Y-37535D01*
X33967Y-37568D01*
X33984Y-37585D01*
X34017Y-37602D01*
X34084Y-37602D01*
X34117Y-37585D01*
X34134Y-37568D01*
X34150Y-37535D01*
X34150Y-37252D01*
X34317Y-37418D02*
X34434Y-37418D01*
X34484Y-37602D02*
X34317Y-37602D01*
X34317Y-37252D01*
X34484Y-37252D01*
X34801Y-37602D02*
X34634Y-37602D01*
X34634Y-37252D01*
X33550Y-38172D02*
X33550Y-37822D01*
X33684Y-37822D01*
X33717Y-37838D01*
X33734Y-37855D01*
X33750Y-37888D01*
X33750Y-37938D01*
X33734Y-37972D01*
X33717Y-37988D01*
X33684Y-38005D01*
X33550Y-38005D01*
X33900Y-37822D02*
X33900Y-38105D01*
X33917Y-38138D01*
X33934Y-38155D01*
X33967Y-38172D01*
X34034Y-38172D01*
X34067Y-38155D01*
X34084Y-38138D01*
X34100Y-38105D01*
X34100Y-37822D01*
X34267Y-38172D02*
X34267Y-37822D01*
X34384Y-38072D01*
X34501Y-37822D01*
X34501Y-38172D01*
X34667Y-38172D02*
X34667Y-37822D01*
X34801Y-37822D01*
X34834Y-37838D01*
X34851Y-37855D01*
X34867Y-37888D01*
X34867Y-37938D01*
X34851Y-37972D01*
X34834Y-37988D01*
X34801Y-38005D01*
X34667Y-38005D01*
G54D12*
X31691Y-32597D02*
X31548Y-32597D01*
X31548Y-32297D01*
X31777Y-32583D02*
X31820Y-32597D01*
X31891Y-32597D01*
X31920Y-32583D01*
X31934Y-32569D01*
X31949Y-32540D01*
X31949Y-32512D01*
X31934Y-32483D01*
X31920Y-32469D01*
X31891Y-32455D01*
X31834Y-32440D01*
X31806Y-32426D01*
X31791Y-32412D01*
X31777Y-32383D01*
X31777Y-32355D01*
X31791Y-32326D01*
X31806Y-32312D01*
X31834Y-32297D01*
X31906Y-32297D01*
X31949Y-32312D01*
X32077Y-32597D02*
X32077Y-32297D01*
X32149Y-32297D01*
X32192Y-32312D01*
X32220Y-32340D01*
X32235Y-32369D01*
X32249Y-32426D01*
X32249Y-32469D01*
X32235Y-32526D01*
X32220Y-32555D01*
X32192Y-32583D01*
X32149Y-32597D01*
X32077Y-32597D01*
X32377Y-32483D02*
X32606Y-32483D01*
X32906Y-32597D02*
X32734Y-32597D01*
X32820Y-32597D02*
X32820Y-32297D01*
X32791Y-32340D01*
X32763Y-32369D01*
X32734Y-32383D01*
G54D20*
X33157Y-35050D02*
X33157Y-34840D01*
G54D12*
X25903Y-22330D02*
X25903Y-22030D01*
X26018Y-22030D01*
X26046Y-22045D01*
X26061Y-22059D01*
X26075Y-22088D01*
X26075Y-22130D01*
X26061Y-22159D01*
X26046Y-22173D01*
X26018Y-22188D01*
X25903Y-22188D01*
X26175Y-22030D02*
X26361Y-22030D01*
X26261Y-22145D01*
X26303Y-22145D01*
X26332Y-22159D01*
X26346Y-22173D01*
X26361Y-22202D01*
X26361Y-22273D01*
X26346Y-22302D01*
X26332Y-22316D01*
X26303Y-22330D01*
X26218Y-22330D01*
X26189Y-22316D01*
X26175Y-22302D01*
X26618Y-22130D02*
X26618Y-22330D01*
X26547Y-22016D02*
X26475Y-22230D01*
X26661Y-22230D01*
G54D15*
X35941Y-27436D02*
X35922Y-27455D01*
X35865Y-27474D01*
X35827Y-27474D01*
X35769Y-27455D01*
X35731Y-27417D01*
X35712Y-27379D01*
X35693Y-27302D01*
X35693Y-27245D01*
X35712Y-27169D01*
X35731Y-27131D01*
X35769Y-27093D01*
X35827Y-27074D01*
X35865Y-27074D01*
X35922Y-27093D01*
X35941Y-27112D01*
X36112Y-27264D02*
X36246Y-27264D01*
X36303Y-27474D02*
X36112Y-27474D01*
X36112Y-27074D01*
X36303Y-27074D01*
X36665Y-27474D02*
X36474Y-27474D01*
X36474Y-27074D01*
G54D12*
X39387Y-29540D02*
X39387Y-29397D01*
X39687Y-29397D01*
X39387Y-29683D02*
X39401Y-29655D01*
X39415Y-29640D01*
X39444Y-29626D01*
X39529Y-29626D01*
X39558Y-29640D01*
X39572Y-29655D01*
X39587Y-29683D01*
X39587Y-29726D01*
X39572Y-29755D01*
X39558Y-29769D01*
X39529Y-29783D01*
X39444Y-29783D01*
X39415Y-29769D01*
X39401Y-29755D01*
X39387Y-29726D01*
X39387Y-29683D01*
X39387Y-30040D02*
X39544Y-30040D01*
X39572Y-30026D01*
X39587Y-29997D01*
X39587Y-29940D01*
X39572Y-29911D01*
X39401Y-30040D02*
X39387Y-30011D01*
X39387Y-29940D01*
X39401Y-29911D01*
X39429Y-29897D01*
X39458Y-29897D01*
X39487Y-29911D01*
X39501Y-29940D01*
X39501Y-30011D01*
X39515Y-30040D01*
X39387Y-30311D02*
X39687Y-30311D01*
X39401Y-30311D02*
X39387Y-30282D01*
X39387Y-30225D01*
X39401Y-30197D01*
X39415Y-30182D01*
X39444Y-30168D01*
X39529Y-30168D01*
X39558Y-30182D01*
X39572Y-30197D01*
X39587Y-30225D01*
X39587Y-30282D01*
X39572Y-30311D01*
G54D15*
X48258Y-16703D02*
X48658Y-16703D01*
X48658Y-16856D01*
X48639Y-16894D01*
X48620Y-16913D01*
X48582Y-16932D01*
X48525Y-16932D01*
X48487Y-16913D01*
X48468Y-16894D01*
X48449Y-16856D01*
X48449Y-16703D01*
X48258Y-17160D02*
X48277Y-17122D01*
X48296Y-17103D01*
X48334Y-17084D01*
X48449Y-17084D01*
X48487Y-17103D01*
X48506Y-17122D01*
X48525Y-17160D01*
X48525Y-17218D01*
X48506Y-17256D01*
X48487Y-17275D01*
X48449Y-17294D01*
X48334Y-17294D01*
X48296Y-17275D01*
X48277Y-17256D01*
X48258Y-17218D01*
X48258Y-17160D01*
X48258Y-17465D02*
X48525Y-17465D01*
X48449Y-17465D02*
X48487Y-17484D01*
X48506Y-17503D01*
X48525Y-17541D01*
X48525Y-17580D01*
X48525Y-17656D02*
X48525Y-17808D01*
X48658Y-17713D02*
X48315Y-17713D01*
X48277Y-17732D01*
X48258Y-17770D01*
X48258Y-17808D01*
X48258Y-18247D02*
X48658Y-18247D01*
X48658Y-18400D01*
X48639Y-18438D01*
X48620Y-18457D01*
X48582Y-18476D01*
X48525Y-18476D01*
X48487Y-18457D01*
X48468Y-18438D01*
X48449Y-18400D01*
X48449Y-18247D01*
X48525Y-18819D02*
X48258Y-18819D01*
X48677Y-18723D02*
X48391Y-18628D01*
X48391Y-18876D01*
X48410Y-19028D02*
X48410Y-19333D01*
X48658Y-19485D02*
X48658Y-19752D01*
X48258Y-19580D01*
X39885Y-17572D02*
X39885Y-17172D01*
X40038Y-17172D01*
X40076Y-17191D01*
X40095Y-17210D01*
X40114Y-17248D01*
X40114Y-17305D01*
X40095Y-17343D01*
X40076Y-17362D01*
X40038Y-17381D01*
X39885Y-17381D01*
X40342Y-17572D02*
X40304Y-17553D01*
X40285Y-17534D01*
X40266Y-17496D01*
X40266Y-17381D01*
X40285Y-17343D01*
X40304Y-17324D01*
X40342Y-17305D01*
X40400Y-17305D01*
X40438Y-17324D01*
X40457Y-17343D01*
X40476Y-17381D01*
X40476Y-17496D01*
X40457Y-17534D01*
X40438Y-17553D01*
X40400Y-17572D01*
X40342Y-17572D01*
X40647Y-17572D02*
X40647Y-17305D01*
X40647Y-17381D02*
X40666Y-17343D01*
X40685Y-17324D01*
X40723Y-17305D01*
X40762Y-17305D01*
X40838Y-17305D02*
X40990Y-17305D01*
X40895Y-17172D02*
X40895Y-17515D01*
X40914Y-17553D01*
X40952Y-17572D01*
X40990Y-17572D01*
X41429Y-17572D02*
X41429Y-17172D01*
X41582Y-17172D01*
X41620Y-17191D01*
X41639Y-17210D01*
X41658Y-17248D01*
X41658Y-17305D01*
X41639Y-17343D01*
X41620Y-17362D01*
X41582Y-17381D01*
X41429Y-17381D01*
X41905Y-17172D02*
X41944Y-17172D01*
X41982Y-17191D01*
X42001Y-17210D01*
X42020Y-17248D01*
X42039Y-17324D01*
X42039Y-17420D01*
X42020Y-17496D01*
X42001Y-17534D01*
X41982Y-17553D01*
X41944Y-17572D01*
X41905Y-17572D01*
X41867Y-17553D01*
X41848Y-17534D01*
X41829Y-17496D01*
X41810Y-17420D01*
X41810Y-17324D01*
X41829Y-17248D01*
X41848Y-17210D01*
X41867Y-17191D01*
X41905Y-17172D01*
X42210Y-17420D02*
X42515Y-17420D01*
X42667Y-17172D02*
X42915Y-17172D01*
X42781Y-17324D01*
X42839Y-17324D01*
X42877Y-17343D01*
X42896Y-17362D01*
X42915Y-17400D01*
X42915Y-17496D01*
X42896Y-17534D01*
X42877Y-17553D01*
X42839Y-17572D01*
X42724Y-17572D01*
X42686Y-17553D01*
X42667Y-17534D01*
X34680Y-14484D02*
X35080Y-14484D01*
X35080Y-14637D01*
X35061Y-14675D01*
X35042Y-14694D01*
X35004Y-14713D01*
X34947Y-14713D01*
X34909Y-14694D01*
X34890Y-14675D01*
X34871Y-14637D01*
X34871Y-14484D01*
X34680Y-14941D02*
X34699Y-14903D01*
X34718Y-14884D01*
X34756Y-14865D01*
X34871Y-14865D01*
X34909Y-14884D01*
X34928Y-14903D01*
X34947Y-14941D01*
X34947Y-14999D01*
X34928Y-15037D01*
X34909Y-15056D01*
X34871Y-15075D01*
X34756Y-15075D01*
X34718Y-15056D01*
X34699Y-15037D01*
X34680Y-14999D01*
X34680Y-14941D01*
X34680Y-15246D02*
X34947Y-15246D01*
X34871Y-15246D02*
X34909Y-15265D01*
X34928Y-15284D01*
X34947Y-15322D01*
X34947Y-15361D01*
X34947Y-15437D02*
X34947Y-15589D01*
X35080Y-15494D02*
X34737Y-15494D01*
X34699Y-15513D01*
X34680Y-15551D01*
X34680Y-15589D01*
X34890Y-16162D02*
X34871Y-16219D01*
X34852Y-16238D01*
X34813Y-16257D01*
X34756Y-16257D01*
X34718Y-16238D01*
X34699Y-16219D01*
X34680Y-16181D01*
X34680Y-16028D01*
X35080Y-16028D01*
X35080Y-16162D01*
X35061Y-16200D01*
X35042Y-16219D01*
X35004Y-16238D01*
X34966Y-16238D01*
X34928Y-16219D01*
X34909Y-16200D01*
X34890Y-16162D01*
X34890Y-16028D01*
X35080Y-16504D02*
X35080Y-16543D01*
X35061Y-16581D01*
X35042Y-16600D01*
X35004Y-16619D01*
X34928Y-16638D01*
X34832Y-16638D01*
X34756Y-16619D01*
X34718Y-16600D01*
X34699Y-16581D01*
X34680Y-16543D01*
X34680Y-16504D01*
X34699Y-16466D01*
X34718Y-16447D01*
X34756Y-16428D01*
X34832Y-16409D01*
X34928Y-16409D01*
X35004Y-16428D01*
X35042Y-16447D01*
X35061Y-16466D01*
X35080Y-16504D01*
X34832Y-16809D02*
X34832Y-17114D01*
X35080Y-17266D02*
X35080Y-17533D01*
X34680Y-17361D01*
X37141Y-12975D02*
X37541Y-12975D01*
X37541Y-13128D01*
X37522Y-13166D01*
X37503Y-13185D01*
X37465Y-13204D01*
X37408Y-13204D01*
X37370Y-13185D01*
X37351Y-13166D01*
X37332Y-13128D01*
X37332Y-12975D01*
X37141Y-13432D02*
X37160Y-13394D01*
X37179Y-13375D01*
X37217Y-13356D01*
X37332Y-13356D01*
X37370Y-13375D01*
X37389Y-13394D01*
X37408Y-13432D01*
X37408Y-13490D01*
X37389Y-13528D01*
X37370Y-13547D01*
X37332Y-13566D01*
X37217Y-13566D01*
X37179Y-13547D01*
X37160Y-13528D01*
X37141Y-13490D01*
X37141Y-13432D01*
X37141Y-13737D02*
X37408Y-13737D01*
X37332Y-13737D02*
X37370Y-13756D01*
X37389Y-13775D01*
X37408Y-13813D01*
X37408Y-13852D01*
X37408Y-13928D02*
X37408Y-14080D01*
X37541Y-13985D02*
X37198Y-13985D01*
X37160Y-14004D01*
X37141Y-14042D01*
X37141Y-14080D01*
X37541Y-14462D02*
X37541Y-14691D01*
X37141Y-14576D02*
X37541Y-14576D01*
X37408Y-14996D02*
X37141Y-14996D01*
X37560Y-14900D02*
X37274Y-14805D01*
X37274Y-15053D01*
X37293Y-15205D02*
X37293Y-15510D01*
X37541Y-15662D02*
X37541Y-15929D01*
X37141Y-15757D01*
G54D12*
X52772Y-10140D02*
X52772Y-10383D01*
X52787Y-10412D01*
X52801Y-10426D01*
X52830Y-10440D01*
X52887Y-10440D01*
X52915Y-10426D01*
X52930Y-10412D01*
X52944Y-10383D01*
X52944Y-10140D01*
X53072Y-10426D02*
X53115Y-10440D01*
X53186Y-10440D01*
X53215Y-10426D01*
X53229Y-10412D01*
X53244Y-10383D01*
X53244Y-10355D01*
X53229Y-10326D01*
X53215Y-10312D01*
X53186Y-10298D01*
X53129Y-10283D01*
X53101Y-10269D01*
X53086Y-10255D01*
X53072Y-10226D01*
X53072Y-10198D01*
X53086Y-10169D01*
X53101Y-10155D01*
X53129Y-10140D01*
X53201Y-10140D01*
X53244Y-10155D01*
X53472Y-10283D02*
X53515Y-10298D01*
X53530Y-10312D01*
X53544Y-10340D01*
X53544Y-10383D01*
X53530Y-10412D01*
X53515Y-10426D01*
X53487Y-10440D01*
X53372Y-10440D01*
X53372Y-10140D01*
X53472Y-10140D01*
X53501Y-10155D01*
X53515Y-10169D01*
X53530Y-10198D01*
X53530Y-10226D01*
X53515Y-10255D01*
X53501Y-10269D01*
X53472Y-10283D01*
X53372Y-10283D01*
X53901Y-10140D02*
X53901Y-10383D01*
X53916Y-10412D01*
X53930Y-10426D01*
X53959Y-10440D01*
X54016Y-10440D01*
X54044Y-10426D01*
X54059Y-10412D01*
X54073Y-10383D01*
X54073Y-10140D01*
X54201Y-10355D02*
X54344Y-10355D01*
X54173Y-10440D02*
X54273Y-10140D01*
X54373Y-10440D01*
X54644Y-10440D02*
X54544Y-10298D01*
X54472Y-10440D02*
X54472Y-10140D01*
X54587Y-10140D01*
X54615Y-10155D01*
X54630Y-10169D01*
X54644Y-10198D01*
X54644Y-10240D01*
X54630Y-10269D01*
X54615Y-10283D01*
X54587Y-10298D01*
X54472Y-10298D01*
X54730Y-10140D02*
X54901Y-10140D01*
X54815Y-10440D02*
X54815Y-10140D01*
G54D15*
X61940Y-37550D02*
X61940Y-37359D01*
X62082Y-37588D02*
X61582Y-37455D01*
X62082Y-37321D01*
X61749Y-37188D02*
X62082Y-37188D01*
X61797Y-37188D02*
X61773Y-37169D01*
X61749Y-37131D01*
X61749Y-37073D01*
X61773Y-37035D01*
X61820Y-37016D01*
X62082Y-37016D01*
X62082Y-36654D02*
X61820Y-36654D01*
X61773Y-36673D01*
X61749Y-36711D01*
X61749Y-36788D01*
X61773Y-36826D01*
X62059Y-36654D02*
X62082Y-36692D01*
X62082Y-36788D01*
X62059Y-36826D01*
X62011Y-36845D01*
X61963Y-36845D01*
X61916Y-36826D01*
X61892Y-36788D01*
X61892Y-36692D01*
X61868Y-36654D01*
X62082Y-36407D02*
X62059Y-36445D01*
X62011Y-36464D01*
X61582Y-36464D01*
X62082Y-36197D02*
X62059Y-36235D01*
X62035Y-36254D01*
X61987Y-36273D01*
X61844Y-36273D01*
X61797Y-36254D01*
X61773Y-36235D01*
X61749Y-36197D01*
X61749Y-36139D01*
X61773Y-36101D01*
X61797Y-36082D01*
X61844Y-36063D01*
X61987Y-36063D01*
X62035Y-36082D01*
X62059Y-36101D01*
X62082Y-36139D01*
X62082Y-36197D01*
X61749Y-35720D02*
X62154Y-35720D01*
X62201Y-35739D01*
X62225Y-35758D01*
X62249Y-35797D01*
X62249Y-35854D01*
X62225Y-35892D01*
X62059Y-35720D02*
X62082Y-35758D01*
X62082Y-35835D01*
X62059Y-35873D01*
X62035Y-35892D01*
X61987Y-35911D01*
X61844Y-35911D01*
X61797Y-35892D01*
X61773Y-35873D01*
X61749Y-35835D01*
X61749Y-35758D01*
X61773Y-35720D01*
X61582Y-35034D02*
X61582Y-35225D01*
X61820Y-35244D01*
X61797Y-35225D01*
X61773Y-35187D01*
X61773Y-35091D01*
X61797Y-35053D01*
X61820Y-35034D01*
X61868Y-35015D01*
X61987Y-35015D01*
X62035Y-35034D01*
X62059Y-35053D01*
X62082Y-35091D01*
X62082Y-35187D01*
X62059Y-35225D01*
X62035Y-35244D01*
X61749Y-34882D02*
X62082Y-34787D01*
X61749Y-34691D01*
X61985Y-12781D02*
X62009Y-12800D01*
X62032Y-12857D01*
X62032Y-12895D01*
X62009Y-12953D01*
X61961Y-12991D01*
X61913Y-13010D01*
X61818Y-13029D01*
X61747Y-13029D01*
X61651Y-13010D01*
X61604Y-12991D01*
X61556Y-12953D01*
X61532Y-12895D01*
X61532Y-12857D01*
X61556Y-12800D01*
X61580Y-12781D01*
X62032Y-12610D02*
X61532Y-12610D01*
X61532Y-12457D01*
X61556Y-12419D01*
X61580Y-12400D01*
X61628Y-12381D01*
X61699Y-12381D01*
X61747Y-12400D01*
X61770Y-12419D01*
X61794Y-12457D01*
X61794Y-12610D01*
X61532Y-12210D02*
X61937Y-12210D01*
X61985Y-12191D01*
X62009Y-12172D01*
X62032Y-12134D01*
X62032Y-12057D01*
X62009Y-12019D01*
X61985Y-12000D01*
X61937Y-11981D01*
X61532Y-11981D01*
X61532Y-11295D02*
X61532Y-11486D01*
X61770Y-11505D01*
X61747Y-11486D01*
X61723Y-11448D01*
X61723Y-11352D01*
X61747Y-11314D01*
X61770Y-11295D01*
X61818Y-11276D01*
X61937Y-11276D01*
X61985Y-11295D01*
X62009Y-11314D01*
X62032Y-11352D01*
X62032Y-11448D01*
X62009Y-11486D01*
X61985Y-11505D01*
X61699Y-11143D02*
X62032Y-11048D01*
X61699Y-10952D01*
G54D12*
X40003Y-14767D02*
X39903Y-14625D01*
X39831Y-14767D02*
X39831Y-14467D01*
X39946Y-14467D01*
X39974Y-14482D01*
X39989Y-14496D01*
X40003Y-14525D01*
X40003Y-14567D01*
X39989Y-14596D01*
X39974Y-14610D01*
X39946Y-14625D01*
X39831Y-14625D01*
X40131Y-14767D02*
X40131Y-14467D01*
X40246Y-14467D01*
X40274Y-14482D01*
X40289Y-14496D01*
X40303Y-14525D01*
X40303Y-14567D01*
X40289Y-14596D01*
X40274Y-14610D01*
X40246Y-14625D01*
X40131Y-14625D01*
X40431Y-14767D02*
X40431Y-14467D01*
X40531Y-14682D01*
X40631Y-14467D01*
X40631Y-14767D01*
X41003Y-14767D02*
X41003Y-14467D01*
X41146Y-14567D02*
X41146Y-14767D01*
X41146Y-14596D02*
X41161Y-14582D01*
X41189Y-14567D01*
X41232Y-14567D01*
X41261Y-14582D01*
X41275Y-14610D01*
X41275Y-14767D01*
X41417Y-14567D02*
X41417Y-14867D01*
X41417Y-14582D02*
X41446Y-14567D01*
X41503Y-14567D01*
X41532Y-14582D01*
X41546Y-14596D01*
X41560Y-14625D01*
X41560Y-14710D01*
X41546Y-14739D01*
X41532Y-14753D01*
X41503Y-14767D01*
X41446Y-14767D01*
X41417Y-14753D01*
X41817Y-14567D02*
X41817Y-14767D01*
X41688Y-14567D02*
X41688Y-14725D01*
X41703Y-14753D01*
X41731Y-14767D01*
X41774Y-14767D01*
X41803Y-14753D01*
X41817Y-14739D01*
X41917Y-14567D02*
X42031Y-14567D01*
X41959Y-14467D02*
X41959Y-14725D01*
X41974Y-14753D01*
X42002Y-14767D01*
X42031Y-14767D01*
X42116Y-14753D02*
X42145Y-14767D01*
X42202Y-14767D01*
X42230Y-14753D01*
X42245Y-14725D01*
X42245Y-14710D01*
X42230Y-14682D01*
X42202Y-14667D01*
X42159Y-14667D01*
X42130Y-14653D01*
X42116Y-14625D01*
X42116Y-14610D01*
X42130Y-14582D01*
X42159Y-14567D01*
X42202Y-14567D01*
X42230Y-14582D01*
G54D15*
X25515Y-14670D02*
X25515Y-14270D01*
X25877Y-14403D02*
X25877Y-14727D01*
X25858Y-14765D01*
X25839Y-14784D01*
X25800Y-14803D01*
X25743Y-14803D01*
X25705Y-14784D01*
X25877Y-14651D02*
X25839Y-14670D01*
X25762Y-14670D01*
X25724Y-14651D01*
X25705Y-14632D01*
X25686Y-14594D01*
X25686Y-14479D01*
X25705Y-14441D01*
X25724Y-14422D01*
X25762Y-14403D01*
X25839Y-14403D01*
X25877Y-14422D01*
X26067Y-14403D02*
X26067Y-14670D01*
X26067Y-14441D02*
X26086Y-14422D01*
X26124Y-14403D01*
X26182Y-14403D01*
X26220Y-14422D01*
X26239Y-14460D01*
X26239Y-14670D01*
X26429Y-14670D02*
X26429Y-14403D01*
X26429Y-14270D02*
X26410Y-14289D01*
X26429Y-14308D01*
X26448Y-14289D01*
X26429Y-14270D01*
X26429Y-14308D01*
X26562Y-14403D02*
X26714Y-14403D01*
X26619Y-14270D02*
X26619Y-14613D01*
X26638Y-14651D01*
X26676Y-14670D01*
X26714Y-14670D01*
X26848Y-14670D02*
X26848Y-14403D01*
X26848Y-14270D02*
X26829Y-14289D01*
X26848Y-14308D01*
X26867Y-14289D01*
X26848Y-14270D01*
X26848Y-14308D01*
X27095Y-14670D02*
X27057Y-14651D01*
X27038Y-14632D01*
X27019Y-14594D01*
X27019Y-14479D01*
X27038Y-14441D01*
X27057Y-14422D01*
X27095Y-14403D01*
X27153Y-14403D01*
X27191Y-14422D01*
X27210Y-14441D01*
X27229Y-14479D01*
X27229Y-14594D01*
X27210Y-14632D01*
X27191Y-14651D01*
X27153Y-14670D01*
X27095Y-14670D01*
X27400Y-14403D02*
X27400Y-14670D01*
X27400Y-14441D02*
X27419Y-14422D01*
X27457Y-14403D01*
X27515Y-14403D01*
X27553Y-14422D01*
X27572Y-14460D01*
X27572Y-14670D01*
X25610Y-14920D02*
X25839Y-14920D01*
X25724Y-15320D02*
X25724Y-14920D01*
X25972Y-15320D02*
X25972Y-15053D01*
X25972Y-14920D02*
X25953Y-14939D01*
X25972Y-14958D01*
X25991Y-14939D01*
X25972Y-14920D01*
X25972Y-14958D01*
X26162Y-15320D02*
X26162Y-15053D01*
X26162Y-15091D02*
X26181Y-15072D01*
X26219Y-15053D01*
X26277Y-15053D01*
X26315Y-15072D01*
X26334Y-15110D01*
X26334Y-15320D01*
X26334Y-15110D02*
X26353Y-15072D01*
X26391Y-15053D01*
X26448Y-15053D01*
X26486Y-15072D01*
X26505Y-15110D01*
X26505Y-15320D01*
X26695Y-15320D02*
X26695Y-15053D01*
X26695Y-14920D02*
X26676Y-14939D01*
X26695Y-14958D01*
X26714Y-14939D01*
X26695Y-14920D01*
X26695Y-14958D01*
X26885Y-15053D02*
X26885Y-15320D01*
X26885Y-15091D02*
X26904Y-15072D01*
X26942Y-15053D01*
X27000Y-15053D01*
X27038Y-15072D01*
X27057Y-15110D01*
X27057Y-15320D01*
X27419Y-15053D02*
X27419Y-15377D01*
X27400Y-15415D01*
X27381Y-15434D01*
X27342Y-15453D01*
X27285Y-15453D01*
X27247Y-15434D01*
X27419Y-15301D02*
X27381Y-15320D01*
X27304Y-15320D01*
X27266Y-15301D01*
X27247Y-15282D01*
X27228Y-15244D01*
X27228Y-15129D01*
X27247Y-15091D01*
X27266Y-15072D01*
X27304Y-15053D01*
X27381Y-15053D01*
X27419Y-15072D01*
X25571Y-15570D02*
X25648Y-15570D01*
X25686Y-15589D01*
X25724Y-15627D01*
X25743Y-15703D01*
X25743Y-15837D01*
X25724Y-15913D01*
X25686Y-15951D01*
X25648Y-15970D01*
X25571Y-15970D01*
X25533Y-15951D01*
X25495Y-15913D01*
X25476Y-15837D01*
X25476Y-15703D01*
X25495Y-15627D01*
X25533Y-15589D01*
X25571Y-15570D01*
X26086Y-15703D02*
X26086Y-15970D01*
X25914Y-15703D02*
X25914Y-15913D01*
X25933Y-15951D01*
X25971Y-15970D01*
X26029Y-15970D01*
X26067Y-15951D01*
X26086Y-15932D01*
X26219Y-15703D02*
X26371Y-15703D01*
X26276Y-15570D02*
X26276Y-15913D01*
X26295Y-15951D01*
X26333Y-15970D01*
X26371Y-15970D01*
X26505Y-15703D02*
X26505Y-16103D01*
X26505Y-15722D02*
X26543Y-15703D01*
X26620Y-15703D01*
X26658Y-15722D01*
X26677Y-15741D01*
X26696Y-15779D01*
X26696Y-15894D01*
X26677Y-15932D01*
X26658Y-15951D01*
X26620Y-15970D01*
X26543Y-15970D01*
X26505Y-15951D01*
X27039Y-15703D02*
X27039Y-15970D01*
X26867Y-15703D02*
X26867Y-15913D01*
X26886Y-15951D01*
X26924Y-15970D01*
X26982Y-15970D01*
X27020Y-15951D01*
X27039Y-15932D01*
X27172Y-15703D02*
X27324Y-15703D01*
X27229Y-15570D02*
X27229Y-15913D01*
X27248Y-15951D01*
X27286Y-15970D01*
X27324Y-15970D01*
X27439Y-15951D02*
X27477Y-15970D01*
X27553Y-15970D01*
X27592Y-15951D01*
X27611Y-15913D01*
X27611Y-15894D01*
X27592Y-15856D01*
X27553Y-15837D01*
X27496Y-15837D01*
X27458Y-15818D01*
X27439Y-15779D01*
X27439Y-15760D01*
X27458Y-15722D01*
X27496Y-15703D01*
X27553Y-15703D01*
X27592Y-15722D01*
G54D13*
X56152Y-28210D02*
X56152Y-27710D01*
X56319Y-28068D01*
X56485Y-27710D01*
X56485Y-28210D01*
X56699Y-28068D02*
X56937Y-28068D01*
X56652Y-28210D02*
X56818Y-27710D01*
X56985Y-28210D01*
X57152Y-28210D02*
X57152Y-27710D01*
X57343Y-27710D01*
X57390Y-27734D01*
X57414Y-27758D01*
X57438Y-27806D01*
X57438Y-27877D01*
X57414Y-27925D01*
X57390Y-27948D01*
X57343Y-27972D01*
X57152Y-27972D01*
X50890Y-35463D02*
X51175Y-35463D01*
X51032Y-35963D02*
X51032Y-35463D01*
X51342Y-35963D02*
X51342Y-35463D01*
X51533Y-35463D01*
X51580Y-35487D01*
X51604Y-35511D01*
X51628Y-35559D01*
X51628Y-35630D01*
X51604Y-35678D01*
X51580Y-35701D01*
X51533Y-35725D01*
X51342Y-35725D01*
X51818Y-35940D02*
X51890Y-35963D01*
X52009Y-35963D01*
X52056Y-35940D01*
X52080Y-35916D01*
X52104Y-35868D01*
X52104Y-35821D01*
X52080Y-35773D01*
X52056Y-35749D01*
X52009Y-35725D01*
X51913Y-35701D01*
X51866Y-35678D01*
X51842Y-35654D01*
X51818Y-35606D01*
X51818Y-35559D01*
X51842Y-35511D01*
X51866Y-35487D01*
X51913Y-35463D01*
X52033Y-35463D01*
X52104Y-35487D01*
G54D15*
X51842Y-32900D02*
X51919Y-32900D01*
X51957Y-32919D01*
X51995Y-32957D01*
X52014Y-33033D01*
X52014Y-33167D01*
X51995Y-33243D01*
X51957Y-33281D01*
X51919Y-33300D01*
X51842Y-33300D01*
X51804Y-33281D01*
X51766Y-33243D01*
X51747Y-33167D01*
X51747Y-33033D01*
X51766Y-32957D01*
X51804Y-32919D01*
X51842Y-32900D01*
X52166Y-32938D02*
X52185Y-32919D01*
X52223Y-32900D01*
X52319Y-32900D01*
X52357Y-32919D01*
X52376Y-32938D01*
X52395Y-32976D01*
X52395Y-33014D01*
X52376Y-33071D01*
X52147Y-33300D01*
X52395Y-33300D01*
G54D12*
X45141Y-35125D02*
X45184Y-35140D01*
X45199Y-35154D01*
X45213Y-35182D01*
X45213Y-35225D01*
X45199Y-35254D01*
X45184Y-35268D01*
X45156Y-35282D01*
X45041Y-35282D01*
X45041Y-34982D01*
X45141Y-34982D01*
X45170Y-34997D01*
X45184Y-35011D01*
X45199Y-35040D01*
X45199Y-35068D01*
X45184Y-35097D01*
X45170Y-35111D01*
X45141Y-35125D01*
X45041Y-35125D01*
X45513Y-35282D02*
X45413Y-35140D01*
X45341Y-35282D02*
X45341Y-34982D01*
X45456Y-34982D01*
X45484Y-34997D01*
X45499Y-35011D01*
X45513Y-35040D01*
X45513Y-35082D01*
X45499Y-35111D01*
X45484Y-35125D01*
X45456Y-35140D01*
X45341Y-35140D01*
X45599Y-34982D02*
X45699Y-35282D01*
X45799Y-34982D01*
X45898Y-35168D02*
X46127Y-35168D01*
X46427Y-35282D02*
X46255Y-35282D01*
X46341Y-35282D02*
X46341Y-34982D01*
X46312Y-35025D01*
X46284Y-35054D01*
X46255Y-35068D01*
X46541Y-35011D02*
X46555Y-34997D01*
X46584Y-34982D01*
X46655Y-34982D01*
X46684Y-34997D01*
X46698Y-35011D01*
X46713Y-35040D01*
X46713Y-35068D01*
X46698Y-35111D01*
X46527Y-35282D01*
X46713Y-35282D01*
X46813Y-35082D02*
X46884Y-35282D01*
X46956Y-35082D01*
X40279Y-34932D02*
X40265Y-34946D01*
X40222Y-34960D01*
X40193Y-34960D01*
X40150Y-34946D01*
X40122Y-34918D01*
X40107Y-34889D01*
X40093Y-34832D01*
X40093Y-34789D01*
X40107Y-34732D01*
X40122Y-34703D01*
X40150Y-34675D01*
X40193Y-34660D01*
X40222Y-34660D01*
X40265Y-34675D01*
X40279Y-34689D01*
X40407Y-34960D02*
X40407Y-34660D01*
X40407Y-34803D02*
X40579Y-34803D01*
X40579Y-34960D02*
X40579Y-34660D01*
X40679Y-34660D02*
X40850Y-34660D01*
X40764Y-34960D02*
X40764Y-34660D01*
G54D13*
X40367Y-32383D02*
X40367Y-31883D01*
X40581Y-32241D02*
X40819Y-32241D01*
X40534Y-32383D02*
X40700Y-31883D01*
X40867Y-32383D01*
X40963Y-31883D02*
X41248Y-31883D01*
X41105Y-32383D02*
X41105Y-31883D01*
G54D21*
X49271Y-34638D02*
X49271Y-34238D01*
X49405Y-34524D01*
X49538Y-34238D01*
X49538Y-34638D01*
X49709Y-34524D02*
X49900Y-34524D01*
X49671Y-34638D02*
X49804Y-34238D01*
X49938Y-34638D01*
X50014Y-34238D02*
X50243Y-34238D01*
X50128Y-34638D02*
X50128Y-34238D01*
G54D22*
X13760Y-39080D02*
X13760Y-09080D01*
X63760Y-39080D02*
X13760Y-39080D01*
X63760Y-09080D02*
X63760Y-39080D01*
X13760Y-09080D02*
X63760Y-09080D01*
G54D18*
X47454Y-13586D02*
X47454Y-15074D01*
X47454Y-15074D02*
X45573Y-15074D01*
X45573Y-13586D02*
X47454Y-13586D01*
X45566Y-15074D02*
X45566Y-13586D01*
X45804Y-14890D02*
X45802Y-14900D01*
X45799Y-14910D01*
X45794Y-14920D01*
X45788Y-14928D01*
X45779Y-14935D01*
X45770Y-14940D01*
X45760Y-14943D01*
X45749Y-14944D01*
X45739Y-14944D01*
X45729Y-14940D01*
X45719Y-14936D01*
X45711Y-14929D01*
X45704Y-14921D01*
X45699Y-14911D01*
X45696Y-14901D01*
X45695Y-14890D01*
X45695Y-14881D01*
X45698Y-14870D01*
X45703Y-14861D01*
X45710Y-14852D01*
X45718Y-14845D01*
X45727Y-14840D01*
X45738Y-14837D01*
X45748Y-14836D01*
X45758Y-14836D01*
X45768Y-14839D01*
X45778Y-14844D01*
X45786Y-14851D01*
X45793Y-14859D01*
X45799Y-14868D01*
X45802Y-14878D01*
X45803Y-14889D01*
X45804Y-14890D01*
X35160Y-29230D02*
X35160Y-28030D01*
X35160Y-28030D02*
X32360Y-28030D01*
X32360Y-28030D02*
X32360Y-29230D01*
X35160Y-30430D02*
X35160Y-30730D01*
X35160Y-30730D02*
X34560Y-31630D01*
X34560Y-31630D02*
X32960Y-31630D01*
X32960Y-31630D02*
X32360Y-30730D01*
X32360Y-30730D02*
X32360Y-30430D01*
X33160Y-33980D02*
X33160Y-32780D01*
X33160Y-32780D02*
X30360Y-32780D01*
X30360Y-32780D02*
X30360Y-33980D01*
X33160Y-35180D02*
X33160Y-35480D01*
X33160Y-35480D02*
X32560Y-36380D01*
X32560Y-36380D02*
X30960Y-36380D01*
X30960Y-36380D02*
X30360Y-35480D01*
X30360Y-35480D02*
X30360Y-35180D01*
X37910Y-33980D02*
X37910Y-32780D01*
X37910Y-32780D02*
X35110Y-32780D01*
X35110Y-32780D02*
X35110Y-33980D01*
X37910Y-35180D02*
X37910Y-35480D01*
X37910Y-35480D02*
X37310Y-36380D01*
X37310Y-36380D02*
X35710Y-36380D01*
X35710Y-36380D02*
X35110Y-35480D01*
X35110Y-35480D02*
X35110Y-35180D01*
X45210Y-19380D02*
X45205Y-19428D01*
X45191Y-19475D01*
X45168Y-19518D01*
X45137Y-19556D01*
X45099Y-19587D01*
X45056Y-19610D01*
X45010Y-19624D01*
X44961Y-19629D01*
X44914Y-19625D01*
X44867Y-19611D01*
X44824Y-19589D01*
X44786Y-19558D01*
X44754Y-19521D01*
X44731Y-19478D01*
X44716Y-19431D01*
X44711Y-19383D01*
X44715Y-19335D01*
X44728Y-19288D01*
X44750Y-19245D01*
X44781Y-19207D01*
X44818Y-19175D01*
X44860Y-19151D01*
X44907Y-19136D01*
X44955Y-19131D01*
X45003Y-19134D01*
X45050Y-19147D01*
X45093Y-19169D01*
X45132Y-19199D01*
X45164Y-19236D01*
X45188Y-19279D01*
X45203Y-19325D01*
X45209Y-19374D01*
X45210Y-19380D01*
X45435Y-26630D02*
X45435Y-19030D01*
X37585Y-19030D02*
X37585Y-26630D01*
X37710Y-18905D02*
X45310Y-18905D01*
X45310Y-26755D02*
X37710Y-26755D01*
X37585Y-26630D02*
X37710Y-26755D01*
X45435Y-26630D02*
X45310Y-26755D01*
X37585Y-19030D02*
X37710Y-18905D01*
X45435Y-19030D02*
X45310Y-18905D01*
G54D12*
X53101Y-17930D02*
X53098Y-17957D01*
X53090Y-17983D01*
X53077Y-18008D01*
X53060Y-18029D01*
X53038Y-18046D01*
X53014Y-18059D01*
X52988Y-18068D01*
X52960Y-18070D01*
X52934Y-18068D01*
X52908Y-18060D01*
X52883Y-18047D01*
X52862Y-18030D01*
X52844Y-18009D01*
X52831Y-17985D01*
X52823Y-17959D01*
X52820Y-17931D01*
X52822Y-17905D01*
X52829Y-17879D01*
X52842Y-17854D01*
X52859Y-17833D01*
X52880Y-17815D01*
X52904Y-17801D01*
X52930Y-17793D01*
X52958Y-17790D01*
X52984Y-17792D01*
X53010Y-17799D01*
X53035Y-17811D01*
X53057Y-17828D01*
X53075Y-17849D01*
X53088Y-17873D01*
X53097Y-17899D01*
X53100Y-17927D01*
X53101Y-17930D01*
X52760Y-16830D02*
X53060Y-16830D01*
X53060Y-16830D02*
X53060Y-17330D01*
X53060Y-17330D02*
X52760Y-17330D01*
X56810Y-18130D02*
X52760Y-18130D01*
X52760Y-16030D02*
X56810Y-16030D01*
X52760Y-16030D02*
X52760Y-18130D01*
X56810Y-16030D02*
X56810Y-18130D01*
G54D18*
X19043Y-14445D02*
X21443Y-14445D01*
X21443Y-14445D02*
X21443Y-17145D01*
X21443Y-17145D02*
X18343Y-17145D01*
X18293Y-17145D02*
X18293Y-14445D01*
X18343Y-14445D02*
X19043Y-14445D01*
X19048Y-20480D02*
X21448Y-20480D01*
X21448Y-20480D02*
X21448Y-23180D01*
X21448Y-23180D02*
X18348Y-23180D01*
X18298Y-23180D02*
X18298Y-20480D01*
X18348Y-20480D02*
X19048Y-20480D01*
X19048Y-17480D02*
X21448Y-17480D01*
X21448Y-17480D02*
X21448Y-20180D01*
X21448Y-20180D02*
X18348Y-20180D01*
X18298Y-20180D02*
X18298Y-17480D01*
X18348Y-17480D02*
X19048Y-17480D01*
X19048Y-26480D02*
X21448Y-26480D01*
X21448Y-26480D02*
X21448Y-29180D01*
X21448Y-29180D02*
X18348Y-29180D01*
X18298Y-29180D02*
X18298Y-26480D01*
X18348Y-26480D02*
X19048Y-26480D01*
X19048Y-29480D02*
X21448Y-29480D01*
X21448Y-29480D02*
X21448Y-32180D01*
X21448Y-32180D02*
X18348Y-32180D01*
X18298Y-32180D02*
X18298Y-29480D01*
X18348Y-29480D02*
X19048Y-29480D01*
X19067Y-35437D02*
X21467Y-35437D01*
X21467Y-35437D02*
X21467Y-38137D01*
X21467Y-38137D02*
X18367Y-38137D01*
X18317Y-38137D02*
X18317Y-35437D01*
X18367Y-35437D02*
X19067Y-35437D01*
X19048Y-32480D02*
X21448Y-32480D01*
X21448Y-32480D02*
X21448Y-35180D01*
X21448Y-35180D02*
X18348Y-35180D01*
X18298Y-35180D02*
X18298Y-32480D01*
X18348Y-32480D02*
X19048Y-32480D01*
X19058Y-23460D02*
X21458Y-23460D01*
X21458Y-23460D02*
X21458Y-26160D01*
X21458Y-26160D02*
X18358Y-26160D01*
X18308Y-26160D02*
X18308Y-23460D01*
X18358Y-23460D02*
X19058Y-23460D01*
G54D12*
X52160Y-21870D02*
X50600Y-21870D01*
X50600Y-21870D02*
X50600Y-23770D01*
X50600Y-23770D02*
X52160Y-23770D01*
X52160Y-23770D02*
X52160Y-21870D01*
X52160Y-22070D02*
X52590Y-22070D01*
X52160Y-22570D02*
X52590Y-22570D01*
X52160Y-23070D02*
X52590Y-23070D01*
X52590Y-23570D02*
X52160Y-23570D01*
X50600Y-23570D02*
X50170Y-23570D01*
X50170Y-23070D02*
X50600Y-23070D01*
X50170Y-22570D02*
X50600Y-22570D01*
X50170Y-22070D02*
X50600Y-22070D01*
X51076Y-22160D02*
X51072Y-22196D01*
X51061Y-22230D01*
X51044Y-22262D01*
X51021Y-22291D01*
X50994Y-22314D01*
X50962Y-22331D01*
X50927Y-22342D01*
X50891Y-22345D01*
X50856Y-22342D01*
X50821Y-22332D01*
X50789Y-22315D01*
X50760Y-22292D01*
X50737Y-22265D01*
X50720Y-22233D01*
X50709Y-22198D01*
X50705Y-22162D01*
X50708Y-22127D01*
X50718Y-22092D01*
X50734Y-22060D01*
X50757Y-22031D01*
X50784Y-22008D01*
X50816Y-21990D01*
X50851Y-21979D01*
X50887Y-21975D01*
X50922Y-21977D01*
X50957Y-21987D01*
X50989Y-22003D01*
X51018Y-22026D01*
X51041Y-22053D01*
X51059Y-22085D01*
X51071Y-22119D01*
X51075Y-22155D01*
X51076Y-22160D01*
X56108Y-19671D02*
X56608Y-19671D01*
X56108Y-20171D02*
X56598Y-20171D01*
X56108Y-20321D02*
X56108Y-19521D01*
X56108Y-19521D02*
X56608Y-19521D01*
X56608Y-19521D02*
X56608Y-20321D01*
X56608Y-20321D02*
X56108Y-20321D01*
X29673Y-12938D02*
X31233Y-12938D01*
X31233Y-12938D02*
X31233Y-11038D01*
X31233Y-11038D02*
X29673Y-11038D01*
X29673Y-11038D02*
X29673Y-12938D01*
X29673Y-12738D02*
X29243Y-12738D01*
X29673Y-12238D02*
X29243Y-12238D01*
X29673Y-11738D02*
X29243Y-11738D01*
X29243Y-11238D02*
X29673Y-11238D01*
X31233Y-11238D02*
X31663Y-11238D01*
X31663Y-11738D02*
X31233Y-11738D01*
X31663Y-12238D02*
X31233Y-12238D01*
X31663Y-12738D02*
X31233Y-12738D01*
X31129Y-12648D02*
X31125Y-12684D01*
X31114Y-12718D01*
X31097Y-12750D01*
X31074Y-12779D01*
X31047Y-12802D01*
X31015Y-12819D01*
X30980Y-12830D01*
X30944Y-12833D01*
X30909Y-12830D01*
X30874Y-12820D01*
X30842Y-12803D01*
X30813Y-12780D01*
X30790Y-12753D01*
X30773Y-12721D01*
X30762Y-12686D01*
X30758Y-12650D01*
X30761Y-12615D01*
X30771Y-12580D01*
X30787Y-12548D01*
X30810Y-12519D01*
X30837Y-12496D01*
X30869Y-12478D01*
X30904Y-12467D01*
X30940Y-12463D01*
X30975Y-12465D01*
X31010Y-12475D01*
X31042Y-12491D01*
X31071Y-12514D01*
X31094Y-12541D01*
X31112Y-12573D01*
X31124Y-12607D01*
X31128Y-12643D01*
X31129Y-12648D01*
G54D18*
X15626Y-35239D02*
X15618Y-35316D01*
X15595Y-35390D01*
X15559Y-35459D01*
X15510Y-35519D01*
X15450Y-35568D01*
X15382Y-35605D01*
X15308Y-35628D01*
X15230Y-35636D01*
X15154Y-35629D01*
X15079Y-35608D01*
X15011Y-35572D01*
X14950Y-35523D01*
X14900Y-35463D01*
X14863Y-35395D01*
X14839Y-35321D01*
X14831Y-35244D01*
X14837Y-35168D01*
X14858Y-35093D01*
X14894Y-35024D01*
X14942Y-34963D01*
X15001Y-34913D01*
X15069Y-34875D01*
X15143Y-34851D01*
X15220Y-34842D01*
X15297Y-34848D01*
X15371Y-34868D01*
X15441Y-34903D01*
X15502Y-34951D01*
X15553Y-35010D01*
X15591Y-35078D01*
X15616Y-35151D01*
X15625Y-35228D01*
X15626Y-35239D01*
X15626Y-32212D02*
X15618Y-32289D01*
X15595Y-32363D01*
X15559Y-32432D01*
X15510Y-32492D01*
X15450Y-32541D01*
X15382Y-32578D01*
X15308Y-32601D01*
X15230Y-32609D01*
X15154Y-32602D01*
X15079Y-32581D01*
X15011Y-32545D01*
X14950Y-32496D01*
X14900Y-32436D01*
X14863Y-32368D01*
X14839Y-32294D01*
X14831Y-32217D01*
X14837Y-32141D01*
X14858Y-32066D01*
X14894Y-31997D01*
X14942Y-31936D01*
X15001Y-31886D01*
X15069Y-31848D01*
X15143Y-31824D01*
X15220Y-31815D01*
X15297Y-31821D01*
X15371Y-31841D01*
X15441Y-31876D01*
X15502Y-31924D01*
X15553Y-31983D01*
X15591Y-32051D01*
X15616Y-32124D01*
X15625Y-32201D01*
X15626Y-32212D01*
X15595Y-29212D02*
X15587Y-29289D01*
X15564Y-29363D01*
X15528Y-29432D01*
X15479Y-29492D01*
X15419Y-29541D01*
X15351Y-29578D01*
X15277Y-29601D01*
X15199Y-29609D01*
X15123Y-29602D01*
X15048Y-29581D01*
X14980Y-29545D01*
X14919Y-29496D01*
X14869Y-29436D01*
X14832Y-29368D01*
X14808Y-29294D01*
X14800Y-29217D01*
X14806Y-29141D01*
X14827Y-29066D01*
X14863Y-28997D01*
X14911Y-28936D01*
X14970Y-28886D01*
X15038Y-28848D01*
X15112Y-28824D01*
X15189Y-28815D01*
X15266Y-28821D01*
X15340Y-28841D01*
X15410Y-28876D01*
X15471Y-28924D01*
X15522Y-28983D01*
X15560Y-29051D01*
X15585Y-29124D01*
X15594Y-29201D01*
X15595Y-29212D01*
X15595Y-26212D02*
X15587Y-26289D01*
X15564Y-26363D01*
X15528Y-26432D01*
X15479Y-26492D01*
X15419Y-26541D01*
X15351Y-26578D01*
X15277Y-26601D01*
X15199Y-26609D01*
X15123Y-26602D01*
X15048Y-26581D01*
X14980Y-26545D01*
X14919Y-26496D01*
X14869Y-26436D01*
X14832Y-26368D01*
X14808Y-26294D01*
X14800Y-26217D01*
X14806Y-26141D01*
X14827Y-26066D01*
X14863Y-25997D01*
X14911Y-25936D01*
X14970Y-25886D01*
X15038Y-25848D01*
X15112Y-25824D01*
X15189Y-25815D01*
X15266Y-25821D01*
X15340Y-25841D01*
X15410Y-25876D01*
X15471Y-25924D01*
X15522Y-25983D01*
X15560Y-26051D01*
X15585Y-26124D01*
X15594Y-26201D01*
X15595Y-26212D01*
X15642Y-23212D02*
X15634Y-23289D01*
X15611Y-23363D01*
X15575Y-23432D01*
X15526Y-23492D01*
X15466Y-23541D01*
X15398Y-23578D01*
X15324Y-23601D01*
X15246Y-23609D01*
X15170Y-23602D01*
X15095Y-23581D01*
X15027Y-23545D01*
X14966Y-23496D01*
X14916Y-23436D01*
X14879Y-23368D01*
X14855Y-23294D01*
X14847Y-23217D01*
X14853Y-23141D01*
X14874Y-23066D01*
X14910Y-22997D01*
X14958Y-22936D01*
X15017Y-22886D01*
X15085Y-22848D01*
X15159Y-22824D01*
X15236Y-22815D01*
X15313Y-22821D01*
X15387Y-22841D01*
X15457Y-22876D01*
X15518Y-22924D01*
X15569Y-22983D01*
X15607Y-23051D01*
X15632Y-23124D01*
X15641Y-23201D01*
X15642Y-23212D01*
X15611Y-20210D02*
X15603Y-20287D01*
X15580Y-20361D01*
X15544Y-20430D01*
X15495Y-20490D01*
X15435Y-20539D01*
X15367Y-20576D01*
X15293Y-20599D01*
X15215Y-20607D01*
X15139Y-20600D01*
X15064Y-20579D01*
X14996Y-20543D01*
X14935Y-20494D01*
X14885Y-20434D01*
X14848Y-20366D01*
X14824Y-20292D01*
X14816Y-20215D01*
X14822Y-20139D01*
X14843Y-20064D01*
X14879Y-19995D01*
X14927Y-19934D01*
X14986Y-19884D01*
X15054Y-19846D01*
X15128Y-19822D01*
X15205Y-19813D01*
X15282Y-19819D01*
X15356Y-19839D01*
X15426Y-19874D01*
X15487Y-19922D01*
X15538Y-19981D01*
X15576Y-20049D01*
X15601Y-20122D01*
X15610Y-20199D01*
X15611Y-20210D01*
X15611Y-17210D02*
X15603Y-17287D01*
X15580Y-17361D01*
X15544Y-17430D01*
X15495Y-17490D01*
X15435Y-17539D01*
X15367Y-17576D01*
X15293Y-17599D01*
X15215Y-17607D01*
X15139Y-17600D01*
X15064Y-17579D01*
X14996Y-17543D01*
X14935Y-17494D01*
X14885Y-17434D01*
X14848Y-17366D01*
X14824Y-17292D01*
X14816Y-17215D01*
X14822Y-17139D01*
X14843Y-17064D01*
X14879Y-16995D01*
X14927Y-16934D01*
X14986Y-16884D01*
X15054Y-16846D01*
X15128Y-16822D01*
X15205Y-16813D01*
X15282Y-16819D01*
X15356Y-16839D01*
X15426Y-16874D01*
X15487Y-16922D01*
X15538Y-16981D01*
X15576Y-17049D01*
X15601Y-17122D01*
X15610Y-17199D01*
X15611Y-17210D01*
X15571Y-14269D02*
X15563Y-14346D01*
X15540Y-14420D01*
X15504Y-14489D01*
X15455Y-14549D01*
X15395Y-14598D01*
X15327Y-14635D01*
X15253Y-14658D01*
X15175Y-14666D01*
X15099Y-14659D01*
X15024Y-14638D01*
X14956Y-14602D01*
X14895Y-14553D01*
X14845Y-14493D01*
X14808Y-14425D01*
X14784Y-14351D01*
X14776Y-14274D01*
X14782Y-14198D01*
X14803Y-14123D01*
X14839Y-14054D01*
X14887Y-13993D01*
X14946Y-13943D01*
X15014Y-13905D01*
X15088Y-13881D01*
X15165Y-13872D01*
X15242Y-13878D01*
X15316Y-13898D01*
X15386Y-13933D01*
X15447Y-13981D01*
X15498Y-14040D01*
X15536Y-14108D01*
X15561Y-14181D01*
X15570Y-14258D01*
X15571Y-14269D01*
G54D12*
X19043Y-12997D02*
X20603Y-12997D01*
X20603Y-12997D02*
X20603Y-11097D01*
X20603Y-11097D02*
X19043Y-11097D01*
X19043Y-11097D02*
X19043Y-12997D01*
X19043Y-12797D02*
X18613Y-12797D01*
X19043Y-12297D02*
X18613Y-12297D01*
X19043Y-11797D02*
X18613Y-11797D01*
X18613Y-11297D02*
X19043Y-11297D01*
X20603Y-11297D02*
X21033Y-11297D01*
X21033Y-11797D02*
X20603Y-11797D01*
X21033Y-12297D02*
X20603Y-12297D01*
X21033Y-12797D02*
X20603Y-12797D01*
X20499Y-12707D02*
X20495Y-12743D01*
X20484Y-12777D01*
X20467Y-12809D01*
X20444Y-12838D01*
X20417Y-12861D01*
X20385Y-12878D01*
X20350Y-12889D01*
X20314Y-12892D01*
X20279Y-12889D01*
X20244Y-12879D01*
X20212Y-12862D01*
X20183Y-12839D01*
X20160Y-12812D01*
X20143Y-12780D01*
X20132Y-12745D01*
X20128Y-12709D01*
X20131Y-12674D01*
X20141Y-12639D01*
X20157Y-12607D01*
X20180Y-12578D01*
X20207Y-12555D01*
X20239Y-12537D01*
X20274Y-12526D01*
X20310Y-12522D01*
X20345Y-12524D01*
X20380Y-12534D01*
X20412Y-12550D01*
X20441Y-12573D01*
X20464Y-12600D01*
X20482Y-12632D01*
X20494Y-12666D01*
X20498Y-12702D01*
X20499Y-12707D01*
X49981Y-37399D02*
X49981Y-36759D01*
X49081Y-36759D02*
X49081Y-37399D01*
X48901Y-36759D02*
X48901Y-37399D01*
X48901Y-37399D02*
X50161Y-37399D01*
X50161Y-37399D02*
X50161Y-36759D01*
X50161Y-36759D02*
X48901Y-36759D01*
G54D10*
X63759Y-17595D02*
X62069Y-17595D01*
X62069Y-17595D02*
X62069Y-15006D01*
X62069Y-15006D02*
X63759Y-15006D01*
G54D22*
X63759Y-15006D02*
X63759Y-17595D01*
G54D12*
X59897Y-26130D02*
X59897Y-25870D01*
X60647Y-26130D02*
X60647Y-25870D01*
X60272Y-26680D02*
X60272Y-26940D01*
X60862Y-26680D02*
X59682Y-26680D01*
X59682Y-26680D02*
X59682Y-26130D01*
X59682Y-26130D02*
X60862Y-26130D01*
X60862Y-26130D02*
X60862Y-26680D01*
X61636Y-29517D02*
X62136Y-29517D01*
X61636Y-30017D02*
X62126Y-30017D01*
X61636Y-30167D02*
X61636Y-29367D01*
X61636Y-29367D02*
X62136Y-29367D01*
X62136Y-29367D02*
X62136Y-30167D01*
X62136Y-30167D02*
X61636Y-30167D01*
X61884Y-26628D02*
X61384Y-26628D01*
X61884Y-26128D02*
X61394Y-26128D01*
X61884Y-25978D02*
X61884Y-26778D01*
X61884Y-26778D02*
X61384Y-26778D01*
X61384Y-26778D02*
X61384Y-25978D01*
X61384Y-25978D02*
X61884Y-25978D01*
X61636Y-31017D02*
X62136Y-31017D01*
X61636Y-31517D02*
X62126Y-31517D01*
X61636Y-31667D02*
X61636Y-30867D01*
X61636Y-30867D02*
X62136Y-30867D01*
X62136Y-30867D02*
X62136Y-31667D01*
X62136Y-31667D02*
X61636Y-31667D01*
X61636Y-28037D02*
X62136Y-28037D01*
X61636Y-28537D02*
X62126Y-28537D01*
X61636Y-28687D02*
X61636Y-27887D01*
X61636Y-27887D02*
X62136Y-27887D01*
X62136Y-27887D02*
X62136Y-28687D01*
X62136Y-28687D02*
X61636Y-28687D01*
G54D23*
X59744Y-21547D02*
X61004Y-21547D01*
X61004Y-21547D02*
X61004Y-20816D01*
X59744Y-20816D02*
X61004Y-20816D01*
X59744Y-21547D02*
X59744Y-20816D01*
X60204Y-23696D02*
X60544Y-23696D01*
X60544Y-23696D02*
X60544Y-22965D01*
X60204Y-22965D02*
X60544Y-22965D01*
X60204Y-23696D02*
X60204Y-22965D01*
X59294Y-23696D02*
X59634Y-23696D01*
X59634Y-23696D02*
X59634Y-22965D01*
X59294Y-22965D02*
X59634Y-22965D01*
X59294Y-23696D02*
X59294Y-22965D01*
X61114Y-23696D02*
X61454Y-23696D01*
X61454Y-23696D02*
X61454Y-22965D01*
X61114Y-22965D02*
X61454Y-22965D01*
X61114Y-23696D02*
X61114Y-22965D01*
X59744Y-21547D02*
X61004Y-21547D01*
X61004Y-21547D02*
X61004Y-20816D01*
X59744Y-20816D02*
X61004Y-20816D01*
X59744Y-21547D02*
X59744Y-20816D01*
X60204Y-23696D02*
X60544Y-23696D01*
X60544Y-23696D02*
X60544Y-22965D01*
X60204Y-22965D02*
X60544Y-22965D01*
X60204Y-23696D02*
X60204Y-22965D01*
X59294Y-23696D02*
X59634Y-23696D01*
X59634Y-23696D02*
X59634Y-22965D01*
X59294Y-22965D02*
X59634Y-22965D01*
X59294Y-23696D02*
X59294Y-22965D01*
X61114Y-23696D02*
X61454Y-23696D01*
X61454Y-23696D02*
X61454Y-22965D01*
X61114Y-22965D02*
X61454Y-22965D01*
X61114Y-23696D02*
X61114Y-22965D01*
G54D24*
X61664Y-21556D02*
X61664Y-22956D01*
X61664Y-22956D02*
X59084Y-22956D01*
X59084Y-22956D02*
X59084Y-21556D01*
X59084Y-21556D02*
X61664Y-21556D01*
G54D12*
X44921Y-15325D02*
X44921Y-15568D01*
X44936Y-15597D01*
X44950Y-15611D01*
X44979Y-15625D01*
X45036Y-15625D01*
X45064Y-15611D01*
X45079Y-15597D01*
X45093Y-15568D01*
X45093Y-15325D01*
X45364Y-15425D02*
X45364Y-15625D01*
X45293Y-15311D02*
X45221Y-15525D01*
X45407Y-15525D01*
G54D21*
X32677Y-27905D02*
X32639Y-27886D01*
X32601Y-27848D01*
X32544Y-27791D01*
X32505Y-27772D01*
X32467Y-27772D01*
X32486Y-27867D02*
X32448Y-27848D01*
X32410Y-27810D01*
X32391Y-27734D01*
X32391Y-27600D01*
X32410Y-27524D01*
X32448Y-27486D01*
X32486Y-27467D01*
X32563Y-27467D01*
X32601Y-27486D01*
X32639Y-27524D01*
X32658Y-27600D01*
X32658Y-27734D01*
X32639Y-27810D01*
X32601Y-27848D01*
X32563Y-27867D01*
X32486Y-27867D01*
X33039Y-27867D02*
X32810Y-27867D01*
X32924Y-27867D02*
X32924Y-27467D01*
X32886Y-27524D01*
X32848Y-27562D01*
X32810Y-27581D01*
X33420Y-27867D02*
X33191Y-27867D01*
X33305Y-27867D02*
X33305Y-27467D01*
X33267Y-27524D01*
X33229Y-27562D01*
X33191Y-27581D01*
X30599Y-32680D02*
X30561Y-32661D01*
X30523Y-32623D01*
X30466Y-32566D01*
X30427Y-32547D01*
X30389Y-32547D01*
X30408Y-32642D02*
X30370Y-32623D01*
X30332Y-32585D01*
X30313Y-32509D01*
X30313Y-32375D01*
X30332Y-32299D01*
X30370Y-32261D01*
X30408Y-32242D01*
X30485Y-32242D01*
X30523Y-32261D01*
X30561Y-32299D01*
X30580Y-32375D01*
X30580Y-32509D01*
X30561Y-32585D01*
X30523Y-32623D01*
X30485Y-32642D01*
X30408Y-32642D01*
X30961Y-32642D02*
X30732Y-32642D01*
X30846Y-32642D02*
X30846Y-32242D01*
X30808Y-32299D01*
X30770Y-32337D01*
X30732Y-32356D01*
X31208Y-32242D02*
X31247Y-32242D01*
X31285Y-32261D01*
X31304Y-32280D01*
X31323Y-32318D01*
X31342Y-32394D01*
X31342Y-32490D01*
X31323Y-32566D01*
X31304Y-32604D01*
X31285Y-32623D01*
X31247Y-32642D01*
X31208Y-32642D01*
X31170Y-32623D01*
X31151Y-32604D01*
X31132Y-32566D01*
X31113Y-32490D01*
X31113Y-32394D01*
X31132Y-32318D01*
X31151Y-32280D01*
X31170Y-32261D01*
X31208Y-32242D01*
X36392Y-32670D02*
X36354Y-32651D01*
X36316Y-32613D01*
X36259Y-32556D01*
X36220Y-32537D01*
X36182Y-32537D01*
X36201Y-32632D02*
X36163Y-32613D01*
X36125Y-32575D01*
X36106Y-32499D01*
X36106Y-32365D01*
X36125Y-32289D01*
X36163Y-32251D01*
X36201Y-32232D01*
X36278Y-32232D01*
X36316Y-32251D01*
X36354Y-32289D01*
X36373Y-32365D01*
X36373Y-32499D01*
X36354Y-32575D01*
X36316Y-32613D01*
X36278Y-32632D01*
X36201Y-32632D01*
X36563Y-32632D02*
X36639Y-32632D01*
X36678Y-32613D01*
X36697Y-32594D01*
X36735Y-32537D01*
X36754Y-32460D01*
X36754Y-32308D01*
X36735Y-32270D01*
X36716Y-32251D01*
X36678Y-32232D01*
X36601Y-32232D01*
X36563Y-32251D01*
X36544Y-32270D01*
X36525Y-32308D01*
X36525Y-32403D01*
X36544Y-32441D01*
X36563Y-32460D01*
X36601Y-32480D01*
X36678Y-32480D01*
X36716Y-32460D01*
X36735Y-32441D01*
X36754Y-32403D01*
G54D12*
X45669Y-18585D02*
X45669Y-18828D01*
X45684Y-18857D01*
X45698Y-18871D01*
X45727Y-18885D01*
X45784Y-18885D01*
X45812Y-18871D01*
X45827Y-18857D01*
X45841Y-18828D01*
X45841Y-18585D01*
X46141Y-18885D02*
X45969Y-18885D01*
X46055Y-18885D02*
X46055Y-18585D01*
X46026Y-18628D01*
X45998Y-18657D01*
X45969Y-18671D01*
G54D21*
X39773Y-22672D02*
X39773Y-22272D01*
X39907Y-22558D01*
X40040Y-22272D01*
X40040Y-22672D01*
X40459Y-22634D02*
X40440Y-22653D01*
X40383Y-22672D01*
X40345Y-22672D01*
X40287Y-22653D01*
X40249Y-22615D01*
X40230Y-22577D01*
X40211Y-22500D01*
X40211Y-22443D01*
X40230Y-22367D01*
X40249Y-22329D01*
X40287Y-22291D01*
X40345Y-22272D01*
X40383Y-22272D01*
X40440Y-22291D01*
X40459Y-22310D01*
X40649Y-22672D02*
X40725Y-22672D01*
X40764Y-22653D01*
X40783Y-22634D01*
X40821Y-22577D01*
X40840Y-22500D01*
X40840Y-22348D01*
X40821Y-22310D01*
X40802Y-22291D01*
X40764Y-22272D01*
X40687Y-22272D01*
X40649Y-22291D01*
X40630Y-22310D01*
X40611Y-22348D01*
X40611Y-22443D01*
X40630Y-22481D01*
X40649Y-22500D01*
X40687Y-22520D01*
X40764Y-22520D01*
X40802Y-22500D01*
X40821Y-22481D01*
X40840Y-22443D01*
X40992Y-22653D02*
X41049Y-22672D01*
X41145Y-22672D01*
X41183Y-22653D01*
X41202Y-22634D01*
X41221Y-22596D01*
X41221Y-22558D01*
X41202Y-22520D01*
X41183Y-22500D01*
X41145Y-22481D01*
X41068Y-22462D01*
X41030Y-22443D01*
X41011Y-22424D01*
X40992Y-22386D01*
X40992Y-22348D01*
X41011Y-22310D01*
X41030Y-22291D01*
X41068Y-22272D01*
X41164Y-22272D01*
X41221Y-22291D01*
X41602Y-22672D02*
X41373Y-22672D01*
X41487Y-22672D02*
X41487Y-22272D01*
X41449Y-22329D01*
X41411Y-22367D01*
X41373Y-22386D01*
X41754Y-22310D02*
X41773Y-22291D01*
X41811Y-22272D01*
X41907Y-22272D01*
X41945Y-22291D01*
X41964Y-22310D01*
X41983Y-22348D01*
X41983Y-22386D01*
X41964Y-22443D01*
X41735Y-22672D01*
X41983Y-22672D01*
X42116Y-22272D02*
X42383Y-22672D01*
X42383Y-22272D02*
X42116Y-22672D01*
X42535Y-22672D02*
X42535Y-22272D01*
X42630Y-22272D01*
X42688Y-22291D01*
X42726Y-22329D01*
X42745Y-22367D01*
X42764Y-22443D01*
X42764Y-22500D01*
X42745Y-22577D01*
X42726Y-22615D01*
X42688Y-22653D01*
X42630Y-22672D01*
X42535Y-22672D01*
X42935Y-22672D02*
X42935Y-22272D01*
X43088Y-22272D01*
X43126Y-22291D01*
X43145Y-22310D01*
X43164Y-22348D01*
X43164Y-22405D01*
X43145Y-22443D01*
X43126Y-22462D01*
X43088Y-22481D01*
X42935Y-22481D01*
X43526Y-22272D02*
X43335Y-22272D01*
X43316Y-22462D01*
X43335Y-22443D01*
X43373Y-22424D01*
X43469Y-22424D01*
X43507Y-22443D01*
X43526Y-22462D01*
X43545Y-22500D01*
X43545Y-22596D01*
X43526Y-22634D01*
X43507Y-22653D01*
X43469Y-22672D01*
X43373Y-22672D01*
X43335Y-22653D01*
X43316Y-22634D01*
X43926Y-22672D02*
X43697Y-22672D01*
X43811Y-22672D02*
X43811Y-22272D01*
X43773Y-22329D01*
X43735Y-22367D01*
X43697Y-22386D01*
X44078Y-22310D02*
X44097Y-22291D01*
X44135Y-22272D01*
X44231Y-22272D01*
X44269Y-22291D01*
X44288Y-22310D01*
X44307Y-22348D01*
X44307Y-22386D01*
X44288Y-22443D01*
X44059Y-22672D01*
X44307Y-22672D01*
G54D15*
X45450Y-18673D02*
X45221Y-18673D01*
X45335Y-18673D02*
X45335Y-18073D01*
X45297Y-18159D01*
X45259Y-18216D01*
X45221Y-18244D01*
G54D12*
X52381Y-18400D02*
X52381Y-18643D01*
X52396Y-18672D01*
X52410Y-18686D01*
X52439Y-18700D01*
X52496Y-18700D01*
X52524Y-18686D01*
X52539Y-18672D01*
X52553Y-18643D01*
X52553Y-18400D01*
X52667Y-18400D02*
X52867Y-18400D01*
X52738Y-18700D01*
X54039Y-16641D02*
X53939Y-16641D01*
X53939Y-16798D02*
X53939Y-16498D01*
X54082Y-16498D01*
X54154Y-16498D02*
X54325Y-16498D01*
X54239Y-16798D02*
X54239Y-16498D01*
X54411Y-16527D02*
X54425Y-16513D01*
X54454Y-16498D01*
X54525Y-16498D01*
X54554Y-16513D01*
X54568Y-16527D01*
X54583Y-16556D01*
X54583Y-16584D01*
X54568Y-16627D01*
X54397Y-16798D01*
X54583Y-16798D01*
X54683Y-16498D02*
X54869Y-16498D01*
X54769Y-16613D01*
X54811Y-16613D01*
X54840Y-16627D01*
X54854Y-16641D01*
X54869Y-16670D01*
X54869Y-16741D01*
X54854Y-16770D01*
X54840Y-16784D01*
X54811Y-16798D01*
X54726Y-16798D01*
X54697Y-16784D01*
X54683Y-16770D01*
X54983Y-16527D02*
X54997Y-16513D01*
X55026Y-16498D01*
X55097Y-16498D01*
X55126Y-16513D01*
X55140Y-16527D01*
X55155Y-16556D01*
X55155Y-16584D01*
X55140Y-16627D01*
X54969Y-16798D01*
X55155Y-16798D01*
X55455Y-16798D02*
X55355Y-16656D01*
X55283Y-16798D02*
X55283Y-16498D01*
X55398Y-16498D01*
X55426Y-16513D01*
X55441Y-16527D01*
X55455Y-16556D01*
X55455Y-16598D01*
X55441Y-16627D01*
X55426Y-16641D01*
X55398Y-16656D01*
X55283Y-16656D01*
X55726Y-16798D02*
X55583Y-16798D01*
X55583Y-16498D01*
G54D21*
X18133Y-15853D02*
X18114Y-15891D01*
X18076Y-15929D01*
X18019Y-15986D01*
X18000Y-16025D01*
X18000Y-16063D01*
X18095Y-16044D02*
X18076Y-16082D01*
X18038Y-16120D01*
X17962Y-16139D01*
X17828Y-16139D01*
X17752Y-16120D01*
X17714Y-16082D01*
X17695Y-16044D01*
X17695Y-15967D01*
X17714Y-15929D01*
X17752Y-15891D01*
X17828Y-15872D01*
X17962Y-15872D01*
X18038Y-15891D01*
X18076Y-15929D01*
X18095Y-15967D01*
X18095Y-16044D01*
X18095Y-15491D02*
X18095Y-15720D01*
X18095Y-15606D02*
X17695Y-15606D01*
X17752Y-15644D01*
X17790Y-15682D01*
X17809Y-15720D01*
X18148Y-21888D02*
X18129Y-21926D01*
X18091Y-21964D01*
X18034Y-22021D01*
X18015Y-22060D01*
X18015Y-22098D01*
X18110Y-22079D02*
X18091Y-22117D01*
X18053Y-22155D01*
X17977Y-22174D01*
X17843Y-22174D01*
X17767Y-22155D01*
X17729Y-22117D01*
X17710Y-22079D01*
X17710Y-22002D01*
X17729Y-21964D01*
X17767Y-21926D01*
X17843Y-21907D01*
X17977Y-21907D01*
X18053Y-21926D01*
X18091Y-21964D01*
X18110Y-22002D01*
X18110Y-22079D01*
X17710Y-21774D02*
X17710Y-21526D01*
X17862Y-21660D01*
X17862Y-21602D01*
X17881Y-21564D01*
X17900Y-21545D01*
X17938Y-21526D01*
X18034Y-21526D01*
X18072Y-21545D01*
X18091Y-21564D01*
X18110Y-21602D01*
X18110Y-21717D01*
X18091Y-21755D01*
X18072Y-21774D01*
X18138Y-18888D02*
X18119Y-18926D01*
X18081Y-18964D01*
X18024Y-19021D01*
X18005Y-19060D01*
X18005Y-19098D01*
X18100Y-19079D02*
X18081Y-19117D01*
X18043Y-19155D01*
X17967Y-19174D01*
X17833Y-19174D01*
X17757Y-19155D01*
X17719Y-19117D01*
X17700Y-19079D01*
X17700Y-19002D01*
X17719Y-18964D01*
X17757Y-18926D01*
X17833Y-18907D01*
X17967Y-18907D01*
X18043Y-18926D01*
X18081Y-18964D01*
X18100Y-19002D01*
X18100Y-19079D01*
X17738Y-18755D02*
X17719Y-18736D01*
X17700Y-18698D01*
X17700Y-18602D01*
X17719Y-18564D01*
X17738Y-18545D01*
X17776Y-18526D01*
X17814Y-18526D01*
X17871Y-18545D01*
X18100Y-18774D01*
X18100Y-18526D01*
X18168Y-27888D02*
X18149Y-27926D01*
X18111Y-27964D01*
X18054Y-28021D01*
X18035Y-28060D01*
X18035Y-28098D01*
X18130Y-28079D02*
X18111Y-28117D01*
X18073Y-28155D01*
X17997Y-28174D01*
X17863Y-28174D01*
X17787Y-28155D01*
X17749Y-28117D01*
X17730Y-28079D01*
X17730Y-28002D01*
X17749Y-27964D01*
X17787Y-27926D01*
X17863Y-27907D01*
X17997Y-27907D01*
X18073Y-27926D01*
X18111Y-27964D01*
X18130Y-28002D01*
X18130Y-28079D01*
X17730Y-27545D02*
X17730Y-27736D01*
X17920Y-27755D01*
X17901Y-27736D01*
X17882Y-27698D01*
X17882Y-27602D01*
X17901Y-27564D01*
X17920Y-27545D01*
X17958Y-27526D01*
X18054Y-27526D01*
X18092Y-27545D01*
X18111Y-27564D01*
X18130Y-27602D01*
X18130Y-27698D01*
X18111Y-27736D01*
X18092Y-27755D01*
X18148Y-30878D02*
X18129Y-30916D01*
X18091Y-30954D01*
X18034Y-31011D01*
X18015Y-31050D01*
X18015Y-31088D01*
X18110Y-31069D02*
X18091Y-31107D01*
X18053Y-31145D01*
X17977Y-31164D01*
X17843Y-31164D01*
X17767Y-31145D01*
X17729Y-31107D01*
X17710Y-31069D01*
X17710Y-30992D01*
X17729Y-30954D01*
X17767Y-30916D01*
X17843Y-30897D01*
X17977Y-30897D01*
X18053Y-30916D01*
X18091Y-30954D01*
X18110Y-30992D01*
X18110Y-31069D01*
X17710Y-30554D02*
X17710Y-30631D01*
X17729Y-30669D01*
X17748Y-30688D01*
X17805Y-30726D01*
X17881Y-30745D01*
X18034Y-30745D01*
X18072Y-30726D01*
X18091Y-30707D01*
X18110Y-30669D01*
X18110Y-30592D01*
X18091Y-30554D01*
X18072Y-30535D01*
X18034Y-30516D01*
X17938Y-30516D01*
X17900Y-30535D01*
X17881Y-30554D01*
X17862Y-30592D01*
X17862Y-30669D01*
X17881Y-30707D01*
X17900Y-30726D01*
X17938Y-30745D01*
X18157Y-36845D02*
X18138Y-36883D01*
X18100Y-36921D01*
X18043Y-36978D01*
X18024Y-37017D01*
X18024Y-37055D01*
X18119Y-37036D02*
X18100Y-37074D01*
X18062Y-37112D01*
X17986Y-37131D01*
X17852Y-37131D01*
X17776Y-37112D01*
X17738Y-37074D01*
X17719Y-37036D01*
X17719Y-36959D01*
X17738Y-36921D01*
X17776Y-36883D01*
X17852Y-36864D01*
X17986Y-36864D01*
X18062Y-36883D01*
X18100Y-36921D01*
X18119Y-36959D01*
X18119Y-37036D01*
X17890Y-36636D02*
X17871Y-36674D01*
X17852Y-36693D01*
X17814Y-36712D01*
X17795Y-36712D01*
X17757Y-36693D01*
X17738Y-36674D01*
X17719Y-36636D01*
X17719Y-36559D01*
X17738Y-36521D01*
X17757Y-36502D01*
X17795Y-36483D01*
X17814Y-36483D01*
X17852Y-36502D01*
X17871Y-36521D01*
X17890Y-36559D01*
X17890Y-36636D01*
X17909Y-36674D01*
X17928Y-36693D01*
X17967Y-36712D01*
X18043Y-36712D01*
X18081Y-36693D01*
X18100Y-36674D01*
X18119Y-36636D01*
X18119Y-36559D01*
X18100Y-36521D01*
X18081Y-36502D01*
X18043Y-36483D01*
X17967Y-36483D01*
X17928Y-36502D01*
X17909Y-36521D01*
X17890Y-36559D01*
X18158Y-33878D02*
X18139Y-33916D01*
X18101Y-33954D01*
X18044Y-34011D01*
X18025Y-34050D01*
X18025Y-34088D01*
X18120Y-34069D02*
X18101Y-34107D01*
X18063Y-34145D01*
X17987Y-34164D01*
X17853Y-34164D01*
X17777Y-34145D01*
X17739Y-34107D01*
X17720Y-34069D01*
X17720Y-33992D01*
X17739Y-33954D01*
X17777Y-33916D01*
X17853Y-33897D01*
X17987Y-33897D01*
X18063Y-33916D01*
X18101Y-33954D01*
X18120Y-33992D01*
X18120Y-34069D01*
X17720Y-33764D02*
X17720Y-33497D01*
X18120Y-33669D01*
X18178Y-24868D02*
X18159Y-24906D01*
X18121Y-24944D01*
X18064Y-25001D01*
X18045Y-25040D01*
X18045Y-25078D01*
X18140Y-25059D02*
X18121Y-25097D01*
X18083Y-25135D01*
X18007Y-25154D01*
X17873Y-25154D01*
X17797Y-25135D01*
X17759Y-25097D01*
X17740Y-25059D01*
X17740Y-24982D01*
X17759Y-24944D01*
X17797Y-24906D01*
X17873Y-24887D01*
X18007Y-24887D01*
X18083Y-24906D01*
X18121Y-24944D01*
X18140Y-24982D01*
X18140Y-25059D01*
X17873Y-24544D02*
X18140Y-24544D01*
X17721Y-24640D02*
X18007Y-24735D01*
X18007Y-24487D01*
G54D12*
X49881Y-21439D02*
X49881Y-21682D01*
X49896Y-21711D01*
X49910Y-21725D01*
X49939Y-21739D01*
X49996Y-21739D01*
X50024Y-21725D01*
X50039Y-21711D01*
X50053Y-21682D01*
X50053Y-21439D01*
X50238Y-21568D02*
X50210Y-21554D01*
X50195Y-21539D01*
X50181Y-21511D01*
X50181Y-21497D01*
X50195Y-21468D01*
X50210Y-21454D01*
X50238Y-21439D01*
X50295Y-21439D01*
X50324Y-21454D01*
X50338Y-21468D01*
X50353Y-21497D01*
X50353Y-21511D01*
X50338Y-21539D01*
X50324Y-21554D01*
X50295Y-21568D01*
X50238Y-21568D01*
X50210Y-21582D01*
X50195Y-21597D01*
X50181Y-21625D01*
X50181Y-21682D01*
X50195Y-21711D01*
X50210Y-21725D01*
X50238Y-21739D01*
X50295Y-21739D01*
X50324Y-21725D01*
X50338Y-21711D01*
X50353Y-21682D01*
X50353Y-21625D01*
X50338Y-21597D01*
X50324Y-21582D01*
X50295Y-21568D01*
G54D25*
X51498Y-23610D02*
X51498Y-23505D01*
X51561Y-23631D02*
X51341Y-23558D01*
X51561Y-23484D01*
X51561Y-23411D02*
X51341Y-23411D01*
X51341Y-23358D01*
X51352Y-23327D01*
X51372Y-23306D01*
X51393Y-23295D01*
X51435Y-23285D01*
X51467Y-23285D01*
X51509Y-23295D01*
X51530Y-23306D01*
X51551Y-23327D01*
X51561Y-23358D01*
X51561Y-23411D01*
X51341Y-23191D02*
X51519Y-23191D01*
X51540Y-23180D01*
X51551Y-23170D01*
X51561Y-23149D01*
X51561Y-23107D01*
X51551Y-23086D01*
X51540Y-23075D01*
X51519Y-23065D01*
X51341Y-23065D01*
X51561Y-22961D02*
X51341Y-22961D01*
X51498Y-22887D01*
X51341Y-22814D01*
X51561Y-22814D01*
X51341Y-22731D02*
X51561Y-22584D01*
X51341Y-22584D02*
X51561Y-22731D01*
X51362Y-22510D02*
X51352Y-22500D01*
X51341Y-22479D01*
X51341Y-22426D01*
X51352Y-22405D01*
X51362Y-22395D01*
X51383Y-22384D01*
X51404Y-22384D01*
X51435Y-22395D01*
X51561Y-22521D01*
X51561Y-22384D01*
X51341Y-22248D02*
X51341Y-22227D01*
X51352Y-22206D01*
X51362Y-22195D01*
X51383Y-22185D01*
X51425Y-22174D01*
X51477Y-22174D01*
X51519Y-22185D01*
X51540Y-22195D01*
X51551Y-22206D01*
X51561Y-22227D01*
X51561Y-22248D01*
X51551Y-22269D01*
X51540Y-22279D01*
X51519Y-22290D01*
X51477Y-22300D01*
X51425Y-22300D01*
X51383Y-22290D01*
X51362Y-22279D01*
X51352Y-22269D01*
X51341Y-22248D01*
X51561Y-21964D02*
X51561Y-22090D01*
X51561Y-22027D02*
X51341Y-22027D01*
X51372Y-22048D01*
X51393Y-22069D01*
X51404Y-22090D01*
G54D10*
X56016Y-19941D02*
X56016Y-19997D01*
X55898Y-19997D01*
X56016Y-19839D02*
X56016Y-19907D01*
X56016Y-19873D02*
X55898Y-19873D01*
X55915Y-19884D01*
X55926Y-19895D01*
X55931Y-19907D01*
G54D16*
X31353Y-12989D02*
X31353Y-13192D01*
X31364Y-13215D01*
X31376Y-13227D01*
X31400Y-13239D01*
X31448Y-13239D01*
X31472Y-13227D01*
X31483Y-13215D01*
X31495Y-13192D01*
X31495Y-12989D01*
X31626Y-13239D02*
X31674Y-13239D01*
X31698Y-13227D01*
X31710Y-13215D01*
X31734Y-13180D01*
X31745Y-13132D01*
X31745Y-13037D01*
X31734Y-13013D01*
X31722Y-13001D01*
X31698Y-12989D01*
X31650Y-12989D01*
X31626Y-13001D01*
X31615Y-13013D01*
X31603Y-13037D01*
X31603Y-13096D01*
X31615Y-13120D01*
X31626Y-13132D01*
X31650Y-13144D01*
X31698Y-13144D01*
X31722Y-13132D01*
X31734Y-13120D01*
X31745Y-13096D01*
X30304Y-12747D02*
X30304Y-12604D01*
X30554Y-12676D02*
X30304Y-12676D01*
X30530Y-12379D02*
X30542Y-12391D01*
X30554Y-12426D01*
X30554Y-12450D01*
X30542Y-12486D01*
X30518Y-12510D01*
X30495Y-12521D01*
X30447Y-12533D01*
X30411Y-12533D01*
X30364Y-12521D01*
X30340Y-12510D01*
X30316Y-12486D01*
X30304Y-12450D01*
X30304Y-12426D01*
X30316Y-12391D01*
X30328Y-12379D01*
X30388Y-12164D02*
X30554Y-12164D01*
X30292Y-12224D02*
X30471Y-12283D01*
X30471Y-12129D01*
X30388Y-11926D02*
X30554Y-11926D01*
X30292Y-11986D02*
X30471Y-12045D01*
X30471Y-11891D01*
X30328Y-11807D02*
X30316Y-11795D01*
X30304Y-11772D01*
X30304Y-11712D01*
X30316Y-11688D01*
X30328Y-11676D01*
X30352Y-11665D01*
X30376Y-11665D01*
X30411Y-11676D01*
X30554Y-11819D01*
X30554Y-11665D01*
X30304Y-11581D02*
X30554Y-11415D01*
X30304Y-11415D02*
X30554Y-11581D01*
X30483Y-11331D02*
X30483Y-11212D01*
X30554Y-11355D02*
X30304Y-11272D01*
X30554Y-11189D01*
X13998Y-35400D02*
X13998Y-35150D01*
X14117Y-35400D02*
X14117Y-35150D01*
X14259Y-35400D01*
X14259Y-35150D01*
X14450Y-35150D02*
X14450Y-35329D01*
X14438Y-35364D01*
X14414Y-35388D01*
X14379Y-35400D01*
X14355Y-35400D01*
X14604Y-35257D02*
X14580Y-35245D01*
X14569Y-35234D01*
X14557Y-35210D01*
X14557Y-35198D01*
X14569Y-35174D01*
X14580Y-35162D01*
X14604Y-35150D01*
X14652Y-35150D01*
X14676Y-35162D01*
X14688Y-35174D01*
X14699Y-35198D01*
X14699Y-35210D01*
X14688Y-35234D01*
X14676Y-35245D01*
X14652Y-35257D01*
X14604Y-35257D01*
X14580Y-35269D01*
X14569Y-35281D01*
X14557Y-35305D01*
X14557Y-35353D01*
X14569Y-35376D01*
X14580Y-35388D01*
X14604Y-35400D01*
X14652Y-35400D01*
X14676Y-35388D01*
X14688Y-35376D01*
X14699Y-35353D01*
X14699Y-35305D01*
X14688Y-35281D01*
X14676Y-35269D01*
X14652Y-35257D01*
X13967Y-32373D02*
X13967Y-32123D01*
X14086Y-32373D02*
X14086Y-32123D01*
X14228Y-32373D01*
X14228Y-32123D01*
X14419Y-32123D02*
X14419Y-32302D01*
X14407Y-32337D01*
X14383Y-32361D01*
X14348Y-32373D01*
X14324Y-32373D01*
X14514Y-32123D02*
X14680Y-32123D01*
X14573Y-32373D01*
X13983Y-29329D02*
X13983Y-29079D01*
X14102Y-29329D02*
X14102Y-29079D01*
X14244Y-29329D01*
X14244Y-29079D01*
X14435Y-29079D02*
X14435Y-29258D01*
X14423Y-29293D01*
X14399Y-29317D01*
X14364Y-29329D01*
X14340Y-29329D01*
X14661Y-29079D02*
X14613Y-29079D01*
X14589Y-29091D01*
X14577Y-29103D01*
X14554Y-29139D01*
X14542Y-29186D01*
X14542Y-29282D01*
X14554Y-29305D01*
X14565Y-29317D01*
X14589Y-29329D01*
X14637Y-29329D01*
X14661Y-29317D01*
X14673Y-29305D01*
X14684Y-29282D01*
X14684Y-29222D01*
X14673Y-29198D01*
X14661Y-29186D01*
X14637Y-29174D01*
X14589Y-29174D01*
X14565Y-29186D01*
X14554Y-29198D01*
X14542Y-29222D01*
X13983Y-26342D02*
X13983Y-26092D01*
X14102Y-26342D02*
X14102Y-26092D01*
X14244Y-26342D01*
X14244Y-26092D01*
X14435Y-26092D02*
X14435Y-26271D01*
X14423Y-26306D01*
X14399Y-26330D01*
X14364Y-26342D01*
X14340Y-26342D01*
X14673Y-26092D02*
X14554Y-26092D01*
X14542Y-26211D01*
X14554Y-26199D01*
X14577Y-26187D01*
X14637Y-26187D01*
X14661Y-26199D01*
X14673Y-26211D01*
X14684Y-26235D01*
X14684Y-26295D01*
X14673Y-26318D01*
X14661Y-26330D01*
X14637Y-26342D01*
X14577Y-26342D01*
X14554Y-26330D01*
X14542Y-26318D01*
X13998Y-23357D02*
X13998Y-23107D01*
X14117Y-23357D02*
X14117Y-23107D01*
X14259Y-23357D01*
X14259Y-23107D01*
X14450Y-23107D02*
X14450Y-23286D01*
X14438Y-23321D01*
X14414Y-23345D01*
X14379Y-23357D01*
X14355Y-23357D01*
X14676Y-23191D02*
X14676Y-23357D01*
X14616Y-23095D02*
X14557Y-23274D01*
X14711Y-23274D01*
X13992Y-20330D02*
X13992Y-20080D01*
X14111Y-20330D02*
X14111Y-20080D01*
X14253Y-20330D01*
X14253Y-20080D01*
X14444Y-20080D02*
X14444Y-20259D01*
X14432Y-20294D01*
X14408Y-20318D01*
X14373Y-20330D01*
X14349Y-20330D01*
X14539Y-20080D02*
X14693Y-20080D01*
X14610Y-20175D01*
X14646Y-20175D01*
X14670Y-20187D01*
X14682Y-20199D01*
X14693Y-20223D01*
X14693Y-20283D01*
X14682Y-20306D01*
X14670Y-20318D01*
X14646Y-20330D01*
X14574Y-20330D01*
X14551Y-20318D01*
X14539Y-20306D01*
X13979Y-17357D02*
X13979Y-17107D01*
X14098Y-17357D02*
X14098Y-17107D01*
X14240Y-17357D01*
X14240Y-17107D01*
X14431Y-17107D02*
X14431Y-17286D01*
X14419Y-17321D01*
X14395Y-17345D01*
X14360Y-17357D01*
X14336Y-17357D01*
X14538Y-17131D02*
X14550Y-17119D01*
X14573Y-17107D01*
X14633Y-17107D01*
X14657Y-17119D01*
X14669Y-17131D01*
X14680Y-17155D01*
X14680Y-17179D01*
X14669Y-17214D01*
X14526Y-17357D01*
X14680Y-17357D01*
X13970Y-14405D02*
X13970Y-14155D01*
X14089Y-14405D02*
X14089Y-14155D01*
X14231Y-14405D01*
X14231Y-14155D01*
X14422Y-14155D02*
X14422Y-14334D01*
X14410Y-14369D01*
X14386Y-14393D01*
X14351Y-14405D01*
X14327Y-14405D01*
X14671Y-14405D02*
X14529Y-14405D01*
X14600Y-14405D02*
X14600Y-14155D01*
X14576Y-14191D01*
X14552Y-14215D01*
X14529Y-14227D01*
X20715Y-13048D02*
X20715Y-13251D01*
X20726Y-13274D01*
X20738Y-13286D01*
X20762Y-13298D01*
X20810Y-13298D01*
X20834Y-13286D01*
X20845Y-13274D01*
X20857Y-13251D01*
X20857Y-13048D01*
X21107Y-13298D02*
X20965Y-13298D01*
X21036Y-13298D02*
X21036Y-13048D01*
X21012Y-13084D01*
X20988Y-13108D01*
X20965Y-13120D01*
X21203Y-13072D02*
X21215Y-13060D01*
X21238Y-13048D01*
X21298Y-13048D01*
X21322Y-13060D01*
X21334Y-13072D01*
X21345Y-13096D01*
X21345Y-13120D01*
X21334Y-13155D01*
X21191Y-13298D01*
X21345Y-13298D01*
X19615Y-12826D02*
X19615Y-12683D01*
X19865Y-12755D02*
X19615Y-12755D01*
X19841Y-12458D02*
X19853Y-12470D01*
X19865Y-12505D01*
X19865Y-12529D01*
X19853Y-12565D01*
X19829Y-12589D01*
X19806Y-12600D01*
X19758Y-12612D01*
X19722Y-12612D01*
X19675Y-12600D01*
X19651Y-12589D01*
X19627Y-12565D01*
X19615Y-12529D01*
X19615Y-12505D01*
X19627Y-12470D01*
X19639Y-12458D01*
X19699Y-12243D02*
X19865Y-12243D01*
X19603Y-12303D02*
X19782Y-12362D01*
X19782Y-12208D01*
X19699Y-12005D02*
X19865Y-12005D01*
X19603Y-12065D02*
X19782Y-12124D01*
X19782Y-11970D01*
X19639Y-11886D02*
X19627Y-11874D01*
X19615Y-11851D01*
X19615Y-11791D01*
X19627Y-11767D01*
X19639Y-11755D01*
X19663Y-11744D01*
X19687Y-11744D01*
X19722Y-11755D01*
X19865Y-11898D01*
X19865Y-11744D01*
X19615Y-11660D02*
X19865Y-11494D01*
X19615Y-11494D02*
X19865Y-11660D01*
X19794Y-11410D02*
X19794Y-11291D01*
X19865Y-11434D02*
X19615Y-11351D01*
X19865Y-11268D01*
G54D12*
X49487Y-36417D02*
X49387Y-36417D01*
X49387Y-36574D02*
X49387Y-36274D01*
X49530Y-36274D01*
X49802Y-36574D02*
X49630Y-36574D01*
X49716Y-36574D02*
X49716Y-36274D01*
X49687Y-36317D01*
X49659Y-36346D01*
X49630Y-36360D01*
X63057Y-18320D02*
X63272Y-18320D01*
X63315Y-18334D01*
X63343Y-18363D01*
X63357Y-18406D01*
X63357Y-18434D01*
X63357Y-18019D02*
X63357Y-18191D01*
X63357Y-18105D02*
X63057Y-18105D01*
X63100Y-18134D01*
X63129Y-18162D01*
X63143Y-18191D01*
G54D14*
X60018Y-26417D02*
X60018Y-26577D01*
X60027Y-26595D01*
X60037Y-26605D01*
X60055Y-26614D01*
X60093Y-26614D01*
X60112Y-26605D01*
X60121Y-26595D01*
X60130Y-26577D01*
X60130Y-26417D01*
X60327Y-26614D02*
X60215Y-26614D01*
X60271Y-26614D02*
X60271Y-26417D01*
X60252Y-26445D01*
X60233Y-26464D01*
X60215Y-26474D01*
X60393Y-26417D02*
X60515Y-26417D01*
X60449Y-26492D01*
X60478Y-26492D01*
X60496Y-26502D01*
X60506Y-26511D01*
X60515Y-26530D01*
X60515Y-26577D01*
X60506Y-26595D01*
X60496Y-26605D01*
X60478Y-26614D01*
X60421Y-26614D01*
X60403Y-26605D01*
X60393Y-26595D01*
G54D10*
X61544Y-29898D02*
X61488Y-29938D01*
X61544Y-29966D02*
X61426Y-29966D01*
X61426Y-29921D01*
X61431Y-29910D01*
X61437Y-29904D01*
X61448Y-29898D01*
X61465Y-29898D01*
X61476Y-29904D01*
X61482Y-29910D01*
X61488Y-29921D01*
X61488Y-29966D01*
X61544Y-29786D02*
X61544Y-29854D01*
X61544Y-29820D02*
X61426Y-29820D01*
X61443Y-29831D01*
X61454Y-29842D01*
X61459Y-29854D01*
X61426Y-29713D02*
X61426Y-29702D01*
X61431Y-29691D01*
X61437Y-29685D01*
X61448Y-29680D01*
X61471Y-29674D01*
X61499Y-29674D01*
X61521Y-29680D01*
X61533Y-29685D01*
X61538Y-29691D01*
X61544Y-29702D01*
X61544Y-29713D01*
X61538Y-29725D01*
X61533Y-29730D01*
X61521Y-29736D01*
X61499Y-29742D01*
X61471Y-29742D01*
X61448Y-29736D01*
X61437Y-29730D01*
X61431Y-29725D01*
X61426Y-29713D01*
X61544Y-29618D02*
X61544Y-29596D01*
X61538Y-29585D01*
X61533Y-29579D01*
X61516Y-29568D01*
X61493Y-29562D01*
X61448Y-29562D01*
X61437Y-29568D01*
X61431Y-29573D01*
X61426Y-29585D01*
X61426Y-29607D01*
X61431Y-29618D01*
X61437Y-29624D01*
X61448Y-29630D01*
X61476Y-29630D01*
X61488Y-29624D01*
X61493Y-29618D01*
X61499Y-29607D01*
X61499Y-29585D01*
X61493Y-29573D01*
X61488Y-29568D01*
X61476Y-29562D01*
X62072Y-26509D02*
X62016Y-26549D01*
X62072Y-26577D02*
X61954Y-26577D01*
X61954Y-26532D01*
X61959Y-26521D01*
X61965Y-26515D01*
X61976Y-26509D01*
X61993Y-26509D01*
X62004Y-26515D01*
X62010Y-26521D01*
X62016Y-26532D01*
X62016Y-26577D01*
X62072Y-26397D02*
X62072Y-26465D01*
X62072Y-26431D02*
X61954Y-26431D01*
X61971Y-26442D01*
X61982Y-26453D01*
X61987Y-26465D01*
X61954Y-26324D02*
X61954Y-26313D01*
X61959Y-26302D01*
X61965Y-26296D01*
X61976Y-26291D01*
X61999Y-26285D01*
X62027Y-26285D01*
X62049Y-26291D01*
X62061Y-26296D01*
X62066Y-26302D01*
X62072Y-26313D01*
X62072Y-26324D01*
X62066Y-26336D01*
X62061Y-26341D01*
X62049Y-26347D01*
X62027Y-26353D01*
X61999Y-26353D01*
X61976Y-26347D01*
X61965Y-26341D01*
X61959Y-26336D01*
X61954Y-26324D01*
X62004Y-26218D02*
X61999Y-26229D01*
X61993Y-26235D01*
X61982Y-26241D01*
X61976Y-26241D01*
X61965Y-26235D01*
X61959Y-26229D01*
X61954Y-26218D01*
X61954Y-26196D01*
X61959Y-26184D01*
X61965Y-26179D01*
X61976Y-26173D01*
X61982Y-26173D01*
X61993Y-26179D01*
X61999Y-26184D01*
X62004Y-26196D01*
X62004Y-26218D01*
X62010Y-26229D01*
X62016Y-26235D01*
X62027Y-26241D01*
X62049Y-26241D01*
X62061Y-26235D01*
X62066Y-26229D01*
X62072Y-26218D01*
X62072Y-26196D01*
X62066Y-26184D01*
X62061Y-26179D01*
X62049Y-26173D01*
X62027Y-26173D01*
X62016Y-26179D01*
X62010Y-26184D01*
X62004Y-26196D01*
X61544Y-31398D02*
X61488Y-31438D01*
X61544Y-31466D02*
X61426Y-31466D01*
X61426Y-31421D01*
X61431Y-31410D01*
X61437Y-31404D01*
X61448Y-31398D01*
X61465Y-31398D01*
X61476Y-31404D01*
X61482Y-31410D01*
X61488Y-31421D01*
X61488Y-31466D01*
X61544Y-31286D02*
X61544Y-31354D01*
X61544Y-31320D02*
X61426Y-31320D01*
X61443Y-31331D01*
X61454Y-31342D01*
X61459Y-31354D01*
X61426Y-31213D02*
X61426Y-31202D01*
X61431Y-31191D01*
X61437Y-31185D01*
X61448Y-31180D01*
X61471Y-31174D01*
X61499Y-31174D01*
X61521Y-31180D01*
X61533Y-31185D01*
X61538Y-31191D01*
X61544Y-31202D01*
X61544Y-31213D01*
X61538Y-31225D01*
X61533Y-31230D01*
X61521Y-31236D01*
X61499Y-31242D01*
X61471Y-31242D01*
X61448Y-31236D01*
X61437Y-31230D01*
X61431Y-31225D01*
X61426Y-31213D01*
X61426Y-31135D02*
X61426Y-31056D01*
X61544Y-31107D01*
X61544Y-28418D02*
X61488Y-28458D01*
X61544Y-28486D02*
X61426Y-28486D01*
X61426Y-28441D01*
X61431Y-28430D01*
X61437Y-28424D01*
X61448Y-28418D01*
X61465Y-28418D01*
X61476Y-28424D01*
X61482Y-28430D01*
X61488Y-28441D01*
X61488Y-28486D01*
X61544Y-28306D02*
X61544Y-28374D01*
X61544Y-28340D02*
X61426Y-28340D01*
X61443Y-28351D01*
X61454Y-28362D01*
X61459Y-28374D01*
X61426Y-28233D02*
X61426Y-28222D01*
X61431Y-28211D01*
X61437Y-28205D01*
X61448Y-28200D01*
X61471Y-28194D01*
X61499Y-28194D01*
X61521Y-28200D01*
X61533Y-28205D01*
X61538Y-28211D01*
X61544Y-28222D01*
X61544Y-28233D01*
X61538Y-28245D01*
X61533Y-28250D01*
X61521Y-28256D01*
X61499Y-28262D01*
X61471Y-28262D01*
X61448Y-28256D01*
X61437Y-28250D01*
X61431Y-28245D01*
X61426Y-28233D01*
X61426Y-28093D02*
X61426Y-28116D01*
X61431Y-28127D01*
X61437Y-28133D01*
X61454Y-28144D01*
X61476Y-28150D01*
X61521Y-28150D01*
X61533Y-28144D01*
X61538Y-28138D01*
X61544Y-28127D01*
X61544Y-28105D01*
X61538Y-28093D01*
X61533Y-28088D01*
X61521Y-28082D01*
X61493Y-28082D01*
X61482Y-28088D01*
X61476Y-28093D01*
X61471Y-28105D01*
X61471Y-28127D01*
X61476Y-28138D01*
X61482Y-28144D01*
X61493Y-28150D01*
G54D26*
X60753Y-23956D02*
X60722Y-23941D01*
X60692Y-23910D01*
X60646Y-23865D01*
X60615Y-23849D01*
X60585Y-23849D01*
X60600Y-23926D02*
X60570Y-23910D01*
X60539Y-23880D01*
X60524Y-23819D01*
X60524Y-23712D01*
X60539Y-23651D01*
X60570Y-23621D01*
X60600Y-23606D01*
X60661Y-23606D01*
X60692Y-23621D01*
X60722Y-23651D01*
X60737Y-23712D01*
X60737Y-23819D01*
X60722Y-23880D01*
X60692Y-23910D01*
X60661Y-23926D01*
X60600Y-23926D01*
X61042Y-23926D02*
X60859Y-23926D01*
X60950Y-23926D02*
X60950Y-23606D01*
X60920Y-23651D01*
X60889Y-23682D01*
X60859Y-23697D01*
X61164Y-23636D02*
X61179Y-23621D01*
X61210Y-23606D01*
X61286Y-23606D01*
X61316Y-23621D01*
X61332Y-23636D01*
X61347Y-23666D01*
X61347Y-23697D01*
X61332Y-23743D01*
X61149Y-23926D01*
X61347Y-23926D01*
G54D27*
X59201Y-21763D02*
X59334Y-21763D01*
X59201Y-21963D01*
X59334Y-21963D01*
X59391Y-21763D02*
X59524Y-21963D01*
X59524Y-21763D02*
X59391Y-21963D01*
X59571Y-21763D02*
X59685Y-21763D01*
X59628Y-21963D02*
X59628Y-21763D01*
X59752Y-21963D02*
X59752Y-21763D01*
X59828Y-21763D01*
X59847Y-21772D01*
X59856Y-21782D01*
X59866Y-21801D01*
X59866Y-21830D01*
X59856Y-21849D01*
X59847Y-21858D01*
X59828Y-21868D01*
X59752Y-21868D01*
X59942Y-21782D02*
X59952Y-21772D01*
X59971Y-21763D01*
X60018Y-21763D01*
X60037Y-21772D01*
X60047Y-21782D01*
X60056Y-21801D01*
X60056Y-21820D01*
X60047Y-21849D01*
X59933Y-21963D01*
X60056Y-21963D01*
X60237Y-21763D02*
X60142Y-21763D01*
X60132Y-21858D01*
X60142Y-21849D01*
X60161Y-21839D01*
X60208Y-21839D01*
X60227Y-21849D01*
X60237Y-21858D01*
X60246Y-21877D01*
X60246Y-21925D01*
X60237Y-21944D01*
X60227Y-21953D01*
X60208Y-21963D01*
X60161Y-21963D01*
X60142Y-21953D01*
X60132Y-21944D01*
X60370Y-21763D02*
X60389Y-21763D01*
X60408Y-21772D01*
X60417Y-21782D01*
X60427Y-21801D01*
X60436Y-21839D01*
X60436Y-21887D01*
X60427Y-21925D01*
X60417Y-21944D01*
X60408Y-21953D01*
X60389Y-21963D01*
X60370Y-21963D01*
X60351Y-21953D01*
X60341Y-21944D01*
X60332Y-21925D01*
X60322Y-21887D01*
X60322Y-21839D01*
X60332Y-21801D01*
X60341Y-21782D01*
X60351Y-21772D01*
X60370Y-21763D01*
X60512Y-21782D02*
X60522Y-21772D01*
X60541Y-21763D01*
X60588Y-21763D01*
X60607Y-21772D01*
X60617Y-21782D01*
X60626Y-21801D01*
X60626Y-21820D01*
X60617Y-21849D01*
X60503Y-21963D01*
X60626Y-21963D01*
X60750Y-21763D02*
X60769Y-21763D01*
X60788Y-21772D01*
X60797Y-21782D01*
X60807Y-21801D01*
X60816Y-21839D01*
X60816Y-21887D01*
X60807Y-21925D01*
X60797Y-21944D01*
X60788Y-21953D01*
X60769Y-21963D01*
X60750Y-21963D01*
X60731Y-21953D01*
X60721Y-21944D01*
X60712Y-21925D01*
X60702Y-21887D01*
X60702Y-21839D01*
X60712Y-21801D01*
X60721Y-21782D01*
X60731Y-21772D01*
X60750Y-21763D01*
X60902Y-21963D02*
X60902Y-21763D01*
X60949Y-21763D01*
X60978Y-21772D01*
X60997Y-21792D01*
X61006Y-21811D01*
X61016Y-21849D01*
X61016Y-21877D01*
X61006Y-21915D01*
X60997Y-21934D01*
X60978Y-21953D01*
X60949Y-21963D01*
X60902Y-21963D01*
X61206Y-21772D02*
X61187Y-21763D01*
X61159Y-21763D01*
X61130Y-21772D01*
X61111Y-21792D01*
X61102Y-21811D01*
X61092Y-21849D01*
X61092Y-21877D01*
X61102Y-21915D01*
X61111Y-21934D01*
X61130Y-21953D01*
X61159Y-21963D01*
X61178Y-21963D01*
X61206Y-21953D01*
X61216Y-21944D01*
X61216Y-21877D01*
X61178Y-21877D01*
X61273Y-21763D02*
X61387Y-21763D01*
X61330Y-21963D02*
X61330Y-21763D01*
X61444Y-21906D02*
X61539Y-21906D01*
X61425Y-21963D02*
X61492Y-21763D01*
X61558Y-21963D01*
G54D26*
X59267Y-23926D02*
X59084Y-23926D01*
X59175Y-23926D02*
X59175Y-23606D01*
X59145Y-23651D01*
X59114Y-23682D01*
X59084Y-23697D01*
X59935Y-23639D02*
X59950Y-23624D01*
X59981Y-23609D01*
X60057Y-23609D01*
X60087Y-23624D01*
X60103Y-23639D01*
X60118Y-23669D01*
X60118Y-23700D01*
X60103Y-23746D01*
X59920Y-23929D01*
X60118Y-23929D01*
G54D28*
X61568Y-21276D02*
X61540Y-21262D01*
X61511Y-21233D01*
X61468Y-21190D01*
X61440Y-21176D01*
X61411Y-21176D01*
X61426Y-21247D02*
X61397Y-21233D01*
X61368Y-21205D01*
X61354Y-21147D01*
X61354Y-21047D01*
X61368Y-20990D01*
X61397Y-20962D01*
X61426Y-20947D01*
X61483Y-20947D01*
X61511Y-20962D01*
X61540Y-20990D01*
X61554Y-21047D01*
X61554Y-21147D01*
X61540Y-21205D01*
X61511Y-21233D01*
X61483Y-21247D01*
X61426Y-21247D01*
X61840Y-21247D02*
X61668Y-21247D01*
X61754Y-21247D02*
X61754Y-20947D01*
X61725Y-20990D01*
X61697Y-21019D01*
X61668Y-21033D01*
X61954Y-20976D02*
X61968Y-20962D01*
X61997Y-20947D01*
X62068Y-20947D01*
X62097Y-20962D01*
X62111Y-20976D01*
X62126Y-21005D01*
X62126Y-21033D01*
X62111Y-21076D01*
X61940Y-21247D01*
X62126Y-21247D01*
M02*
