G04 (created by PCBNEW-RS274X (2010-03-14)-final) date Wed 18 Sep 2013 10:54:28 PM EDT*
G01*
G70*
G90*
%MOIN*%
G04 Gerber Fmt 3.4, Leading zero omitted, Abs format*
%FSLAX34Y34*%
G04 APERTURE LIST*
%ADD10C,0.001000*%
%ADD11R,0.043600X0.059400*%
%ADD12R,0.027700X0.051300*%
%ADD13C,0.067000*%
%ADD14R,0.072000X0.072000*%
%ADD15C,0.072000*%
%ADD16C,0.077000*%
%ADD17C,0.092000*%
%ADD18R,0.156000X0.092000*%
%ADD19R,0.052000X0.092000*%
%ADD20R,0.027000X0.092000*%
%ADD21R,0.092000X0.027000*%
%ADD22R,0.028000X0.062000*%
%ADD23R,0.132000X0.077000*%
%ADD24R,0.252000X0.252000*%
%ADD25R,0.098700X0.043600*%
%ADD26R,0.079000X0.071200*%
%ADD27R,0.083000X0.091000*%
%ADD28R,0.073100X0.035700*%
%ADD29O,0.049500X0.069200*%
%ADD30O,0.081000X0.047600*%
%ADD31R,0.081000X0.081000*%
%ADD32R,0.091000X0.083000*%
%ADD33R,0.083000X0.146000*%
%ADD34R,0.275900X0.295600*%
G04 APERTURE END LIST*
G54D10*
X13760Y-39080D02*
X13760Y-09080D01*
X63760Y-39080D02*
X13760Y-39080D01*
X63760Y-09080D02*
X63760Y-39080D01*
X13760Y-09080D02*
X63760Y-09080D01*
G54D11*
X59897Y-26821D03*
X60272Y-25989D03*
X60647Y-26821D03*
G54D12*
X45635Y-15412D03*
X45885Y-15412D03*
X46135Y-15412D03*
X46385Y-15412D03*
X46635Y-15412D03*
X46885Y-15412D03*
X47135Y-15412D03*
X47385Y-15412D03*
X47385Y-13248D03*
X47135Y-13248D03*
X46885Y-13248D03*
X46635Y-13248D03*
X46385Y-13248D03*
X46135Y-13248D03*
X45885Y-13248D03*
X45635Y-13248D03*
G54D13*
X50976Y-19769D03*
X49976Y-19769D03*
X59484Y-31972D03*
X57484Y-31972D03*
X59700Y-37510D03*
X59700Y-36510D03*
X61000Y-37500D03*
X61000Y-36500D03*
X61000Y-34500D03*
X61000Y-35500D03*
X59700Y-34670D03*
X59700Y-35670D03*
X54010Y-36330D03*
X54010Y-37330D03*
X55260Y-35830D03*
X56260Y-35830D03*
X55260Y-34580D03*
X56260Y-34580D03*
X55340Y-32780D03*
X56340Y-32780D03*
X54898Y-28417D03*
X54898Y-27417D03*
X51401Y-29744D03*
X51401Y-28744D03*
X54358Y-25878D03*
X53358Y-25878D03*
X51398Y-27634D03*
X51398Y-26634D03*
X48760Y-20580D03*
X48760Y-21580D03*
X48120Y-25970D03*
X48120Y-26970D03*
X46010Y-27080D03*
X47010Y-27080D03*
X50090Y-30130D03*
X50090Y-29130D03*
X48010Y-33580D03*
X48010Y-32580D03*
X46010Y-32330D03*
X47010Y-32330D03*
X47010Y-30330D03*
X46010Y-30330D03*
X43510Y-35330D03*
X43510Y-36330D03*
X40510Y-36830D03*
X40510Y-37830D03*
X38560Y-36830D03*
X38560Y-37830D03*
X37510Y-36830D03*
X37510Y-37830D03*
X40410Y-29800D03*
X40410Y-28800D03*
X34272Y-26882D03*
X34272Y-25882D03*
X34272Y-23868D03*
X34272Y-24868D03*
X35776Y-23894D03*
X35776Y-25894D03*
X29510Y-17580D03*
X28510Y-17580D03*
X28510Y-18830D03*
X28510Y-19830D03*
X32510Y-21930D03*
X31510Y-21930D03*
X29860Y-21880D03*
X29860Y-20880D03*
X28760Y-21880D03*
X28760Y-20880D03*
X40260Y-15580D03*
X41260Y-15580D03*
X43921Y-12732D03*
X44921Y-12732D03*
X48142Y-12858D03*
X48142Y-13858D03*
X53620Y-19520D03*
X54620Y-19520D03*
X53680Y-20750D03*
X54680Y-20750D03*
X57240Y-14630D03*
X56240Y-14630D03*
G54D14*
X28970Y-14840D03*
G54D15*
X28970Y-15840D03*
X29970Y-14840D03*
X29970Y-15840D03*
X30970Y-14840D03*
X30970Y-15840D03*
G54D14*
X34010Y-13830D03*
G54D15*
X34010Y-14830D03*
X34010Y-15830D03*
X34010Y-16830D03*
X34010Y-17830D03*
X34010Y-18830D03*
X34010Y-19830D03*
X34010Y-20830D03*
G54D14*
X38210Y-12920D03*
G54D15*
X38210Y-13920D03*
X38210Y-14920D03*
X38210Y-15920D03*
G54D14*
X26268Y-22965D03*
G54D15*
X26268Y-23965D03*
X26268Y-24965D03*
X26268Y-25965D03*
X26268Y-26965D03*
X26268Y-27965D03*
X26268Y-28965D03*
X26268Y-29965D03*
X62760Y-36080D03*
X62760Y-35080D03*
G54D14*
X62760Y-37080D03*
X47680Y-17090D03*
G54D15*
X47680Y-18090D03*
X47680Y-19090D03*
X47680Y-20090D03*
G54D14*
X43560Y-17350D03*
G54D15*
X44560Y-17350D03*
X45560Y-17350D03*
X46560Y-17350D03*
G54D14*
X38760Y-30330D03*
G54D15*
X38760Y-29330D03*
G54D16*
X39795Y-12850D03*
X53071Y-10598D03*
X47524Y-36740D03*
X22048Y-18720D03*
G54D13*
X40510Y-33830D03*
X40510Y-30830D03*
X56420Y-31730D03*
X53420Y-31730D03*
X55260Y-30830D03*
X52260Y-30830D03*
X49070Y-28090D03*
X49070Y-31090D03*
X48140Y-31080D03*
X48140Y-28080D03*
X46760Y-29330D03*
X43760Y-29330D03*
X43510Y-28330D03*
X46510Y-28330D03*
X39190Y-28330D03*
X38190Y-28330D03*
G54D16*
X54563Y-22272D03*
G54D13*
X39510Y-37080D03*
X39510Y-34080D03*
X43420Y-37340D03*
X46420Y-37340D03*
X42510Y-37330D03*
X42510Y-34330D03*
X52010Y-37080D03*
X52010Y-34080D03*
X51010Y-34080D03*
X51010Y-37080D03*
X56510Y-13080D03*
X56510Y-12080D03*
G54D16*
X34260Y-32330D03*
X29510Y-29580D03*
G54D17*
X32010Y-31580D03*
G54D18*
X33760Y-31130D03*
G54D19*
X33760Y-28530D03*
X32860Y-28530D03*
X34660Y-28530D03*
G54D13*
X29400Y-27250D03*
X29400Y-28250D03*
X31760Y-29330D03*
X31760Y-30330D03*
X31760Y-27330D03*
X31760Y-28330D03*
G54D18*
X31760Y-35880D03*
G54D19*
X31760Y-33280D03*
X30860Y-33280D03*
X32660Y-33280D03*
G54D18*
X36510Y-35880D03*
G54D19*
X36510Y-33280D03*
X35610Y-33280D03*
X37410Y-33280D03*
G54D13*
X37510Y-28830D03*
X37510Y-29830D03*
X35510Y-21200D03*
X35510Y-18200D03*
X28260Y-35330D03*
X28260Y-36330D03*
X33510Y-34080D03*
X33510Y-33080D03*
X34510Y-34330D03*
X34510Y-33330D03*
G54D16*
X29750Y-33200D03*
G54D13*
X24768Y-33490D03*
X23268Y-33490D03*
X24758Y-36490D03*
X23258Y-36490D03*
X23268Y-34730D03*
X24768Y-34730D03*
X23274Y-37689D03*
X24774Y-37689D03*
X37510Y-32330D03*
X37510Y-31330D03*
X36260Y-31580D03*
X35260Y-31580D03*
X51760Y-17830D03*
X51760Y-18830D03*
X48760Y-16080D03*
X48760Y-15080D03*
G54D16*
X31530Y-37170D03*
X29010Y-31580D03*
G54D13*
X52260Y-31830D03*
X50760Y-31830D03*
X45760Y-31330D03*
X47260Y-31330D03*
X45010Y-30580D03*
X45010Y-32080D03*
X32510Y-19580D03*
X29510Y-19580D03*
X32510Y-18580D03*
X29510Y-18580D03*
G54D20*
X44965Y-18505D03*
X44710Y-18505D03*
X44455Y-18505D03*
X44200Y-18505D03*
X43945Y-18505D03*
X43685Y-18505D03*
X43430Y-18505D03*
X43175Y-18505D03*
X42920Y-18505D03*
X42665Y-18505D03*
X42405Y-18505D03*
X42150Y-18505D03*
X41895Y-18505D03*
X41640Y-18505D03*
X41380Y-18505D03*
X41125Y-18505D03*
X40870Y-18505D03*
X40615Y-18505D03*
X40355Y-18505D03*
X40100Y-18505D03*
X39845Y-18505D03*
X39590Y-18505D03*
X39335Y-18505D03*
X39075Y-18505D03*
X38820Y-18505D03*
X38565Y-18505D03*
X38310Y-18505D03*
X38055Y-18505D03*
G54D21*
X37185Y-19375D03*
X37185Y-19630D03*
X37185Y-19885D03*
X37185Y-20140D03*
X37185Y-20395D03*
X37185Y-20655D03*
X37185Y-20910D03*
X37185Y-21165D03*
X37185Y-21420D03*
X37185Y-21675D03*
X37185Y-21935D03*
X37185Y-22190D03*
X37185Y-22445D03*
X37185Y-22700D03*
X37185Y-22960D03*
X37185Y-23215D03*
X37185Y-23470D03*
X37185Y-23725D03*
X37185Y-23985D03*
X37185Y-24240D03*
X37185Y-24495D03*
X37185Y-24750D03*
X37185Y-25005D03*
X37185Y-25265D03*
X37185Y-25520D03*
X37185Y-25775D03*
X37185Y-26030D03*
X37185Y-26285D03*
G54D20*
X38055Y-27155D03*
X38310Y-27155D03*
X38565Y-27155D03*
X38820Y-27155D03*
X39075Y-27155D03*
X39335Y-27155D03*
X39590Y-27155D03*
X39845Y-27155D03*
X40100Y-27155D03*
X40355Y-27155D03*
X40615Y-27155D03*
X40870Y-27155D03*
X41125Y-27155D03*
X41380Y-27155D03*
X41640Y-27155D03*
X41895Y-27155D03*
X42150Y-27155D03*
X42405Y-27155D03*
X42665Y-27155D03*
X42920Y-27155D03*
X43175Y-27155D03*
X43430Y-27155D03*
X43685Y-27155D03*
X43945Y-27155D03*
X44200Y-27155D03*
X44455Y-27155D03*
X44710Y-27155D03*
X44965Y-27155D03*
G54D21*
X45835Y-26285D03*
X45835Y-26030D03*
X45835Y-25775D03*
X45835Y-25520D03*
X45835Y-25265D03*
X45835Y-25005D03*
X45835Y-24750D03*
X45835Y-24495D03*
X45835Y-24240D03*
X45835Y-23985D03*
X45835Y-23725D03*
X45835Y-23470D03*
X45835Y-23215D03*
X45835Y-22960D03*
X45835Y-22700D03*
X45835Y-22445D03*
X45835Y-22190D03*
X45835Y-21935D03*
X45835Y-21675D03*
X45835Y-21420D03*
X45835Y-21165D03*
X45835Y-20910D03*
X45835Y-20655D03*
X45835Y-20395D03*
X45835Y-20140D03*
X45835Y-19885D03*
X45835Y-19630D03*
X45835Y-19375D03*
G54D13*
X51693Y-13789D03*
X51693Y-12289D03*
X49760Y-17080D03*
X49760Y-18580D03*
X23258Y-28730D03*
X24758Y-28730D03*
X23258Y-31730D03*
X24758Y-31730D03*
X24758Y-21450D03*
X23258Y-21450D03*
X24758Y-24460D03*
X23258Y-24460D03*
X24758Y-27460D03*
X23258Y-27460D03*
X24758Y-30500D03*
X23258Y-30500D03*
X23258Y-22730D03*
X24758Y-22730D03*
X23258Y-25710D03*
X24758Y-25710D03*
X24758Y-18470D03*
X23258Y-18470D03*
X23258Y-19710D03*
X24758Y-19710D03*
X24758Y-15420D03*
X23258Y-15420D03*
X23258Y-16730D03*
X24758Y-16730D03*
G54D16*
X22048Y-15720D03*
X63220Y-33398D03*
X46010Y-34430D03*
X57420Y-37660D03*
X38510Y-33580D03*
X48780Y-34690D03*
X40510Y-35580D03*
X47748Y-37677D03*
G54D17*
X54010Y-34830D03*
G54D16*
X55980Y-37480D03*
X53010Y-33080D03*
X57461Y-33516D03*
X42010Y-11080D03*
X45689Y-10567D03*
X51504Y-10646D03*
X36280Y-37020D03*
G54D13*
X30510Y-17330D03*
X31510Y-17330D03*
G54D16*
X58492Y-14657D03*
X47303Y-10701D03*
G54D22*
X53110Y-18480D03*
X53360Y-18480D03*
X53620Y-18480D03*
X53880Y-18480D03*
X54130Y-18480D03*
X54390Y-18480D03*
X54650Y-18480D03*
X54900Y-18480D03*
X55160Y-18480D03*
X55410Y-18480D03*
X55670Y-18480D03*
X55930Y-18480D03*
X56180Y-18480D03*
X56440Y-18480D03*
X56440Y-15680D03*
X56180Y-15680D03*
X55940Y-15680D03*
X55670Y-15680D03*
X55410Y-15680D03*
X55160Y-15680D03*
X54900Y-15680D03*
X54650Y-15680D03*
X54390Y-15680D03*
X54130Y-15680D03*
X53880Y-15680D03*
X53620Y-15680D03*
X53360Y-15680D03*
X53110Y-15680D03*
G54D13*
X29260Y-22950D03*
X30260Y-22950D03*
X36760Y-28080D03*
X35760Y-28080D03*
X55547Y-29795D03*
X54547Y-29795D03*
X49748Y-13587D03*
X49748Y-12587D03*
X42510Y-12780D03*
X42510Y-11780D03*
X45953Y-12315D03*
X45953Y-11315D03*
X39510Y-32080D03*
X39510Y-33080D03*
X49260Y-32580D03*
X49260Y-33580D03*
X38510Y-35580D03*
X38510Y-34580D03*
X46010Y-33410D03*
X45010Y-33410D03*
X41510Y-34580D03*
X41510Y-35580D03*
X41510Y-37580D03*
X41510Y-36580D03*
X54260Y-32830D03*
X54260Y-33830D03*
X53010Y-35330D03*
X53010Y-34330D03*
X33580Y-35840D03*
X33580Y-36840D03*
X53527Y-12232D03*
X53527Y-13232D03*
X55010Y-11080D03*
X55010Y-12080D03*
G54D23*
X22043Y-16695D03*
G54D24*
X19543Y-15795D03*
G54D23*
X22043Y-14895D03*
X22048Y-22730D03*
G54D24*
X19548Y-21830D03*
G54D23*
X22048Y-20930D03*
X22048Y-19730D03*
G54D24*
X19548Y-18830D03*
G54D23*
X22048Y-17930D03*
X22048Y-28730D03*
G54D24*
X19548Y-27830D03*
G54D23*
X22048Y-26930D03*
X22048Y-31730D03*
G54D24*
X19548Y-30830D03*
G54D23*
X22048Y-29930D03*
X22067Y-37687D03*
G54D24*
X19567Y-36787D03*
G54D23*
X22067Y-35887D03*
X22048Y-34730D03*
G54D24*
X19548Y-33830D03*
G54D23*
X22048Y-32930D03*
G54D13*
X31500Y-20700D03*
X32500Y-20700D03*
X32650Y-14632D03*
X32650Y-17632D03*
X44610Y-16290D03*
X43610Y-16290D03*
X41160Y-13020D03*
X41160Y-14020D03*
X41150Y-12060D03*
X41150Y-11060D03*
X15388Y-16250D03*
X14388Y-16250D03*
X15388Y-19200D03*
X14388Y-19200D03*
X15388Y-22200D03*
X14388Y-22200D03*
X15438Y-25200D03*
X14438Y-25200D03*
X15388Y-28200D03*
X14388Y-28200D03*
X15388Y-31200D03*
X14388Y-31200D03*
X15388Y-34200D03*
X14388Y-34200D03*
X15388Y-37250D03*
X14388Y-37250D03*
X38468Y-10807D03*
X37468Y-10807D03*
X39799Y-11587D03*
X39799Y-10587D03*
X59700Y-13360D03*
X59700Y-12360D03*
X59690Y-10500D03*
X59690Y-11500D03*
X60990Y-10480D03*
X60990Y-11480D03*
X61000Y-13580D03*
X61000Y-12580D03*
G54D15*
X62760Y-12040D03*
X62760Y-11040D03*
G54D14*
X62760Y-13040D03*
G54D23*
X22058Y-25710D03*
G54D24*
X19558Y-24810D03*
G54D23*
X22058Y-23910D03*
G54D13*
X43930Y-14860D03*
X43930Y-13860D03*
X44910Y-14860D03*
X44910Y-13860D03*
X42930Y-14860D03*
X42930Y-13860D03*
X36240Y-30070D03*
X36240Y-29070D03*
X30650Y-27300D03*
X30650Y-28300D03*
X28320Y-34430D03*
X28320Y-33430D03*
X34790Y-35880D03*
X34790Y-36880D03*
X16288Y-16250D03*
X17288Y-16250D03*
X16288Y-19200D03*
X17288Y-19200D03*
X16338Y-25200D03*
X17338Y-25200D03*
X16288Y-22200D03*
X17288Y-22200D03*
X16288Y-31200D03*
X17288Y-31200D03*
X16288Y-28200D03*
X17288Y-28200D03*
X16288Y-37250D03*
X17288Y-37250D03*
X16288Y-34200D03*
X17288Y-34200D03*
X49960Y-16000D03*
X49960Y-15000D03*
X51260Y-16080D03*
X51260Y-17080D03*
X54760Y-12840D03*
X54760Y-13840D03*
X53409Y-13972D03*
X53409Y-14972D03*
X60295Y-31976D03*
X63295Y-31976D03*
X58488Y-33382D03*
X61488Y-33382D03*
G54D16*
X22048Y-27720D03*
X22048Y-30720D03*
X22048Y-33720D03*
X22048Y-36720D03*
X22058Y-24700D03*
X22048Y-21720D03*
G54D13*
X51390Y-24470D03*
X51390Y-25470D03*
X54580Y-23740D03*
X54580Y-24740D03*
X50370Y-27130D03*
X50370Y-24130D03*
X49450Y-24130D03*
X49450Y-27130D03*
X52500Y-24420D03*
X53500Y-24420D03*
G54D25*
X50280Y-22070D03*
X50280Y-22570D03*
X50280Y-23070D03*
X50280Y-23570D03*
X52480Y-23570D03*
X52480Y-23070D03*
X52480Y-22570D03*
X52480Y-22070D03*
G54D13*
X53831Y-26638D03*
X53831Y-29638D03*
X52838Y-29634D03*
X52838Y-26634D03*
X15263Y-15100D03*
X17813Y-15100D03*
X15263Y-18050D03*
X17813Y-18050D03*
X15263Y-21050D03*
X17813Y-21050D03*
X15263Y-24050D03*
X17813Y-24050D03*
X15263Y-27050D03*
X17813Y-27050D03*
X15263Y-30050D03*
X17813Y-30050D03*
X32895Y-37730D03*
X35445Y-37730D03*
X15263Y-33050D03*
X17813Y-33050D03*
X15263Y-36100D03*
X17813Y-36100D03*
X29760Y-36605D03*
X29760Y-34055D03*
X30800Y-29025D03*
X30800Y-31575D03*
X50673Y-12728D03*
X50673Y-13728D03*
X46775Y-11587D03*
X46775Y-12587D03*
G54D26*
X56358Y-19546D03*
X56358Y-20296D03*
G54D13*
X56272Y-22283D03*
X56272Y-21283D03*
X55807Y-24827D03*
X55807Y-23827D03*
X56925Y-24835D03*
X56925Y-23835D03*
X57386Y-22283D03*
X57386Y-21283D03*
X26941Y-12165D03*
X27941Y-12165D03*
X57063Y-25980D03*
X56063Y-25980D03*
X26862Y-11102D03*
X27862Y-11102D03*
X26882Y-13248D03*
X27882Y-13248D03*
X32480Y-10681D03*
X32480Y-11681D03*
X33378Y-11673D03*
X34378Y-11673D03*
X34378Y-10689D03*
X33378Y-10689D03*
X32480Y-13453D03*
X32480Y-12453D03*
G54D14*
X25709Y-10890D03*
G54D15*
X25709Y-11890D03*
X25709Y-12890D03*
G54D25*
X31553Y-12738D03*
X31553Y-12238D03*
X31553Y-11738D03*
X31553Y-11238D03*
X29353Y-11238D03*
X29353Y-11738D03*
X29353Y-12238D03*
X29353Y-12738D03*
G54D16*
X15228Y-35240D03*
X15228Y-32213D03*
X15197Y-29213D03*
X15197Y-26213D03*
X15244Y-23213D03*
X15213Y-20209D03*
X15213Y-17209D03*
X15173Y-14268D03*
G54D13*
X35236Y-10689D03*
X35236Y-11831D03*
X16646Y-11909D03*
X17646Y-11909D03*
X23713Y-10709D03*
X22713Y-10709D03*
X23244Y-13268D03*
X22244Y-13268D03*
X21791Y-10661D03*
X21791Y-11661D03*
X22630Y-11673D03*
X22630Y-12673D03*
X16390Y-10866D03*
X17390Y-10866D03*
X17390Y-12972D03*
X16390Y-12972D03*
G54D14*
X15118Y-10909D03*
G54D15*
X15118Y-11909D03*
X15118Y-12909D03*
G54D25*
X20923Y-12797D03*
X20923Y-12297D03*
X20923Y-11797D03*
X20923Y-11297D03*
X18723Y-11297D03*
X18723Y-11797D03*
X18723Y-12297D03*
X18723Y-12797D03*
G54D16*
X18177Y-10646D03*
X18220Y-13476D03*
X28602Y-10650D03*
X28720Y-13366D03*
G54D13*
X24071Y-11953D03*
X24091Y-13079D03*
G54D16*
X58701Y-30413D03*
X58701Y-29331D03*
X58701Y-28228D03*
G54D13*
X47050Y-23400D03*
X47050Y-24400D03*
X36100Y-12600D03*
X36080Y-14900D03*
G54D27*
X50081Y-37079D03*
X48981Y-37079D03*
G54D28*
X62126Y-16828D03*
X62126Y-16571D03*
X62126Y-16315D03*
X62126Y-16059D03*
X62126Y-15803D03*
G54D29*
X62126Y-17299D03*
X62126Y-15331D03*
G54D30*
X63189Y-17693D03*
X63189Y-14937D03*
G54D31*
X63189Y-16719D03*
X63189Y-15911D03*
G54D26*
X61886Y-29392D03*
X61886Y-30142D03*
X61634Y-26753D03*
X61634Y-26003D03*
X61886Y-30892D03*
X61886Y-31642D03*
X61886Y-27912D03*
X61886Y-28662D03*
G54D13*
X43671Y-11177D03*
X45171Y-11177D03*
X49041Y-11079D03*
X50541Y-11079D03*
X57685Y-13496D03*
X57685Y-10496D03*
G54D14*
X47037Y-21390D03*
G54D13*
X47037Y-22390D03*
G54D14*
X51366Y-21067D03*
G54D15*
X52366Y-21067D03*
G54D32*
X58272Y-26206D03*
X58272Y-27306D03*
G54D14*
X48201Y-23398D03*
G54D15*
X48201Y-24398D03*
G54D33*
X59799Y-22777D03*
X61611Y-22777D03*
G54D34*
X60705Y-20317D03*
M02*
