G04 (created by PCBNEW-RS274X (2010-03-14)-final) date Mon 08 Apr 2013 11:15:34 AM EDT*
G01*
G70*
G90*
%MOIN*%
G04 Gerber Fmt 3.4, Leading zero omitted, Abs format*
%FSLAX34Y34*%
G04 APERTURE LIST*
%ADD10C,0.002000*%
%ADD11C,0.001000*%
%ADD12C,0.067000*%
%ADD13R,0.072000X0.072000*%
%ADD14C,0.072000*%
%ADD15C,0.077000*%
%ADD16C,0.092000*%
%ADD17C,0.047000*%
%ADD18R,0.080000X0.120000*%
%ADD19R,0.120000X0.080000*%
%ADD20O,0.049500X0.069200*%
%ADD21O,0.081000X0.047600*%
G04 APERTURE END LIST*
G54D10*
G54D11*
X13760Y-39080D02*
X13760Y-09080D01*
X63760Y-39080D02*
X13760Y-39080D01*
X63760Y-09080D02*
X63760Y-39080D01*
X13760Y-09080D02*
X63760Y-09080D01*
G54D12*
X50976Y-19769D03*
X49976Y-19769D03*
X59484Y-31972D03*
X57484Y-31972D03*
X59700Y-37510D03*
X59700Y-36510D03*
X61000Y-37500D03*
X61000Y-36500D03*
X61000Y-34500D03*
X61000Y-35500D03*
X59700Y-34670D03*
X59700Y-35670D03*
X54010Y-36330D03*
X54010Y-37330D03*
X55260Y-35830D03*
X56260Y-35830D03*
X55260Y-34580D03*
X56260Y-34580D03*
X55340Y-32780D03*
X56340Y-32780D03*
X54898Y-28417D03*
X54898Y-27417D03*
X51401Y-29744D03*
X51401Y-28744D03*
X54358Y-25878D03*
X53358Y-25878D03*
X51398Y-27634D03*
X51398Y-26634D03*
X48760Y-20580D03*
X48760Y-21580D03*
X48120Y-25970D03*
X48120Y-26970D03*
X46010Y-27080D03*
X47010Y-27080D03*
X50090Y-30130D03*
X50090Y-29130D03*
X48010Y-33580D03*
X48010Y-32580D03*
X46010Y-32330D03*
X47010Y-32330D03*
X47010Y-30330D03*
X46010Y-30330D03*
X43510Y-35330D03*
X43510Y-36330D03*
X40510Y-36830D03*
X40510Y-37830D03*
X38560Y-36830D03*
X38560Y-37830D03*
X37510Y-36830D03*
X37510Y-37830D03*
X40410Y-29800D03*
X40410Y-28800D03*
X34272Y-26882D03*
X34272Y-25882D03*
X34272Y-23868D03*
X34272Y-24868D03*
X35776Y-23894D03*
X35776Y-25894D03*
X29510Y-17580D03*
X28510Y-17580D03*
X28510Y-18830D03*
X28510Y-19830D03*
X32510Y-21930D03*
X31510Y-21930D03*
X29860Y-21880D03*
X29860Y-20880D03*
X28760Y-21880D03*
X28760Y-20880D03*
X40260Y-15580D03*
X41260Y-15580D03*
X43760Y-12200D03*
X44760Y-12200D03*
X48010Y-12330D03*
X48010Y-13330D03*
X53620Y-19520D03*
X54620Y-19520D03*
X53680Y-20750D03*
X54680Y-20750D03*
X57820Y-14160D03*
X56820Y-14160D03*
G54D13*
X28970Y-14840D03*
G54D14*
X28970Y-15840D03*
X29970Y-14840D03*
X29970Y-15840D03*
X30970Y-14840D03*
X30970Y-15840D03*
G54D13*
X34010Y-13830D03*
G54D14*
X34010Y-14830D03*
X34010Y-15830D03*
X34010Y-16830D03*
X34010Y-17830D03*
X34010Y-18830D03*
X34010Y-19830D03*
X34010Y-20830D03*
G54D13*
X38210Y-12920D03*
G54D14*
X38210Y-13920D03*
X38210Y-14920D03*
X38210Y-15920D03*
G54D13*
X26268Y-22965D03*
G54D14*
X26268Y-23965D03*
X26268Y-24965D03*
X26268Y-25965D03*
X26268Y-26965D03*
X26268Y-27965D03*
X26268Y-28965D03*
X26268Y-29965D03*
X62760Y-36080D03*
X62760Y-35080D03*
G54D13*
X62760Y-37080D03*
X47680Y-17090D03*
G54D14*
X47680Y-18090D03*
X47680Y-19090D03*
X47680Y-20090D03*
G54D13*
X43560Y-17350D03*
G54D14*
X44560Y-17350D03*
X45560Y-17350D03*
X46560Y-17350D03*
G54D13*
X38760Y-30330D03*
G54D14*
X38760Y-29330D03*
G54D15*
X39795Y-12850D03*
X51582Y-10602D03*
X47524Y-36740D03*
X22048Y-18720D03*
G54D12*
X40510Y-33830D03*
X40510Y-30830D03*
X56420Y-31730D03*
X53420Y-31730D03*
X55260Y-30830D03*
X52260Y-30830D03*
X49070Y-28090D03*
X49070Y-31090D03*
X48140Y-31080D03*
X48140Y-28080D03*
X46760Y-29330D03*
X43760Y-29330D03*
X43510Y-28330D03*
X46510Y-28330D03*
X39190Y-28330D03*
X38190Y-28330D03*
G54D15*
X54563Y-22272D03*
G54D12*
X39510Y-37080D03*
X39510Y-34080D03*
X43420Y-37340D03*
X46420Y-37340D03*
X42510Y-37330D03*
X42510Y-34330D03*
X58500Y-37660D03*
X58500Y-34660D03*
X52010Y-37080D03*
X52010Y-34080D03*
X51010Y-34080D03*
X51010Y-37080D03*
X56510Y-13080D03*
X56510Y-12080D03*
G54D15*
X34260Y-32330D03*
X29510Y-29580D03*
G54D16*
X32010Y-31580D03*
G54D12*
X29400Y-27250D03*
X29400Y-28250D03*
X31760Y-29330D03*
X31760Y-30330D03*
X31760Y-27330D03*
X31760Y-28330D03*
X37510Y-28830D03*
X37510Y-29830D03*
X35510Y-21200D03*
X35510Y-18200D03*
X28260Y-35330D03*
X28260Y-36330D03*
X33510Y-34080D03*
X33510Y-33080D03*
X34510Y-34330D03*
X34510Y-33330D03*
G54D15*
X29750Y-33200D03*
G54D12*
X24768Y-33490D03*
X23268Y-33490D03*
X24758Y-36490D03*
X23258Y-36490D03*
X23268Y-34730D03*
X24768Y-34730D03*
X23274Y-37689D03*
X24774Y-37689D03*
X37510Y-32330D03*
X37510Y-31330D03*
X36260Y-31580D03*
X35260Y-31580D03*
X51760Y-17830D03*
X51760Y-18830D03*
X48760Y-16080D03*
X48760Y-15080D03*
X48520Y-10810D03*
X49520Y-10810D03*
X43010Y-11080D03*
X44010Y-11080D03*
G54D15*
X31530Y-37170D03*
X29010Y-31580D03*
G54D12*
X52260Y-31830D03*
X50760Y-31830D03*
X45760Y-31330D03*
X47260Y-31330D03*
X45010Y-30580D03*
X45010Y-32080D03*
X32510Y-19580D03*
X29510Y-19580D03*
X32510Y-18580D03*
X29510Y-18580D03*
X50730Y-13500D03*
X50730Y-12000D03*
X49760Y-17080D03*
X49760Y-18580D03*
X23258Y-28730D03*
X24758Y-28730D03*
X23258Y-31730D03*
X24758Y-31730D03*
X24758Y-21450D03*
X23258Y-21450D03*
X24758Y-24460D03*
X23258Y-24460D03*
X24758Y-27460D03*
X23258Y-27460D03*
X24758Y-30500D03*
X23258Y-30500D03*
X23258Y-22730D03*
X24758Y-22730D03*
X23258Y-25710D03*
X24758Y-25710D03*
X24758Y-18470D03*
X23258Y-18470D03*
X23258Y-19710D03*
X24758Y-19710D03*
X24758Y-15420D03*
X23258Y-15420D03*
X23258Y-16730D03*
X24758Y-16730D03*
G54D15*
X22048Y-15720D03*
X63220Y-33398D03*
X46010Y-34430D03*
X57420Y-37660D03*
X38510Y-33580D03*
X48780Y-34690D03*
X40510Y-35580D03*
X47748Y-37677D03*
G54D16*
X54010Y-34830D03*
G54D15*
X55980Y-37480D03*
X53010Y-33080D03*
X57461Y-33516D03*
G54D12*
X42010Y-11080D03*
G54D15*
X44880Y-10810D03*
X50400Y-10830D03*
X36280Y-37020D03*
G54D12*
X30510Y-17330D03*
X31510Y-17330D03*
G54D15*
X58020Y-12510D03*
X47560Y-10810D03*
G54D12*
X29260Y-22950D03*
X30260Y-22950D03*
X36760Y-28080D03*
X35760Y-28080D03*
X55547Y-29795D03*
X54547Y-29795D03*
X49010Y-12830D03*
X49010Y-11830D03*
X42510Y-12780D03*
X42510Y-11780D03*
X45850Y-11700D03*
X45850Y-10700D03*
X39510Y-32080D03*
X39510Y-33080D03*
X49260Y-32580D03*
X49260Y-33580D03*
X38510Y-35580D03*
X38510Y-34580D03*
X46010Y-33410D03*
X45010Y-33410D03*
X41510Y-34580D03*
X41510Y-35580D03*
X41510Y-37580D03*
X41510Y-36580D03*
X54260Y-32830D03*
X54260Y-33830D03*
X53010Y-35330D03*
X53010Y-34330D03*
X33580Y-35840D03*
X33580Y-36840D03*
X53010Y-11080D03*
X53010Y-12080D03*
X55010Y-11080D03*
X55010Y-12080D03*
X31500Y-20700D03*
X32500Y-20700D03*
G54D13*
X57680Y-10500D03*
G54D14*
X56680Y-10500D03*
G54D12*
X32650Y-14632D03*
X32650Y-17632D03*
X44610Y-16290D03*
X43610Y-16290D03*
X41160Y-13020D03*
X41160Y-14020D03*
X41150Y-12060D03*
X41150Y-11060D03*
X15388Y-16250D03*
X14388Y-16250D03*
X15388Y-19200D03*
X14388Y-19200D03*
X15388Y-22200D03*
X14388Y-22200D03*
X15438Y-25200D03*
X14438Y-25200D03*
X15388Y-28200D03*
X14388Y-28200D03*
X15388Y-31200D03*
X14388Y-31200D03*
X15388Y-34200D03*
X14388Y-34200D03*
X15388Y-37250D03*
X14388Y-37250D03*
X38468Y-10807D03*
X37468Y-10807D03*
X39799Y-11587D03*
X39799Y-10587D03*
X59700Y-13360D03*
X59700Y-12360D03*
X59690Y-10500D03*
X59690Y-11500D03*
X60990Y-10480D03*
X60990Y-11480D03*
X61000Y-13580D03*
X61000Y-12580D03*
G54D14*
X62760Y-12040D03*
X62760Y-11040D03*
G54D13*
X62760Y-13040D03*
G54D12*
X43930Y-14860D03*
X43930Y-13860D03*
X44910Y-14860D03*
X44910Y-13860D03*
X42930Y-14860D03*
X42930Y-13860D03*
X36240Y-30070D03*
X36240Y-29070D03*
X30650Y-27300D03*
X30650Y-28300D03*
X28320Y-34430D03*
X28320Y-33430D03*
X34790Y-35880D03*
X34790Y-36880D03*
X16288Y-16250D03*
X17288Y-16250D03*
X16288Y-19200D03*
X17288Y-19200D03*
X16338Y-25200D03*
X17338Y-25200D03*
X16288Y-22200D03*
X17288Y-22200D03*
X16288Y-31200D03*
X17288Y-31200D03*
X16288Y-28200D03*
X17288Y-28200D03*
X16288Y-37250D03*
X17288Y-37250D03*
X16288Y-34200D03*
X17288Y-34200D03*
X49960Y-16000D03*
X49960Y-15000D03*
X51260Y-16080D03*
X51260Y-17080D03*
X54760Y-12840D03*
X54760Y-13840D03*
X53260Y-12840D03*
X53260Y-13840D03*
X60295Y-31976D03*
X63295Y-31976D03*
X58488Y-33382D03*
X61488Y-33382D03*
G54D15*
X22048Y-27720D03*
X22048Y-30720D03*
X22048Y-33720D03*
X22048Y-36720D03*
X22058Y-24700D03*
X22048Y-21720D03*
G54D12*
X51390Y-24470D03*
X51390Y-25470D03*
X54580Y-23740D03*
X54580Y-24740D03*
X50370Y-27130D03*
X50370Y-24130D03*
X49450Y-24130D03*
X49450Y-27130D03*
X52500Y-24420D03*
X53500Y-24420D03*
X53831Y-26638D03*
X53831Y-29638D03*
X52838Y-29634D03*
X52838Y-26634D03*
X15263Y-15100D03*
X17813Y-15100D03*
X15263Y-18050D03*
X17813Y-18050D03*
X15263Y-21050D03*
X17813Y-21050D03*
X15263Y-24050D03*
X17813Y-24050D03*
X15263Y-27050D03*
X17813Y-27050D03*
X15263Y-30050D03*
X17813Y-30050D03*
X32895Y-37730D03*
X35445Y-37730D03*
X15263Y-33050D03*
X17813Y-33050D03*
X15263Y-36100D03*
X17813Y-36100D03*
X29760Y-36605D03*
X29760Y-34055D03*
X30800Y-29025D03*
X30800Y-31575D03*
X49840Y-12140D03*
X49840Y-13140D03*
X46810Y-11420D03*
X46810Y-12420D03*
G54D17*
X46838Y-21232D03*
X46842Y-22142D03*
X43200Y-31130D03*
G54D12*
X56272Y-22283D03*
X56272Y-21283D03*
X55807Y-24827D03*
X55807Y-23827D03*
X56925Y-24835D03*
X56925Y-23835D03*
X57386Y-22283D03*
X57386Y-21283D03*
X26941Y-12165D03*
X27941Y-12165D03*
X57063Y-25980D03*
X56063Y-25980D03*
X26862Y-11102D03*
X27862Y-11102D03*
X26882Y-13248D03*
X27882Y-13248D03*
X32480Y-10681D03*
X32480Y-11681D03*
X33378Y-11673D03*
X34378Y-11673D03*
X34378Y-10689D03*
X33378Y-10689D03*
X32480Y-13453D03*
X32480Y-12453D03*
G54D13*
X25709Y-10890D03*
G54D14*
X25709Y-11890D03*
X25709Y-12890D03*
G54D15*
X15228Y-35240D03*
X15228Y-32213D03*
X15197Y-29213D03*
X15197Y-26213D03*
X15244Y-23213D03*
X15213Y-20209D03*
X15213Y-17209D03*
X15173Y-14268D03*
G54D17*
X35236Y-10689D03*
X35236Y-11831D03*
G54D12*
X16646Y-11909D03*
X17646Y-11909D03*
X23713Y-10709D03*
X22713Y-10709D03*
X23244Y-13268D03*
X22244Y-13268D03*
X21791Y-10661D03*
X21791Y-11661D03*
X22630Y-11673D03*
X22630Y-12673D03*
X16390Y-10866D03*
X17390Y-10866D03*
X17390Y-12972D03*
X16390Y-12972D03*
G54D13*
X15118Y-10909D03*
G54D14*
X15118Y-11909D03*
X15118Y-12909D03*
G54D15*
X18177Y-10646D03*
X18220Y-13476D03*
X28602Y-10650D03*
X28720Y-13366D03*
G54D17*
X24071Y-11953D03*
X24091Y-13079D03*
G54D15*
X58701Y-30413D03*
X58701Y-29331D03*
X58701Y-28228D03*
G54D17*
X47050Y-23400D03*
X47050Y-24400D03*
X48150Y-23070D03*
X48210Y-24410D03*
X36100Y-12600D03*
X36080Y-14900D03*
G54D18*
X62252Y-25355D03*
X61252Y-25355D03*
X60252Y-25355D03*
X59252Y-25355D03*
X59252Y-18755D03*
X60252Y-18755D03*
X61252Y-18755D03*
X62252Y-18755D03*
G54D19*
X56574Y-30728D03*
X56574Y-29728D03*
X56574Y-28728D03*
X56574Y-27728D03*
X63174Y-27728D03*
X63174Y-28728D03*
X63174Y-29728D03*
X63174Y-30728D03*
G54D20*
X62126Y-17299D03*
X62126Y-15331D03*
G54D21*
X63189Y-17693D03*
X63189Y-14937D03*
M02*
