M48
INCH,TZ
T1C0.020
T2C0.022
T3C0.025
T4C0.031
T5C0.032
T6C0.039
T7C0.040
T8C0.046
%
G05
T3
X41510Y-32830
X41516Y-31339
X42012Y-28256
X43209Y-28949
X45830Y-14780
X47350Y-14780
X49070Y-22570
X51398Y-30728
X55083Y-15071
X56358Y-20394
X57358Y-28724
X59177Y-20626
X59311Y-26807
X59827Y-23461
X60272Y-24638
X60677Y-24311
X61024Y-31319
X61090Y-26898
X61331Y-17417
X62291Y-20713
X63291Y-24689
T4
X14388Y-16250
X14388Y-19200
X14388Y-22200
X14388Y-28200
X14388Y-31200
X14388Y-34200
X14388Y-37250
X14438Y-25200
X15263Y-15100
X15263Y-18050
X15263Y-21050
X15263Y-24050
X15263Y-27050
X15263Y-30050
X15263Y-33050
X15263Y-36100
X15388Y-16250
X15388Y-19200
X15388Y-22200
X15388Y-28200
X15388Y-31200
X15388Y-34200
X15388Y-37250
X15438Y-25200
X16288Y-16250
X16288Y-19200
X16288Y-22200
X16288Y-28200
X16288Y-31200
X16288Y-34200
X16288Y-37250
X16338Y-25200
X16390Y-10866
X16390Y-12972
X16646Y-11909
X17288Y-16250
X17288Y-19200
X17288Y-22200
X17288Y-28200
X17288Y-31200
X17288Y-34200
X17288Y-37250
X17338Y-25200
X17390Y-10866
X17390Y-12972
X17646Y-11909
X17813Y-15100
X17813Y-18050
X17813Y-21050
X17813Y-24050
X17813Y-27050
X17813Y-30050
X17813Y-33050
X17813Y-36100
X21791Y-10661
X21791Y-11661
X22244Y-13268
X22630Y-11673
X22630Y-12673
X22713Y-10709
X23244Y-13268
X23258Y-15420
X23258Y-16730
X23258Y-18470
X23258Y-19710
X23258Y-21450
X23258Y-22730
X23258Y-24460
X23258Y-25710
X23258Y-27460
X23258Y-28730
X23258Y-30500
X23258Y-31730
X23258Y-36490
X23268Y-33490
X23268Y-34730
X23274Y-37689
X23713Y-10709
X24071Y-11953
X24091Y-13079
X24758Y-15420
X24758Y-16730
X24758Y-18470
X24758Y-19710
X24758Y-21450
X24758Y-22730
X24758Y-24460
X24758Y-25710
X24758Y-27460
X24758Y-28730
X24758Y-30500
X24758Y-31730
X24758Y-36490
X24768Y-33490
X24768Y-34730
X24774Y-37689
X26862Y-11102
X26882Y-13248
X26941Y-12165
X27862Y-11102
X27882Y-13248
X27941Y-12165
X28260Y-35330
X28260Y-36330
X28320Y-33430
X28320Y-34430
X28510Y-17580
X28510Y-18830
X28510Y-19830
X28760Y-20880
X28760Y-21880
X28970Y-14840
X28970Y-15840
X29260Y-22950
X29400Y-27250
X29400Y-28250
X29510Y-17580
X29510Y-18580
X29510Y-19580
X29760Y-34055
X29760Y-36605
X29860Y-20880
X29860Y-21880
X29970Y-14840
X29970Y-15840
X30260Y-22950
X30510Y-17330
X30650Y-27300
X30650Y-28300
X30800Y-29025
X30800Y-31575
X30970Y-14840
X30970Y-15840
X31500Y-20700
X31510Y-17330
X31510Y-21930
X31760Y-27330
X31760Y-28330
X31760Y-29330
X31760Y-30330
X32480Y-10681
X32480Y-11681
X32480Y-12453
X32480Y-13453
X32500Y-20700
X32510Y-18580
X32510Y-19580
X32510Y-21930
X32650Y-14632
X32650Y-17632
X32895Y-37730
X33378Y-10689
X33378Y-11673
X33510Y-33080
X33510Y-34080
X33580Y-35840
X33580Y-36840
X34272Y-23868
X34272Y-24868
X34272Y-25882
X34272Y-26882
X34378Y-10689
X34378Y-11673
X34510Y-33330
X34510Y-34330
X34790Y-35880
X34790Y-36880
X35236Y-10689
X35236Y-11831
X35260Y-31580
X35445Y-37730
X35510Y-18200
X35510Y-21200
X35760Y-28080
X35776Y-23894
X35776Y-25894
X36080Y-14900
X36100Y-12600
X36240Y-29070
X36240Y-30070
X36260Y-31580
X36760Y-28080
X37468Y-10807
X37510Y-28830
X37510Y-29830
X37510Y-31330
X37510Y-32330
X37510Y-36830
X37510Y-37830
X38190Y-28330
X38468Y-10807
X38510Y-34580
X38510Y-35580
X38560Y-36830
X38560Y-37830
X38760Y-29330
X38760Y-30330
X39190Y-28330
X39510Y-32080
X39510Y-33080
X39510Y-34080
X39510Y-37080
X39799Y-10587
X39799Y-11587
X40260Y-15580
X40410Y-28800
X40410Y-29800
X40510Y-30830
X40510Y-33830
X40510Y-36830
X40510Y-37830
X41150Y-11060
X41150Y-12060
X41160Y-13020
X41160Y-14020
X41260Y-15580
X41510Y-34580
X41510Y-35580
X41510Y-36580
X41510Y-37580
X42510Y-11780
X42510Y-12780
X42510Y-34330
X42510Y-37330
X42930Y-13860
X42930Y-14860
X43420Y-37340
X43510Y-28330
X43510Y-35330
X43510Y-36330
X43610Y-16290
X43671Y-11177
X43760Y-29330
X43921Y-12732
X43930Y-13860
X43930Y-14860
X44610Y-16290
X44910Y-13860
X44910Y-14860
X44921Y-12732
X45010Y-30580
X45010Y-32080
X45010Y-33410
X45171Y-11177
X45760Y-31330
X45953Y-11315
X45953Y-12315
X46010Y-27080
X46010Y-30330
X46010Y-32330
X46010Y-33410
X46420Y-37340
X46510Y-28330
X46760Y-29330
X46775Y-11587
X46775Y-12587
X47010Y-27080
X47010Y-30330
X47010Y-32330
X47037Y-21390
X47037Y-22390
X47050Y-23400
X47050Y-24400
X47260Y-31330
X48010Y-32580
X48010Y-33580
X48120Y-25970
X48120Y-26970
X48140Y-28080
X48140Y-31080
X48142Y-12858
X48142Y-13858
X48760Y-15080
X48760Y-16080
X48760Y-20580
X48760Y-21580
X49041Y-11079
X49070Y-28090
X49070Y-31090
X49260Y-32580
X49260Y-33580
X49450Y-24130
X49450Y-27130
X49748Y-12587
X49748Y-13587
X49760Y-17080
X49760Y-18580
X49960Y-15000
X49960Y-16000
X49976Y-19769
X50090Y-29130
X50090Y-30130
X50370Y-24130
X50370Y-27130
X50541Y-11079
X50673Y-12728
X50673Y-13728
X50760Y-31830
X50976Y-19769
X51010Y-34080
X51010Y-37080
X51260Y-16080
X51260Y-17080
X51390Y-24470
X51390Y-25470
X51398Y-26634
X51398Y-27634
X51401Y-28744
X51401Y-29744
X51693Y-12289
X51693Y-13789
X51760Y-17830
X51760Y-18830
X52010Y-34080
X52010Y-37080
X52260Y-30830
X52260Y-31830
X52500Y-24420
X52838Y-26634
X52838Y-29634
X53010Y-34330
X53010Y-35330
X53358Y-25878
X53409Y-13972
X53409Y-14972
X53420Y-31730
X53500Y-24420
X53527Y-12232
X53527Y-13232
X53620Y-19520
X53680Y-20750
X53831Y-26638
X53831Y-29638
X54010Y-36330
X54010Y-37330
X54260Y-32830
X54260Y-33830
X54358Y-25878
X54547Y-29795
X54580Y-23740
X54580Y-24740
X54620Y-19520
X54680Y-20750
X54760Y-12840
X54760Y-13840
X54898Y-27417
X54898Y-28417
X55010Y-11080
X55010Y-12080
X55260Y-30830
X55260Y-34580
X55260Y-35830
X55340Y-32780
X55547Y-29795
X55807Y-23827
X55807Y-24827
X56063Y-25980
X56240Y-14630
X56260Y-34580
X56260Y-35830
X56272Y-21283
X56272Y-22283
X56340Y-32780
X56420Y-31730
X56510Y-12080
X56510Y-13080
X56925Y-23835
X56925Y-24835
X57063Y-25980
X57240Y-14630
X57386Y-21283
X57386Y-22283
X57484Y-31972
X57685Y-10496
X57685Y-13496
X58488Y-33382
X59484Y-31972
X59700Y-34670
X59700Y-35670
X59700Y-36510
X59700Y-37510
X60295Y-31976
X60990Y-10480
X60990Y-11480
X61000Y-12580
X61000Y-13580
X61000Y-34500
X61000Y-35500
X61000Y-36500
X61000Y-37500
X61488Y-33382
X63295Y-31976
T5
X59690Y-10500
X59690Y-11500
X59700Y-12360
X59700Y-13360
T6
X15118Y-10909
X15118Y-11909
X15118Y-12909
X25709Y-10890
X25709Y-11890
X25709Y-12890
X26268Y-22965
X26268Y-23965
X26268Y-24965
X26268Y-25965
X26268Y-26965
X26268Y-27965
X26268Y-28965
X26268Y-29965
X34010Y-13830
X34010Y-14830
X34010Y-15830
X34010Y-16830
X34010Y-17830
X34010Y-18830
X34010Y-19830
X34010Y-20830
X38210Y-12920
X38210Y-13920
X38210Y-14920
X38210Y-15920
X43560Y-17350
X44560Y-17350
X45560Y-17350
X46560Y-17350
X47680Y-17090
X47680Y-18090
X47680Y-19090
X47680Y-20090
X48201Y-23398
X48201Y-24398
X51366Y-21067
X52366Y-21067
X62760Y-11040
X62760Y-12040
X62760Y-13040
X62760Y-35080
X62760Y-36080
X62760Y-37080
T7
X15173Y-14268
X15197Y-26213
X15197Y-29213
X15213Y-17209
X15213Y-20209
X15228Y-32213
X15228Y-35240
X15244Y-23213
X18177Y-10646
X18220Y-13476
X22048Y-21720
X22048Y-27720
X22048Y-30720
X22048Y-33720
X22048Y-36720
X22058Y-24700
X28602Y-10650
X28720Y-13366
X32010Y-31580
X54010Y-34830
X58701Y-28228
X58701Y-29331
X58701Y-30413
T8
X22048Y-15720
X22048Y-18720
X29010Y-31580
X29510Y-29580
X29750Y-33200
X31530Y-37170
X34260Y-32330
X36280Y-37020
X38510Y-33580
X39795Y-12850
X40510Y-35580
X42010Y-11080
X45689Y-10567
X46010Y-34430
X47303Y-10701
X47524Y-36740
X47748Y-37677
X48780Y-34690
X51504Y-10646
X53010Y-33080
X53071Y-10598
X54563Y-22272
X55980Y-37480
X57420Y-37660
X57461Y-33516
X58492Y-14657
X63220Y-33398
T1
X63317Y-14937G85X63061Y-14937
G05
X63317Y-17693G85X63061Y-17693
G05
T2
X62126Y-15390G85X62126Y-15272
G05
X62126Y-17358G85X62126Y-17240
G05
T0
M30
