G04 (created by PCBNEW (2013-jul-07)-stable) date Sun 25 May 2014 01:06:24 AM EDT*
%MOIN*%
G04 Gerber Fmt 3.4, Leading zero omitted, Abs format*
%FSLAX34Y34*%
G01*
G70*
G90*
G04 APERTURE LIST*
%ADD10C,0.00393701*%
%ADD11C,0.00787402*%
%ADD12C,0.015*%
%ADD13C,0.00590551*%
%ADD14C,0.005*%
%ADD15C,0.00708661*%
%ADD16C,0.007*%
%ADD17C,0.006*%
%ADD18C,0.012*%
%ADD19C,0.0045*%
%ADD20C,0.0075*%
%ADD21C,0.0063*%
%ADD22C,0.025*%
%ADD23C,0.008*%
%ADD24C,0.01*%
%ADD25C,0.00669291*%
%ADD26C,0.001*%
%ADD27C,0.002*%
%ADD28C,0.004*%
%ADD29C,0.0047*%
%ADD30C,0.0059*%
%ADD31C,0.00375*%
%ADD32C,0.00492126*%
G04 APERTURE END LIST*
G54D10*
G54D11*
X26082Y-38277D02*
X27667Y-38277D01*
X26082Y-36870D02*
X26082Y-38277D01*
X25098Y-35885D02*
X26082Y-36870D01*
X25098Y-34665D02*
X25098Y-35885D01*
X25118Y-34645D02*
X25098Y-34665D01*
X25295Y-34645D02*
X25118Y-34645D01*
X25295Y-33198D02*
X25295Y-34645D01*
X25196Y-33100D02*
X25295Y-33198D01*
X25009Y-32913D02*
X25196Y-33100D01*
X25009Y-32529D02*
X25009Y-32913D01*
X25088Y-32450D02*
X25009Y-32529D01*
X25275Y-32263D02*
X25088Y-32450D01*
X25275Y-30511D02*
X25275Y-32263D01*
X26899Y-30511D02*
X25275Y-30511D01*
X33169Y-24507D02*
X33188Y-24527D01*
X33169Y-23228D02*
X33169Y-24507D01*
X33149Y-25994D02*
X33159Y-25984D01*
X33326Y-25816D02*
X33149Y-25994D01*
X33326Y-24665D02*
X33326Y-25816D01*
X33179Y-24517D02*
X33326Y-24665D01*
X34074Y-27539D02*
X34074Y-27509D01*
X33395Y-27539D02*
X34074Y-27539D01*
X33218Y-27362D02*
X33395Y-27539D01*
X33218Y-26525D02*
X33218Y-27362D01*
X33149Y-26456D02*
X33218Y-26525D01*
X33149Y-25984D02*
X33149Y-26456D01*
X33395Y-23228D02*
X33179Y-23228D01*
X33395Y-22401D02*
X33395Y-23228D01*
X26761Y-22401D02*
X33395Y-22401D01*
X26761Y-22431D02*
X26761Y-22401D01*
X26761Y-22490D02*
X26761Y-22431D01*
X26771Y-22962D02*
X26771Y-22972D01*
X27125Y-22962D02*
X26771Y-22962D01*
X27421Y-23257D02*
X27125Y-22962D01*
X27421Y-23454D02*
X27421Y-23257D01*
X27559Y-23592D02*
X27421Y-23454D01*
X27559Y-26003D02*
X27559Y-23592D01*
X26899Y-26663D02*
X27559Y-26003D01*
X26899Y-30570D02*
X26899Y-26663D01*
X28277Y-30570D02*
X26899Y-30570D01*
X28297Y-30590D02*
X28277Y-30570D01*
X28671Y-30964D02*
X28297Y-30590D01*
X29035Y-30964D02*
X28671Y-30964D01*
X29232Y-30767D02*
X29035Y-30964D01*
X33139Y-30767D02*
X29232Y-30767D01*
X34074Y-30344D02*
X34074Y-30354D01*
X33671Y-30344D02*
X34074Y-30344D01*
X33523Y-30492D02*
X33671Y-30344D01*
X33139Y-30492D02*
X33523Y-30492D01*
X33139Y-31879D02*
X33139Y-30492D01*
X32490Y-31879D02*
X33139Y-31879D01*
X32490Y-32657D02*
X32490Y-31879D01*
X32125Y-32657D02*
X32490Y-32657D01*
X32125Y-33750D02*
X32125Y-32657D01*
X32942Y-33750D02*
X32125Y-33750D01*
X32942Y-34675D02*
X32942Y-33750D01*
X32992Y-34675D02*
X32942Y-34675D01*
X33415Y-34675D02*
X32992Y-34675D01*
X33415Y-38248D02*
X33415Y-34675D01*
G54D12*
X34803Y-26801D02*
X35157Y-26801D01*
X34803Y-26811D02*
X34803Y-26801D01*
X34803Y-27519D02*
X34803Y-26811D01*
X55629Y-21289D02*
X55629Y-21279D01*
X55236Y-21289D02*
X55629Y-21289D01*
X53897Y-21279D02*
X55236Y-21279D01*
G54D13*
X38379Y-32985D02*
X38379Y-32685D01*
X38507Y-32899D02*
X38650Y-32899D01*
X38479Y-32985D02*
X38579Y-32685D01*
X38679Y-32985D01*
X38736Y-32685D02*
X38907Y-32685D01*
X38822Y-32985D02*
X38822Y-32685D01*
G54D12*
X36940Y-38228D02*
X36956Y-38228D01*
X36940Y-35488D02*
X36940Y-38228D01*
X37913Y-35488D02*
X36940Y-35488D01*
X38401Y-31149D02*
X38401Y-30437D01*
X34074Y-27515D02*
X34791Y-27515D01*
X34074Y-30433D02*
X34074Y-27515D01*
X39783Y-30433D02*
X34074Y-30433D01*
X39775Y-29291D02*
X39775Y-30429D01*
G54D14*
X31079Y-23070D02*
X31079Y-22770D01*
X31193Y-22770D01*
X31222Y-22784D01*
X31236Y-22798D01*
X31251Y-22827D01*
X31251Y-22870D01*
X31236Y-22898D01*
X31222Y-22913D01*
X31193Y-22927D01*
X31079Y-22927D01*
X31379Y-23070D02*
X31379Y-22770D01*
X31551Y-23070D02*
X31422Y-22898D01*
X31551Y-22770D02*
X31379Y-22941D01*
X31808Y-22870D02*
X31808Y-23070D01*
X31736Y-22755D02*
X31665Y-22970D01*
X31851Y-22970D01*
X32179Y-22755D02*
X31922Y-23141D01*
X32422Y-23070D02*
X32279Y-23070D01*
X32279Y-22770D01*
X32508Y-23055D02*
X32551Y-23070D01*
X32622Y-23070D01*
X32651Y-23055D01*
X32665Y-23041D01*
X32679Y-23013D01*
X32679Y-22984D01*
X32665Y-22955D01*
X32651Y-22941D01*
X32622Y-22927D01*
X32565Y-22913D01*
X32536Y-22898D01*
X32522Y-22884D01*
X32508Y-22855D01*
X32508Y-22827D01*
X32522Y-22798D01*
X32536Y-22784D01*
X32565Y-22770D01*
X32636Y-22770D01*
X32679Y-22784D01*
X32808Y-23070D02*
X32808Y-22770D01*
X32879Y-22770D01*
X32922Y-22784D01*
X32951Y-22813D01*
X32965Y-22841D01*
X32979Y-22898D01*
X32979Y-22941D01*
X32965Y-22998D01*
X32951Y-23027D01*
X32922Y-23055D01*
X32879Y-23070D01*
X32808Y-23070D01*
X33093Y-22798D02*
X33108Y-22784D01*
X33136Y-22770D01*
X33208Y-22770D01*
X33236Y-22784D01*
X33251Y-22798D01*
X33265Y-22827D01*
X33265Y-22855D01*
X33251Y-22898D01*
X33079Y-23070D01*
X33265Y-23070D01*
X35306Y-38003D02*
X35306Y-37703D01*
X35306Y-37846D02*
X35477Y-37846D01*
X35477Y-38003D02*
X35477Y-37703D01*
X35606Y-37989D02*
X35649Y-38003D01*
X35720Y-38003D01*
X35749Y-37989D01*
X35763Y-37974D01*
X35777Y-37946D01*
X35777Y-37917D01*
X35763Y-37889D01*
X35749Y-37874D01*
X35720Y-37860D01*
X35663Y-37846D01*
X35635Y-37831D01*
X35620Y-37817D01*
X35606Y-37789D01*
X35606Y-37760D01*
X35620Y-37731D01*
X35635Y-37717D01*
X35663Y-37703D01*
X35735Y-37703D01*
X35777Y-37717D01*
X35906Y-38003D02*
X35906Y-37703D01*
X35977Y-37703D01*
X36020Y-37717D01*
X36049Y-37746D01*
X36063Y-37774D01*
X36077Y-37831D01*
X36077Y-37874D01*
X36063Y-37931D01*
X36049Y-37960D01*
X36020Y-37989D01*
X35977Y-38003D01*
X35906Y-38003D01*
X28909Y-36843D02*
X28766Y-36843D01*
X28766Y-36543D01*
X28994Y-36829D02*
X29037Y-36843D01*
X29109Y-36843D01*
X29137Y-36829D01*
X29151Y-36815D01*
X29166Y-36786D01*
X29166Y-36758D01*
X29151Y-36729D01*
X29137Y-36715D01*
X29109Y-36701D01*
X29051Y-36686D01*
X29023Y-36672D01*
X29009Y-36658D01*
X28994Y-36629D01*
X28994Y-36601D01*
X29009Y-36572D01*
X29023Y-36558D01*
X29051Y-36543D01*
X29123Y-36543D01*
X29166Y-36558D01*
X29294Y-36843D02*
X29294Y-36543D01*
X29366Y-36543D01*
X29409Y-36558D01*
X29437Y-36586D01*
X29451Y-36615D01*
X29466Y-36672D01*
X29466Y-36715D01*
X29451Y-36772D01*
X29437Y-36801D01*
X29409Y-36829D01*
X29366Y-36843D01*
X29294Y-36843D01*
X29566Y-36543D02*
X29751Y-36543D01*
X29651Y-36658D01*
X29694Y-36658D01*
X29723Y-36672D01*
X29737Y-36686D01*
X29751Y-36715D01*
X29751Y-36786D01*
X29737Y-36815D01*
X29723Y-36829D01*
X29694Y-36843D01*
X29609Y-36843D01*
X29580Y-36829D01*
X29566Y-36815D01*
X26546Y-30948D02*
X26403Y-30948D01*
X26403Y-30648D01*
X26631Y-30933D02*
X26674Y-30948D01*
X26746Y-30948D01*
X26774Y-30933D01*
X26788Y-30919D01*
X26803Y-30891D01*
X26803Y-30862D01*
X26788Y-30833D01*
X26774Y-30819D01*
X26746Y-30805D01*
X26688Y-30791D01*
X26660Y-30776D01*
X26646Y-30762D01*
X26631Y-30733D01*
X26631Y-30705D01*
X26646Y-30676D01*
X26660Y-30662D01*
X26688Y-30648D01*
X26760Y-30648D01*
X26803Y-30662D01*
X26931Y-30948D02*
X26931Y-30648D01*
X27003Y-30648D01*
X27046Y-30662D01*
X27074Y-30691D01*
X27088Y-30719D01*
X27103Y-30776D01*
X27103Y-30819D01*
X27088Y-30876D01*
X27074Y-30905D01*
X27046Y-30933D01*
X27003Y-30948D01*
X26931Y-30948D01*
X27203Y-30648D02*
X27388Y-30648D01*
X27288Y-30762D01*
X27331Y-30762D01*
X27360Y-30776D01*
X27374Y-30791D01*
X27388Y-30819D01*
X27388Y-30891D01*
X27374Y-30919D01*
X27360Y-30933D01*
X27331Y-30948D01*
X27246Y-30948D01*
X27217Y-30933D01*
X27203Y-30919D01*
X27517Y-30833D02*
X27746Y-30833D01*
X27888Y-30948D02*
X27888Y-30648D01*
X28031Y-30948D02*
X28031Y-30648D01*
X28203Y-30948D01*
X28203Y-30648D01*
X59715Y-16620D02*
X59815Y-16920D01*
X59915Y-16620D01*
X60015Y-16920D02*
X60015Y-16620D01*
X60015Y-16734D02*
X60044Y-16720D01*
X60101Y-16720D01*
X60130Y-16734D01*
X60144Y-16749D01*
X60158Y-16777D01*
X60158Y-16863D01*
X60144Y-16892D01*
X60130Y-16906D01*
X60101Y-16920D01*
X60044Y-16920D01*
X60015Y-16906D01*
X60415Y-16720D02*
X60415Y-16920D01*
X60287Y-16720D02*
X60287Y-16877D01*
X60301Y-16906D01*
X60330Y-16920D01*
X60372Y-16920D01*
X60401Y-16906D01*
X60415Y-16892D01*
X60544Y-16906D02*
X60572Y-16920D01*
X60630Y-16920D01*
X60658Y-16906D01*
X60672Y-16877D01*
X60672Y-16863D01*
X60658Y-16834D01*
X60630Y-16820D01*
X60587Y-16820D01*
X60558Y-16806D01*
X60544Y-16777D01*
X60544Y-16763D01*
X60558Y-16734D01*
X60587Y-16720D01*
X60630Y-16720D01*
X60658Y-16734D01*
X59136Y-14660D02*
X59136Y-14902D01*
X59150Y-14931D01*
X59164Y-14945D01*
X59193Y-14960D01*
X59250Y-14960D01*
X59278Y-14945D01*
X59293Y-14931D01*
X59307Y-14902D01*
X59307Y-14660D01*
X59436Y-14945D02*
X59478Y-14960D01*
X59550Y-14960D01*
X59578Y-14945D01*
X59593Y-14931D01*
X59607Y-14902D01*
X59607Y-14874D01*
X59593Y-14845D01*
X59578Y-14831D01*
X59550Y-14817D01*
X59493Y-14802D01*
X59464Y-14788D01*
X59450Y-14774D01*
X59436Y-14745D01*
X59436Y-14717D01*
X59450Y-14688D01*
X59464Y-14674D01*
X59493Y-14660D01*
X59564Y-14660D01*
X59607Y-14674D01*
X59836Y-14802D02*
X59878Y-14817D01*
X59893Y-14831D01*
X59907Y-14860D01*
X59907Y-14902D01*
X59893Y-14931D01*
X59878Y-14945D01*
X59850Y-14960D01*
X59736Y-14960D01*
X59736Y-14660D01*
X59836Y-14660D01*
X59864Y-14674D01*
X59878Y-14688D01*
X59893Y-14717D01*
X59893Y-14745D01*
X59878Y-14774D01*
X59864Y-14788D01*
X59836Y-14802D01*
X59736Y-14802D01*
X60036Y-14845D02*
X60264Y-14845D01*
X60564Y-14674D02*
X60536Y-14660D01*
X60493Y-14660D01*
X60450Y-14674D01*
X60421Y-14702D01*
X60407Y-14731D01*
X60393Y-14788D01*
X60393Y-14831D01*
X60407Y-14888D01*
X60421Y-14917D01*
X60450Y-14945D01*
X60493Y-14960D01*
X60521Y-14960D01*
X60564Y-14945D01*
X60578Y-14931D01*
X60578Y-14831D01*
X60521Y-14831D01*
X60707Y-14960D02*
X60707Y-14660D01*
X60878Y-14960D01*
X60878Y-14660D01*
X61021Y-14960D02*
X61021Y-14660D01*
X61093Y-14660D01*
X61136Y-14674D01*
X61164Y-14702D01*
X61178Y-14731D01*
X61193Y-14788D01*
X61193Y-14831D01*
X61178Y-14888D01*
X61164Y-14917D01*
X61136Y-14945D01*
X61093Y-14960D01*
X61021Y-14960D01*
X57912Y-17208D02*
X57912Y-16908D01*
X57984Y-16908D01*
X58027Y-16922D01*
X58055Y-16950D01*
X58070Y-16979D01*
X58084Y-17036D01*
X58084Y-17079D01*
X58070Y-17136D01*
X58055Y-17165D01*
X58027Y-17193D01*
X57984Y-17208D01*
X57912Y-17208D01*
X58212Y-17093D02*
X58441Y-17093D01*
X57940Y-15904D02*
X57940Y-15604D01*
X58011Y-15604D01*
X58054Y-15619D01*
X58083Y-15647D01*
X58097Y-15676D01*
X58111Y-15733D01*
X58111Y-15776D01*
X58097Y-15833D01*
X58083Y-15862D01*
X58054Y-15890D01*
X58011Y-15904D01*
X57940Y-15904D01*
X58240Y-15790D02*
X58469Y-15790D01*
X58354Y-15904D02*
X58354Y-15676D01*
G54D12*
X49724Y-20732D02*
X49732Y-20732D01*
X48968Y-19976D02*
X49724Y-20732D01*
X57681Y-27752D02*
X57681Y-26890D01*
X58779Y-27752D02*
X57681Y-27752D01*
X58779Y-27437D02*
X58779Y-27752D01*
X60823Y-27437D02*
X58779Y-27437D01*
X60823Y-32075D02*
X60823Y-27437D01*
X62405Y-32075D02*
X60823Y-32075D01*
X62405Y-31527D02*
X62405Y-32075D01*
X63689Y-31527D02*
X62405Y-31527D01*
X58760Y-20453D02*
X63689Y-20453D01*
X58760Y-23106D02*
X58760Y-20453D01*
X57693Y-23106D02*
X58760Y-23106D01*
X57693Y-26905D02*
X57693Y-23106D01*
X55559Y-26905D02*
X57693Y-26905D01*
G54D11*
X24555Y-14126D02*
X24555Y-9866D01*
G54D12*
X52504Y-17980D02*
X52504Y-13614D01*
X52232Y-18264D02*
X52232Y-19744D01*
X52520Y-17976D02*
X52232Y-18264D01*
X56047Y-9902D02*
X53610Y-9902D01*
X53610Y-11126D02*
X53610Y-9925D01*
X52850Y-11886D02*
X53610Y-11126D01*
X52850Y-13272D02*
X52850Y-11886D01*
X52504Y-13618D02*
X52850Y-13272D01*
X52232Y-19748D02*
X52232Y-18508D01*
X51441Y-19748D02*
X52232Y-19748D01*
X51012Y-20177D02*
X51441Y-19748D01*
X50284Y-20177D02*
X51012Y-20177D01*
X49524Y-20937D02*
X50284Y-20177D01*
G54D14*
X51421Y-20104D02*
X51279Y-20104D01*
X51264Y-20247D01*
X51279Y-20233D01*
X51307Y-20218D01*
X51379Y-20218D01*
X51407Y-20233D01*
X51421Y-20247D01*
X51436Y-20275D01*
X51436Y-20347D01*
X51421Y-20375D01*
X51407Y-20390D01*
X51379Y-20404D01*
X51307Y-20404D01*
X51279Y-20390D01*
X51264Y-20375D01*
X51536Y-20204D02*
X51607Y-20404D01*
X51679Y-20204D01*
X52007Y-20090D02*
X51750Y-20475D01*
X52264Y-20118D02*
X52236Y-20104D01*
X52193Y-20104D01*
X52150Y-20118D01*
X52121Y-20147D01*
X52107Y-20175D01*
X52093Y-20233D01*
X52093Y-20275D01*
X52107Y-20333D01*
X52121Y-20361D01*
X52150Y-20390D01*
X52193Y-20404D01*
X52221Y-20404D01*
X52264Y-20390D01*
X52279Y-20375D01*
X52279Y-20275D01*
X52221Y-20275D01*
X52407Y-20404D02*
X52407Y-20104D01*
X52579Y-20404D01*
X52579Y-20104D01*
X52721Y-20404D02*
X52721Y-20104D01*
X52793Y-20104D01*
X52836Y-20118D01*
X52864Y-20147D01*
X52879Y-20175D01*
X52893Y-20233D01*
X52893Y-20275D01*
X52879Y-20333D01*
X52864Y-20361D01*
X52836Y-20390D01*
X52793Y-20404D01*
X52721Y-20404D01*
G54D12*
X36457Y-11583D02*
X36902Y-11583D01*
X35453Y-12587D02*
X36457Y-11583D01*
X35287Y-12587D02*
X35453Y-12587D01*
X35276Y-12598D02*
X35287Y-12587D01*
X56984Y-9905D02*
X63685Y-9905D01*
X58969Y-14189D02*
X63689Y-14189D01*
X58890Y-14110D02*
X58969Y-14189D01*
X58571Y-14110D02*
X58890Y-14110D01*
X58571Y-13929D02*
X58571Y-14110D01*
X56980Y-13929D02*
X58571Y-13929D01*
X56980Y-9902D02*
X56980Y-13929D01*
G54D14*
X30728Y-29582D02*
X30585Y-29582D01*
X30585Y-29282D01*
X30813Y-29567D02*
X30856Y-29582D01*
X30928Y-29582D01*
X30956Y-29567D01*
X30970Y-29553D01*
X30985Y-29524D01*
X30985Y-29496D01*
X30970Y-29467D01*
X30956Y-29453D01*
X30928Y-29439D01*
X30870Y-29424D01*
X30842Y-29410D01*
X30828Y-29396D01*
X30813Y-29367D01*
X30813Y-29339D01*
X30828Y-29310D01*
X30842Y-29296D01*
X30870Y-29282D01*
X30942Y-29282D01*
X30985Y-29296D01*
X31113Y-29582D02*
X31113Y-29282D01*
X31185Y-29282D01*
X31228Y-29296D01*
X31256Y-29324D01*
X31270Y-29353D01*
X31285Y-29410D01*
X31285Y-29453D01*
X31270Y-29510D01*
X31256Y-29539D01*
X31228Y-29567D01*
X31185Y-29582D01*
X31113Y-29582D01*
X31399Y-29310D02*
X31413Y-29296D01*
X31442Y-29282D01*
X31513Y-29282D01*
X31542Y-29296D01*
X31556Y-29310D01*
X31570Y-29339D01*
X31570Y-29367D01*
X31556Y-29410D01*
X31385Y-29582D01*
X31570Y-29582D01*
G54D15*
X14316Y-12851D02*
X14316Y-13054D01*
X14316Y-12952D02*
X13962Y-12952D01*
X14012Y-12986D01*
X14046Y-13020D01*
X14063Y-13054D01*
X13995Y-12716D02*
X13978Y-12699D01*
X13962Y-12666D01*
X13962Y-12581D01*
X13978Y-12548D01*
X13995Y-12531D01*
X14029Y-12514D01*
X14063Y-12514D01*
X14113Y-12531D01*
X14316Y-12733D01*
X14316Y-12514D01*
X14080Y-12396D02*
X14316Y-12311D01*
X14080Y-12227D01*
X13945Y-11569D02*
X14400Y-11873D01*
X13962Y-11012D02*
X13962Y-11181D01*
X14130Y-11198D01*
X14113Y-11181D01*
X14097Y-11147D01*
X14097Y-11063D01*
X14113Y-11029D01*
X14130Y-11012D01*
X14164Y-10995D01*
X14248Y-10995D01*
X14282Y-11012D01*
X14299Y-11029D01*
X14316Y-11063D01*
X14316Y-11147D01*
X14299Y-11181D01*
X14282Y-11198D01*
X14080Y-10877D02*
X14316Y-10793D01*
X14080Y-10708D01*
X25054Y-12890D02*
X25054Y-13093D01*
X25054Y-12992D02*
X24700Y-12992D01*
X24751Y-13025D01*
X24784Y-13059D01*
X24801Y-13093D01*
X24734Y-12755D02*
X24717Y-12739D01*
X24700Y-12705D01*
X24700Y-12620D01*
X24717Y-12587D01*
X24734Y-12570D01*
X24767Y-12553D01*
X24801Y-12553D01*
X24852Y-12570D01*
X25054Y-12772D01*
X25054Y-12553D01*
X24818Y-12435D02*
X25054Y-12350D01*
X24818Y-12266D01*
X24683Y-11608D02*
X25139Y-11912D01*
X24700Y-11051D02*
X24700Y-11220D01*
X24869Y-11237D01*
X24852Y-11220D01*
X24835Y-11186D01*
X24835Y-11102D01*
X24852Y-11068D01*
X24869Y-11051D01*
X24902Y-11034D01*
X24987Y-11034D01*
X25021Y-11051D01*
X25037Y-11068D01*
X25054Y-11102D01*
X25054Y-11186D01*
X25037Y-11220D01*
X25021Y-11237D01*
X24818Y-10916D02*
X25054Y-10832D01*
X24818Y-10748D01*
G54D12*
X49524Y-23803D02*
X49524Y-20913D01*
X63681Y-9905D02*
X63681Y-9886D01*
X56067Y-9905D02*
X63681Y-9905D01*
X56980Y-12704D02*
X56980Y-11752D01*
X56819Y-19476D02*
X56819Y-19555D01*
X63716Y-19476D02*
X56819Y-19476D01*
X56811Y-19492D02*
X56838Y-19465D01*
X56811Y-20657D02*
X56811Y-19492D01*
X55622Y-20657D02*
X56811Y-20657D01*
X55622Y-21327D02*
X55622Y-20657D01*
X53894Y-23925D02*
X53894Y-21327D01*
X50524Y-23925D02*
X53894Y-23925D01*
X50378Y-23779D02*
X50524Y-23925D01*
X49170Y-23779D02*
X50378Y-23779D01*
X49095Y-23854D02*
X49170Y-23779D01*
X49095Y-24476D02*
X49095Y-23854D01*
X48669Y-24902D02*
X49095Y-24476D01*
X48669Y-27516D02*
X48669Y-24902D01*
X47614Y-27516D02*
X48669Y-27516D01*
X47614Y-27799D02*
X47614Y-27516D01*
X47150Y-16599D02*
X47150Y-16772D01*
X47189Y-16560D02*
X47150Y-16599D01*
X48181Y-16560D02*
X47189Y-16560D01*
X48213Y-16528D02*
X48181Y-16560D01*
X48988Y-16528D02*
X48213Y-16528D01*
X48988Y-20000D02*
X48988Y-16528D01*
X48232Y-20000D02*
X48988Y-20000D01*
X48232Y-20567D02*
X48232Y-20000D01*
X47110Y-20567D02*
X48232Y-20567D01*
X47110Y-16776D02*
X47110Y-20567D01*
X42287Y-16776D02*
X47110Y-16776D01*
X42287Y-14965D02*
X42287Y-16776D01*
X39709Y-14965D02*
X42287Y-14965D01*
X39709Y-16543D02*
X39709Y-14965D01*
X36961Y-16543D02*
X39709Y-16543D01*
X36961Y-9917D02*
X36961Y-16543D01*
X33370Y-21366D02*
X33370Y-21339D01*
X34571Y-21366D02*
X33370Y-21366D01*
X34571Y-17752D02*
X34571Y-21366D01*
X35283Y-17752D02*
X34571Y-17752D01*
X35283Y-12598D02*
X35283Y-17752D01*
X33370Y-12598D02*
X35283Y-12598D01*
X33370Y-21346D02*
X33370Y-12598D01*
X33335Y-14020D02*
X33335Y-13996D01*
X30626Y-14020D02*
X33335Y-14020D01*
X30441Y-13835D02*
X30626Y-14020D01*
X27803Y-13835D02*
X30441Y-13835D01*
X27803Y-14142D02*
X27803Y-13835D01*
X27752Y-14193D02*
X27803Y-14142D01*
X27752Y-15677D02*
X27752Y-14193D01*
X25291Y-15677D02*
X27752Y-15677D01*
X25291Y-14165D02*
X25291Y-15677D01*
X21838Y-14165D02*
X25291Y-14165D01*
X21783Y-14110D02*
X21838Y-14165D01*
X16020Y-14110D02*
X21783Y-14110D01*
X15528Y-13618D02*
X16020Y-14110D01*
X13803Y-13618D02*
X15528Y-13618D01*
X63689Y-31531D02*
X63689Y-31520D01*
X55563Y-25342D02*
X55563Y-26898D01*
X52464Y-25342D02*
X55563Y-25342D01*
X52464Y-26000D02*
X52464Y-25342D01*
X50646Y-26000D02*
X52464Y-26000D01*
X50646Y-30350D02*
X50646Y-26000D01*
X52430Y-30350D02*
X50646Y-30350D01*
X52508Y-30272D02*
X52430Y-30350D01*
X54709Y-30272D02*
X52508Y-30272D01*
X54740Y-30303D02*
X54709Y-30272D01*
X54775Y-30338D02*
X54740Y-30303D01*
X54807Y-30370D02*
X54775Y-30338D01*
X55701Y-30370D02*
X54807Y-30370D01*
X55701Y-31181D02*
X55701Y-30370D01*
X55874Y-31181D02*
X55701Y-31181D01*
X55933Y-31240D02*
X55874Y-31181D01*
X56945Y-31240D02*
X55933Y-31240D01*
X56945Y-34039D02*
X56921Y-34039D01*
X56945Y-31244D02*
X56945Y-34039D01*
X62705Y-33941D02*
X63685Y-33941D01*
X62705Y-33445D02*
X62705Y-33941D01*
X61815Y-33445D02*
X62705Y-33445D01*
X61815Y-33476D02*
X61815Y-33445D01*
X61815Y-33835D02*
X61815Y-33476D01*
X59401Y-33835D02*
X61815Y-33835D01*
X59401Y-33886D02*
X59401Y-33835D01*
X59401Y-34043D02*
X59401Y-33886D01*
X56823Y-34043D02*
X59401Y-34043D01*
X56823Y-36685D02*
X56823Y-34043D01*
X56638Y-36870D02*
X56823Y-36685D01*
X54882Y-36870D02*
X56638Y-36870D01*
X54882Y-37803D02*
X54882Y-36870D01*
X54611Y-37803D02*
X54882Y-37803D01*
X54583Y-37831D02*
X54611Y-37803D01*
X54106Y-37831D02*
X54583Y-37831D01*
X54106Y-38264D02*
X54106Y-37831D01*
X46543Y-36791D02*
X46543Y-35697D01*
X46957Y-36791D02*
X46543Y-36791D01*
X46957Y-38244D02*
X46957Y-36791D01*
X43539Y-33563D02*
X43512Y-33563D01*
X43539Y-33685D02*
X43539Y-33563D01*
X43547Y-33693D02*
X43539Y-33685D01*
X43547Y-33732D02*
X43547Y-33693D01*
X44401Y-33732D02*
X43547Y-33732D01*
X44401Y-35697D02*
X44401Y-33732D01*
X47228Y-35697D02*
X44401Y-35697D01*
X47228Y-33374D02*
X47228Y-35697D01*
X47516Y-33374D02*
X47228Y-33374D01*
X47516Y-32020D02*
X47516Y-33374D01*
X48543Y-32020D02*
X47516Y-32020D01*
X48543Y-31425D02*
X48543Y-32020D01*
X47724Y-31425D02*
X48543Y-31425D01*
X47724Y-30830D02*
X47724Y-31425D01*
X47622Y-30728D02*
X47724Y-30830D01*
X47622Y-27772D02*
X47622Y-30728D01*
X42941Y-27772D02*
X47622Y-27772D01*
X42941Y-29862D02*
X42941Y-27772D01*
X44114Y-29862D02*
X42941Y-29862D01*
X44114Y-33066D02*
X44114Y-29862D01*
X44146Y-33098D02*
X44114Y-33066D01*
X43535Y-33098D02*
X44146Y-33098D01*
X43535Y-33543D02*
X43535Y-33098D01*
X42264Y-33543D02*
X43535Y-33543D01*
X39976Y-38236D02*
X39984Y-38236D01*
X39976Y-34244D02*
X39976Y-38236D01*
X41035Y-34244D02*
X39976Y-34244D01*
X41035Y-33504D02*
X41035Y-34244D01*
X42244Y-33504D02*
X41035Y-33504D01*
X42244Y-30429D02*
X42244Y-33504D01*
X39799Y-30429D02*
X42244Y-30429D01*
X39779Y-29291D02*
X39776Y-29291D01*
X39779Y-27748D02*
X39779Y-29291D01*
X35165Y-26803D02*
X37850Y-26803D01*
X38401Y-32382D02*
X38401Y-31150D01*
X38067Y-32382D02*
X38401Y-32382D01*
X38067Y-32807D02*
X38067Y-32382D01*
X37909Y-32807D02*
X38067Y-32807D01*
X37909Y-35484D02*
X37909Y-32807D01*
G54D16*
X63701Y-19480D02*
X63728Y-19480D01*
X56815Y-19480D02*
X57098Y-19480D01*
X56815Y-20709D02*
X56815Y-19480D01*
X55673Y-20709D02*
X56815Y-20709D01*
X55673Y-21315D02*
X55673Y-20709D01*
X55642Y-21315D02*
X55673Y-21315D01*
X55275Y-21315D02*
X55642Y-21315D01*
X55212Y-21378D02*
X55275Y-21315D01*
X55212Y-24142D02*
X55212Y-21382D01*
X63728Y-26248D02*
X63728Y-26252D01*
X55571Y-26575D02*
X55571Y-26929D01*
X55571Y-25374D02*
X55256Y-25374D01*
X55571Y-26575D02*
X55571Y-25374D01*
X56433Y-31216D02*
X56433Y-31276D01*
X55677Y-30335D02*
X55677Y-30339D01*
X51972Y-30335D02*
X55677Y-30335D01*
X51791Y-30335D02*
X51783Y-30343D01*
X51964Y-30335D02*
X51791Y-30335D01*
X55677Y-31220D02*
X56433Y-31220D01*
X55677Y-30854D02*
X55677Y-31220D01*
X55677Y-30854D02*
X55677Y-30339D01*
X24567Y-13161D02*
X24567Y-13535D01*
G54D17*
X61733Y-32845D02*
X61562Y-32845D01*
X61647Y-32845D02*
X61647Y-32545D01*
X61619Y-32588D01*
X61590Y-32616D01*
X61562Y-32631D01*
X61847Y-32574D02*
X61862Y-32559D01*
X61890Y-32545D01*
X61962Y-32545D01*
X61990Y-32559D01*
X62005Y-32574D01*
X62019Y-32602D01*
X62019Y-32631D01*
X62005Y-32674D01*
X61833Y-32845D01*
X62019Y-32845D01*
X62119Y-32645D02*
X62190Y-32845D01*
X62262Y-32645D01*
X62376Y-32731D02*
X62605Y-32731D01*
X62733Y-32831D02*
X62776Y-32845D01*
X62847Y-32845D01*
X62876Y-32831D01*
X62890Y-32816D01*
X62905Y-32788D01*
X62905Y-32759D01*
X62890Y-32731D01*
X62876Y-32716D01*
X62847Y-32702D01*
X62790Y-32688D01*
X62762Y-32674D01*
X62747Y-32659D01*
X62733Y-32631D01*
X62733Y-32602D01*
X62747Y-32574D01*
X62762Y-32559D01*
X62790Y-32545D01*
X62862Y-32545D01*
X62905Y-32559D01*
X63005Y-32545D02*
X63076Y-32845D01*
X63133Y-32631D01*
X63190Y-32845D01*
X63262Y-32545D01*
G54D16*
X42929Y-27866D02*
X42925Y-27866D01*
X42929Y-27779D02*
X42929Y-27866D01*
X47626Y-27779D02*
X42929Y-27779D01*
X47630Y-27779D02*
X47618Y-27779D01*
X47630Y-30642D02*
X47630Y-27779D01*
X47631Y-30642D02*
X47634Y-30645D01*
X47768Y-30779D02*
X47631Y-30642D01*
X47768Y-31488D02*
X47768Y-30779D01*
X48520Y-31488D02*
X47768Y-31488D01*
X48520Y-31972D02*
X48520Y-31488D01*
X47500Y-32138D02*
X47512Y-32138D01*
X47500Y-31972D02*
X47500Y-32138D01*
X48516Y-31972D02*
X47500Y-31972D01*
X13807Y-9902D02*
X13823Y-9902D01*
X13807Y-13622D02*
X13807Y-9902D01*
X53909Y-25358D02*
X52476Y-25358D01*
X52039Y-25968D02*
X52043Y-25968D01*
X52476Y-25968D02*
X52039Y-25968D01*
X52476Y-25354D02*
X52476Y-25968D01*
X52063Y-25968D02*
X52059Y-25968D01*
X38409Y-31142D02*
X38401Y-31142D01*
X38409Y-32382D02*
X38409Y-31142D01*
X38079Y-32382D02*
X38409Y-32382D01*
X38079Y-32768D02*
X38079Y-32382D01*
X37925Y-32768D02*
X38079Y-32768D01*
G54D18*
X44647Y-36504D02*
X44623Y-36528D01*
X44552Y-36552D01*
X44504Y-36552D01*
X44433Y-36528D01*
X44385Y-36480D01*
X44361Y-36433D01*
X44337Y-36338D01*
X44337Y-36266D01*
X44361Y-36171D01*
X44385Y-36123D01*
X44433Y-36076D01*
X44504Y-36052D01*
X44552Y-36052D01*
X44623Y-36076D01*
X44647Y-36100D01*
X44861Y-36552D02*
X44861Y-36052D01*
X44861Y-36290D02*
X45147Y-36290D01*
X45147Y-36552D02*
X45147Y-36052D01*
X45314Y-36052D02*
X45599Y-36052D01*
X45456Y-36552D02*
X45456Y-36052D01*
X44693Y-28893D02*
X44764Y-28917D01*
X44788Y-28941D01*
X44812Y-28988D01*
X44812Y-29060D01*
X44788Y-29107D01*
X44764Y-29131D01*
X44717Y-29155D01*
X44526Y-29155D01*
X44526Y-28655D01*
X44693Y-28655D01*
X44741Y-28679D01*
X44764Y-28703D01*
X44788Y-28750D01*
X44788Y-28798D01*
X44764Y-28845D01*
X44741Y-28869D01*
X44693Y-28893D01*
X44526Y-28893D01*
X45312Y-29155D02*
X45145Y-28917D01*
X45026Y-29155D02*
X45026Y-28655D01*
X45217Y-28655D01*
X45264Y-28679D01*
X45288Y-28703D01*
X45312Y-28750D01*
X45312Y-28822D01*
X45288Y-28869D01*
X45264Y-28893D01*
X45217Y-28917D01*
X45026Y-28917D01*
X45455Y-28655D02*
X45622Y-29155D01*
X45788Y-28655D01*
X47999Y-29768D02*
X48070Y-29792D01*
X48189Y-29792D01*
X48237Y-29768D01*
X48261Y-29744D01*
X48284Y-29697D01*
X48284Y-29649D01*
X48261Y-29601D01*
X48237Y-29578D01*
X48189Y-29554D01*
X48094Y-29530D01*
X48046Y-29506D01*
X48022Y-29482D01*
X47999Y-29435D01*
X47999Y-29387D01*
X48022Y-29340D01*
X48046Y-29316D01*
X48094Y-29292D01*
X48213Y-29292D01*
X48284Y-29316D01*
X48499Y-29792D02*
X48499Y-29292D01*
X48689Y-29292D01*
X48737Y-29316D01*
X48761Y-29340D01*
X48784Y-29387D01*
X48784Y-29459D01*
X48761Y-29506D01*
X48737Y-29530D01*
X48689Y-29554D01*
X48499Y-29554D01*
X49284Y-29792D02*
X49118Y-29554D01*
X48999Y-29792D02*
X48999Y-29292D01*
X49189Y-29292D01*
X49237Y-29316D01*
X49261Y-29340D01*
X49284Y-29387D01*
X49284Y-29459D01*
X49261Y-29506D01*
X49237Y-29530D01*
X49189Y-29554D01*
X48999Y-29554D01*
X54297Y-31716D02*
X54464Y-31716D01*
X54536Y-31978D02*
X54297Y-31978D01*
X54297Y-31478D01*
X54536Y-31478D01*
X55012Y-31502D02*
X54964Y-31478D01*
X54893Y-31478D01*
X54821Y-31502D01*
X54774Y-31549D01*
X54750Y-31597D01*
X54726Y-31692D01*
X54726Y-31764D01*
X54750Y-31859D01*
X54774Y-31906D01*
X54821Y-31954D01*
X54893Y-31978D01*
X54940Y-31978D01*
X55012Y-31954D01*
X55036Y-31930D01*
X55036Y-31764D01*
X54940Y-31764D01*
X55345Y-31478D02*
X55440Y-31478D01*
X55488Y-31502D01*
X55536Y-31549D01*
X55559Y-31645D01*
X55559Y-31811D01*
X55536Y-31906D01*
X55488Y-31954D01*
X55440Y-31978D01*
X55345Y-31978D01*
X55297Y-31954D01*
X55250Y-31906D01*
X55226Y-31811D01*
X55226Y-31645D01*
X55250Y-31549D01*
X55297Y-31502D01*
X55345Y-31478D01*
G54D16*
X50630Y-30342D02*
X50630Y-30339D01*
X51787Y-30342D02*
X50630Y-30342D01*
X56964Y-34004D02*
X56968Y-34004D01*
X56964Y-31276D02*
X56964Y-34004D01*
X56433Y-31276D02*
X56964Y-31276D01*
X63728Y-25079D02*
X63724Y-25083D01*
X57819Y-19480D02*
X57827Y-19480D01*
X53901Y-22559D02*
X53905Y-22563D01*
G54D19*
X48871Y-24423D02*
X48776Y-24490D01*
X48871Y-24537D02*
X48671Y-24537D01*
X48671Y-24461D01*
X48681Y-24442D01*
X48691Y-24433D01*
X48710Y-24423D01*
X48738Y-24423D01*
X48757Y-24433D01*
X48767Y-24442D01*
X48776Y-24461D01*
X48776Y-24537D01*
X48671Y-24356D02*
X48871Y-24223D01*
X48671Y-24223D02*
X48871Y-24356D01*
X48671Y-24109D02*
X48671Y-24090D01*
X48681Y-24071D01*
X48691Y-24061D01*
X48710Y-24052D01*
X48748Y-24042D01*
X48795Y-24042D01*
X48833Y-24052D01*
X48852Y-24061D01*
X48862Y-24071D01*
X48871Y-24090D01*
X48871Y-24109D01*
X48862Y-24128D01*
X48852Y-24137D01*
X48833Y-24147D01*
X48795Y-24156D01*
X48748Y-24156D01*
X48710Y-24147D01*
X48691Y-24137D01*
X48681Y-24128D01*
X48671Y-24109D01*
X48663Y-23617D02*
X48663Y-23503D01*
X48863Y-23560D02*
X48663Y-23560D01*
X48663Y-23455D02*
X48863Y-23322D01*
X48663Y-23322D02*
X48863Y-23455D01*
X48663Y-23208D02*
X48663Y-23189D01*
X48673Y-23170D01*
X48683Y-23160D01*
X48702Y-23150D01*
X48740Y-23141D01*
X48787Y-23141D01*
X48825Y-23150D01*
X48844Y-23160D01*
X48854Y-23170D01*
X48863Y-23189D01*
X48863Y-23208D01*
X48854Y-23227D01*
X48844Y-23236D01*
X48825Y-23246D01*
X48787Y-23255D01*
X48740Y-23255D01*
X48702Y-23246D01*
X48683Y-23236D01*
X48673Y-23227D01*
X48663Y-23208D01*
X46686Y-24549D02*
X46591Y-24616D01*
X46686Y-24663D02*
X46486Y-24663D01*
X46486Y-24587D01*
X46496Y-24568D01*
X46506Y-24559D01*
X46525Y-24549D01*
X46553Y-24549D01*
X46572Y-24559D01*
X46582Y-24568D01*
X46591Y-24587D01*
X46591Y-24663D01*
X46486Y-24482D02*
X46686Y-24349D01*
X46486Y-24349D02*
X46686Y-24482D01*
X46686Y-24168D02*
X46686Y-24282D01*
X46686Y-24225D02*
X46486Y-24225D01*
X46515Y-24244D01*
X46534Y-24263D01*
X46544Y-24282D01*
X46498Y-23652D02*
X46498Y-23538D01*
X46698Y-23595D02*
X46498Y-23595D01*
X46498Y-23490D02*
X46698Y-23357D01*
X46498Y-23357D02*
X46698Y-23490D01*
X46698Y-23176D02*
X46698Y-23290D01*
X46698Y-23233D02*
X46498Y-23233D01*
X46527Y-23252D01*
X46546Y-23271D01*
X46556Y-23290D01*
X47502Y-22114D02*
X47617Y-22114D01*
X47560Y-22314D02*
X47560Y-22114D01*
X47664Y-22114D02*
X47798Y-22314D01*
X47798Y-22114D02*
X47664Y-22314D01*
X47988Y-22295D02*
X47979Y-22305D01*
X47950Y-22314D01*
X47931Y-22314D01*
X47902Y-22305D01*
X47883Y-22286D01*
X47874Y-22267D01*
X47864Y-22229D01*
X47864Y-22200D01*
X47874Y-22162D01*
X47883Y-22143D01*
X47902Y-22124D01*
X47931Y-22114D01*
X47950Y-22114D01*
X47979Y-22124D01*
X47988Y-22134D01*
X48064Y-22257D02*
X48160Y-22257D01*
X48045Y-22314D02*
X48112Y-22114D01*
X48179Y-22314D01*
X48245Y-22314D02*
X48245Y-22114D01*
X48360Y-22314D01*
X48360Y-22114D01*
X48493Y-22114D02*
X48512Y-22114D01*
X48531Y-22124D01*
X48541Y-22134D01*
X48550Y-22153D01*
X48560Y-22191D01*
X48560Y-22238D01*
X48550Y-22276D01*
X48541Y-22295D01*
X48531Y-22305D01*
X48512Y-22314D01*
X48493Y-22314D01*
X48474Y-22305D01*
X48464Y-22295D01*
X48455Y-22276D01*
X48445Y-22238D01*
X48445Y-22191D01*
X48455Y-22153D01*
X48464Y-22134D01*
X48474Y-22124D01*
X48493Y-22114D01*
X47621Y-21163D02*
X47555Y-21068D01*
X47507Y-21163D02*
X47507Y-20963D01*
X47583Y-20963D01*
X47602Y-20973D01*
X47612Y-20983D01*
X47621Y-21002D01*
X47621Y-21030D01*
X47612Y-21049D01*
X47602Y-21059D01*
X47583Y-21068D01*
X47507Y-21068D01*
X47688Y-20963D02*
X47821Y-21163D01*
X47821Y-20963D02*
X47688Y-21163D01*
X48012Y-21144D02*
X48002Y-21154D01*
X47974Y-21163D01*
X47955Y-21163D01*
X47926Y-21154D01*
X47907Y-21135D01*
X47898Y-21116D01*
X47888Y-21078D01*
X47888Y-21049D01*
X47898Y-21011D01*
X47907Y-20992D01*
X47926Y-20973D01*
X47955Y-20963D01*
X47974Y-20963D01*
X48002Y-20973D01*
X48012Y-20983D01*
X48088Y-21106D02*
X48183Y-21106D01*
X48069Y-21163D02*
X48136Y-20963D01*
X48202Y-21163D01*
X48269Y-21163D02*
X48269Y-20963D01*
X48383Y-21163D01*
X48383Y-20963D01*
X48517Y-20963D02*
X48536Y-20963D01*
X48555Y-20973D01*
X48564Y-20983D01*
X48574Y-21002D01*
X48583Y-21040D01*
X48583Y-21087D01*
X48574Y-21125D01*
X48564Y-21144D01*
X48555Y-21154D01*
X48536Y-21163D01*
X48517Y-21163D01*
X48498Y-21154D01*
X48488Y-21144D01*
X48479Y-21125D01*
X48469Y-21087D01*
X48469Y-21040D01*
X48479Y-21002D01*
X48488Y-20983D01*
X48498Y-20973D01*
X48517Y-20963D01*
G54D16*
X53905Y-21382D02*
X53905Y-21634D01*
X60929Y-19480D02*
X57094Y-19480D01*
G54D14*
X57396Y-35005D02*
X57367Y-34990D01*
X57324Y-34990D01*
X57282Y-35005D01*
X57253Y-35033D01*
X57239Y-35062D01*
X57224Y-35119D01*
X57224Y-35162D01*
X57239Y-35219D01*
X57253Y-35247D01*
X57282Y-35276D01*
X57324Y-35290D01*
X57353Y-35290D01*
X57396Y-35276D01*
X57410Y-35262D01*
X57410Y-35162D01*
X57353Y-35162D01*
X57539Y-35290D02*
X57539Y-34990D01*
X57710Y-35290D01*
X57710Y-34990D01*
X57853Y-35290D02*
X57853Y-34990D01*
X57924Y-34990D01*
X57967Y-35005D01*
X57996Y-35033D01*
X58010Y-35062D01*
X58024Y-35119D01*
X58024Y-35162D01*
X58010Y-35219D01*
X57996Y-35247D01*
X57967Y-35276D01*
X57924Y-35290D01*
X57853Y-35290D01*
X58139Y-35019D02*
X58153Y-35005D01*
X58182Y-34990D01*
X58253Y-34990D01*
X58282Y-35005D01*
X58296Y-35019D01*
X58310Y-35047D01*
X58310Y-35076D01*
X58296Y-35119D01*
X58124Y-35290D01*
X58310Y-35290D01*
X52515Y-12675D02*
X52372Y-12775D01*
X52515Y-12846D02*
X52215Y-12846D01*
X52215Y-12732D01*
X52229Y-12703D01*
X52244Y-12689D01*
X52272Y-12675D01*
X52315Y-12675D01*
X52344Y-12689D01*
X52358Y-12703D01*
X52372Y-12732D01*
X52372Y-12846D01*
X52515Y-12546D02*
X52215Y-12546D01*
X52215Y-12432D01*
X52229Y-12403D01*
X52244Y-12389D01*
X52272Y-12375D01*
X52315Y-12375D01*
X52344Y-12389D01*
X52358Y-12403D01*
X52372Y-12432D01*
X52372Y-12546D01*
X52515Y-12246D02*
X52215Y-12246D01*
X52429Y-12146D01*
X52215Y-12046D01*
X52515Y-12046D01*
X52515Y-11746D02*
X52515Y-11917D01*
X52515Y-11832D02*
X52215Y-11832D01*
X52258Y-11860D01*
X52286Y-11889D01*
X52301Y-11917D01*
X52401Y-11617D02*
X52401Y-11389D01*
X52501Y-11260D02*
X52515Y-11217D01*
X52515Y-11146D01*
X52501Y-11117D01*
X52486Y-11103D01*
X52458Y-11089D01*
X52429Y-11089D01*
X52401Y-11103D01*
X52386Y-11117D01*
X52372Y-11146D01*
X52358Y-11203D01*
X52344Y-11232D01*
X52329Y-11246D01*
X52301Y-11260D01*
X52272Y-11260D01*
X52244Y-11246D01*
X52229Y-11232D01*
X52215Y-11203D01*
X52215Y-11132D01*
X52229Y-11089D01*
X52515Y-10960D02*
X52215Y-10960D01*
X52515Y-10832D02*
X52358Y-10832D01*
X52329Y-10846D01*
X52315Y-10875D01*
X52315Y-10917D01*
X52329Y-10946D01*
X52344Y-10960D01*
X52515Y-10689D02*
X52315Y-10689D01*
X52215Y-10689D02*
X52229Y-10703D01*
X52244Y-10689D01*
X52229Y-10675D01*
X52215Y-10689D01*
X52244Y-10689D01*
X52501Y-10432D02*
X52515Y-10460D01*
X52515Y-10517D01*
X52501Y-10546D01*
X52472Y-10560D01*
X52358Y-10560D01*
X52329Y-10546D01*
X52315Y-10517D01*
X52315Y-10460D01*
X52329Y-10432D01*
X52358Y-10417D01*
X52386Y-10417D01*
X52415Y-10560D01*
X52515Y-10246D02*
X52501Y-10275D01*
X52472Y-10289D01*
X52215Y-10289D01*
X52515Y-10003D02*
X52215Y-10003D01*
X52501Y-10003D02*
X52515Y-10032D01*
X52515Y-10089D01*
X52501Y-10117D01*
X52486Y-10132D01*
X52458Y-10146D01*
X52372Y-10146D01*
X52344Y-10132D01*
X52329Y-10117D01*
X52315Y-10089D01*
X52315Y-10032D01*
X52329Y-10003D01*
X49883Y-10168D02*
X49783Y-10025D01*
X49712Y-10168D02*
X49712Y-9868D01*
X49826Y-9868D01*
X49855Y-9882D01*
X49869Y-9897D01*
X49883Y-9925D01*
X49883Y-9968D01*
X49869Y-9997D01*
X49855Y-10011D01*
X49826Y-10025D01*
X49712Y-10025D01*
X50012Y-10168D02*
X50012Y-9868D01*
X50126Y-9868D01*
X50155Y-9882D01*
X50169Y-9897D01*
X50183Y-9925D01*
X50183Y-9968D01*
X50169Y-9997D01*
X50155Y-10011D01*
X50126Y-10025D01*
X50012Y-10025D01*
X50312Y-10168D02*
X50312Y-9868D01*
X50412Y-10082D01*
X50512Y-9868D01*
X50512Y-10168D01*
X50812Y-10168D02*
X50641Y-10168D01*
X50726Y-10168D02*
X50726Y-9868D01*
X50698Y-9911D01*
X50669Y-9939D01*
X50641Y-9954D01*
X50941Y-10054D02*
X51169Y-10054D01*
X51055Y-10168D02*
X51055Y-9939D01*
X46473Y-10164D02*
X46373Y-10021D01*
X46302Y-10164D02*
X46302Y-9864D01*
X46416Y-9864D01*
X46445Y-9878D01*
X46459Y-9893D01*
X46473Y-9921D01*
X46473Y-9964D01*
X46459Y-9993D01*
X46445Y-10007D01*
X46416Y-10021D01*
X46302Y-10021D01*
X46602Y-10164D02*
X46602Y-9864D01*
X46716Y-9864D01*
X46745Y-9878D01*
X46759Y-9893D01*
X46773Y-9921D01*
X46773Y-9964D01*
X46759Y-9993D01*
X46745Y-10007D01*
X46716Y-10021D01*
X46602Y-10021D01*
X46902Y-10164D02*
X46902Y-9864D01*
X47002Y-10078D01*
X47102Y-9864D01*
X47102Y-10164D01*
X47402Y-10164D02*
X47231Y-10164D01*
X47316Y-10164D02*
X47316Y-9864D01*
X47288Y-9907D01*
X47259Y-9935D01*
X47231Y-9950D01*
X47531Y-10050D02*
X47759Y-10050D01*
X44036Y-10239D02*
X43936Y-10096D01*
X43865Y-10239D02*
X43865Y-9939D01*
X43979Y-9939D01*
X44008Y-9953D01*
X44022Y-9968D01*
X44036Y-9996D01*
X44036Y-10039D01*
X44022Y-10068D01*
X44008Y-10082D01*
X43979Y-10096D01*
X43865Y-10096D01*
X44165Y-10239D02*
X44165Y-9939D01*
X44279Y-9939D01*
X44308Y-9953D01*
X44322Y-9968D01*
X44336Y-9996D01*
X44336Y-10039D01*
X44322Y-10068D01*
X44308Y-10082D01*
X44279Y-10096D01*
X44165Y-10096D01*
X44465Y-10239D02*
X44465Y-9939D01*
X44565Y-10153D01*
X44665Y-9939D01*
X44665Y-10239D01*
X44865Y-9939D02*
X44894Y-9939D01*
X44922Y-9953D01*
X44936Y-9968D01*
X44951Y-9996D01*
X44965Y-10053D01*
X44965Y-10125D01*
X44951Y-10182D01*
X44936Y-10210D01*
X44922Y-10225D01*
X44894Y-10239D01*
X44865Y-10239D01*
X44836Y-10225D01*
X44822Y-10210D01*
X44808Y-10182D01*
X44794Y-10125D01*
X44794Y-10053D01*
X44808Y-9996D01*
X44822Y-9968D01*
X44836Y-9953D01*
X44865Y-9939D01*
X45094Y-10125D02*
X45322Y-10125D01*
X40615Y-10538D02*
X40515Y-10395D01*
X40444Y-10538D02*
X40444Y-10238D01*
X40558Y-10238D01*
X40587Y-10252D01*
X40601Y-10267D01*
X40615Y-10295D01*
X40615Y-10338D01*
X40601Y-10367D01*
X40587Y-10381D01*
X40558Y-10395D01*
X40444Y-10395D01*
X40744Y-10538D02*
X40744Y-10238D01*
X40858Y-10238D01*
X40887Y-10252D01*
X40901Y-10267D01*
X40915Y-10295D01*
X40915Y-10338D01*
X40901Y-10367D01*
X40887Y-10381D01*
X40858Y-10395D01*
X40744Y-10395D01*
X41044Y-10538D02*
X41044Y-10238D01*
X41144Y-10452D01*
X41244Y-10238D01*
X41244Y-10538D01*
X41444Y-10238D02*
X41473Y-10238D01*
X41501Y-10252D01*
X41515Y-10267D01*
X41530Y-10295D01*
X41544Y-10352D01*
X41544Y-10424D01*
X41530Y-10481D01*
X41515Y-10509D01*
X41501Y-10524D01*
X41473Y-10538D01*
X41444Y-10538D01*
X41415Y-10524D01*
X41401Y-10509D01*
X41387Y-10481D01*
X41373Y-10424D01*
X41373Y-10352D01*
X41387Y-10295D01*
X41401Y-10267D01*
X41415Y-10252D01*
X41444Y-10238D01*
X41673Y-10424D02*
X41901Y-10424D01*
X41787Y-10538D02*
X41787Y-10309D01*
X39189Y-13455D02*
X39332Y-13355D01*
X39189Y-13283D02*
X39489Y-13283D01*
X39489Y-13397D01*
X39475Y-13426D01*
X39461Y-13440D01*
X39432Y-13455D01*
X39389Y-13455D01*
X39361Y-13440D01*
X39346Y-13426D01*
X39332Y-13397D01*
X39332Y-13283D01*
X39189Y-13583D02*
X39489Y-13583D01*
X39489Y-13697D01*
X39475Y-13726D01*
X39461Y-13740D01*
X39432Y-13755D01*
X39389Y-13755D01*
X39361Y-13740D01*
X39346Y-13726D01*
X39332Y-13697D01*
X39332Y-13583D01*
X39189Y-13883D02*
X39489Y-13883D01*
X39275Y-13983D01*
X39489Y-14083D01*
X39189Y-14083D01*
X39489Y-14283D02*
X39489Y-14312D01*
X39475Y-14340D01*
X39461Y-14355D01*
X39432Y-14369D01*
X39375Y-14383D01*
X39303Y-14383D01*
X39246Y-14369D01*
X39218Y-14355D01*
X39203Y-14340D01*
X39189Y-14312D01*
X39189Y-14283D01*
X39203Y-14255D01*
X39218Y-14240D01*
X39246Y-14226D01*
X39303Y-14212D01*
X39375Y-14212D01*
X39432Y-14226D01*
X39461Y-14240D01*
X39475Y-14255D01*
X39489Y-14283D01*
X39303Y-14512D02*
X39303Y-14740D01*
X39203Y-14869D02*
X39189Y-14912D01*
X39189Y-14983D01*
X39203Y-15012D01*
X39218Y-15026D01*
X39246Y-15040D01*
X39275Y-15040D01*
X39303Y-15026D01*
X39318Y-15012D01*
X39332Y-14983D01*
X39346Y-14926D01*
X39361Y-14897D01*
X39375Y-14883D01*
X39403Y-14869D01*
X39432Y-14869D01*
X39461Y-14883D01*
X39475Y-14897D01*
X39489Y-14926D01*
X39489Y-14997D01*
X39475Y-15040D01*
X39189Y-15169D02*
X39489Y-15169D01*
X39189Y-15297D02*
X39346Y-15297D01*
X39375Y-15283D01*
X39389Y-15255D01*
X39389Y-15212D01*
X39375Y-15183D01*
X39361Y-15169D01*
X39189Y-15440D02*
X39389Y-15440D01*
X39489Y-15440D02*
X39475Y-15426D01*
X39461Y-15440D01*
X39475Y-15455D01*
X39489Y-15440D01*
X39461Y-15440D01*
X39203Y-15697D02*
X39189Y-15669D01*
X39189Y-15612D01*
X39203Y-15583D01*
X39232Y-15569D01*
X39346Y-15569D01*
X39375Y-15583D01*
X39389Y-15612D01*
X39389Y-15669D01*
X39375Y-15697D01*
X39346Y-15712D01*
X39318Y-15712D01*
X39289Y-15569D01*
X39189Y-15883D02*
X39203Y-15855D01*
X39232Y-15840D01*
X39489Y-15840D01*
X39189Y-16126D02*
X39489Y-16126D01*
X39203Y-16126D02*
X39189Y-16097D01*
X39189Y-16040D01*
X39203Y-16012D01*
X39218Y-15997D01*
X39246Y-15983D01*
X39332Y-15983D01*
X39361Y-15997D01*
X39375Y-16012D01*
X39389Y-16040D01*
X39389Y-16097D01*
X39375Y-16126D01*
G54D16*
X39031Y-16496D02*
X39035Y-16500D01*
X39709Y-16496D02*
X39031Y-16496D01*
X39709Y-14968D02*
X39709Y-16496D01*
X42279Y-14968D02*
X39709Y-14968D01*
X36961Y-11650D02*
X36961Y-11626D01*
X36961Y-9902D02*
X36961Y-11650D01*
X36961Y-11626D02*
X36961Y-11650D01*
X39039Y-11626D02*
X36961Y-11626D01*
G54D14*
X35762Y-13420D02*
X35762Y-13120D01*
X35876Y-13120D01*
X35905Y-13134D01*
X35919Y-13149D01*
X35934Y-13177D01*
X35934Y-13220D01*
X35919Y-13249D01*
X35905Y-13263D01*
X35876Y-13277D01*
X35762Y-13277D01*
X36062Y-13420D02*
X36062Y-13120D01*
X36234Y-13420D02*
X36105Y-13249D01*
X36234Y-13120D02*
X36062Y-13291D01*
X36505Y-13120D02*
X36362Y-13120D01*
X36348Y-13263D01*
X36362Y-13249D01*
X36391Y-13234D01*
X36462Y-13234D01*
X36491Y-13249D01*
X36505Y-13263D01*
X36519Y-13291D01*
X36519Y-13363D01*
X36505Y-13391D01*
X36491Y-13406D01*
X36462Y-13420D01*
X36391Y-13420D01*
X36362Y-13406D01*
X36348Y-13391D01*
X35734Y-15743D02*
X35734Y-15443D01*
X35848Y-15443D01*
X35877Y-15457D01*
X35891Y-15472D01*
X35906Y-15500D01*
X35906Y-15543D01*
X35891Y-15572D01*
X35877Y-15586D01*
X35848Y-15600D01*
X35734Y-15600D01*
X36034Y-15743D02*
X36034Y-15443D01*
X36206Y-15743D02*
X36077Y-15572D01*
X36206Y-15443D02*
X36034Y-15614D01*
X36463Y-15543D02*
X36463Y-15743D01*
X36391Y-15429D02*
X36320Y-15643D01*
X36506Y-15643D01*
G54D16*
X33378Y-12618D02*
X33425Y-12618D01*
X33378Y-13984D02*
X33378Y-12618D01*
X24571Y-9902D02*
X24571Y-10181D01*
X13811Y-13626D02*
X13811Y-13618D01*
X15532Y-13626D02*
X13811Y-13626D01*
X16024Y-14118D02*
X15532Y-13626D01*
X25295Y-14118D02*
X16024Y-14118D01*
G54D20*
X28243Y-15628D02*
X28262Y-15570D01*
X28281Y-15551D01*
X28319Y-15532D01*
X28376Y-15532D01*
X28414Y-15551D01*
X28433Y-15570D01*
X28452Y-15608D01*
X28452Y-15761D01*
X28052Y-15761D01*
X28052Y-15628D01*
X28071Y-15589D01*
X28091Y-15570D01*
X28129Y-15551D01*
X28167Y-15551D01*
X28205Y-15570D01*
X28224Y-15589D01*
X28243Y-15628D01*
X28243Y-15761D01*
X28452Y-15361D02*
X28052Y-15361D01*
X28052Y-15266D01*
X28071Y-15208D01*
X28110Y-15170D01*
X28148Y-15151D01*
X28224Y-15132D01*
X28281Y-15132D01*
X28357Y-15151D01*
X28395Y-15170D01*
X28433Y-15208D01*
X28452Y-15266D01*
X28452Y-15361D01*
X28452Y-14961D02*
X28052Y-14961D01*
X28338Y-14828D01*
X28052Y-14694D01*
X28452Y-14694D01*
G54D14*
X35087Y-31076D02*
X34944Y-31076D01*
X34944Y-30776D01*
X35173Y-31061D02*
X35216Y-31076D01*
X35287Y-31076D01*
X35316Y-31061D01*
X35330Y-31047D01*
X35344Y-31019D01*
X35344Y-30990D01*
X35330Y-30961D01*
X35316Y-30947D01*
X35287Y-30933D01*
X35230Y-30919D01*
X35202Y-30904D01*
X35187Y-30890D01*
X35173Y-30861D01*
X35173Y-30833D01*
X35187Y-30804D01*
X35202Y-30790D01*
X35230Y-30776D01*
X35302Y-30776D01*
X35344Y-30790D01*
X35473Y-31076D02*
X35473Y-30776D01*
X35544Y-30776D01*
X35587Y-30790D01*
X35616Y-30819D01*
X35630Y-30847D01*
X35644Y-30904D01*
X35644Y-30947D01*
X35630Y-31004D01*
X35616Y-31033D01*
X35587Y-31061D01*
X35544Y-31076D01*
X35473Y-31076D01*
X35902Y-30876D02*
X35902Y-31076D01*
X35830Y-30761D02*
X35759Y-30976D01*
X35944Y-30976D01*
X36387Y-30919D02*
X36287Y-30919D01*
X36287Y-31076D02*
X36287Y-30776D01*
X36430Y-30776D01*
X36544Y-31076D02*
X36544Y-30776D01*
X36659Y-30776D01*
X36687Y-30790D01*
X36702Y-30804D01*
X36716Y-30833D01*
X36716Y-30876D01*
X36702Y-30904D01*
X36687Y-30919D01*
X36659Y-30933D01*
X36544Y-30933D01*
X37073Y-31076D02*
X37073Y-30776D01*
X37073Y-30919D02*
X37244Y-30919D01*
X37244Y-31076D02*
X37244Y-30776D01*
X37373Y-31061D02*
X37416Y-31076D01*
X37487Y-31076D01*
X37516Y-31061D01*
X37530Y-31047D01*
X37544Y-31019D01*
X37544Y-30990D01*
X37530Y-30961D01*
X37516Y-30947D01*
X37487Y-30933D01*
X37430Y-30919D01*
X37402Y-30904D01*
X37387Y-30890D01*
X37373Y-30861D01*
X37373Y-30833D01*
X37387Y-30804D01*
X37402Y-30790D01*
X37430Y-30776D01*
X37502Y-30776D01*
X37544Y-30790D01*
X37673Y-31076D02*
X37673Y-30776D01*
X37744Y-30776D01*
X37787Y-30790D01*
X37816Y-30819D01*
X37830Y-30847D01*
X37844Y-30904D01*
X37844Y-30947D01*
X37830Y-31004D01*
X37816Y-31033D01*
X37787Y-31061D01*
X37744Y-31076D01*
X37673Y-31076D01*
X25189Y-35137D02*
X25189Y-34837D01*
X25489Y-34851D02*
X25461Y-34837D01*
X25418Y-34837D01*
X25375Y-34851D01*
X25346Y-34880D01*
X25332Y-34908D01*
X25318Y-34965D01*
X25318Y-35008D01*
X25332Y-35065D01*
X25346Y-35094D01*
X25375Y-35122D01*
X25418Y-35137D01*
X25446Y-35137D01*
X25489Y-35122D01*
X25504Y-35108D01*
X25504Y-35008D01*
X25446Y-35008D01*
X25632Y-35137D02*
X25632Y-34837D01*
X25804Y-35137D01*
X25804Y-34837D01*
X25946Y-35022D02*
X26175Y-35022D01*
X26475Y-35137D02*
X26304Y-35137D01*
X26389Y-35137D02*
X26389Y-34837D01*
X26361Y-34880D01*
X26332Y-34908D01*
X26304Y-34922D01*
X26589Y-34865D02*
X26604Y-34851D01*
X26632Y-34837D01*
X26704Y-34837D01*
X26732Y-34851D01*
X26746Y-34865D01*
X26761Y-34894D01*
X26761Y-34922D01*
X26746Y-34965D01*
X26575Y-35137D01*
X26761Y-35137D01*
X26861Y-34937D02*
X26932Y-35137D01*
X27004Y-34937D01*
X27046Y-22822D02*
X26903Y-22822D01*
X26903Y-22522D01*
X27131Y-22807D02*
X27174Y-22822D01*
X27246Y-22822D01*
X27274Y-22807D01*
X27288Y-22793D01*
X27303Y-22765D01*
X27303Y-22736D01*
X27288Y-22707D01*
X27274Y-22693D01*
X27246Y-22679D01*
X27188Y-22665D01*
X27160Y-22650D01*
X27146Y-22636D01*
X27131Y-22607D01*
X27131Y-22579D01*
X27146Y-22550D01*
X27160Y-22536D01*
X27188Y-22522D01*
X27260Y-22522D01*
X27303Y-22536D01*
X27431Y-22822D02*
X27431Y-22522D01*
X27503Y-22522D01*
X27546Y-22536D01*
X27574Y-22565D01*
X27588Y-22593D01*
X27603Y-22650D01*
X27603Y-22693D01*
X27588Y-22750D01*
X27574Y-22779D01*
X27546Y-22807D01*
X27503Y-22822D01*
X27431Y-22822D01*
X27888Y-22822D02*
X27717Y-22822D01*
X27803Y-22822D02*
X27803Y-22522D01*
X27774Y-22565D01*
X27746Y-22593D01*
X27717Y-22607D01*
X28017Y-22707D02*
X28246Y-22707D01*
X28388Y-22822D02*
X28388Y-22522D01*
X28531Y-22822D02*
X28531Y-22522D01*
X28703Y-22822D01*
X28703Y-22522D01*
X46704Y-36146D02*
X46747Y-36160D01*
X46818Y-36160D01*
X46847Y-36146D01*
X46861Y-36131D01*
X46875Y-36103D01*
X46875Y-36074D01*
X46861Y-36046D01*
X46847Y-36031D01*
X46818Y-36017D01*
X46761Y-36003D01*
X46732Y-35989D01*
X46718Y-35974D01*
X46704Y-35946D01*
X46704Y-35917D01*
X46718Y-35889D01*
X46732Y-35874D01*
X46761Y-35860D01*
X46832Y-35860D01*
X46875Y-35874D01*
X47118Y-36146D02*
X47089Y-36160D01*
X47032Y-36160D01*
X47004Y-36146D01*
X46989Y-36117D01*
X46989Y-36003D01*
X47004Y-35974D01*
X47032Y-35960D01*
X47089Y-35960D01*
X47118Y-35974D01*
X47132Y-36003D01*
X47132Y-36031D01*
X46989Y-36060D01*
X47261Y-35960D02*
X47261Y-36160D01*
X47261Y-35989D02*
X47275Y-35974D01*
X47304Y-35960D01*
X47347Y-35960D01*
X47375Y-35974D01*
X47389Y-36003D01*
X47389Y-36160D01*
X47518Y-36146D02*
X47547Y-36160D01*
X47604Y-36160D01*
X47632Y-36146D01*
X47647Y-36117D01*
X47647Y-36103D01*
X47632Y-36074D01*
X47604Y-36060D01*
X47561Y-36060D01*
X47532Y-36046D01*
X47518Y-36017D01*
X47518Y-36003D01*
X47532Y-35974D01*
X47561Y-35960D01*
X47604Y-35960D01*
X47632Y-35974D01*
X47818Y-36160D02*
X47789Y-36146D01*
X47775Y-36131D01*
X47761Y-36103D01*
X47761Y-36017D01*
X47775Y-35989D01*
X47789Y-35974D01*
X47818Y-35960D01*
X47861Y-35960D01*
X47889Y-35974D01*
X47904Y-35989D01*
X47918Y-36017D01*
X47918Y-36103D01*
X47904Y-36131D01*
X47889Y-36146D01*
X47861Y-36160D01*
X47818Y-36160D01*
X48047Y-36160D02*
X48047Y-35960D01*
X48047Y-36017D02*
X48061Y-35989D01*
X48075Y-35974D01*
X48104Y-35960D01*
X48132Y-35960D01*
X48232Y-36046D02*
X48461Y-36046D01*
X48761Y-35874D02*
X48732Y-35860D01*
X48689Y-35860D01*
X48647Y-35874D01*
X48618Y-35903D01*
X48604Y-35931D01*
X48589Y-35989D01*
X48589Y-36031D01*
X48604Y-36089D01*
X48618Y-36117D01*
X48647Y-36146D01*
X48689Y-36160D01*
X48718Y-36160D01*
X48761Y-36146D01*
X48775Y-36131D01*
X48775Y-36031D01*
X48718Y-36031D01*
X48904Y-36160D02*
X48904Y-35860D01*
X49075Y-36160D01*
X49075Y-35860D01*
X49218Y-36160D02*
X49218Y-35860D01*
X49289Y-35860D01*
X49332Y-35874D01*
X49361Y-35903D01*
X49375Y-35931D01*
X49389Y-35989D01*
X49389Y-36031D01*
X49375Y-36089D01*
X49361Y-36117D01*
X49332Y-36146D01*
X49289Y-36160D01*
X49218Y-36160D01*
X48375Y-37703D02*
X48547Y-37703D01*
X48461Y-38003D02*
X48461Y-37703D01*
X48647Y-38003D02*
X48647Y-37703D01*
X48761Y-37703D01*
X48789Y-37717D01*
X48804Y-37732D01*
X48818Y-37760D01*
X48818Y-37803D01*
X48804Y-37832D01*
X48789Y-37846D01*
X48761Y-37860D01*
X48647Y-37860D01*
X48932Y-37989D02*
X48975Y-38003D01*
X49047Y-38003D01*
X49075Y-37989D01*
X49089Y-37974D01*
X49104Y-37946D01*
X49104Y-37917D01*
X49089Y-37889D01*
X49075Y-37874D01*
X49047Y-37860D01*
X48989Y-37846D01*
X48961Y-37832D01*
X48947Y-37817D01*
X48932Y-37789D01*
X48932Y-37760D01*
X48947Y-37732D01*
X48961Y-37717D01*
X48989Y-37703D01*
X49061Y-37703D01*
X49104Y-37717D01*
X49232Y-37889D02*
X49461Y-37889D01*
X49747Y-37703D02*
X49604Y-37703D01*
X49589Y-37846D01*
X49604Y-37832D01*
X49632Y-37817D01*
X49704Y-37817D01*
X49732Y-37832D01*
X49747Y-37846D01*
X49761Y-37874D01*
X49761Y-37946D01*
X49747Y-37974D01*
X49732Y-37989D01*
X49704Y-38003D01*
X49632Y-38003D01*
X49604Y-37989D01*
X49589Y-37974D01*
X49861Y-37803D02*
X49932Y-38003D01*
X50004Y-37803D01*
X54636Y-38172D02*
X54672Y-38184D01*
X54732Y-38184D01*
X54756Y-38172D01*
X54767Y-38160D01*
X54779Y-38136D01*
X54779Y-38112D01*
X54767Y-38088D01*
X54756Y-38077D01*
X54732Y-38065D01*
X54684Y-38053D01*
X54660Y-38041D01*
X54648Y-38029D01*
X54636Y-38005D01*
X54636Y-37981D01*
X54648Y-37958D01*
X54660Y-37946D01*
X54684Y-37934D01*
X54744Y-37934D01*
X54779Y-37946D01*
X54982Y-38172D02*
X54958Y-38184D01*
X54910Y-38184D01*
X54886Y-38172D01*
X54875Y-38148D01*
X54875Y-38053D01*
X54886Y-38029D01*
X54910Y-38017D01*
X54958Y-38017D01*
X54982Y-38029D01*
X54994Y-38053D01*
X54994Y-38077D01*
X54875Y-38100D01*
X55101Y-38017D02*
X55101Y-38184D01*
X55101Y-38041D02*
X55113Y-38029D01*
X55136Y-38017D01*
X55172Y-38017D01*
X55196Y-38029D01*
X55208Y-38053D01*
X55208Y-38184D01*
X55315Y-38172D02*
X55339Y-38184D01*
X55386Y-38184D01*
X55410Y-38172D01*
X55422Y-38148D01*
X55422Y-38136D01*
X55410Y-38112D01*
X55386Y-38100D01*
X55351Y-38100D01*
X55327Y-38088D01*
X55315Y-38065D01*
X55315Y-38053D01*
X55327Y-38029D01*
X55351Y-38017D01*
X55386Y-38017D01*
X55410Y-38029D01*
X55565Y-38184D02*
X55541Y-38172D01*
X55529Y-38160D01*
X55517Y-38136D01*
X55517Y-38065D01*
X55529Y-38041D01*
X55541Y-38029D01*
X55565Y-38017D01*
X55601Y-38017D01*
X55625Y-38029D01*
X55636Y-38041D01*
X55648Y-38065D01*
X55648Y-38136D01*
X55636Y-38160D01*
X55625Y-38172D01*
X55601Y-38184D01*
X55565Y-38184D01*
X55756Y-38184D02*
X55756Y-38017D01*
X55756Y-38065D02*
X55767Y-38041D01*
X55779Y-38029D01*
X55803Y-38017D01*
X55827Y-38017D01*
X55910Y-38088D02*
X56101Y-38088D01*
X56351Y-37946D02*
X56327Y-37934D01*
X56291Y-37934D01*
X56256Y-37946D01*
X56232Y-37969D01*
X56220Y-37993D01*
X56208Y-38041D01*
X56208Y-38077D01*
X56220Y-38124D01*
X56232Y-38148D01*
X56256Y-38172D01*
X56291Y-38184D01*
X56315Y-38184D01*
X56351Y-38172D01*
X56363Y-38160D01*
X56363Y-38077D01*
X56315Y-38077D01*
X56470Y-38184D02*
X56470Y-37934D01*
X56613Y-38184D01*
X56613Y-37934D01*
X56732Y-38184D02*
X56732Y-37934D01*
X56791Y-37934D01*
X56827Y-37946D01*
X56851Y-37969D01*
X56863Y-37993D01*
X56875Y-38041D01*
X56875Y-38077D01*
X56863Y-38124D01*
X56851Y-38148D01*
X56827Y-38172D01*
X56791Y-38184D01*
X56732Y-38184D01*
X57507Y-36617D02*
X57479Y-36602D01*
X57436Y-36602D01*
X57393Y-36617D01*
X57364Y-36645D01*
X57350Y-36674D01*
X57336Y-36731D01*
X57336Y-36774D01*
X57350Y-36831D01*
X57364Y-36860D01*
X57393Y-36888D01*
X57436Y-36902D01*
X57464Y-36902D01*
X57507Y-36888D01*
X57521Y-36874D01*
X57521Y-36774D01*
X57464Y-36774D01*
X57650Y-36902D02*
X57650Y-36602D01*
X57821Y-36902D01*
X57821Y-36602D01*
X57964Y-36902D02*
X57964Y-36602D01*
X58036Y-36602D01*
X58079Y-36617D01*
X58107Y-36645D01*
X58121Y-36674D01*
X58136Y-36731D01*
X58136Y-36774D01*
X58121Y-36831D01*
X58107Y-36860D01*
X58079Y-36888D01*
X58036Y-36902D01*
X57964Y-36902D01*
X53645Y-35356D02*
X53816Y-35356D01*
X53731Y-35656D02*
X53731Y-35356D01*
X53916Y-35656D02*
X53916Y-35356D01*
X54031Y-35356D01*
X54059Y-35370D01*
X54074Y-35385D01*
X54088Y-35413D01*
X54088Y-35456D01*
X54074Y-35485D01*
X54059Y-35499D01*
X54031Y-35513D01*
X53916Y-35513D01*
X54202Y-35642D02*
X54245Y-35656D01*
X54316Y-35656D01*
X54345Y-35642D01*
X54359Y-35627D01*
X54374Y-35599D01*
X54374Y-35570D01*
X54359Y-35542D01*
X54345Y-35527D01*
X54316Y-35513D01*
X54259Y-35499D01*
X54231Y-35485D01*
X54216Y-35470D01*
X54202Y-35442D01*
X54202Y-35413D01*
X54216Y-35385D01*
X54231Y-35370D01*
X54259Y-35356D01*
X54331Y-35356D01*
X54374Y-35370D01*
X57100Y-32817D02*
X57136Y-32829D01*
X57196Y-32829D01*
X57220Y-32817D01*
X57231Y-32805D01*
X57243Y-32781D01*
X57243Y-32757D01*
X57231Y-32733D01*
X57220Y-32722D01*
X57196Y-32710D01*
X57148Y-32698D01*
X57124Y-32686D01*
X57112Y-32674D01*
X57100Y-32650D01*
X57100Y-32626D01*
X57112Y-32603D01*
X57124Y-32591D01*
X57148Y-32579D01*
X57208Y-32579D01*
X57243Y-32591D01*
X57446Y-32817D02*
X57422Y-32829D01*
X57374Y-32829D01*
X57350Y-32817D01*
X57339Y-32793D01*
X57339Y-32698D01*
X57350Y-32674D01*
X57374Y-32662D01*
X57422Y-32662D01*
X57446Y-32674D01*
X57458Y-32698D01*
X57458Y-32722D01*
X57339Y-32745D01*
X57565Y-32662D02*
X57565Y-32829D01*
X57565Y-32686D02*
X57577Y-32674D01*
X57600Y-32662D01*
X57636Y-32662D01*
X57660Y-32674D01*
X57672Y-32698D01*
X57672Y-32829D01*
X57779Y-32817D02*
X57803Y-32829D01*
X57850Y-32829D01*
X57874Y-32817D01*
X57886Y-32793D01*
X57886Y-32781D01*
X57874Y-32757D01*
X57850Y-32745D01*
X57815Y-32745D01*
X57791Y-32733D01*
X57779Y-32710D01*
X57779Y-32698D01*
X57791Y-32674D01*
X57815Y-32662D01*
X57850Y-32662D01*
X57874Y-32674D01*
X58029Y-32829D02*
X58005Y-32817D01*
X57993Y-32805D01*
X57981Y-32781D01*
X57981Y-32710D01*
X57993Y-32686D01*
X58005Y-32674D01*
X58029Y-32662D01*
X58065Y-32662D01*
X58089Y-32674D01*
X58100Y-32686D01*
X58112Y-32710D01*
X58112Y-32781D01*
X58100Y-32805D01*
X58089Y-32817D01*
X58065Y-32829D01*
X58029Y-32829D01*
X58220Y-32829D02*
X58220Y-32662D01*
X58220Y-32710D02*
X58231Y-32686D01*
X58243Y-32674D01*
X58267Y-32662D01*
X58291Y-32662D01*
X58374Y-32733D02*
X58565Y-32733D01*
X58815Y-32591D02*
X58791Y-32579D01*
X58755Y-32579D01*
X58720Y-32591D01*
X58696Y-32614D01*
X58684Y-32638D01*
X58672Y-32686D01*
X58672Y-32722D01*
X58684Y-32769D01*
X58696Y-32793D01*
X58720Y-32817D01*
X58755Y-32829D01*
X58779Y-32829D01*
X58815Y-32817D01*
X58827Y-32805D01*
X58827Y-32722D01*
X58779Y-32722D01*
X58934Y-32829D02*
X58934Y-32579D01*
X59077Y-32829D01*
X59077Y-32579D01*
X59196Y-32829D02*
X59196Y-32579D01*
X59255Y-32579D01*
X59291Y-32591D01*
X59315Y-32614D01*
X59327Y-32638D01*
X59339Y-32686D01*
X59339Y-32722D01*
X59327Y-32769D01*
X59315Y-32793D01*
X59291Y-32817D01*
X59255Y-32829D01*
X59196Y-32829D01*
G54D13*
X54086Y-21796D02*
X54086Y-21442D01*
X54204Y-21695D01*
X54322Y-21442D01*
X54322Y-21796D01*
X54474Y-21695D02*
X54642Y-21695D01*
X54440Y-21796D02*
X54558Y-21442D01*
X54676Y-21796D01*
X54912Y-21611D02*
X54794Y-21611D01*
X54794Y-21796D02*
X54794Y-21442D01*
X54963Y-21442D01*
G54D21*
X57133Y-19104D02*
X57455Y-19104D01*
X57519Y-19120D01*
X57562Y-19154D01*
X57583Y-19204D01*
X57583Y-19237D01*
X57455Y-18954D02*
X57455Y-18787D01*
X57583Y-18987D02*
X57133Y-18870D01*
X57583Y-18754D01*
X57155Y-18454D02*
X57133Y-18487D01*
X57133Y-18537D01*
X57155Y-18587D01*
X57198Y-18620D01*
X57240Y-18637D01*
X57326Y-18654D01*
X57390Y-18654D01*
X57476Y-18637D01*
X57519Y-18620D01*
X57562Y-18587D01*
X57583Y-18537D01*
X57583Y-18504D01*
X57562Y-18454D01*
X57540Y-18437D01*
X57390Y-18437D01*
X57390Y-18504D01*
X57176Y-18037D02*
X57155Y-18020D01*
X57133Y-17987D01*
X57133Y-17904D01*
X57155Y-17870D01*
X57176Y-17854D01*
X57219Y-17837D01*
X57262Y-17837D01*
X57326Y-17854D01*
X57583Y-18054D01*
X57583Y-17837D01*
X57133Y-17620D02*
X57133Y-17587D01*
X57155Y-17554D01*
X57176Y-17537D01*
X57219Y-17520D01*
X57305Y-17504D01*
X57412Y-17504D01*
X57498Y-17520D01*
X57540Y-17537D01*
X57562Y-17554D01*
X57583Y-17587D01*
X57583Y-17620D01*
X57562Y-17654D01*
X57540Y-17670D01*
X57498Y-17687D01*
X57412Y-17704D01*
X57305Y-17704D01*
X57219Y-17687D01*
X57176Y-17670D01*
X57155Y-17654D01*
X57133Y-17620D01*
X57583Y-17170D02*
X57583Y-17370D01*
X57583Y-17270D02*
X57133Y-17270D01*
X57198Y-17304D01*
X57240Y-17337D01*
X57262Y-17370D01*
X57176Y-17037D02*
X57155Y-17020D01*
X57133Y-16987D01*
X57133Y-16904D01*
X57155Y-16870D01*
X57176Y-16854D01*
X57219Y-16837D01*
X57262Y-16837D01*
X57326Y-16854D01*
X57583Y-17054D01*
X57583Y-16837D01*
X57412Y-16687D02*
X57412Y-16420D01*
X57176Y-16270D02*
X57155Y-16254D01*
X57133Y-16220D01*
X57133Y-16137D01*
X57155Y-16104D01*
X57176Y-16087D01*
X57219Y-16070D01*
X57262Y-16070D01*
X57326Y-16087D01*
X57583Y-16287D01*
X57583Y-16070D01*
X57133Y-15854D02*
X57133Y-15820D01*
X57155Y-15787D01*
X57176Y-15770D01*
X57219Y-15754D01*
X57305Y-15737D01*
X57412Y-15737D01*
X57498Y-15754D01*
X57540Y-15770D01*
X57562Y-15787D01*
X57583Y-15820D01*
X57583Y-15854D01*
X57562Y-15887D01*
X57540Y-15904D01*
X57498Y-15920D01*
X57412Y-15937D01*
X57305Y-15937D01*
X57219Y-15920D01*
X57176Y-15904D01*
X57155Y-15887D01*
X57133Y-15854D01*
X57583Y-15404D02*
X57583Y-15604D01*
X57583Y-15504D02*
X57133Y-15504D01*
X57198Y-15537D01*
X57240Y-15570D01*
X57262Y-15604D01*
X57283Y-15104D02*
X57583Y-15104D01*
X57112Y-15187D02*
X57433Y-15270D01*
X57433Y-15054D01*
G54D20*
X27909Y-21416D02*
X27928Y-21432D01*
X27947Y-21477D01*
X27947Y-21506D01*
X27928Y-21547D01*
X27890Y-21570D01*
X27852Y-21580D01*
X27775Y-21585D01*
X27718Y-21577D01*
X27642Y-21554D01*
X27604Y-21535D01*
X27566Y-21501D01*
X27547Y-21456D01*
X27547Y-21427D01*
X27566Y-21387D01*
X27585Y-21375D01*
X27947Y-21249D02*
X27928Y-21275D01*
X27909Y-21287D01*
X27871Y-21297D01*
X27756Y-21282D01*
X27718Y-21263D01*
X27699Y-21247D01*
X27680Y-21216D01*
X27680Y-21173D01*
X27699Y-21147D01*
X27718Y-21135D01*
X27756Y-21125D01*
X27871Y-21139D01*
X27909Y-21158D01*
X27928Y-21175D01*
X27947Y-21206D01*
X27947Y-21249D01*
X27680Y-20987D02*
X28080Y-21037D01*
X27699Y-20989D02*
X27680Y-20958D01*
X27680Y-20901D01*
X27699Y-20875D01*
X27718Y-20863D01*
X27756Y-20854D01*
X27871Y-20868D01*
X27909Y-20887D01*
X27928Y-20904D01*
X27947Y-20935D01*
X27947Y-20992D01*
X27928Y-21018D01*
X27680Y-20744D02*
X27947Y-20706D01*
X27680Y-20601D02*
X27947Y-20706D01*
X28042Y-20747D01*
X28061Y-20763D01*
X28080Y-20794D01*
X27947Y-20520D02*
X27680Y-20487D01*
X27756Y-20497D02*
X27718Y-20477D01*
X27699Y-20461D01*
X27680Y-20430D01*
X27680Y-20401D01*
X27947Y-20335D02*
X27680Y-20301D01*
X27547Y-20285D02*
X27566Y-20301D01*
X27585Y-20289D01*
X27566Y-20273D01*
X27547Y-20285D01*
X27585Y-20289D01*
X27680Y-20030D02*
X28004Y-20070D01*
X28042Y-20089D01*
X28061Y-20106D01*
X28080Y-20137D01*
X28080Y-20180D01*
X28061Y-20206D01*
X27928Y-20061D02*
X27947Y-20092D01*
X27947Y-20149D01*
X27928Y-20175D01*
X27909Y-20187D01*
X27871Y-20197D01*
X27756Y-20182D01*
X27718Y-20163D01*
X27699Y-20147D01*
X27680Y-20116D01*
X27680Y-20058D01*
X27699Y-20032D01*
X27947Y-19920D02*
X27547Y-19870D01*
X27947Y-19792D02*
X27737Y-19766D01*
X27699Y-19775D01*
X27680Y-19801D01*
X27680Y-19844D01*
X27699Y-19875D01*
X27718Y-19892D01*
X27680Y-19658D02*
X27680Y-19544D01*
X27547Y-19599D02*
X27890Y-19642D01*
X27928Y-19632D01*
X27947Y-19606D01*
X27947Y-19577D01*
X27585Y-18989D02*
X27566Y-18973D01*
X27547Y-18942D01*
X27547Y-18870D01*
X27566Y-18844D01*
X27585Y-18832D01*
X27623Y-18823D01*
X27661Y-18827D01*
X27718Y-18849D01*
X27947Y-19049D01*
X27947Y-18863D01*
X27547Y-18627D02*
X27547Y-18599D01*
X27566Y-18573D01*
X27585Y-18561D01*
X27623Y-18551D01*
X27699Y-18547D01*
X27794Y-18558D01*
X27871Y-18582D01*
X27909Y-18601D01*
X27928Y-18618D01*
X27947Y-18649D01*
X27947Y-18677D01*
X27928Y-18704D01*
X27909Y-18716D01*
X27871Y-18725D01*
X27794Y-18730D01*
X27699Y-18718D01*
X27623Y-18694D01*
X27585Y-18675D01*
X27566Y-18658D01*
X27547Y-18627D01*
X27947Y-18292D02*
X27947Y-18463D01*
X27947Y-18377D02*
X27547Y-18327D01*
X27604Y-18363D01*
X27642Y-18397D01*
X27661Y-18427D01*
X27585Y-18132D02*
X27566Y-18116D01*
X27547Y-18085D01*
X27547Y-18013D01*
X27566Y-17987D01*
X27585Y-17975D01*
X27623Y-17966D01*
X27661Y-17970D01*
X27718Y-17992D01*
X27947Y-18192D01*
X27947Y-18006D01*
X27794Y-17858D02*
X27794Y-17630D01*
X27585Y-17475D02*
X27566Y-17458D01*
X27547Y-17427D01*
X27547Y-17356D01*
X27566Y-17330D01*
X27585Y-17318D01*
X27623Y-17308D01*
X27661Y-17313D01*
X27718Y-17335D01*
X27947Y-17535D01*
X27947Y-17349D01*
X27547Y-17113D02*
X27547Y-17085D01*
X27566Y-17058D01*
X27585Y-17047D01*
X27623Y-17037D01*
X27699Y-17032D01*
X27794Y-17044D01*
X27871Y-17068D01*
X27909Y-17087D01*
X27928Y-17104D01*
X27947Y-17135D01*
X27947Y-17163D01*
X27928Y-17189D01*
X27909Y-17201D01*
X27871Y-17211D01*
X27794Y-17216D01*
X27699Y-17204D01*
X27623Y-17180D01*
X27585Y-17161D01*
X27566Y-17144D01*
X27547Y-17113D01*
X27947Y-16777D02*
X27947Y-16949D01*
X27947Y-16863D02*
X27547Y-16813D01*
X27604Y-16849D01*
X27642Y-16882D01*
X27661Y-16913D01*
X27680Y-16487D02*
X27947Y-16520D01*
X27528Y-16539D02*
X27814Y-16647D01*
X27814Y-16461D01*
G54D22*
X24905Y-20844D02*
X25833Y-20960D01*
X26019Y-21035D01*
X26143Y-21156D01*
X26205Y-21320D01*
X26205Y-21425D01*
X26205Y-20011D02*
X25524Y-19926D01*
X25400Y-19963D01*
X25338Y-20060D01*
X25338Y-20269D01*
X25400Y-20382D01*
X26143Y-20003D02*
X26205Y-20116D01*
X26205Y-20378D01*
X26143Y-20475D01*
X26019Y-20511D01*
X25895Y-20496D01*
X25771Y-20428D01*
X25710Y-20316D01*
X25710Y-20054D01*
X25648Y-19941D01*
X25338Y-18907D02*
X26391Y-19039D01*
X26514Y-19107D01*
X26576Y-19167D01*
X26638Y-19279D01*
X26638Y-19436D01*
X26576Y-19533D01*
X26143Y-19008D02*
X26205Y-19120D01*
X26205Y-19330D01*
X26143Y-19427D01*
X26081Y-19472D01*
X25957Y-19508D01*
X25586Y-19462D01*
X25462Y-19394D01*
X25400Y-19334D01*
X25338Y-19222D01*
X25338Y-19012D01*
X25400Y-18915D01*
X25338Y-17912D02*
X26205Y-18020D01*
X25338Y-18383D02*
X26019Y-18469D01*
X26143Y-18432D01*
X26205Y-18335D01*
X26205Y-18178D01*
X26143Y-18065D01*
X26081Y-18005D01*
X26205Y-17025D02*
X25524Y-16940D01*
X25400Y-16977D01*
X25338Y-17074D01*
X25338Y-17283D01*
X25400Y-17396D01*
X26143Y-17017D02*
X26205Y-17130D01*
X26205Y-17392D01*
X26143Y-17489D01*
X26019Y-17526D01*
X25895Y-17510D01*
X25771Y-17442D01*
X25710Y-17330D01*
X25710Y-17068D01*
X25648Y-16956D01*
X26205Y-16501D02*
X25338Y-16393D01*
X25586Y-16424D02*
X25462Y-16356D01*
X25400Y-16296D01*
X25338Y-16183D01*
X25338Y-16079D01*
G54D14*
X35593Y-11566D02*
X35593Y-11266D01*
X35893Y-11280D02*
X35864Y-11266D01*
X35821Y-11266D01*
X35778Y-11280D01*
X35750Y-11309D01*
X35736Y-11337D01*
X35721Y-11395D01*
X35721Y-11437D01*
X35736Y-11495D01*
X35750Y-11523D01*
X35778Y-11552D01*
X35821Y-11566D01*
X35850Y-11566D01*
X35893Y-11552D01*
X35907Y-11537D01*
X35907Y-11437D01*
X35850Y-11437D01*
X36021Y-11295D02*
X36036Y-11280D01*
X36064Y-11266D01*
X36136Y-11266D01*
X36164Y-11280D01*
X36178Y-11295D01*
X36193Y-11323D01*
X36193Y-11352D01*
X36178Y-11395D01*
X36007Y-11566D01*
X36193Y-11566D01*
X35573Y-10318D02*
X35573Y-10018D01*
X35873Y-10032D02*
X35844Y-10018D01*
X35801Y-10018D01*
X35758Y-10032D01*
X35730Y-10061D01*
X35716Y-10089D01*
X35701Y-10147D01*
X35701Y-10189D01*
X35716Y-10247D01*
X35730Y-10275D01*
X35758Y-10304D01*
X35801Y-10318D01*
X35830Y-10318D01*
X35873Y-10304D01*
X35887Y-10289D01*
X35887Y-10189D01*
X35830Y-10189D01*
X36173Y-10318D02*
X36001Y-10318D01*
X36087Y-10318D02*
X36087Y-10018D01*
X36058Y-10061D01*
X36030Y-10089D01*
X36001Y-10104D01*
X23782Y-13916D02*
X23782Y-13616D01*
X24082Y-13630D02*
X24053Y-13616D01*
X24010Y-13616D01*
X23967Y-13630D01*
X23939Y-13659D01*
X23925Y-13687D01*
X23910Y-13745D01*
X23910Y-13787D01*
X23925Y-13845D01*
X23939Y-13873D01*
X23967Y-13902D01*
X24010Y-13916D01*
X24039Y-13916D01*
X24082Y-13902D01*
X24096Y-13887D01*
X24096Y-13787D01*
X24039Y-13787D01*
X24196Y-13616D02*
X24382Y-13616D01*
X24282Y-13730D01*
X24325Y-13730D01*
X24353Y-13745D01*
X24367Y-13759D01*
X24382Y-13787D01*
X24382Y-13859D01*
X24367Y-13887D01*
X24353Y-13902D01*
X24325Y-13916D01*
X24239Y-13916D01*
X24210Y-13902D01*
X24196Y-13887D01*
X23833Y-11511D02*
X23833Y-11211D01*
X24133Y-11225D02*
X24104Y-11211D01*
X24061Y-11211D01*
X24018Y-11225D01*
X23990Y-11254D01*
X23976Y-11282D01*
X23961Y-11340D01*
X23961Y-11382D01*
X23976Y-11440D01*
X23990Y-11468D01*
X24018Y-11497D01*
X24061Y-11511D01*
X24090Y-11511D01*
X24133Y-11497D01*
X24147Y-11482D01*
X24147Y-11382D01*
X24090Y-11382D01*
X24404Y-11311D02*
X24404Y-11511D01*
X24333Y-11197D02*
X24261Y-11411D01*
X24447Y-11411D01*
X29290Y-13534D02*
X29290Y-13234D01*
X29561Y-13334D02*
X29561Y-13577D01*
X29547Y-13605D01*
X29532Y-13620D01*
X29504Y-13634D01*
X29461Y-13634D01*
X29432Y-13620D01*
X29561Y-13520D02*
X29532Y-13534D01*
X29475Y-13534D01*
X29447Y-13520D01*
X29432Y-13505D01*
X29418Y-13477D01*
X29418Y-13391D01*
X29432Y-13363D01*
X29447Y-13348D01*
X29475Y-13334D01*
X29532Y-13334D01*
X29561Y-13348D01*
X29704Y-13334D02*
X29704Y-13534D01*
X29704Y-13363D02*
X29718Y-13348D01*
X29747Y-13334D01*
X29790Y-13334D01*
X29818Y-13348D01*
X29832Y-13377D01*
X29832Y-13534D01*
X29975Y-13534D02*
X29975Y-13334D01*
X29975Y-13234D02*
X29961Y-13248D01*
X29975Y-13263D01*
X29990Y-13248D01*
X29975Y-13234D01*
X29975Y-13263D01*
X30075Y-13334D02*
X30190Y-13334D01*
X30118Y-13234D02*
X30118Y-13491D01*
X30132Y-13520D01*
X30161Y-13534D01*
X30190Y-13534D01*
X30332Y-13534D02*
X30304Y-13520D01*
X30290Y-13505D01*
X30275Y-13477D01*
X30275Y-13391D01*
X30290Y-13363D01*
X30304Y-13348D01*
X30332Y-13334D01*
X30375Y-13334D01*
X30404Y-13348D01*
X30418Y-13363D01*
X30432Y-13391D01*
X30432Y-13477D01*
X30418Y-13505D01*
X30404Y-13520D01*
X30375Y-13534D01*
X30332Y-13534D01*
X30561Y-13534D02*
X30561Y-13334D01*
X30561Y-13391D02*
X30575Y-13363D01*
X30590Y-13348D01*
X30618Y-13334D01*
X30647Y-13334D01*
X30732Y-13263D02*
X30747Y-13248D01*
X30775Y-13234D01*
X30847Y-13234D01*
X30875Y-13248D01*
X30890Y-13263D01*
X30904Y-13291D01*
X30904Y-13320D01*
X30890Y-13363D01*
X30718Y-13534D01*
X30904Y-13534D01*
X29168Y-10763D02*
X29168Y-10463D01*
X29439Y-10563D02*
X29439Y-10806D01*
X29425Y-10834D01*
X29410Y-10849D01*
X29382Y-10863D01*
X29339Y-10863D01*
X29310Y-10849D01*
X29439Y-10749D02*
X29410Y-10763D01*
X29353Y-10763D01*
X29325Y-10749D01*
X29310Y-10734D01*
X29296Y-10706D01*
X29296Y-10620D01*
X29310Y-10592D01*
X29325Y-10577D01*
X29353Y-10563D01*
X29410Y-10563D01*
X29439Y-10577D01*
X29582Y-10563D02*
X29582Y-10763D01*
X29582Y-10592D02*
X29596Y-10577D01*
X29625Y-10563D01*
X29668Y-10563D01*
X29696Y-10577D01*
X29710Y-10606D01*
X29710Y-10763D01*
X29853Y-10763D02*
X29853Y-10563D01*
X29853Y-10463D02*
X29839Y-10477D01*
X29853Y-10492D01*
X29868Y-10477D01*
X29853Y-10463D01*
X29853Y-10492D01*
X29953Y-10563D02*
X30068Y-10563D01*
X29996Y-10463D02*
X29996Y-10720D01*
X30010Y-10749D01*
X30039Y-10763D01*
X30068Y-10763D01*
X30210Y-10763D02*
X30182Y-10749D01*
X30168Y-10734D01*
X30153Y-10706D01*
X30153Y-10620D01*
X30168Y-10592D01*
X30182Y-10577D01*
X30210Y-10563D01*
X30253Y-10563D01*
X30282Y-10577D01*
X30296Y-10592D01*
X30310Y-10620D01*
X30310Y-10706D01*
X30296Y-10734D01*
X30282Y-10749D01*
X30253Y-10763D01*
X30210Y-10763D01*
X30439Y-10763D02*
X30439Y-10563D01*
X30439Y-10620D02*
X30453Y-10592D01*
X30468Y-10577D01*
X30496Y-10563D01*
X30525Y-10563D01*
X30782Y-10763D02*
X30610Y-10763D01*
X30696Y-10763D02*
X30696Y-10463D01*
X30668Y-10506D01*
X30639Y-10534D01*
X30610Y-10549D01*
X18791Y-13684D02*
X18791Y-13384D01*
X19062Y-13484D02*
X19062Y-13727D01*
X19048Y-13755D01*
X19033Y-13770D01*
X19005Y-13784D01*
X18962Y-13784D01*
X18933Y-13770D01*
X19062Y-13670D02*
X19033Y-13684D01*
X18976Y-13684D01*
X18948Y-13670D01*
X18933Y-13655D01*
X18919Y-13627D01*
X18919Y-13541D01*
X18933Y-13513D01*
X18948Y-13498D01*
X18976Y-13484D01*
X19033Y-13484D01*
X19062Y-13498D01*
X19205Y-13484D02*
X19205Y-13684D01*
X19205Y-13513D02*
X19219Y-13498D01*
X19248Y-13484D01*
X19291Y-13484D01*
X19319Y-13498D01*
X19333Y-13527D01*
X19333Y-13684D01*
X19476Y-13684D02*
X19476Y-13484D01*
X19476Y-13384D02*
X19462Y-13398D01*
X19476Y-13413D01*
X19491Y-13398D01*
X19476Y-13384D01*
X19476Y-13413D01*
X19576Y-13484D02*
X19691Y-13484D01*
X19619Y-13384D02*
X19619Y-13641D01*
X19633Y-13670D01*
X19662Y-13684D01*
X19691Y-13684D01*
X19833Y-13684D02*
X19805Y-13670D01*
X19791Y-13655D01*
X19776Y-13627D01*
X19776Y-13541D01*
X19791Y-13513D01*
X19805Y-13498D01*
X19833Y-13484D01*
X19876Y-13484D01*
X19905Y-13498D01*
X19919Y-13513D01*
X19933Y-13541D01*
X19933Y-13627D01*
X19919Y-13655D01*
X19905Y-13670D01*
X19876Y-13684D01*
X19833Y-13684D01*
X20062Y-13684D02*
X20062Y-13484D01*
X20062Y-13541D02*
X20076Y-13513D01*
X20091Y-13498D01*
X20119Y-13484D01*
X20148Y-13484D01*
X20219Y-13384D02*
X20405Y-13384D01*
X20305Y-13498D01*
X20348Y-13498D01*
X20376Y-13513D01*
X20391Y-13527D01*
X20405Y-13555D01*
X20405Y-13627D01*
X20391Y-13655D01*
X20376Y-13670D01*
X20348Y-13684D01*
X20262Y-13684D01*
X20233Y-13670D01*
X20219Y-13655D01*
X18771Y-10759D02*
X18771Y-10459D01*
X19042Y-10559D02*
X19042Y-10802D01*
X19028Y-10830D01*
X19013Y-10845D01*
X18985Y-10859D01*
X18942Y-10859D01*
X18913Y-10845D01*
X19042Y-10745D02*
X19013Y-10759D01*
X18956Y-10759D01*
X18928Y-10745D01*
X18913Y-10730D01*
X18899Y-10702D01*
X18899Y-10616D01*
X18913Y-10588D01*
X18928Y-10573D01*
X18956Y-10559D01*
X19013Y-10559D01*
X19042Y-10573D01*
X19185Y-10559D02*
X19185Y-10759D01*
X19185Y-10588D02*
X19199Y-10573D01*
X19228Y-10559D01*
X19271Y-10559D01*
X19299Y-10573D01*
X19313Y-10602D01*
X19313Y-10759D01*
X19456Y-10759D02*
X19456Y-10559D01*
X19456Y-10459D02*
X19442Y-10473D01*
X19456Y-10488D01*
X19471Y-10473D01*
X19456Y-10459D01*
X19456Y-10488D01*
X19556Y-10559D02*
X19671Y-10559D01*
X19599Y-10459D02*
X19599Y-10716D01*
X19613Y-10745D01*
X19642Y-10759D01*
X19671Y-10759D01*
X19813Y-10759D02*
X19785Y-10745D01*
X19771Y-10730D01*
X19756Y-10702D01*
X19756Y-10616D01*
X19771Y-10588D01*
X19785Y-10573D01*
X19813Y-10559D01*
X19856Y-10559D01*
X19885Y-10573D01*
X19899Y-10588D01*
X19913Y-10616D01*
X19913Y-10702D01*
X19899Y-10730D01*
X19885Y-10745D01*
X19856Y-10759D01*
X19813Y-10759D01*
X20042Y-10759D02*
X20042Y-10559D01*
X20042Y-10616D02*
X20056Y-10588D01*
X20071Y-10573D01*
X20099Y-10559D01*
X20128Y-10559D01*
X20356Y-10559D02*
X20356Y-10759D01*
X20285Y-10445D02*
X20213Y-10659D01*
X20399Y-10659D01*
G54D16*
X24567Y-13169D02*
X24567Y-10197D01*
X34535Y-17713D02*
X34535Y-21319D01*
X34531Y-17713D02*
X34535Y-17713D01*
X35260Y-17713D02*
X34531Y-17713D01*
X35260Y-16622D02*
X35260Y-17713D01*
X34680Y-13894D02*
X34680Y-13665D01*
X34680Y-13780D02*
X35080Y-13780D01*
X35022Y-13741D01*
X34984Y-13703D01*
X34965Y-13665D01*
G54D17*
X26158Y-22255D02*
X26158Y-22083D01*
X26158Y-22169D02*
X26458Y-22169D01*
X26415Y-22140D01*
X26386Y-22112D01*
X26372Y-22083D01*
G54D16*
X27770Y-13850D02*
X27930Y-13850D01*
X27770Y-14840D02*
X27770Y-13850D01*
X54920Y-37850D02*
X54920Y-36810D01*
X54110Y-37850D02*
X54920Y-37850D01*
X54110Y-38270D02*
X54110Y-37850D01*
X54550Y-35210D02*
X56860Y-35210D01*
X54550Y-35050D02*
X54550Y-35210D01*
X56860Y-34010D02*
X59450Y-34010D01*
X56860Y-36680D02*
X56860Y-34010D01*
X56690Y-36680D02*
X56860Y-36680D01*
X56690Y-36810D02*
X56690Y-36680D01*
X54920Y-36810D02*
X56690Y-36810D01*
X59450Y-33900D02*
X59450Y-34010D01*
X61860Y-33900D02*
X59450Y-33900D01*
X61860Y-33500D02*
X61860Y-33900D01*
X62740Y-33500D02*
X61860Y-33500D01*
X62740Y-33980D02*
X62740Y-33500D01*
X63730Y-33980D02*
X62740Y-33980D01*
X50330Y-35270D02*
X50320Y-35270D01*
X50330Y-32620D02*
X50330Y-35270D01*
X52890Y-32510D02*
X52890Y-32500D01*
X51850Y-32510D02*
X52890Y-32510D01*
X51850Y-32620D02*
X51850Y-32510D01*
X50330Y-32620D02*
X51850Y-32620D01*
X52890Y-31260D02*
X52890Y-31270D01*
X51780Y-31260D02*
X52890Y-31260D01*
X51780Y-30340D02*
X51780Y-31260D01*
X47500Y-32110D02*
X47500Y-33410D01*
X50330Y-35260D02*
X50320Y-35260D01*
X50330Y-35730D02*
X50330Y-35260D01*
X47200Y-35730D02*
X50330Y-35730D01*
X47230Y-33420D02*
X47480Y-33420D01*
X47230Y-35730D02*
X47230Y-33420D01*
X44400Y-35730D02*
X47230Y-35730D01*
X46570Y-36750D02*
X46570Y-36740D01*
X46570Y-35730D02*
X46570Y-36750D01*
X47000Y-36750D02*
X47000Y-38270D01*
X46570Y-36750D02*
X47000Y-36750D01*
X44400Y-33730D02*
X44400Y-35730D01*
X44170Y-29820D02*
X44170Y-29830D01*
X42930Y-29820D02*
X44170Y-29820D01*
X44170Y-29820D02*
X44150Y-29820D01*
X44170Y-33080D02*
X44170Y-29820D01*
X43570Y-33080D02*
X44170Y-33080D01*
X43570Y-33540D02*
X43570Y-33080D01*
X44400Y-33690D02*
X44400Y-33730D01*
X43570Y-33690D02*
X44400Y-33690D01*
X43570Y-33530D02*
X43570Y-33690D01*
X42280Y-33530D02*
X43570Y-33530D01*
X42280Y-33530D02*
X42290Y-33530D01*
X42280Y-30410D02*
X42280Y-33530D01*
X42120Y-30410D02*
X42280Y-30410D01*
X42120Y-30410D02*
X39810Y-30410D01*
X39800Y-27750D02*
X39750Y-27750D01*
X36880Y-38260D02*
X36880Y-38270D01*
X27660Y-38260D02*
X36880Y-38260D01*
G54D17*
X25265Y-32511D02*
X25322Y-32511D01*
X25351Y-32525D01*
X25380Y-32554D01*
X25394Y-32611D01*
X25394Y-32711D01*
X25380Y-32768D01*
X25351Y-32797D01*
X25322Y-32811D01*
X25265Y-32811D01*
X25237Y-32797D01*
X25208Y-32768D01*
X25194Y-32711D01*
X25194Y-32611D01*
X25208Y-32554D01*
X25237Y-32525D01*
X25265Y-32511D01*
X25522Y-32511D02*
X25522Y-32754D01*
X25537Y-32782D01*
X25551Y-32797D01*
X25580Y-32811D01*
X25637Y-32811D01*
X25665Y-32797D01*
X25680Y-32782D01*
X25694Y-32754D01*
X25694Y-32511D01*
X25794Y-32511D02*
X25965Y-32511D01*
X25880Y-32811D02*
X25880Y-32511D01*
X26065Y-32811D02*
X26065Y-32511D01*
X26180Y-32511D01*
X26208Y-32525D01*
X26222Y-32540D01*
X26237Y-32568D01*
X26237Y-32611D01*
X26222Y-32640D01*
X26208Y-32654D01*
X26180Y-32668D01*
X26065Y-32668D01*
X26365Y-32511D02*
X26365Y-32754D01*
X26380Y-32782D01*
X26394Y-32797D01*
X26422Y-32811D01*
X26480Y-32811D01*
X26508Y-32797D01*
X26522Y-32782D01*
X26537Y-32754D01*
X26537Y-32511D01*
X26637Y-32511D02*
X26808Y-32511D01*
X26722Y-32811D02*
X26722Y-32511D01*
X26908Y-32697D02*
X27137Y-32697D01*
X27437Y-32525D02*
X27408Y-32511D01*
X27365Y-32511D01*
X27322Y-32525D01*
X27294Y-32554D01*
X27280Y-32582D01*
X27265Y-32640D01*
X27265Y-32682D01*
X27280Y-32740D01*
X27294Y-32768D01*
X27322Y-32797D01*
X27365Y-32811D01*
X27394Y-32811D01*
X27437Y-32797D01*
X27451Y-32782D01*
X27451Y-32682D01*
X27394Y-32682D01*
X27580Y-32811D02*
X27580Y-32511D01*
X27751Y-32811D01*
X27751Y-32511D01*
X27894Y-32811D02*
X27894Y-32511D01*
X27965Y-32511D01*
X28008Y-32525D01*
X28037Y-32554D01*
X28051Y-32582D01*
X28065Y-32640D01*
X28065Y-32682D01*
X28051Y-32740D01*
X28037Y-32768D01*
X28008Y-32797D01*
X27965Y-32811D01*
X27894Y-32811D01*
G54D16*
X25748Y-30480D02*
X26748Y-30480D01*
X25748Y-22480D02*
X25748Y-30480D01*
X26748Y-22480D02*
X25748Y-22480D01*
X26759Y-30491D02*
X26759Y-22491D01*
G54D17*
X26961Y-23413D02*
X27261Y-23413D01*
X27161Y-23556D02*
X26961Y-23556D01*
X27133Y-23556D02*
X27147Y-23570D01*
X27161Y-23599D01*
X27161Y-23642D01*
X27147Y-23670D01*
X27118Y-23685D01*
X26961Y-23685D01*
X27161Y-23828D02*
X26904Y-23828D01*
X26875Y-23813D01*
X26861Y-23785D01*
X26861Y-23770D01*
X27261Y-23828D02*
X27247Y-23813D01*
X27233Y-23828D01*
X27247Y-23842D01*
X27261Y-23828D01*
X27233Y-23828D01*
X26975Y-24085D02*
X26961Y-24056D01*
X26961Y-23999D01*
X26975Y-23970D01*
X27004Y-23956D01*
X27118Y-23956D01*
X27147Y-23970D01*
X27161Y-23999D01*
X27161Y-24056D01*
X27147Y-24085D01*
X27118Y-24099D01*
X27090Y-24099D01*
X27061Y-23956D01*
X26975Y-24356D02*
X26961Y-24328D01*
X26961Y-24270D01*
X26975Y-24242D01*
X26990Y-24228D01*
X27018Y-24213D01*
X27104Y-24213D01*
X27133Y-24228D01*
X27147Y-24242D01*
X27161Y-24270D01*
X27161Y-24328D01*
X27147Y-24356D01*
X27161Y-24442D02*
X27161Y-24556D01*
X27261Y-24485D02*
X27004Y-24485D01*
X26975Y-24499D01*
X26961Y-24528D01*
X26961Y-24556D01*
X26961Y-24699D02*
X26975Y-24670D01*
X26990Y-24656D01*
X27018Y-24642D01*
X27104Y-24642D01*
X27133Y-24656D01*
X27147Y-24670D01*
X27161Y-24699D01*
X27161Y-24742D01*
X27147Y-24770D01*
X27133Y-24785D01*
X27104Y-24799D01*
X27018Y-24799D01*
X26990Y-24785D01*
X26975Y-24770D01*
X26961Y-24742D01*
X26961Y-24699D01*
X26961Y-24928D02*
X27161Y-24928D01*
X27104Y-24928D02*
X27133Y-24942D01*
X27147Y-24956D01*
X27161Y-24985D01*
X27161Y-25013D01*
X26975Y-25099D02*
X26961Y-25128D01*
X26961Y-25185D01*
X26975Y-25213D01*
X27004Y-25228D01*
X27018Y-25228D01*
X27047Y-25213D01*
X27061Y-25185D01*
X27061Y-25142D01*
X27075Y-25113D01*
X27104Y-25099D01*
X27118Y-25099D01*
X27147Y-25113D01*
X27161Y-25142D01*
X27161Y-25185D01*
X27147Y-25213D01*
X27075Y-25356D02*
X27075Y-25585D01*
X26961Y-25728D02*
X27261Y-25728D01*
X26961Y-25870D02*
X27261Y-25870D01*
X26961Y-26042D01*
X27261Y-26042D01*
G54D16*
X42280Y-16720D02*
X46030Y-16720D01*
X42280Y-14960D02*
X42280Y-16720D01*
X39040Y-16500D02*
X38970Y-16500D01*
X39040Y-15020D02*
X39040Y-16500D01*
X30450Y-13850D02*
X27940Y-13850D01*
X30590Y-13990D02*
X30450Y-13850D01*
X33380Y-13990D02*
X30590Y-13990D01*
X49520Y-20900D02*
X49520Y-23830D01*
X49760Y-23840D02*
X49760Y-23880D01*
X49200Y-23840D02*
X49760Y-23840D01*
X49120Y-23920D02*
X49200Y-23840D01*
X49120Y-24690D02*
X49120Y-23920D01*
X49050Y-24760D02*
X49120Y-24690D01*
X48870Y-24760D02*
X49050Y-24760D01*
X48730Y-24900D02*
X48870Y-24760D01*
X48730Y-27620D02*
X48730Y-24900D01*
X50630Y-27620D02*
X50630Y-27610D01*
X48740Y-27620D02*
X50630Y-27620D01*
X55210Y-25360D02*
X55210Y-24140D01*
X53910Y-25360D02*
X55210Y-25360D01*
X50630Y-25970D02*
X52060Y-25970D01*
X50630Y-30340D02*
X50630Y-25970D01*
X51950Y-23860D02*
X49760Y-23860D01*
X53900Y-23860D02*
X53900Y-23820D01*
X51960Y-23860D02*
X53900Y-23860D01*
X53900Y-21620D02*
X53900Y-23800D01*
G54D18*
X49175Y-25962D02*
X49175Y-25362D01*
X49375Y-25791D01*
X49575Y-25362D01*
X49575Y-25962D01*
X49832Y-25791D02*
X50118Y-25791D01*
X49775Y-25962D02*
X49975Y-25362D01*
X50175Y-25962D01*
X50575Y-25648D02*
X50375Y-25648D01*
X50375Y-25962D02*
X50375Y-25362D01*
X50661Y-25362D01*
G54D14*
X59290Y-30573D02*
X59290Y-30323D01*
X59373Y-30501D01*
X59457Y-30323D01*
X59457Y-30573D01*
X59564Y-30501D02*
X59683Y-30501D01*
X59540Y-30573D02*
X59623Y-30323D01*
X59707Y-30573D01*
X59790Y-30573D02*
X59790Y-30323D01*
X59885Y-30323D01*
X59909Y-30335D01*
X59921Y-30347D01*
X59933Y-30370D01*
X59933Y-30406D01*
X59921Y-30430D01*
X59909Y-30442D01*
X59885Y-30454D01*
X59790Y-30454D01*
X59435Y-29233D02*
X59411Y-29221D01*
X59376Y-29221D01*
X59340Y-29233D01*
X59316Y-29256D01*
X59304Y-29280D01*
X59292Y-29328D01*
X59292Y-29364D01*
X59304Y-29411D01*
X59316Y-29435D01*
X59340Y-29459D01*
X59376Y-29471D01*
X59399Y-29471D01*
X59435Y-29459D01*
X59447Y-29447D01*
X59447Y-29364D01*
X59399Y-29364D01*
X59554Y-29471D02*
X59554Y-29221D01*
X59697Y-29471D01*
X59697Y-29221D01*
X59816Y-29471D02*
X59816Y-29221D01*
X59876Y-29221D01*
X59911Y-29233D01*
X59935Y-29256D01*
X59947Y-29280D01*
X59959Y-29328D01*
X59959Y-29364D01*
X59947Y-29411D01*
X59935Y-29435D01*
X59911Y-29459D01*
X59876Y-29471D01*
X59816Y-29471D01*
X59432Y-28119D02*
X59313Y-28119D01*
X59301Y-28238D01*
X59313Y-28226D01*
X59337Y-28214D01*
X59396Y-28214D01*
X59420Y-28226D01*
X59432Y-28238D01*
X59444Y-28262D01*
X59444Y-28321D01*
X59432Y-28345D01*
X59420Y-28357D01*
X59396Y-28369D01*
X59337Y-28369D01*
X59313Y-28357D01*
X59301Y-28345D01*
X59527Y-28202D02*
X59587Y-28369D01*
X59646Y-28202D01*
G54D16*
X36960Y-16500D02*
X36960Y-11650D01*
X39000Y-16500D02*
X36960Y-16500D01*
X48990Y-19170D02*
X49000Y-19170D01*
X48990Y-20000D02*
X48990Y-19170D01*
X48230Y-20000D02*
X48990Y-20000D01*
X48230Y-20580D02*
X48230Y-20000D01*
X47200Y-20580D02*
X48230Y-20580D01*
X47200Y-16530D02*
X47200Y-20580D01*
X48330Y-16530D02*
X47200Y-16530D01*
X47020Y-16830D02*
X47020Y-17830D01*
X39720Y-16830D02*
X47020Y-16830D01*
X39720Y-17840D02*
X39720Y-16830D01*
X47010Y-17840D02*
X39720Y-17840D01*
X35260Y-12620D02*
X33390Y-12620D01*
X35260Y-16620D02*
X35260Y-12620D01*
X33380Y-21320D02*
X34530Y-21320D01*
X33380Y-13850D02*
X33380Y-21320D01*
X39040Y-15020D02*
X39040Y-11630D01*
X44870Y-16720D02*
X42400Y-16720D01*
X49000Y-16530D02*
X48330Y-16530D01*
X49000Y-19170D02*
X49000Y-16530D01*
X63710Y-9870D02*
X56110Y-9870D01*
X63710Y-14120D02*
X63710Y-9870D01*
X56950Y-12740D02*
X56950Y-11770D01*
X60920Y-19480D02*
X63710Y-19480D01*
X63720Y-34040D02*
X63720Y-38130D01*
X63720Y-34010D02*
X63720Y-34030D01*
X63720Y-38080D02*
X63710Y-38090D01*
X63720Y-38270D02*
X63720Y-38080D01*
X54920Y-38270D02*
X63720Y-38270D01*
X53430Y-33620D02*
X50330Y-33620D01*
X53430Y-34220D02*
X53430Y-33620D01*
X54550Y-34220D02*
X53430Y-34220D01*
X54550Y-35070D02*
X54550Y-34220D01*
X56820Y-36680D02*
X56820Y-35070D01*
X47650Y-38270D02*
X54920Y-38270D01*
X52890Y-32510D02*
X52890Y-31260D01*
X47500Y-32070D02*
X47500Y-32100D01*
X42930Y-29820D02*
X42930Y-27790D01*
X44400Y-35730D02*
X44400Y-35720D01*
X39950Y-38270D02*
X47640Y-38270D01*
X37890Y-32780D02*
X37920Y-32780D01*
X41020Y-33530D02*
X42120Y-33530D01*
X41020Y-34270D02*
X41020Y-33530D01*
X39950Y-34270D02*
X41020Y-34270D01*
X39950Y-38270D02*
X39950Y-34270D01*
X36890Y-38270D02*
X39950Y-38270D01*
X35170Y-26790D02*
X37860Y-26790D01*
X31520Y-38270D02*
X36890Y-38270D01*
X31530Y-38280D02*
X27660Y-38280D01*
G54D23*
X23777Y-25128D02*
X24227Y-24994D01*
X23777Y-24861D01*
X24205Y-24575D02*
X24227Y-24613D01*
X24227Y-24690D01*
X24205Y-24728D01*
X24163Y-24747D01*
X23991Y-24747D01*
X23948Y-24728D01*
X23927Y-24690D01*
X23927Y-24613D01*
X23948Y-24575D01*
X23991Y-24556D01*
X24034Y-24556D01*
X24077Y-24747D01*
X24227Y-24385D02*
X23927Y-24385D01*
X24013Y-24385D02*
X23970Y-24366D01*
X23948Y-24347D01*
X23927Y-24309D01*
X23927Y-24271D01*
X24205Y-24156D02*
X24227Y-24118D01*
X24227Y-24042D01*
X24205Y-24004D01*
X24163Y-23985D01*
X24141Y-23985D01*
X24098Y-24004D01*
X24077Y-24042D01*
X24077Y-24099D01*
X24055Y-24137D01*
X24013Y-24156D01*
X23991Y-24156D01*
X23948Y-24137D01*
X23927Y-24099D01*
X23927Y-24042D01*
X23948Y-24004D01*
X24227Y-23813D02*
X23927Y-23813D01*
X23777Y-23813D02*
X23798Y-23832D01*
X23820Y-23813D01*
X23798Y-23794D01*
X23777Y-23813D01*
X23820Y-23813D01*
X24227Y-23566D02*
X24205Y-23604D01*
X24184Y-23623D01*
X24141Y-23642D01*
X24013Y-23642D01*
X23970Y-23623D01*
X23948Y-23604D01*
X23927Y-23566D01*
X23927Y-23509D01*
X23948Y-23471D01*
X23970Y-23452D01*
X24013Y-23432D01*
X24141Y-23432D01*
X24184Y-23452D01*
X24205Y-23471D01*
X24227Y-23509D01*
X24227Y-23566D01*
X23927Y-23261D02*
X24227Y-23261D01*
X23970Y-23261D02*
X23948Y-23242D01*
X23927Y-23204D01*
X23927Y-23147D01*
X23948Y-23109D01*
X23991Y-23090D01*
X24227Y-23090D01*
X23777Y-22518D02*
X23777Y-22480D01*
X23798Y-22442D01*
X23820Y-22423D01*
X23863Y-22404D01*
X23948Y-22385D01*
X24055Y-22385D01*
X24141Y-22404D01*
X24184Y-22423D01*
X24205Y-22442D01*
X24227Y-22480D01*
X24227Y-22518D01*
X24205Y-22556D01*
X24184Y-22575D01*
X24141Y-22594D01*
X24055Y-22613D01*
X23948Y-22613D01*
X23863Y-22594D01*
X23820Y-22575D01*
X23798Y-22556D01*
X23777Y-22518D01*
X24184Y-22213D02*
X24205Y-22194D01*
X24227Y-22213D01*
X24205Y-22232D01*
X24184Y-22213D01*
X24227Y-22213D01*
X23777Y-22061D02*
X23777Y-21794D01*
X24227Y-21966D01*
X24055Y-21642D02*
X24055Y-21337D01*
X24227Y-20975D02*
X23991Y-20975D01*
X23948Y-20994D01*
X23927Y-21032D01*
X23927Y-21109D01*
X23948Y-21147D01*
X24205Y-20975D02*
X24227Y-21013D01*
X24227Y-21109D01*
X24205Y-21147D01*
X24163Y-21166D01*
X24120Y-21166D01*
X24077Y-21147D01*
X24055Y-21109D01*
X24055Y-21013D01*
X24034Y-20975D01*
X24227Y-20728D02*
X24205Y-20766D01*
X24163Y-20785D01*
X23777Y-20785D01*
X23927Y-20575D02*
X24377Y-20575D01*
X23948Y-20575D02*
X23927Y-20537D01*
X23927Y-20461D01*
X23948Y-20423D01*
X23970Y-20404D01*
X24013Y-20385D01*
X24141Y-20385D01*
X24184Y-20404D01*
X24205Y-20423D01*
X24227Y-20461D01*
X24227Y-20537D01*
X24205Y-20575D01*
X24227Y-20213D02*
X23777Y-20213D01*
X24227Y-20042D02*
X23991Y-20042D01*
X23948Y-20061D01*
X23927Y-20099D01*
X23927Y-20156D01*
X23948Y-20194D01*
X23970Y-20213D01*
X24227Y-19680D02*
X23991Y-19680D01*
X23948Y-19699D01*
X23927Y-19737D01*
X23927Y-19813D01*
X23948Y-19852D01*
X24205Y-19680D02*
X24227Y-19718D01*
X24227Y-19813D01*
X24205Y-19852D01*
X24163Y-19871D01*
X24120Y-19871D01*
X24077Y-19852D01*
X24055Y-19813D01*
X24055Y-19718D01*
X24034Y-19680D01*
X23798Y-18975D02*
X23777Y-19013D01*
X23777Y-19071D01*
X23798Y-19128D01*
X23841Y-19166D01*
X23884Y-19185D01*
X23970Y-19204D01*
X24034Y-19204D01*
X24120Y-19185D01*
X24163Y-19166D01*
X24205Y-19128D01*
X24227Y-19071D01*
X24227Y-19032D01*
X24205Y-18975D01*
X24184Y-18956D01*
X24034Y-18956D01*
X24034Y-19032D01*
X24227Y-18785D02*
X23927Y-18785D01*
X23777Y-18785D02*
X23798Y-18804D01*
X23820Y-18785D01*
X23798Y-18766D01*
X23777Y-18785D01*
X23820Y-18785D01*
X23927Y-18652D02*
X23927Y-18499D01*
X23777Y-18594D02*
X24163Y-18594D01*
X24205Y-18575D01*
X24227Y-18537D01*
X24227Y-18499D01*
X24184Y-18366D02*
X24205Y-18347D01*
X24227Y-18366D01*
X24205Y-18385D01*
X24184Y-18366D01*
X24227Y-18366D01*
X23948Y-18366D02*
X23970Y-18347D01*
X23991Y-18366D01*
X23970Y-18385D01*
X23948Y-18366D01*
X23991Y-18366D01*
X23927Y-17928D02*
X23927Y-17775D01*
X24227Y-17871D02*
X23841Y-17871D01*
X23798Y-17852D01*
X23777Y-17813D01*
X23777Y-17775D01*
X23777Y-17566D02*
X23777Y-17528D01*
X23798Y-17490D01*
X23820Y-17471D01*
X23863Y-17452D01*
X23948Y-17432D01*
X24055Y-17432D01*
X24141Y-17452D01*
X24184Y-17471D01*
X24205Y-17490D01*
X24227Y-17528D01*
X24227Y-17566D01*
X24205Y-17604D01*
X24184Y-17623D01*
X24141Y-17642D01*
X24055Y-17661D01*
X23948Y-17661D01*
X23863Y-17642D01*
X23820Y-17623D01*
X23798Y-17604D01*
X23777Y-17566D01*
X23927Y-17318D02*
X23927Y-17166D01*
X24227Y-17261D02*
X23841Y-17261D01*
X23798Y-17242D01*
X23777Y-17204D01*
X23777Y-17166D01*
X23777Y-16956D02*
X23777Y-16918D01*
X23798Y-16880D01*
X23820Y-16861D01*
X23863Y-16842D01*
X23948Y-16823D01*
X24055Y-16823D01*
X24141Y-16842D01*
X24184Y-16861D01*
X24205Y-16880D01*
X24227Y-16918D01*
X24227Y-16956D01*
X24205Y-16994D01*
X24184Y-17013D01*
X24141Y-17032D01*
X24055Y-17052D01*
X23948Y-17052D01*
X23863Y-17032D01*
X23820Y-17013D01*
X23798Y-16994D01*
X23777Y-16956D01*
X23777Y-16575D02*
X23777Y-16537D01*
X23798Y-16499D01*
X23820Y-16480D01*
X23863Y-16461D01*
X23948Y-16442D01*
X24055Y-16442D01*
X24141Y-16461D01*
X24184Y-16480D01*
X24205Y-16499D01*
X24227Y-16537D01*
X24227Y-16575D01*
X24205Y-16613D01*
X24184Y-16632D01*
X24141Y-16652D01*
X24055Y-16671D01*
X23948Y-16671D01*
X23863Y-16652D01*
X23820Y-16632D01*
X23798Y-16613D01*
X23777Y-16575D01*
X23820Y-16290D02*
X23798Y-16271D01*
X23777Y-16232D01*
X23777Y-16137D01*
X23798Y-16099D01*
X23820Y-16080D01*
X23863Y-16061D01*
X23905Y-16061D01*
X23970Y-16080D01*
X24227Y-16309D01*
X24227Y-16061D01*
X23777Y-15718D02*
X23777Y-15794D01*
X23798Y-15832D01*
X23820Y-15852D01*
X23884Y-15890D01*
X23970Y-15909D01*
X24141Y-15909D01*
X24184Y-15890D01*
X24205Y-15871D01*
X24227Y-15832D01*
X24227Y-15756D01*
X24205Y-15718D01*
X24184Y-15699D01*
X24141Y-15680D01*
X24034Y-15680D01*
X23991Y-15699D01*
X23970Y-15718D01*
X23948Y-15756D01*
X23948Y-15832D01*
X23970Y-15871D01*
X23991Y-15890D01*
X24034Y-15909D01*
X24227Y-15337D02*
X23777Y-15337D01*
X24205Y-15337D02*
X24227Y-15375D01*
X24227Y-15452D01*
X24205Y-15490D01*
X24184Y-15509D01*
X24141Y-15528D01*
X24013Y-15528D01*
X23970Y-15509D01*
X23948Y-15490D01*
X23927Y-15452D01*
X23927Y-15375D01*
X23948Y-15337D01*
X24227Y-15147D02*
X23777Y-15147D01*
X23948Y-15147D02*
X23927Y-15109D01*
X23927Y-15032D01*
X23948Y-14994D01*
X23970Y-14975D01*
X24013Y-14956D01*
X24141Y-14956D01*
X24184Y-14975D01*
X24205Y-14994D01*
X24227Y-15032D01*
X24227Y-15109D01*
X24205Y-15147D01*
X24227Y-14785D02*
X23777Y-14785D01*
X23948Y-14785D02*
X23927Y-14747D01*
X23927Y-14671D01*
X23948Y-14632D01*
X23970Y-14613D01*
X24013Y-14594D01*
X24141Y-14594D01*
X24184Y-14613D01*
X24205Y-14632D01*
X24227Y-14671D01*
X24227Y-14747D01*
X24205Y-14785D01*
G54D14*
X30168Y-36824D02*
X30026Y-36824D01*
X30026Y-36524D01*
X30254Y-36809D02*
X30297Y-36824D01*
X30368Y-36824D01*
X30397Y-36809D01*
X30411Y-36795D01*
X30426Y-36767D01*
X30426Y-36738D01*
X30411Y-36709D01*
X30397Y-36695D01*
X30368Y-36681D01*
X30311Y-36667D01*
X30283Y-36652D01*
X30268Y-36638D01*
X30254Y-36609D01*
X30254Y-36581D01*
X30268Y-36552D01*
X30283Y-36538D01*
X30311Y-36524D01*
X30383Y-36524D01*
X30426Y-36538D01*
X30554Y-36824D02*
X30554Y-36524D01*
X30626Y-36524D01*
X30668Y-36538D01*
X30697Y-36567D01*
X30711Y-36595D01*
X30726Y-36652D01*
X30726Y-36695D01*
X30711Y-36752D01*
X30697Y-36781D01*
X30668Y-36809D01*
X30626Y-36824D01*
X30554Y-36824D01*
X30983Y-36624D02*
X30983Y-36824D01*
X30911Y-36509D02*
X30840Y-36724D01*
X31026Y-36724D01*
X29401Y-29570D02*
X29258Y-29570D01*
X29258Y-29270D01*
X29486Y-29555D02*
X29529Y-29570D01*
X29601Y-29570D01*
X29629Y-29555D01*
X29644Y-29541D01*
X29658Y-29513D01*
X29658Y-29484D01*
X29644Y-29455D01*
X29629Y-29441D01*
X29601Y-29427D01*
X29544Y-29413D01*
X29515Y-29398D01*
X29501Y-29384D01*
X29486Y-29355D01*
X29486Y-29327D01*
X29501Y-29298D01*
X29515Y-29284D01*
X29544Y-29270D01*
X29615Y-29270D01*
X29658Y-29284D01*
X29786Y-29570D02*
X29786Y-29270D01*
X29858Y-29270D01*
X29901Y-29284D01*
X29929Y-29313D01*
X29944Y-29341D01*
X29958Y-29398D01*
X29958Y-29441D01*
X29944Y-29498D01*
X29929Y-29527D01*
X29901Y-29555D01*
X29858Y-29570D01*
X29786Y-29570D01*
X30244Y-29570D02*
X30072Y-29570D01*
X30158Y-29570D02*
X30158Y-29270D01*
X30129Y-29313D01*
X30101Y-29341D01*
X30072Y-29355D01*
G54D24*
X34497Y-30167D02*
X34478Y-30186D01*
X34421Y-30205D01*
X34383Y-30205D01*
X34326Y-30186D01*
X34287Y-30148D01*
X34268Y-30109D01*
X34249Y-30033D01*
X34249Y-29976D01*
X34268Y-29900D01*
X34287Y-29862D01*
X34326Y-29824D01*
X34383Y-29805D01*
X34421Y-29805D01*
X34478Y-29824D01*
X34497Y-29843D01*
X34668Y-29995D02*
X34802Y-29995D01*
X34859Y-30205D02*
X34668Y-30205D01*
X34668Y-29805D01*
X34859Y-29805D01*
X35221Y-30205D02*
X35030Y-30205D01*
X35030Y-29805D01*
G54D17*
X39323Y-29256D02*
X39323Y-29113D01*
X39623Y-29113D01*
X39323Y-29399D02*
X39337Y-29370D01*
X39352Y-29356D01*
X39380Y-29342D01*
X39466Y-29342D01*
X39494Y-29356D01*
X39509Y-29370D01*
X39523Y-29399D01*
X39523Y-29442D01*
X39509Y-29470D01*
X39494Y-29485D01*
X39466Y-29499D01*
X39380Y-29499D01*
X39352Y-29485D01*
X39337Y-29470D01*
X39323Y-29442D01*
X39323Y-29399D01*
X39323Y-29756D02*
X39480Y-29756D01*
X39509Y-29742D01*
X39523Y-29713D01*
X39523Y-29656D01*
X39509Y-29628D01*
X39337Y-29756D02*
X39323Y-29728D01*
X39323Y-29656D01*
X39337Y-29628D01*
X39366Y-29613D01*
X39394Y-29613D01*
X39423Y-29628D01*
X39437Y-29656D01*
X39437Y-29728D01*
X39452Y-29756D01*
X39323Y-30028D02*
X39623Y-30028D01*
X39337Y-30028D02*
X39323Y-29999D01*
X39323Y-29942D01*
X39337Y-29913D01*
X39352Y-29899D01*
X39380Y-29885D01*
X39466Y-29885D01*
X39494Y-29899D01*
X39509Y-29913D01*
X39523Y-29942D01*
X39523Y-29999D01*
X39509Y-30028D01*
G54D24*
X48361Y-16703D02*
X48761Y-16703D01*
X48761Y-16856D01*
X48742Y-16894D01*
X48723Y-16913D01*
X48685Y-16932D01*
X48628Y-16932D01*
X48590Y-16913D01*
X48571Y-16894D01*
X48552Y-16856D01*
X48552Y-16703D01*
X48361Y-17161D02*
X48380Y-17122D01*
X48399Y-17103D01*
X48437Y-17084D01*
X48552Y-17084D01*
X48590Y-17103D01*
X48609Y-17122D01*
X48628Y-17161D01*
X48628Y-17218D01*
X48609Y-17256D01*
X48590Y-17275D01*
X48552Y-17294D01*
X48437Y-17294D01*
X48399Y-17275D01*
X48380Y-17256D01*
X48361Y-17218D01*
X48361Y-17161D01*
X48361Y-17465D02*
X48628Y-17465D01*
X48552Y-17465D02*
X48590Y-17484D01*
X48609Y-17503D01*
X48628Y-17541D01*
X48628Y-17580D01*
X48628Y-17656D02*
X48628Y-17808D01*
X48761Y-17713D02*
X48418Y-17713D01*
X48380Y-17732D01*
X48361Y-17770D01*
X48361Y-17808D01*
X48361Y-18246D02*
X48761Y-18246D01*
X48761Y-18399D01*
X48742Y-18437D01*
X48723Y-18456D01*
X48685Y-18475D01*
X48628Y-18475D01*
X48590Y-18456D01*
X48571Y-18437D01*
X48552Y-18399D01*
X48552Y-18246D01*
X48628Y-18818D02*
X48361Y-18818D01*
X48780Y-18722D02*
X48495Y-18627D01*
X48495Y-18875D01*
X48514Y-19027D02*
X48514Y-19332D01*
X48761Y-19484D02*
X48761Y-19751D01*
X48361Y-19580D01*
X39885Y-17571D02*
X39885Y-17171D01*
X40037Y-17171D01*
X40075Y-17190D01*
X40094Y-17210D01*
X40113Y-17248D01*
X40113Y-17305D01*
X40094Y-17343D01*
X40075Y-17362D01*
X40037Y-17381D01*
X39885Y-17381D01*
X40342Y-17571D02*
X40304Y-17552D01*
X40285Y-17533D01*
X40266Y-17495D01*
X40266Y-17381D01*
X40285Y-17343D01*
X40304Y-17324D01*
X40342Y-17305D01*
X40399Y-17305D01*
X40437Y-17324D01*
X40456Y-17343D01*
X40475Y-17381D01*
X40475Y-17495D01*
X40456Y-17533D01*
X40437Y-17552D01*
X40399Y-17571D01*
X40342Y-17571D01*
X40647Y-17571D02*
X40647Y-17305D01*
X40647Y-17381D02*
X40666Y-17343D01*
X40685Y-17324D01*
X40723Y-17305D01*
X40761Y-17305D01*
X40837Y-17305D02*
X40990Y-17305D01*
X40894Y-17171D02*
X40894Y-17514D01*
X40913Y-17552D01*
X40951Y-17571D01*
X40990Y-17571D01*
X41428Y-17571D02*
X41428Y-17171D01*
X41580Y-17171D01*
X41618Y-17190D01*
X41637Y-17210D01*
X41656Y-17248D01*
X41656Y-17305D01*
X41637Y-17343D01*
X41618Y-17362D01*
X41580Y-17381D01*
X41428Y-17381D01*
X41904Y-17171D02*
X41942Y-17171D01*
X41980Y-17190D01*
X41999Y-17210D01*
X42018Y-17248D01*
X42037Y-17324D01*
X42037Y-17419D01*
X42018Y-17495D01*
X41999Y-17533D01*
X41980Y-17552D01*
X41942Y-17571D01*
X41904Y-17571D01*
X41866Y-17552D01*
X41847Y-17533D01*
X41828Y-17495D01*
X41809Y-17419D01*
X41809Y-17324D01*
X41828Y-17248D01*
X41847Y-17210D01*
X41866Y-17190D01*
X41904Y-17171D01*
X42209Y-17419D02*
X42513Y-17419D01*
X42666Y-17171D02*
X42913Y-17171D01*
X42780Y-17324D01*
X42837Y-17324D01*
X42875Y-17343D01*
X42894Y-17362D01*
X42913Y-17400D01*
X42913Y-17495D01*
X42894Y-17533D01*
X42875Y-17552D01*
X42837Y-17571D01*
X42723Y-17571D01*
X42685Y-17552D01*
X42666Y-17533D01*
X34680Y-14484D02*
X35080Y-14484D01*
X35080Y-14637D01*
X35061Y-14675D01*
X35042Y-14694D01*
X35003Y-14713D01*
X34946Y-14713D01*
X34908Y-14694D01*
X34889Y-14675D01*
X34870Y-14637D01*
X34870Y-14484D01*
X34680Y-14942D02*
X34699Y-14903D01*
X34718Y-14884D01*
X34756Y-14865D01*
X34870Y-14865D01*
X34908Y-14884D01*
X34927Y-14903D01*
X34946Y-14942D01*
X34946Y-14999D01*
X34927Y-15037D01*
X34908Y-15056D01*
X34870Y-15075D01*
X34756Y-15075D01*
X34718Y-15056D01*
X34699Y-15037D01*
X34680Y-14999D01*
X34680Y-14942D01*
X34680Y-15246D02*
X34946Y-15246D01*
X34870Y-15246D02*
X34908Y-15265D01*
X34927Y-15284D01*
X34946Y-15322D01*
X34946Y-15361D01*
X34946Y-15437D02*
X34946Y-15589D01*
X35080Y-15494D02*
X34737Y-15494D01*
X34699Y-15513D01*
X34680Y-15551D01*
X34680Y-15589D01*
X34889Y-16161D02*
X34870Y-16218D01*
X34851Y-16237D01*
X34813Y-16256D01*
X34756Y-16256D01*
X34718Y-16237D01*
X34699Y-16218D01*
X34680Y-16180D01*
X34680Y-16027D01*
X35080Y-16027D01*
X35080Y-16161D01*
X35061Y-16199D01*
X35042Y-16218D01*
X35003Y-16237D01*
X34965Y-16237D01*
X34927Y-16218D01*
X34908Y-16199D01*
X34889Y-16161D01*
X34889Y-16027D01*
X35080Y-16503D02*
X35080Y-16541D01*
X35061Y-16580D01*
X35042Y-16599D01*
X35003Y-16618D01*
X34927Y-16637D01*
X34832Y-16637D01*
X34756Y-16618D01*
X34718Y-16599D01*
X34699Y-16580D01*
X34680Y-16541D01*
X34680Y-16503D01*
X34699Y-16465D01*
X34718Y-16446D01*
X34756Y-16427D01*
X34832Y-16408D01*
X34927Y-16408D01*
X35003Y-16427D01*
X35042Y-16446D01*
X35061Y-16465D01*
X35080Y-16503D01*
X34832Y-16808D02*
X34832Y-17113D01*
X35080Y-17265D02*
X35080Y-17532D01*
X34680Y-17361D01*
G54D16*
X37141Y-12975D02*
X37541Y-12975D01*
X37541Y-13128D01*
X37522Y-13166D01*
X37503Y-13185D01*
X37464Y-13204D01*
X37407Y-13204D01*
X37369Y-13185D01*
X37350Y-13166D01*
X37331Y-13128D01*
X37331Y-12975D01*
X37141Y-13433D02*
X37160Y-13394D01*
X37179Y-13375D01*
X37217Y-13356D01*
X37331Y-13356D01*
X37369Y-13375D01*
X37388Y-13394D01*
X37407Y-13433D01*
X37407Y-13490D01*
X37388Y-13528D01*
X37369Y-13547D01*
X37331Y-13566D01*
X37217Y-13566D01*
X37179Y-13547D01*
X37160Y-13528D01*
X37141Y-13490D01*
X37141Y-13433D01*
X37141Y-13737D02*
X37407Y-13737D01*
X37331Y-13737D02*
X37369Y-13756D01*
X37388Y-13775D01*
X37407Y-13813D01*
X37407Y-13852D01*
X37407Y-13928D02*
X37407Y-14080D01*
X37541Y-13985D02*
X37198Y-13985D01*
X37160Y-14004D01*
X37141Y-14042D01*
X37141Y-14080D01*
X37541Y-14461D02*
X37541Y-14690D01*
X37141Y-14575D02*
X37541Y-14575D01*
X37407Y-14994D02*
X37141Y-14994D01*
X37560Y-14899D02*
X37274Y-14804D01*
X37274Y-15052D01*
X37293Y-15204D02*
X37293Y-15509D01*
X37541Y-15661D02*
X37541Y-15928D01*
X37141Y-15756D01*
G54D17*
X54067Y-10207D02*
X54067Y-10450D01*
X54081Y-10478D01*
X54095Y-10493D01*
X54124Y-10507D01*
X54181Y-10507D01*
X54210Y-10493D01*
X54224Y-10478D01*
X54238Y-10450D01*
X54238Y-10207D01*
X54367Y-10493D02*
X54410Y-10507D01*
X54481Y-10507D01*
X54510Y-10493D01*
X54524Y-10478D01*
X54538Y-10450D01*
X54538Y-10421D01*
X54524Y-10393D01*
X54510Y-10378D01*
X54481Y-10364D01*
X54424Y-10350D01*
X54395Y-10336D01*
X54381Y-10321D01*
X54367Y-10293D01*
X54367Y-10264D01*
X54381Y-10236D01*
X54395Y-10221D01*
X54424Y-10207D01*
X54495Y-10207D01*
X54538Y-10221D01*
X54767Y-10350D02*
X54810Y-10364D01*
X54824Y-10378D01*
X54838Y-10407D01*
X54838Y-10450D01*
X54824Y-10478D01*
X54810Y-10493D01*
X54781Y-10507D01*
X54667Y-10507D01*
X54667Y-10207D01*
X54767Y-10207D01*
X54795Y-10221D01*
X54810Y-10236D01*
X54824Y-10264D01*
X54824Y-10293D01*
X54810Y-10321D01*
X54795Y-10336D01*
X54767Y-10350D01*
X54667Y-10350D01*
X55195Y-10207D02*
X55195Y-10450D01*
X55210Y-10478D01*
X55224Y-10493D01*
X55252Y-10507D01*
X55310Y-10507D01*
X55338Y-10493D01*
X55352Y-10478D01*
X55367Y-10450D01*
X55367Y-10207D01*
X55495Y-10421D02*
X55638Y-10421D01*
X55467Y-10507D02*
X55567Y-10207D01*
X55667Y-10507D01*
X55938Y-10507D02*
X55838Y-10364D01*
X55767Y-10507D02*
X55767Y-10207D01*
X55881Y-10207D01*
X55910Y-10221D01*
X55924Y-10236D01*
X55938Y-10264D01*
X55938Y-10307D01*
X55924Y-10336D01*
X55910Y-10350D01*
X55881Y-10364D01*
X55767Y-10364D01*
X56024Y-10207D02*
X56195Y-10207D01*
X56110Y-10507D02*
X56110Y-10207D01*
G54D24*
X61939Y-37549D02*
X61939Y-37358D01*
X62082Y-37587D02*
X61582Y-37453D01*
X62082Y-37320D01*
X61749Y-37187D02*
X62082Y-37187D01*
X61796Y-37187D02*
X61772Y-37168D01*
X61749Y-37129D01*
X61749Y-37072D01*
X61772Y-37034D01*
X61820Y-37015D01*
X62082Y-37015D01*
X62082Y-36653D02*
X61820Y-36653D01*
X61772Y-36672D01*
X61749Y-36710D01*
X61749Y-36787D01*
X61772Y-36825D01*
X62058Y-36653D02*
X62082Y-36691D01*
X62082Y-36787D01*
X62058Y-36825D01*
X62010Y-36844D01*
X61963Y-36844D01*
X61915Y-36825D01*
X61891Y-36787D01*
X61891Y-36691D01*
X61868Y-36653D01*
X62082Y-36406D02*
X62058Y-36444D01*
X62010Y-36463D01*
X61582Y-36463D01*
X62082Y-36196D02*
X62058Y-36234D01*
X62034Y-36253D01*
X61987Y-36272D01*
X61844Y-36272D01*
X61796Y-36253D01*
X61772Y-36234D01*
X61749Y-36196D01*
X61749Y-36139D01*
X61772Y-36101D01*
X61796Y-36082D01*
X61844Y-36063D01*
X61987Y-36063D01*
X62034Y-36082D01*
X62058Y-36101D01*
X62082Y-36139D01*
X62082Y-36196D01*
X61749Y-35720D02*
X62153Y-35720D01*
X62201Y-35739D01*
X62225Y-35758D01*
X62249Y-35796D01*
X62249Y-35853D01*
X62225Y-35891D01*
X62058Y-35720D02*
X62082Y-35758D01*
X62082Y-35834D01*
X62058Y-35872D01*
X62034Y-35891D01*
X61987Y-35910D01*
X61844Y-35910D01*
X61796Y-35891D01*
X61772Y-35872D01*
X61749Y-35834D01*
X61749Y-35758D01*
X61772Y-35720D01*
X61582Y-35034D02*
X61582Y-35225D01*
X61820Y-35244D01*
X61796Y-35225D01*
X61772Y-35187D01*
X61772Y-35091D01*
X61796Y-35053D01*
X61820Y-35034D01*
X61868Y-35015D01*
X61987Y-35015D01*
X62034Y-35034D01*
X62058Y-35053D01*
X62082Y-35091D01*
X62082Y-35187D01*
X62058Y-35225D01*
X62034Y-35244D01*
X61749Y-34882D02*
X62082Y-34787D01*
X61749Y-34691D01*
X61984Y-12780D02*
X62008Y-12800D01*
X62032Y-12857D01*
X62032Y-12895D01*
X62008Y-12952D01*
X61960Y-12990D01*
X61913Y-13009D01*
X61818Y-13028D01*
X61746Y-13028D01*
X61651Y-13009D01*
X61603Y-12990D01*
X61556Y-12952D01*
X61532Y-12895D01*
X61532Y-12857D01*
X61556Y-12800D01*
X61580Y-12780D01*
X62032Y-12609D02*
X61532Y-12609D01*
X61532Y-12457D01*
X61556Y-12419D01*
X61580Y-12400D01*
X61627Y-12380D01*
X61699Y-12380D01*
X61746Y-12400D01*
X61770Y-12419D01*
X61794Y-12457D01*
X61794Y-12609D01*
X61532Y-12209D02*
X61937Y-12209D01*
X61984Y-12190D01*
X62008Y-12171D01*
X62032Y-12133D01*
X62032Y-12057D01*
X62008Y-12019D01*
X61984Y-12000D01*
X61937Y-11980D01*
X61532Y-11980D01*
X61532Y-11295D02*
X61532Y-11485D01*
X61770Y-11504D01*
X61746Y-11485D01*
X61722Y-11447D01*
X61722Y-11352D01*
X61746Y-11314D01*
X61770Y-11295D01*
X61818Y-11276D01*
X61937Y-11276D01*
X61984Y-11295D01*
X62008Y-11314D01*
X62032Y-11352D01*
X62032Y-11447D01*
X62008Y-11485D01*
X61984Y-11504D01*
X61699Y-11142D02*
X62032Y-11047D01*
X61699Y-10952D01*
G54D14*
X40002Y-14767D02*
X39902Y-14624D01*
X39831Y-14767D02*
X39831Y-14467D01*
X39945Y-14467D01*
X39973Y-14481D01*
X39988Y-14496D01*
X40002Y-14524D01*
X40002Y-14567D01*
X39988Y-14596D01*
X39973Y-14610D01*
X39945Y-14624D01*
X39831Y-14624D01*
X40131Y-14767D02*
X40131Y-14467D01*
X40245Y-14467D01*
X40273Y-14481D01*
X40288Y-14496D01*
X40302Y-14524D01*
X40302Y-14567D01*
X40288Y-14596D01*
X40273Y-14610D01*
X40245Y-14624D01*
X40131Y-14624D01*
X40431Y-14767D02*
X40431Y-14467D01*
X40531Y-14681D01*
X40631Y-14467D01*
X40631Y-14767D01*
X41002Y-14767D02*
X41002Y-14467D01*
X41145Y-14567D02*
X41145Y-14767D01*
X41145Y-14596D02*
X41159Y-14581D01*
X41188Y-14567D01*
X41230Y-14567D01*
X41259Y-14581D01*
X41273Y-14610D01*
X41273Y-14767D01*
X41416Y-14567D02*
X41416Y-14867D01*
X41416Y-14581D02*
X41445Y-14567D01*
X41502Y-14567D01*
X41530Y-14581D01*
X41545Y-14596D01*
X41559Y-14624D01*
X41559Y-14710D01*
X41545Y-14738D01*
X41530Y-14753D01*
X41502Y-14767D01*
X41445Y-14767D01*
X41416Y-14753D01*
X41816Y-14567D02*
X41816Y-14767D01*
X41688Y-14567D02*
X41688Y-14724D01*
X41702Y-14753D01*
X41731Y-14767D01*
X41773Y-14767D01*
X41802Y-14753D01*
X41816Y-14738D01*
X41916Y-14567D02*
X42031Y-14567D01*
X41959Y-14467D02*
X41959Y-14724D01*
X41973Y-14753D01*
X42002Y-14767D01*
X42031Y-14767D01*
X42116Y-14753D02*
X42145Y-14767D01*
X42202Y-14767D01*
X42231Y-14753D01*
X42245Y-14724D01*
X42245Y-14710D01*
X42231Y-14681D01*
X42202Y-14667D01*
X42159Y-14667D01*
X42131Y-14653D01*
X42116Y-14624D01*
X42116Y-14610D01*
X42131Y-14581D01*
X42159Y-14567D01*
X42202Y-14567D01*
X42231Y-14581D01*
G54D16*
X25643Y-14649D02*
X25643Y-14299D01*
X25959Y-14416D02*
X25959Y-14699D01*
X25943Y-14733D01*
X25926Y-14749D01*
X25893Y-14766D01*
X25843Y-14766D01*
X25809Y-14749D01*
X25959Y-14633D02*
X25926Y-14649D01*
X25859Y-14649D01*
X25826Y-14633D01*
X25809Y-14616D01*
X25793Y-14583D01*
X25793Y-14483D01*
X25809Y-14449D01*
X25826Y-14433D01*
X25859Y-14416D01*
X25926Y-14416D01*
X25959Y-14433D01*
X26126Y-14416D02*
X26126Y-14649D01*
X26126Y-14449D02*
X26143Y-14433D01*
X26176Y-14416D01*
X26226Y-14416D01*
X26259Y-14433D01*
X26276Y-14466D01*
X26276Y-14649D01*
X26443Y-14649D02*
X26443Y-14416D01*
X26443Y-14299D02*
X26426Y-14316D01*
X26443Y-14333D01*
X26459Y-14316D01*
X26443Y-14299D01*
X26443Y-14333D01*
X26559Y-14416D02*
X26693Y-14416D01*
X26609Y-14299D02*
X26609Y-14599D01*
X26626Y-14633D01*
X26659Y-14649D01*
X26693Y-14649D01*
X26809Y-14649D02*
X26809Y-14416D01*
X26809Y-14299D02*
X26793Y-14316D01*
X26809Y-14333D01*
X26826Y-14316D01*
X26809Y-14299D01*
X26809Y-14333D01*
X27026Y-14649D02*
X26993Y-14633D01*
X26976Y-14616D01*
X26959Y-14583D01*
X26959Y-14483D01*
X26976Y-14449D01*
X26993Y-14433D01*
X27026Y-14416D01*
X27076Y-14416D01*
X27109Y-14433D01*
X27126Y-14449D01*
X27143Y-14483D01*
X27143Y-14583D01*
X27126Y-14616D01*
X27109Y-14633D01*
X27076Y-14649D01*
X27026Y-14649D01*
X27293Y-14416D02*
X27293Y-14649D01*
X27293Y-14449D02*
X27309Y-14433D01*
X27343Y-14416D01*
X27393Y-14416D01*
X27426Y-14433D01*
X27443Y-14466D01*
X27443Y-14649D01*
X25693Y-14859D02*
X25759Y-14859D01*
X25793Y-14876D01*
X25826Y-14909D01*
X25843Y-14976D01*
X25843Y-15093D01*
X25826Y-15159D01*
X25793Y-15193D01*
X25759Y-15209D01*
X25693Y-15209D01*
X25659Y-15193D01*
X25626Y-15159D01*
X25609Y-15093D01*
X25609Y-14976D01*
X25626Y-14909D01*
X25659Y-14876D01*
X25693Y-14859D01*
X26143Y-14976D02*
X26143Y-15209D01*
X25993Y-14976D02*
X25993Y-15159D01*
X26009Y-15193D01*
X26043Y-15209D01*
X26093Y-15209D01*
X26126Y-15193D01*
X26143Y-15176D01*
X26259Y-14976D02*
X26393Y-14976D01*
X26309Y-14859D02*
X26309Y-15159D01*
X26326Y-15193D01*
X26359Y-15209D01*
X26393Y-15209D01*
X26509Y-14976D02*
X26509Y-15326D01*
X26509Y-14993D02*
X26543Y-14976D01*
X26609Y-14976D01*
X26643Y-14993D01*
X26659Y-15009D01*
X26676Y-15043D01*
X26676Y-15143D01*
X26659Y-15176D01*
X26643Y-15193D01*
X26609Y-15209D01*
X26543Y-15209D01*
X26509Y-15193D01*
X26976Y-14976D02*
X26976Y-15209D01*
X26826Y-14976D02*
X26826Y-15159D01*
X26843Y-15193D01*
X26876Y-15209D01*
X26926Y-15209D01*
X26959Y-15193D01*
X26976Y-15176D01*
X27093Y-14976D02*
X27226Y-14976D01*
X27143Y-14859D02*
X27143Y-15159D01*
X27159Y-15193D01*
X27193Y-15209D01*
X27226Y-15209D01*
X27326Y-15193D02*
X27359Y-15209D01*
X27426Y-15209D01*
X27459Y-15193D01*
X27476Y-15159D01*
X27476Y-15143D01*
X27459Y-15109D01*
X27426Y-15093D01*
X27376Y-15093D01*
X27343Y-15076D01*
X27326Y-15043D01*
X27326Y-15026D01*
X27343Y-14993D01*
X27376Y-14976D01*
X27426Y-14976D01*
X27459Y-14993D01*
G54D18*
X56152Y-28210D02*
X56152Y-27710D01*
X56318Y-28067D01*
X56485Y-27710D01*
X56485Y-28210D01*
X56699Y-28067D02*
X56937Y-28067D01*
X56652Y-28210D02*
X56818Y-27710D01*
X56985Y-28210D01*
X57152Y-28210D02*
X57152Y-27710D01*
X57342Y-27710D01*
X57390Y-27734D01*
X57413Y-27758D01*
X57437Y-27805D01*
X57437Y-27877D01*
X57413Y-27924D01*
X57390Y-27948D01*
X57342Y-27972D01*
X57152Y-27972D01*
X50889Y-35463D02*
X51174Y-35463D01*
X51031Y-35963D02*
X51031Y-35463D01*
X51341Y-35963D02*
X51341Y-35463D01*
X51531Y-35463D01*
X51579Y-35487D01*
X51603Y-35511D01*
X51627Y-35558D01*
X51627Y-35630D01*
X51603Y-35677D01*
X51579Y-35701D01*
X51531Y-35725D01*
X51341Y-35725D01*
X51817Y-35939D02*
X51889Y-35963D01*
X52008Y-35963D01*
X52055Y-35939D01*
X52079Y-35915D01*
X52103Y-35868D01*
X52103Y-35820D01*
X52079Y-35772D01*
X52055Y-35749D01*
X52008Y-35725D01*
X51912Y-35701D01*
X51865Y-35677D01*
X51841Y-35653D01*
X51817Y-35606D01*
X51817Y-35558D01*
X51841Y-35511D01*
X51865Y-35487D01*
X51912Y-35463D01*
X52031Y-35463D01*
X52103Y-35487D01*
G54D16*
X51414Y-33092D02*
X51547Y-33092D01*
X51604Y-33301D02*
X51414Y-33301D01*
X51414Y-32901D01*
X51604Y-32901D01*
X51985Y-32920D02*
X51947Y-32901D01*
X51890Y-32901D01*
X51833Y-32920D01*
X51795Y-32958D01*
X51776Y-32996D01*
X51757Y-33073D01*
X51757Y-33130D01*
X51776Y-33206D01*
X51795Y-33244D01*
X51833Y-33282D01*
X51890Y-33301D01*
X51928Y-33301D01*
X51985Y-33282D01*
X52004Y-33263D01*
X52004Y-33130D01*
X51928Y-33130D01*
X52252Y-32901D02*
X52328Y-32901D01*
X52366Y-32920D01*
X52404Y-32958D01*
X52423Y-33035D01*
X52423Y-33168D01*
X52404Y-33244D01*
X52366Y-33282D01*
X52328Y-33301D01*
X52252Y-33301D01*
X52214Y-33282D01*
X52176Y-33244D01*
X52157Y-33168D01*
X52157Y-33035D01*
X52176Y-32958D01*
X52214Y-32920D01*
X52252Y-32901D01*
G54D25*
X44811Y-35174D02*
X44862Y-35191D01*
X44879Y-35208D01*
X44895Y-35241D01*
X44895Y-35292D01*
X44879Y-35326D01*
X44862Y-35343D01*
X44828Y-35359D01*
X44693Y-35359D01*
X44693Y-35005D01*
X44811Y-35005D01*
X44845Y-35022D01*
X44862Y-35039D01*
X44879Y-35073D01*
X44879Y-35106D01*
X44862Y-35140D01*
X44845Y-35157D01*
X44811Y-35174D01*
X44693Y-35174D01*
X45250Y-35359D02*
X45132Y-35191D01*
X45047Y-35359D02*
X45047Y-35005D01*
X45182Y-35005D01*
X45216Y-35022D01*
X45233Y-35039D01*
X45250Y-35073D01*
X45250Y-35123D01*
X45233Y-35157D01*
X45216Y-35174D01*
X45182Y-35191D01*
X45047Y-35191D01*
X45351Y-35005D02*
X45469Y-35359D01*
X45587Y-35005D01*
X45705Y-35224D02*
X45975Y-35224D01*
X46330Y-35359D02*
X46127Y-35359D01*
X46228Y-35359D02*
X46228Y-35005D01*
X46195Y-35056D01*
X46161Y-35089D01*
X46127Y-35106D01*
X46465Y-35039D02*
X46482Y-35022D01*
X46515Y-35005D01*
X46600Y-35005D01*
X46633Y-35022D01*
X46650Y-35039D01*
X46667Y-35073D01*
X46667Y-35106D01*
X46650Y-35157D01*
X46448Y-35359D01*
X46667Y-35359D01*
X46785Y-35123D02*
X46870Y-35359D01*
X46954Y-35123D01*
G54D13*
X40362Y-34925D02*
X40348Y-34939D01*
X40305Y-34954D01*
X40277Y-34954D01*
X40234Y-34939D01*
X40205Y-34911D01*
X40191Y-34882D01*
X40177Y-34825D01*
X40177Y-34782D01*
X40191Y-34725D01*
X40205Y-34696D01*
X40234Y-34668D01*
X40277Y-34654D01*
X40305Y-34654D01*
X40348Y-34668D01*
X40362Y-34682D01*
X40491Y-34954D02*
X40491Y-34654D01*
X40491Y-34796D02*
X40662Y-34796D01*
X40662Y-34954D02*
X40662Y-34654D01*
X40762Y-34654D02*
X40934Y-34654D01*
X40848Y-34954D02*
X40848Y-34654D01*
G54D18*
X40367Y-32383D02*
X40367Y-31883D01*
X40581Y-32240D02*
X40819Y-32240D01*
X40533Y-32383D02*
X40700Y-31883D01*
X40867Y-32383D01*
X40962Y-31883D02*
X41248Y-31883D01*
X41105Y-32383D02*
X41105Y-31883D01*
G54D25*
X49199Y-35451D02*
X49250Y-35468D01*
X49334Y-35468D01*
X49368Y-35451D01*
X49385Y-35434D01*
X49402Y-35400D01*
X49402Y-35366D01*
X49385Y-35333D01*
X49368Y-35316D01*
X49334Y-35299D01*
X49267Y-35282D01*
X49233Y-35265D01*
X49216Y-35248D01*
X49199Y-35215D01*
X49199Y-35181D01*
X49216Y-35147D01*
X49233Y-35130D01*
X49267Y-35113D01*
X49351Y-35113D01*
X49402Y-35130D01*
X49554Y-35468D02*
X49554Y-35113D01*
X49689Y-35113D01*
X49723Y-35130D01*
X49739Y-35147D01*
X49756Y-35181D01*
X49756Y-35232D01*
X49739Y-35265D01*
X49723Y-35282D01*
X49689Y-35299D01*
X49554Y-35299D01*
X50111Y-35468D02*
X49992Y-35299D01*
X49908Y-35468D02*
X49908Y-35113D01*
X50043Y-35113D01*
X50077Y-35130D01*
X50094Y-35147D01*
X50111Y-35181D01*
X50111Y-35232D01*
X50094Y-35265D01*
X50077Y-35282D01*
X50043Y-35299D01*
X49908Y-35299D01*
G54D26*
X13760Y-39080D02*
X13760Y-9080D01*
X63760Y-39080D02*
X13760Y-39080D01*
X63760Y-9080D02*
X63760Y-39080D01*
X13760Y-9080D02*
X63760Y-9080D01*
G54D14*
X60647Y-26680D02*
X60647Y-26940D01*
X59897Y-26680D02*
X59897Y-26940D01*
X60272Y-26130D02*
X60272Y-25870D01*
X59682Y-26130D02*
X60862Y-26130D01*
X60862Y-26130D02*
X60862Y-26680D01*
X60862Y-26680D02*
X59682Y-26680D01*
X59682Y-26680D02*
X59682Y-26130D01*
G54D24*
X47454Y-13586D02*
X47454Y-15074D01*
X47454Y-15074D02*
X45573Y-15074D01*
X45573Y-13586D02*
X47454Y-13586D01*
X45566Y-15074D02*
X45566Y-13586D01*
X45804Y-14890D02*
G75*
G03X45804Y-14890I-55J0D01*
G74*
G01*
X45210Y-19380D02*
G75*
G03X45210Y-19380I-250J0D01*
G74*
G01*
X45435Y-26630D02*
X45435Y-19030D01*
X37585Y-19030D02*
X37585Y-26630D01*
X37710Y-18905D02*
X45310Y-18905D01*
X45310Y-26755D02*
X37710Y-26755D01*
X37585Y-26630D02*
X37710Y-26755D01*
X45435Y-26630D02*
X45310Y-26755D01*
X37585Y-19030D02*
X37710Y-18905D01*
X45435Y-19030D02*
X45310Y-18905D01*
G54D14*
X53101Y-17930D02*
G75*
G03X53101Y-17930I-141J0D01*
G74*
G01*
X52760Y-16830D02*
X53060Y-16830D01*
X53060Y-16830D02*
X53060Y-17330D01*
X53060Y-17330D02*
X52760Y-17330D01*
X56810Y-18130D02*
X52760Y-18130D01*
X52760Y-16030D02*
X56810Y-16030D01*
X52760Y-16030D02*
X52760Y-18130D01*
X56810Y-16030D02*
X56810Y-18130D01*
G54D24*
X19043Y-14445D02*
X21443Y-14445D01*
X21443Y-14445D02*
X21443Y-17145D01*
X21443Y-17145D02*
X18343Y-17145D01*
X18293Y-17145D02*
X18293Y-14445D01*
X18343Y-14445D02*
X19043Y-14445D01*
X19048Y-20480D02*
X21448Y-20480D01*
X21448Y-20480D02*
X21448Y-23180D01*
X21448Y-23180D02*
X18348Y-23180D01*
X18298Y-23180D02*
X18298Y-20480D01*
X18348Y-20480D02*
X19048Y-20480D01*
X19048Y-17480D02*
X21448Y-17480D01*
X21448Y-17480D02*
X21448Y-20180D01*
X21448Y-20180D02*
X18348Y-20180D01*
X18298Y-20180D02*
X18298Y-17480D01*
X18348Y-17480D02*
X19048Y-17480D01*
X19048Y-26480D02*
X21448Y-26480D01*
X21448Y-26480D02*
X21448Y-29180D01*
X21448Y-29180D02*
X18348Y-29180D01*
X18298Y-29180D02*
X18298Y-26480D01*
X18348Y-26480D02*
X19048Y-26480D01*
X19048Y-29480D02*
X21448Y-29480D01*
X21448Y-29480D02*
X21448Y-32180D01*
X21448Y-32180D02*
X18348Y-32180D01*
X18298Y-32180D02*
X18298Y-29480D01*
X18348Y-29480D02*
X19048Y-29480D01*
X19067Y-35437D02*
X21467Y-35437D01*
X21467Y-35437D02*
X21467Y-38137D01*
X21467Y-38137D02*
X18367Y-38137D01*
X18317Y-38137D02*
X18317Y-35437D01*
X18367Y-35437D02*
X19067Y-35437D01*
X19048Y-32480D02*
X21448Y-32480D01*
X21448Y-32480D02*
X21448Y-35180D01*
X21448Y-35180D02*
X18348Y-35180D01*
X18298Y-35180D02*
X18298Y-32480D01*
X18348Y-32480D02*
X19048Y-32480D01*
X19058Y-23460D02*
X21458Y-23460D01*
X21458Y-23460D02*
X21458Y-26160D01*
X21458Y-26160D02*
X18358Y-26160D01*
X18308Y-26160D02*
X18308Y-23460D01*
X18358Y-23460D02*
X19058Y-23460D01*
G54D14*
X52160Y-21870D02*
X50600Y-21870D01*
X50600Y-21870D02*
X50600Y-23770D01*
X50600Y-23770D02*
X52160Y-23770D01*
X52160Y-23770D02*
X52160Y-21870D01*
X52160Y-22070D02*
X52590Y-22070D01*
X52160Y-22570D02*
X52590Y-22570D01*
X52160Y-23070D02*
X52590Y-23070D01*
X52590Y-23570D02*
X52160Y-23570D01*
X50600Y-23570D02*
X50170Y-23570D01*
X50170Y-23070D02*
X50600Y-23070D01*
X50170Y-22570D02*
X50600Y-22570D01*
X50170Y-22070D02*
X50600Y-22070D01*
X51076Y-22160D02*
G75*
G03X51076Y-22160I-186J0D01*
G74*
G01*
X56108Y-19671D02*
X56608Y-19671D01*
X56108Y-20171D02*
X56598Y-20171D01*
X56108Y-20321D02*
X56108Y-19521D01*
X56108Y-19521D02*
X56608Y-19521D01*
X56608Y-19521D02*
X56608Y-20321D01*
X56608Y-20321D02*
X56108Y-20321D01*
X29673Y-12938D02*
X31233Y-12938D01*
X31233Y-12938D02*
X31233Y-11038D01*
X31233Y-11038D02*
X29673Y-11038D01*
X29673Y-11038D02*
X29673Y-12938D01*
X29673Y-12738D02*
X29243Y-12738D01*
X29673Y-12238D02*
X29243Y-12238D01*
X29673Y-11738D02*
X29243Y-11738D01*
X29243Y-11238D02*
X29673Y-11238D01*
X31233Y-11238D02*
X31663Y-11238D01*
X31663Y-11738D02*
X31233Y-11738D01*
X31663Y-12238D02*
X31233Y-12238D01*
X31663Y-12738D02*
X31233Y-12738D01*
X31129Y-12648D02*
G75*
G03X31129Y-12648I-186J0D01*
G74*
G01*
X19043Y-12997D02*
X20603Y-12997D01*
X20603Y-12997D02*
X20603Y-11097D01*
X20603Y-11097D02*
X19043Y-11097D01*
X19043Y-11097D02*
X19043Y-12997D01*
X19043Y-12797D02*
X18613Y-12797D01*
X19043Y-12297D02*
X18613Y-12297D01*
X19043Y-11797D02*
X18613Y-11797D01*
X18613Y-11297D02*
X19043Y-11297D01*
X20603Y-11297D02*
X21033Y-11297D01*
X21033Y-11797D02*
X20603Y-11797D01*
X21033Y-12297D02*
X20603Y-12297D01*
X21033Y-12797D02*
X20603Y-12797D01*
X20499Y-12707D02*
G75*
G03X20499Y-12707I-186J0D01*
G74*
G01*
X49981Y-37399D02*
X49981Y-36759D01*
X49081Y-36759D02*
X49081Y-37399D01*
X48901Y-36759D02*
X48901Y-37399D01*
X48901Y-37399D02*
X50161Y-37399D01*
X50161Y-37399D02*
X50161Y-36759D01*
X50161Y-36759D02*
X48901Y-36759D01*
G54D27*
X63759Y-17595D02*
X62069Y-17595D01*
X62069Y-17595D02*
X62069Y-15006D01*
X62069Y-15006D02*
X63759Y-15006D01*
G54D26*
X63759Y-15006D02*
X63759Y-17595D01*
G54D14*
X61636Y-29517D02*
X62136Y-29517D01*
X61636Y-30017D02*
X62126Y-30017D01*
X61636Y-30167D02*
X61636Y-29367D01*
X61636Y-29367D02*
X62136Y-29367D01*
X62136Y-29367D02*
X62136Y-30167D01*
X62136Y-30167D02*
X61636Y-30167D01*
X61884Y-26628D02*
X61384Y-26628D01*
X61884Y-26128D02*
X61394Y-26128D01*
X61884Y-25978D02*
X61884Y-26778D01*
X61884Y-26778D02*
X61384Y-26778D01*
X61384Y-26778D02*
X61384Y-25978D01*
X61384Y-25978D02*
X61884Y-25978D01*
X61636Y-31017D02*
X62136Y-31017D01*
X61636Y-31517D02*
X62126Y-31517D01*
X61636Y-31667D02*
X61636Y-30867D01*
X61636Y-30867D02*
X62136Y-30867D01*
X62136Y-30867D02*
X62136Y-31667D01*
X62136Y-31667D02*
X61636Y-31667D01*
X61636Y-28037D02*
X62136Y-28037D01*
X61636Y-28537D02*
X62126Y-28537D01*
X61636Y-28687D02*
X61636Y-27887D01*
X61636Y-27887D02*
X62136Y-27887D01*
X62136Y-27887D02*
X62136Y-28687D01*
X62136Y-28687D02*
X61636Y-28687D01*
X58592Y-26306D02*
X57952Y-26306D01*
X57952Y-27206D02*
X58592Y-27206D01*
X57952Y-27386D02*
X58592Y-27386D01*
X58592Y-27386D02*
X58592Y-26126D01*
X58592Y-26126D02*
X57952Y-26126D01*
X57952Y-26126D02*
X57952Y-27386D01*
X59640Y-19802D02*
X59640Y-19332D01*
X59640Y-19332D02*
X61770Y-19332D01*
X61770Y-19332D02*
X61770Y-19807D01*
X61385Y-22167D02*
X61385Y-23312D01*
X61835Y-23312D02*
X61835Y-22167D01*
X61385Y-23312D02*
X61835Y-23312D01*
X59575Y-23312D02*
X60025Y-23312D01*
X60025Y-23312D02*
X60025Y-22167D01*
X59575Y-22167D02*
X59575Y-23312D01*
X62025Y-22167D02*
X62025Y-19807D01*
X62025Y-19807D02*
X59385Y-19807D01*
X59385Y-19807D02*
X59385Y-22167D01*
X62025Y-22167D02*
X59385Y-22167D01*
G54D24*
X15626Y-35239D02*
G75*
G03X15626Y-35239I-398J0D01*
G74*
G01*
X15626Y-32211D02*
G75*
G03X15626Y-32211I-398J0D01*
G74*
G01*
X15594Y-29211D02*
G75*
G03X15594Y-29211I-398J0D01*
G74*
G01*
X15594Y-26211D02*
G75*
G03X15594Y-26211I-398J0D01*
G74*
G01*
X15642Y-23211D02*
G75*
G03X15642Y-23211I-398J0D01*
G74*
G01*
X15610Y-20207D02*
G75*
G03X15610Y-20207I-398J0D01*
G74*
G01*
X15610Y-17207D02*
G75*
G03X15610Y-17207I-398J0D01*
G74*
G01*
X15571Y-14266D02*
G75*
G03X15571Y-14266I-398J0D01*
G74*
G01*
G54D14*
X36700Y-35830D02*
X36700Y-34270D01*
X36700Y-34270D02*
X34800Y-34270D01*
X34800Y-34270D02*
X34800Y-35830D01*
X34800Y-35830D02*
X36700Y-35830D01*
X36500Y-35830D02*
X36500Y-36260D01*
X36000Y-35830D02*
X36000Y-36260D01*
X35500Y-35830D02*
X35500Y-36260D01*
X35000Y-36260D02*
X35000Y-35830D01*
X35000Y-34270D02*
X35000Y-33840D01*
X35500Y-33840D02*
X35500Y-34270D01*
X36000Y-33840D02*
X36000Y-34270D01*
X36500Y-33840D02*
X36500Y-34270D01*
X36596Y-34560D02*
G75*
G03X36596Y-34560I-186J0D01*
G74*
G01*
X31261Y-28008D02*
X31261Y-26448D01*
X31261Y-26448D02*
X29361Y-26448D01*
X29361Y-26448D02*
X29361Y-28008D01*
X29361Y-28008D02*
X31261Y-28008D01*
X31061Y-28008D02*
X31061Y-28438D01*
X30561Y-28008D02*
X30561Y-28438D01*
X30061Y-28008D02*
X30061Y-28438D01*
X29561Y-28438D02*
X29561Y-28008D01*
X29561Y-26448D02*
X29561Y-26018D01*
X30061Y-26018D02*
X30061Y-26448D01*
X30561Y-26018D02*
X30561Y-26448D01*
X31061Y-26018D02*
X31061Y-26448D01*
X31157Y-26738D02*
G75*
G03X31157Y-26738I-186J0D01*
G74*
G01*
X30870Y-35240D02*
X30870Y-33680D01*
X30870Y-33680D02*
X28970Y-33680D01*
X28970Y-33680D02*
X28970Y-35240D01*
X28970Y-35240D02*
X30870Y-35240D01*
X30670Y-35240D02*
X30670Y-35670D01*
X30170Y-35240D02*
X30170Y-35670D01*
X29670Y-35240D02*
X29670Y-35670D01*
X29170Y-35670D02*
X29170Y-35240D01*
X29170Y-33680D02*
X29170Y-33250D01*
X29670Y-33250D02*
X29670Y-33680D01*
X30170Y-33250D02*
X30170Y-33680D01*
X30670Y-33250D02*
X30670Y-33680D01*
X30766Y-33970D02*
G75*
G03X30766Y-33970I-186J0D01*
G74*
G01*
G54D15*
X26722Y-16082D02*
X27185Y-16791D01*
X27390Y-16437D02*
G75*
G03X27390Y-16437I-431J0D01*
G74*
G01*
X27383Y-18474D02*
G75*
G03X27383Y-18474I-425J0D01*
G74*
G01*
X27385Y-17460D02*
G75*
G03X27385Y-17460I-426J0D01*
G74*
G01*
G54D28*
X59877Y-27190D02*
X59877Y-27433D01*
X59891Y-27461D01*
X59906Y-27476D01*
X59934Y-27490D01*
X59991Y-27490D01*
X60020Y-27476D01*
X60034Y-27461D01*
X60049Y-27433D01*
X60049Y-27190D01*
X60349Y-27490D02*
X60177Y-27490D01*
X60263Y-27490D02*
X60263Y-27190D01*
X60234Y-27233D01*
X60206Y-27261D01*
X60177Y-27276D01*
X60449Y-27190D02*
X60634Y-27190D01*
X60534Y-27304D01*
X60577Y-27304D01*
X60606Y-27319D01*
X60620Y-27333D01*
X60634Y-27361D01*
X60634Y-27433D01*
X60620Y-27461D01*
X60606Y-27476D01*
X60577Y-27490D01*
X60491Y-27490D01*
X60463Y-27476D01*
X60449Y-27461D01*
G54D14*
X44921Y-15325D02*
X44921Y-15568D01*
X44935Y-15596D01*
X44950Y-15611D01*
X44978Y-15625D01*
X45035Y-15625D01*
X45064Y-15611D01*
X45078Y-15596D01*
X45092Y-15568D01*
X45092Y-15325D01*
X45364Y-15425D02*
X45364Y-15625D01*
X45292Y-15311D02*
X45221Y-15525D01*
X45407Y-15525D01*
X45686Y-17882D02*
X45686Y-18125D01*
X45701Y-18153D01*
X45715Y-18168D01*
X45743Y-18182D01*
X45801Y-18182D01*
X45829Y-18168D01*
X45843Y-18153D01*
X45858Y-18125D01*
X45858Y-17882D01*
X46158Y-18182D02*
X45986Y-18182D01*
X46072Y-18182D02*
X46072Y-17882D01*
X46043Y-17925D01*
X46015Y-17953D01*
X45986Y-17968D01*
G54D17*
X39772Y-22671D02*
X39772Y-22271D01*
X39906Y-22557D01*
X40039Y-22271D01*
X40039Y-22671D01*
X40458Y-22633D02*
X40439Y-22652D01*
X40382Y-22671D01*
X40344Y-22671D01*
X40287Y-22652D01*
X40249Y-22614D01*
X40230Y-22576D01*
X40210Y-22500D01*
X40210Y-22443D01*
X40230Y-22367D01*
X40249Y-22329D01*
X40287Y-22290D01*
X40344Y-22271D01*
X40382Y-22271D01*
X40439Y-22290D01*
X40458Y-22310D01*
X40649Y-22671D02*
X40725Y-22671D01*
X40763Y-22652D01*
X40782Y-22633D01*
X40820Y-22576D01*
X40839Y-22500D01*
X40839Y-22348D01*
X40820Y-22310D01*
X40801Y-22290D01*
X40763Y-22271D01*
X40687Y-22271D01*
X40649Y-22290D01*
X40630Y-22310D01*
X40610Y-22348D01*
X40610Y-22443D01*
X40630Y-22481D01*
X40649Y-22500D01*
X40687Y-22519D01*
X40763Y-22519D01*
X40801Y-22500D01*
X40820Y-22481D01*
X40839Y-22443D01*
X40991Y-22652D02*
X41049Y-22671D01*
X41144Y-22671D01*
X41182Y-22652D01*
X41201Y-22633D01*
X41220Y-22595D01*
X41220Y-22557D01*
X41201Y-22519D01*
X41182Y-22500D01*
X41144Y-22481D01*
X41068Y-22462D01*
X41030Y-22443D01*
X41010Y-22424D01*
X40991Y-22386D01*
X40991Y-22348D01*
X41010Y-22310D01*
X41030Y-22290D01*
X41068Y-22271D01*
X41163Y-22271D01*
X41220Y-22290D01*
X41601Y-22671D02*
X41372Y-22671D01*
X41487Y-22671D02*
X41487Y-22271D01*
X41449Y-22329D01*
X41410Y-22367D01*
X41372Y-22386D01*
X41753Y-22310D02*
X41772Y-22290D01*
X41810Y-22271D01*
X41906Y-22271D01*
X41944Y-22290D01*
X41963Y-22310D01*
X41982Y-22348D01*
X41982Y-22386D01*
X41963Y-22443D01*
X41734Y-22671D01*
X41982Y-22671D01*
X42115Y-22271D02*
X42382Y-22671D01*
X42382Y-22271D02*
X42115Y-22671D01*
X42534Y-22671D02*
X42534Y-22271D01*
X42630Y-22271D01*
X42687Y-22290D01*
X42725Y-22329D01*
X42744Y-22367D01*
X42763Y-22443D01*
X42763Y-22500D01*
X42744Y-22576D01*
X42725Y-22614D01*
X42687Y-22652D01*
X42630Y-22671D01*
X42534Y-22671D01*
X42934Y-22671D02*
X42934Y-22271D01*
X43087Y-22271D01*
X43125Y-22290D01*
X43144Y-22310D01*
X43163Y-22348D01*
X43163Y-22405D01*
X43144Y-22443D01*
X43125Y-22462D01*
X43087Y-22481D01*
X42934Y-22481D01*
X43525Y-22271D02*
X43334Y-22271D01*
X43315Y-22462D01*
X43334Y-22443D01*
X43372Y-22424D01*
X43468Y-22424D01*
X43506Y-22443D01*
X43525Y-22462D01*
X43544Y-22500D01*
X43544Y-22595D01*
X43525Y-22633D01*
X43506Y-22652D01*
X43468Y-22671D01*
X43372Y-22671D01*
X43334Y-22652D01*
X43315Y-22633D01*
X43925Y-22671D02*
X43696Y-22671D01*
X43810Y-22671D02*
X43810Y-22271D01*
X43772Y-22329D01*
X43734Y-22367D01*
X43696Y-22386D01*
X44077Y-22310D02*
X44096Y-22290D01*
X44134Y-22271D01*
X44230Y-22271D01*
X44268Y-22290D01*
X44287Y-22310D01*
X44306Y-22348D01*
X44306Y-22386D01*
X44287Y-22443D01*
X44058Y-22671D01*
X44306Y-22671D01*
G54D24*
X45449Y-18672D02*
X45220Y-18672D01*
X45335Y-18672D02*
X45335Y-18072D01*
X45296Y-18158D01*
X45258Y-18215D01*
X45220Y-18244D01*
G54D14*
X52320Y-18384D02*
X52320Y-18627D01*
X52334Y-18655D01*
X52349Y-18670D01*
X52377Y-18684D01*
X52434Y-18684D01*
X52463Y-18670D01*
X52477Y-18655D01*
X52492Y-18627D01*
X52492Y-18384D01*
X52606Y-18384D02*
X52806Y-18384D01*
X52677Y-18684D01*
X54039Y-16641D02*
X53939Y-16641D01*
X53939Y-16798D02*
X53939Y-16498D01*
X54082Y-16498D01*
X54153Y-16498D02*
X54325Y-16498D01*
X54239Y-16798D02*
X54239Y-16498D01*
X54411Y-16527D02*
X54425Y-16512D01*
X54453Y-16498D01*
X54525Y-16498D01*
X54553Y-16512D01*
X54568Y-16527D01*
X54582Y-16555D01*
X54582Y-16584D01*
X54568Y-16627D01*
X54396Y-16798D01*
X54582Y-16798D01*
X54682Y-16498D02*
X54868Y-16498D01*
X54768Y-16612D01*
X54811Y-16612D01*
X54839Y-16627D01*
X54853Y-16641D01*
X54868Y-16669D01*
X54868Y-16741D01*
X54853Y-16769D01*
X54839Y-16784D01*
X54811Y-16798D01*
X54725Y-16798D01*
X54696Y-16784D01*
X54682Y-16769D01*
X54982Y-16527D02*
X54996Y-16512D01*
X55025Y-16498D01*
X55096Y-16498D01*
X55125Y-16512D01*
X55139Y-16527D01*
X55153Y-16555D01*
X55153Y-16584D01*
X55139Y-16627D01*
X54968Y-16798D01*
X55153Y-16798D01*
X55453Y-16798D02*
X55353Y-16655D01*
X55282Y-16798D02*
X55282Y-16498D01*
X55396Y-16498D01*
X55425Y-16512D01*
X55439Y-16527D01*
X55453Y-16555D01*
X55453Y-16598D01*
X55439Y-16627D01*
X55425Y-16641D01*
X55396Y-16655D01*
X55282Y-16655D01*
X55725Y-16798D02*
X55582Y-16798D01*
X55582Y-16498D01*
G54D17*
X18133Y-15853D02*
X18113Y-15891D01*
X18075Y-15929D01*
X18018Y-15986D01*
X17999Y-16024D01*
X17999Y-16062D01*
X18094Y-16043D02*
X18075Y-16081D01*
X18037Y-16119D01*
X17961Y-16138D01*
X17828Y-16138D01*
X17752Y-16119D01*
X17713Y-16081D01*
X17694Y-16043D01*
X17694Y-15967D01*
X17713Y-15929D01*
X17752Y-15891D01*
X17828Y-15872D01*
X17961Y-15872D01*
X18037Y-15891D01*
X18075Y-15929D01*
X18094Y-15967D01*
X18094Y-16043D01*
X18094Y-15491D02*
X18094Y-15719D01*
X18094Y-15605D02*
X17694Y-15605D01*
X17752Y-15643D01*
X17790Y-15681D01*
X17809Y-15719D01*
X18148Y-21888D02*
X18128Y-21926D01*
X18090Y-21964D01*
X18033Y-22021D01*
X18014Y-22059D01*
X18014Y-22097D01*
X18109Y-22078D02*
X18090Y-22116D01*
X18052Y-22154D01*
X17976Y-22173D01*
X17843Y-22173D01*
X17767Y-22154D01*
X17728Y-22116D01*
X17709Y-22078D01*
X17709Y-22002D01*
X17728Y-21964D01*
X17767Y-21926D01*
X17843Y-21907D01*
X17976Y-21907D01*
X18052Y-21926D01*
X18090Y-21964D01*
X18109Y-22002D01*
X18109Y-22078D01*
X17709Y-21773D02*
X17709Y-21526D01*
X17862Y-21659D01*
X17862Y-21602D01*
X17881Y-21564D01*
X17900Y-21545D01*
X17938Y-21526D01*
X18033Y-21526D01*
X18071Y-21545D01*
X18090Y-21564D01*
X18109Y-21602D01*
X18109Y-21716D01*
X18090Y-21754D01*
X18071Y-21773D01*
X18138Y-18888D02*
X18118Y-18926D01*
X18080Y-18964D01*
X18023Y-19021D01*
X18004Y-19059D01*
X18004Y-19097D01*
X18099Y-19078D02*
X18080Y-19116D01*
X18042Y-19154D01*
X17966Y-19173D01*
X17833Y-19173D01*
X17757Y-19154D01*
X17718Y-19116D01*
X17699Y-19078D01*
X17699Y-19002D01*
X17718Y-18964D01*
X17757Y-18926D01*
X17833Y-18907D01*
X17966Y-18907D01*
X18042Y-18926D01*
X18080Y-18964D01*
X18099Y-19002D01*
X18099Y-19078D01*
X17738Y-18754D02*
X17718Y-18735D01*
X17699Y-18697D01*
X17699Y-18602D01*
X17718Y-18564D01*
X17738Y-18545D01*
X17776Y-18526D01*
X17814Y-18526D01*
X17871Y-18545D01*
X18099Y-18773D01*
X18099Y-18526D01*
X18168Y-27888D02*
X18148Y-27926D01*
X18110Y-27964D01*
X18053Y-28021D01*
X18034Y-28059D01*
X18034Y-28097D01*
X18129Y-28078D02*
X18110Y-28116D01*
X18072Y-28154D01*
X17996Y-28173D01*
X17863Y-28173D01*
X17787Y-28154D01*
X17748Y-28116D01*
X17729Y-28078D01*
X17729Y-28002D01*
X17748Y-27964D01*
X17787Y-27926D01*
X17863Y-27907D01*
X17996Y-27907D01*
X18072Y-27926D01*
X18110Y-27964D01*
X18129Y-28002D01*
X18129Y-28078D01*
X17729Y-27545D02*
X17729Y-27735D01*
X17920Y-27754D01*
X17901Y-27735D01*
X17882Y-27697D01*
X17882Y-27602D01*
X17901Y-27564D01*
X17920Y-27545D01*
X17958Y-27526D01*
X18053Y-27526D01*
X18091Y-27545D01*
X18110Y-27564D01*
X18129Y-27602D01*
X18129Y-27697D01*
X18110Y-27735D01*
X18091Y-27754D01*
X18148Y-30878D02*
X18128Y-30916D01*
X18090Y-30954D01*
X18033Y-31011D01*
X18014Y-31049D01*
X18014Y-31087D01*
X18109Y-31068D02*
X18090Y-31106D01*
X18052Y-31144D01*
X17976Y-31163D01*
X17843Y-31163D01*
X17767Y-31144D01*
X17728Y-31106D01*
X17709Y-31068D01*
X17709Y-30992D01*
X17728Y-30954D01*
X17767Y-30916D01*
X17843Y-30897D01*
X17976Y-30897D01*
X18052Y-30916D01*
X18090Y-30954D01*
X18109Y-30992D01*
X18109Y-31068D01*
X17709Y-30554D02*
X17709Y-30630D01*
X17728Y-30668D01*
X17748Y-30687D01*
X17805Y-30725D01*
X17881Y-30744D01*
X18033Y-30744D01*
X18071Y-30725D01*
X18090Y-30706D01*
X18109Y-30668D01*
X18109Y-30592D01*
X18090Y-30554D01*
X18071Y-30535D01*
X18033Y-30516D01*
X17938Y-30516D01*
X17900Y-30535D01*
X17881Y-30554D01*
X17862Y-30592D01*
X17862Y-30668D01*
X17881Y-30706D01*
X17900Y-30725D01*
X17938Y-30744D01*
X18157Y-36845D02*
X18137Y-36883D01*
X18099Y-36921D01*
X18042Y-36978D01*
X18023Y-37016D01*
X18023Y-37054D01*
X18118Y-37035D02*
X18099Y-37073D01*
X18061Y-37111D01*
X17985Y-37130D01*
X17852Y-37130D01*
X17776Y-37111D01*
X17737Y-37073D01*
X17718Y-37035D01*
X17718Y-36959D01*
X17737Y-36921D01*
X17776Y-36883D01*
X17852Y-36864D01*
X17985Y-36864D01*
X18061Y-36883D01*
X18099Y-36921D01*
X18118Y-36959D01*
X18118Y-37035D01*
X17890Y-36635D02*
X17871Y-36673D01*
X17852Y-36692D01*
X17814Y-36711D01*
X17795Y-36711D01*
X17757Y-36692D01*
X17737Y-36673D01*
X17718Y-36635D01*
X17718Y-36559D01*
X17737Y-36521D01*
X17757Y-36502D01*
X17795Y-36483D01*
X17814Y-36483D01*
X17852Y-36502D01*
X17871Y-36521D01*
X17890Y-36559D01*
X17890Y-36635D01*
X17909Y-36673D01*
X17928Y-36692D01*
X17966Y-36711D01*
X18042Y-36711D01*
X18080Y-36692D01*
X18099Y-36673D01*
X18118Y-36635D01*
X18118Y-36559D01*
X18099Y-36521D01*
X18080Y-36502D01*
X18042Y-36483D01*
X17966Y-36483D01*
X17928Y-36502D01*
X17909Y-36521D01*
X17890Y-36559D01*
X18158Y-33878D02*
X18138Y-33916D01*
X18100Y-33954D01*
X18043Y-34011D01*
X18024Y-34049D01*
X18024Y-34087D01*
X18119Y-34068D02*
X18100Y-34106D01*
X18062Y-34144D01*
X17986Y-34163D01*
X17853Y-34163D01*
X17777Y-34144D01*
X17738Y-34106D01*
X17719Y-34068D01*
X17719Y-33992D01*
X17738Y-33954D01*
X17777Y-33916D01*
X17853Y-33897D01*
X17986Y-33897D01*
X18062Y-33916D01*
X18100Y-33954D01*
X18119Y-33992D01*
X18119Y-34068D01*
X17719Y-33763D02*
X17719Y-33497D01*
X18119Y-33668D01*
X18178Y-24868D02*
X18158Y-24906D01*
X18120Y-24944D01*
X18063Y-25001D01*
X18044Y-25039D01*
X18044Y-25077D01*
X18139Y-25058D02*
X18120Y-25096D01*
X18082Y-25134D01*
X18006Y-25153D01*
X17873Y-25153D01*
X17797Y-25134D01*
X17758Y-25096D01*
X17739Y-25058D01*
X17739Y-24982D01*
X17758Y-24944D01*
X17797Y-24906D01*
X17873Y-24887D01*
X18006Y-24887D01*
X18082Y-24906D01*
X18120Y-24944D01*
X18139Y-24982D01*
X18139Y-25058D01*
X17873Y-24544D02*
X18139Y-24544D01*
X17720Y-24639D02*
X18006Y-24734D01*
X18006Y-24487D01*
G54D14*
X49881Y-21439D02*
X49881Y-21682D01*
X49895Y-21710D01*
X49910Y-21725D01*
X49938Y-21739D01*
X49995Y-21739D01*
X50024Y-21725D01*
X50038Y-21710D01*
X50052Y-21682D01*
X50052Y-21439D01*
X50238Y-21568D02*
X50210Y-21553D01*
X50195Y-21539D01*
X50181Y-21510D01*
X50181Y-21496D01*
X50195Y-21468D01*
X50210Y-21453D01*
X50238Y-21439D01*
X50295Y-21439D01*
X50324Y-21453D01*
X50338Y-21468D01*
X50352Y-21496D01*
X50352Y-21510D01*
X50338Y-21539D01*
X50324Y-21553D01*
X50295Y-21568D01*
X50238Y-21568D01*
X50210Y-21582D01*
X50195Y-21596D01*
X50181Y-21625D01*
X50181Y-21682D01*
X50195Y-21710D01*
X50210Y-21725D01*
X50238Y-21739D01*
X50295Y-21739D01*
X50324Y-21725D01*
X50338Y-21710D01*
X50352Y-21682D01*
X50352Y-21625D01*
X50338Y-21596D01*
X50324Y-21582D01*
X50295Y-21568D01*
G54D19*
X51498Y-23609D02*
X51498Y-23504D01*
X51561Y-23630D02*
X51341Y-23556D01*
X51561Y-23483D01*
X51561Y-23410D02*
X51341Y-23410D01*
X51341Y-23357D01*
X51351Y-23326D01*
X51372Y-23305D01*
X51393Y-23295D01*
X51435Y-23284D01*
X51466Y-23284D01*
X51508Y-23295D01*
X51529Y-23305D01*
X51550Y-23326D01*
X51561Y-23357D01*
X51561Y-23410D01*
X51341Y-23190D02*
X51519Y-23190D01*
X51540Y-23179D01*
X51550Y-23169D01*
X51561Y-23148D01*
X51561Y-23106D01*
X51550Y-23085D01*
X51540Y-23075D01*
X51519Y-23064D01*
X51341Y-23064D01*
X51561Y-22959D02*
X51341Y-22959D01*
X51498Y-22886D01*
X51341Y-22813D01*
X51561Y-22813D01*
X51341Y-22729D02*
X51561Y-22582D01*
X51341Y-22582D02*
X51561Y-22729D01*
X51362Y-22509D02*
X51351Y-22498D01*
X51341Y-22477D01*
X51341Y-22425D01*
X51351Y-22404D01*
X51362Y-22394D01*
X51382Y-22383D01*
X51403Y-22383D01*
X51435Y-22394D01*
X51561Y-22519D01*
X51561Y-22383D01*
X51341Y-22247D02*
X51341Y-22226D01*
X51351Y-22205D01*
X51362Y-22195D01*
X51382Y-22184D01*
X51424Y-22174D01*
X51477Y-22174D01*
X51519Y-22184D01*
X51540Y-22195D01*
X51550Y-22205D01*
X51561Y-22226D01*
X51561Y-22247D01*
X51550Y-22268D01*
X51540Y-22278D01*
X51519Y-22289D01*
X51477Y-22299D01*
X51424Y-22299D01*
X51382Y-22289D01*
X51362Y-22278D01*
X51351Y-22268D01*
X51341Y-22247D01*
X51561Y-21964D02*
X51561Y-22090D01*
X51561Y-22027D02*
X51341Y-22027D01*
X51372Y-22048D01*
X51393Y-22069D01*
X51403Y-22090D01*
G54D28*
X55826Y-19990D02*
X55826Y-20133D01*
X55526Y-20133D01*
X55826Y-19733D02*
X55826Y-19905D01*
X55826Y-19819D02*
X55526Y-19819D01*
X55569Y-19848D01*
X55597Y-19876D01*
X55612Y-19905D01*
G54D19*
X31364Y-13079D02*
X31364Y-13281D01*
X31376Y-13305D01*
X31388Y-13317D01*
X31412Y-13329D01*
X31459Y-13329D01*
X31483Y-13317D01*
X31495Y-13305D01*
X31507Y-13281D01*
X31507Y-13079D01*
X31638Y-13329D02*
X31686Y-13329D01*
X31709Y-13317D01*
X31721Y-13305D01*
X31745Y-13270D01*
X31757Y-13222D01*
X31757Y-13127D01*
X31745Y-13103D01*
X31733Y-13091D01*
X31709Y-13079D01*
X31662Y-13079D01*
X31638Y-13091D01*
X31626Y-13103D01*
X31614Y-13127D01*
X31614Y-13186D01*
X31626Y-13210D01*
X31638Y-13222D01*
X31662Y-13234D01*
X31709Y-13234D01*
X31733Y-13222D01*
X31745Y-13210D01*
X31757Y-13186D01*
G54D14*
X30304Y-12747D02*
X30304Y-12604D01*
X30554Y-12676D02*
X30304Y-12676D01*
X30530Y-12378D02*
X30542Y-12390D01*
X30554Y-12426D01*
X30554Y-12450D01*
X30542Y-12485D01*
X30518Y-12509D01*
X30494Y-12521D01*
X30447Y-12533D01*
X30411Y-12533D01*
X30363Y-12521D01*
X30339Y-12509D01*
X30316Y-12485D01*
X30304Y-12450D01*
X30304Y-12426D01*
X30316Y-12390D01*
X30328Y-12378D01*
X30387Y-12164D02*
X30554Y-12164D01*
X30292Y-12223D02*
X30470Y-12283D01*
X30470Y-12128D01*
X30387Y-11926D02*
X30554Y-11926D01*
X30292Y-11985D02*
X30470Y-12045D01*
X30470Y-11890D01*
X30328Y-11807D02*
X30316Y-11795D01*
X30304Y-11771D01*
X30304Y-11712D01*
X30316Y-11688D01*
X30328Y-11676D01*
X30351Y-11664D01*
X30375Y-11664D01*
X30411Y-11676D01*
X30554Y-11819D01*
X30554Y-11664D01*
X30304Y-11581D02*
X30554Y-11414D01*
X30304Y-11414D02*
X30554Y-11581D01*
X30482Y-11331D02*
X30482Y-11212D01*
X30554Y-11354D02*
X30304Y-11271D01*
X30554Y-11188D01*
G54D19*
X20704Y-13138D02*
X20704Y-13340D01*
X20716Y-13364D01*
X20728Y-13376D01*
X20751Y-13388D01*
X20799Y-13388D01*
X20823Y-13376D01*
X20835Y-13364D01*
X20847Y-13340D01*
X20847Y-13138D01*
X21097Y-13388D02*
X20954Y-13388D01*
X21025Y-13388D02*
X21025Y-13138D01*
X21001Y-13174D01*
X20978Y-13198D01*
X20954Y-13210D01*
X21192Y-13162D02*
X21204Y-13150D01*
X21228Y-13138D01*
X21287Y-13138D01*
X21311Y-13150D01*
X21323Y-13162D01*
X21335Y-13186D01*
X21335Y-13210D01*
X21323Y-13245D01*
X21180Y-13388D01*
X21335Y-13388D01*
G54D14*
X19615Y-12826D02*
X19615Y-12683D01*
X19865Y-12755D02*
X19615Y-12755D01*
X19841Y-12457D02*
X19853Y-12469D01*
X19865Y-12505D01*
X19865Y-12529D01*
X19853Y-12564D01*
X19829Y-12588D01*
X19805Y-12600D01*
X19758Y-12612D01*
X19722Y-12612D01*
X19674Y-12600D01*
X19650Y-12588D01*
X19627Y-12564D01*
X19615Y-12529D01*
X19615Y-12505D01*
X19627Y-12469D01*
X19639Y-12457D01*
X19698Y-12243D02*
X19865Y-12243D01*
X19603Y-12302D02*
X19781Y-12362D01*
X19781Y-12207D01*
X19698Y-12005D02*
X19865Y-12005D01*
X19603Y-12064D02*
X19781Y-12124D01*
X19781Y-11969D01*
X19639Y-11886D02*
X19627Y-11874D01*
X19615Y-11850D01*
X19615Y-11791D01*
X19627Y-11767D01*
X19639Y-11755D01*
X19662Y-11743D01*
X19686Y-11743D01*
X19722Y-11755D01*
X19865Y-11898D01*
X19865Y-11743D01*
X19615Y-11660D02*
X19865Y-11493D01*
X19615Y-11493D02*
X19865Y-11660D01*
X19793Y-11410D02*
X19793Y-11291D01*
X19865Y-11433D02*
X19615Y-11350D01*
X19865Y-11267D01*
X49487Y-36417D02*
X49387Y-36417D01*
X49387Y-36574D02*
X49387Y-36274D01*
X49529Y-36274D01*
X49801Y-36574D02*
X49629Y-36574D01*
X49715Y-36574D02*
X49715Y-36274D01*
X49687Y-36317D01*
X49658Y-36345D01*
X49629Y-36360D01*
X63057Y-18319D02*
X63271Y-18319D01*
X63314Y-18334D01*
X63343Y-18362D01*
X63357Y-18405D01*
X63357Y-18434D01*
X63357Y-18020D02*
X63357Y-18191D01*
X63357Y-18105D02*
X63057Y-18105D01*
X63100Y-18134D01*
X63128Y-18162D01*
X63143Y-18191D01*
G54D28*
X61377Y-30083D02*
X61234Y-30183D01*
X61377Y-30255D02*
X61077Y-30255D01*
X61077Y-30140D01*
X61091Y-30112D01*
X61106Y-30098D01*
X61134Y-30083D01*
X61177Y-30083D01*
X61206Y-30098D01*
X61220Y-30112D01*
X61234Y-30140D01*
X61234Y-30255D01*
X61377Y-29798D02*
X61377Y-29969D01*
X61377Y-29883D02*
X61077Y-29883D01*
X61120Y-29912D01*
X61148Y-29940D01*
X61163Y-29969D01*
X61077Y-29612D02*
X61077Y-29583D01*
X61091Y-29555D01*
X61106Y-29540D01*
X61134Y-29526D01*
X61191Y-29512D01*
X61263Y-29512D01*
X61320Y-29526D01*
X61348Y-29540D01*
X61363Y-29555D01*
X61377Y-29583D01*
X61377Y-29612D01*
X61363Y-29640D01*
X61348Y-29655D01*
X61320Y-29669D01*
X61263Y-29683D01*
X61191Y-29683D01*
X61134Y-29669D01*
X61106Y-29655D01*
X61091Y-29640D01*
X61077Y-29612D01*
X61377Y-29369D02*
X61377Y-29312D01*
X61363Y-29283D01*
X61348Y-29269D01*
X61306Y-29240D01*
X61248Y-29226D01*
X61134Y-29226D01*
X61106Y-29240D01*
X61091Y-29255D01*
X61077Y-29283D01*
X61077Y-29340D01*
X61091Y-29369D01*
X61106Y-29383D01*
X61134Y-29398D01*
X61206Y-29398D01*
X61234Y-29383D01*
X61248Y-29369D01*
X61263Y-29340D01*
X61263Y-29283D01*
X61248Y-29255D01*
X61234Y-29240D01*
X61206Y-29226D01*
X62424Y-26717D02*
X62281Y-26817D01*
X62424Y-26889D02*
X62124Y-26889D01*
X62124Y-26774D01*
X62138Y-26746D01*
X62153Y-26732D01*
X62181Y-26717D01*
X62224Y-26717D01*
X62253Y-26732D01*
X62267Y-26746D01*
X62281Y-26774D01*
X62281Y-26889D01*
X62424Y-26432D02*
X62424Y-26603D01*
X62424Y-26517D02*
X62124Y-26517D01*
X62167Y-26546D01*
X62195Y-26574D01*
X62210Y-26603D01*
X62124Y-26246D02*
X62124Y-26217D01*
X62138Y-26189D01*
X62153Y-26174D01*
X62181Y-26160D01*
X62238Y-26146D01*
X62310Y-26146D01*
X62367Y-26160D01*
X62395Y-26174D01*
X62410Y-26189D01*
X62424Y-26217D01*
X62424Y-26246D01*
X62410Y-26274D01*
X62395Y-26289D01*
X62367Y-26303D01*
X62310Y-26317D01*
X62238Y-26317D01*
X62181Y-26303D01*
X62153Y-26289D01*
X62138Y-26274D01*
X62124Y-26246D01*
X62253Y-25974D02*
X62238Y-26003D01*
X62224Y-26017D01*
X62195Y-26032D01*
X62181Y-26032D01*
X62153Y-26017D01*
X62138Y-26003D01*
X62124Y-25974D01*
X62124Y-25917D01*
X62138Y-25889D01*
X62153Y-25874D01*
X62181Y-25860D01*
X62195Y-25860D01*
X62224Y-25874D01*
X62238Y-25889D01*
X62253Y-25917D01*
X62253Y-25974D01*
X62267Y-26003D01*
X62281Y-26017D01*
X62310Y-26032D01*
X62367Y-26032D01*
X62395Y-26017D01*
X62410Y-26003D01*
X62424Y-25974D01*
X62424Y-25917D01*
X62410Y-25889D01*
X62395Y-25874D01*
X62367Y-25860D01*
X62310Y-25860D01*
X62281Y-25874D01*
X62267Y-25889D01*
X62253Y-25917D01*
X61396Y-31634D02*
X61253Y-31734D01*
X61396Y-31806D02*
X61096Y-31806D01*
X61096Y-31691D01*
X61110Y-31663D01*
X61125Y-31649D01*
X61153Y-31634D01*
X61196Y-31634D01*
X61225Y-31649D01*
X61239Y-31663D01*
X61253Y-31691D01*
X61253Y-31806D01*
X61396Y-31349D02*
X61396Y-31520D01*
X61396Y-31434D02*
X61096Y-31434D01*
X61139Y-31463D01*
X61167Y-31491D01*
X61182Y-31520D01*
X61096Y-31163D02*
X61096Y-31134D01*
X61110Y-31106D01*
X61125Y-31091D01*
X61153Y-31077D01*
X61210Y-31063D01*
X61282Y-31063D01*
X61339Y-31077D01*
X61367Y-31091D01*
X61382Y-31106D01*
X61396Y-31134D01*
X61396Y-31163D01*
X61382Y-31191D01*
X61367Y-31206D01*
X61339Y-31220D01*
X61282Y-31234D01*
X61210Y-31234D01*
X61153Y-31220D01*
X61125Y-31206D01*
X61110Y-31191D01*
X61096Y-31163D01*
X61096Y-30963D02*
X61096Y-30763D01*
X61396Y-30891D01*
X61373Y-28618D02*
X61230Y-28718D01*
X61373Y-28790D02*
X61073Y-28790D01*
X61073Y-28675D01*
X61087Y-28647D01*
X61102Y-28633D01*
X61130Y-28618D01*
X61173Y-28618D01*
X61202Y-28633D01*
X61216Y-28647D01*
X61230Y-28675D01*
X61230Y-28790D01*
X61373Y-28333D02*
X61373Y-28504D01*
X61373Y-28418D02*
X61073Y-28418D01*
X61116Y-28447D01*
X61144Y-28475D01*
X61159Y-28504D01*
X61073Y-28147D02*
X61073Y-28118D01*
X61087Y-28090D01*
X61102Y-28075D01*
X61130Y-28061D01*
X61187Y-28047D01*
X61259Y-28047D01*
X61316Y-28061D01*
X61344Y-28075D01*
X61359Y-28090D01*
X61373Y-28118D01*
X61373Y-28147D01*
X61359Y-28175D01*
X61344Y-28190D01*
X61316Y-28204D01*
X61259Y-28218D01*
X61187Y-28218D01*
X61130Y-28204D01*
X61102Y-28190D01*
X61087Y-28175D01*
X61073Y-28147D01*
X61073Y-27790D02*
X61073Y-27847D01*
X61087Y-27875D01*
X61102Y-27890D01*
X61144Y-27918D01*
X61202Y-27933D01*
X61316Y-27933D01*
X61344Y-27918D01*
X61359Y-27904D01*
X61373Y-27875D01*
X61373Y-27818D01*
X61359Y-27790D01*
X61344Y-27775D01*
X61316Y-27761D01*
X61244Y-27761D01*
X61216Y-27775D01*
X61202Y-27790D01*
X61187Y-27818D01*
X61187Y-27875D01*
X61202Y-27904D01*
X61216Y-27918D01*
X61244Y-27933D01*
G54D29*
X58195Y-25519D02*
X58095Y-25519D01*
X58095Y-25676D02*
X58095Y-25376D01*
X58237Y-25376D01*
X58337Y-25405D02*
X58352Y-25390D01*
X58380Y-25376D01*
X58452Y-25376D01*
X58480Y-25390D01*
X58495Y-25405D01*
X58509Y-25433D01*
X58509Y-25462D01*
X58495Y-25505D01*
X58323Y-25676D01*
X58509Y-25676D01*
G54D18*
X59109Y-19742D02*
X59080Y-19799D01*
X59023Y-19856D01*
X58937Y-19942D01*
X58909Y-19999D01*
X58909Y-20056D01*
X59051Y-20028D02*
X59023Y-20085D01*
X58966Y-20142D01*
X58851Y-20171D01*
X58651Y-20171D01*
X58537Y-20142D01*
X58480Y-20085D01*
X58451Y-20028D01*
X58451Y-19913D01*
X58480Y-19856D01*
X58537Y-19799D01*
X58651Y-19771D01*
X58851Y-19771D01*
X58966Y-19799D01*
X59023Y-19856D01*
X59051Y-19913D01*
X59051Y-20028D01*
X59051Y-19199D02*
X59051Y-19542D01*
X59051Y-19371D02*
X58451Y-19371D01*
X58537Y-19428D01*
X58594Y-19485D01*
X58623Y-19542D01*
X58509Y-18971D02*
X58480Y-18942D01*
X58451Y-18885D01*
X58451Y-18742D01*
X58480Y-18685D01*
X58509Y-18656D01*
X58566Y-18628D01*
X58623Y-18628D01*
X58709Y-18656D01*
X59051Y-18999D01*
X59051Y-18628D01*
G54D14*
X59668Y-21607D02*
X59668Y-21307D01*
X59839Y-21607D02*
X59711Y-21436D01*
X59839Y-21307D02*
X59668Y-21479D01*
X59954Y-21593D02*
X59997Y-21607D01*
X60068Y-21607D01*
X60097Y-21593D01*
X60111Y-21579D01*
X60125Y-21550D01*
X60125Y-21521D01*
X60111Y-21493D01*
X60097Y-21479D01*
X60068Y-21464D01*
X60011Y-21450D01*
X59982Y-21436D01*
X59968Y-21421D01*
X59954Y-21393D01*
X59954Y-21364D01*
X59968Y-21336D01*
X59982Y-21321D01*
X60011Y-21307D01*
X60082Y-21307D01*
X60125Y-21321D01*
X60254Y-21607D02*
X60254Y-21307D01*
X60254Y-21450D02*
X60425Y-21450D01*
X60425Y-21607D02*
X60425Y-21307D01*
X60725Y-21607D02*
X60554Y-21607D01*
X60639Y-21607D02*
X60639Y-21307D01*
X60611Y-21350D01*
X60582Y-21379D01*
X60554Y-21393D01*
X60839Y-21336D02*
X60854Y-21321D01*
X60882Y-21307D01*
X60954Y-21307D01*
X60982Y-21321D01*
X60997Y-21336D01*
X61011Y-21364D01*
X61011Y-21393D01*
X60997Y-21436D01*
X60825Y-21607D01*
X61011Y-21607D01*
X61111Y-21307D02*
X61311Y-21307D01*
X61182Y-21607D01*
X61382Y-21307D02*
X61554Y-21307D01*
X61468Y-21607D02*
X61468Y-21307D01*
X61754Y-21450D02*
X61654Y-21450D01*
X61654Y-21607D02*
X61654Y-21307D01*
X61797Y-21307D01*
X13993Y-35388D02*
X13993Y-35138D01*
X14112Y-35388D02*
X14112Y-35138D01*
X14255Y-35388D01*
X14255Y-35138D01*
X14445Y-35138D02*
X14445Y-35317D01*
X14433Y-35352D01*
X14410Y-35376D01*
X14374Y-35388D01*
X14350Y-35388D01*
X14600Y-35245D02*
X14576Y-35233D01*
X14564Y-35221D01*
X14552Y-35198D01*
X14552Y-35186D01*
X14564Y-35162D01*
X14576Y-35150D01*
X14600Y-35138D01*
X14648Y-35138D01*
X14671Y-35150D01*
X14683Y-35162D01*
X14695Y-35186D01*
X14695Y-35198D01*
X14683Y-35221D01*
X14671Y-35233D01*
X14648Y-35245D01*
X14600Y-35245D01*
X14576Y-35257D01*
X14564Y-35269D01*
X14552Y-35293D01*
X14552Y-35340D01*
X14564Y-35364D01*
X14576Y-35376D01*
X14600Y-35388D01*
X14648Y-35388D01*
X14671Y-35376D01*
X14683Y-35364D01*
X14695Y-35340D01*
X14695Y-35293D01*
X14683Y-35269D01*
X14671Y-35257D01*
X14648Y-35245D01*
X13946Y-32372D02*
X13946Y-32122D01*
X14065Y-32372D02*
X14065Y-32122D01*
X14208Y-32372D01*
X14208Y-32122D01*
X14398Y-32122D02*
X14398Y-32301D01*
X14386Y-32337D01*
X14362Y-32360D01*
X14327Y-32372D01*
X14303Y-32372D01*
X14493Y-32122D02*
X14660Y-32122D01*
X14553Y-32372D01*
X13981Y-29329D02*
X13981Y-29079D01*
X14100Y-29329D02*
X14100Y-29079D01*
X14243Y-29329D01*
X14243Y-29079D01*
X14433Y-29079D02*
X14433Y-29258D01*
X14422Y-29293D01*
X14398Y-29317D01*
X14362Y-29329D01*
X14338Y-29329D01*
X14660Y-29079D02*
X14612Y-29079D01*
X14588Y-29091D01*
X14576Y-29103D01*
X14552Y-29139D01*
X14541Y-29186D01*
X14541Y-29281D01*
X14552Y-29305D01*
X14564Y-29317D01*
X14588Y-29329D01*
X14636Y-29329D01*
X14660Y-29317D01*
X14672Y-29305D01*
X14683Y-29281D01*
X14683Y-29222D01*
X14672Y-29198D01*
X14660Y-29186D01*
X14636Y-29174D01*
X14588Y-29174D01*
X14564Y-29186D01*
X14552Y-29198D01*
X14541Y-29222D01*
X13981Y-26341D02*
X13981Y-26091D01*
X14100Y-26341D02*
X14100Y-26091D01*
X14243Y-26341D01*
X14243Y-26091D01*
X14433Y-26091D02*
X14433Y-26269D01*
X14422Y-26305D01*
X14398Y-26329D01*
X14362Y-26341D01*
X14338Y-26341D01*
X14672Y-26091D02*
X14552Y-26091D01*
X14541Y-26210D01*
X14552Y-26198D01*
X14576Y-26186D01*
X14636Y-26186D01*
X14660Y-26198D01*
X14672Y-26210D01*
X14683Y-26234D01*
X14683Y-26293D01*
X14672Y-26317D01*
X14660Y-26329D01*
X14636Y-26341D01*
X14576Y-26341D01*
X14552Y-26329D01*
X14541Y-26317D01*
X13997Y-23357D02*
X13997Y-23107D01*
X14116Y-23357D02*
X14116Y-23107D01*
X14259Y-23357D01*
X14259Y-23107D01*
X14449Y-23107D02*
X14449Y-23285D01*
X14437Y-23321D01*
X14413Y-23345D01*
X14378Y-23357D01*
X14354Y-23357D01*
X14675Y-23190D02*
X14675Y-23357D01*
X14616Y-23095D02*
X14556Y-23273D01*
X14711Y-23273D01*
X13989Y-20329D02*
X13989Y-20079D01*
X14108Y-20329D02*
X14108Y-20079D01*
X14251Y-20329D01*
X14251Y-20079D01*
X14441Y-20079D02*
X14441Y-20258D01*
X14429Y-20293D01*
X14406Y-20317D01*
X14370Y-20329D01*
X14346Y-20329D01*
X14537Y-20079D02*
X14691Y-20079D01*
X14608Y-20174D01*
X14644Y-20174D01*
X14667Y-20186D01*
X14679Y-20198D01*
X14691Y-20222D01*
X14691Y-20281D01*
X14679Y-20305D01*
X14667Y-20317D01*
X14644Y-20329D01*
X14572Y-20329D01*
X14548Y-20317D01*
X14537Y-20305D01*
X13977Y-17357D02*
X13977Y-17107D01*
X14096Y-17357D02*
X14096Y-17107D01*
X14239Y-17357D01*
X14239Y-17107D01*
X14429Y-17107D02*
X14429Y-17285D01*
X14418Y-17321D01*
X14394Y-17345D01*
X14358Y-17357D01*
X14334Y-17357D01*
X14537Y-17130D02*
X14549Y-17119D01*
X14572Y-17107D01*
X14632Y-17107D01*
X14656Y-17119D01*
X14668Y-17130D01*
X14679Y-17154D01*
X14679Y-17178D01*
X14668Y-17214D01*
X14525Y-17357D01*
X14679Y-17357D01*
X13965Y-14404D02*
X13965Y-14154D01*
X14084Y-14404D02*
X14084Y-14154D01*
X14227Y-14404D01*
X14227Y-14154D01*
X14418Y-14154D02*
X14418Y-14332D01*
X14406Y-14368D01*
X14382Y-14392D01*
X14346Y-14404D01*
X14322Y-14404D01*
X14668Y-14404D02*
X14525Y-14404D01*
X14596Y-14404D02*
X14596Y-14154D01*
X14572Y-14190D01*
X14549Y-14213D01*
X14525Y-14225D01*
G54D30*
X36842Y-33761D02*
X36842Y-34000D01*
X36856Y-34028D01*
X36870Y-34042D01*
X36898Y-34056D01*
X36954Y-34056D01*
X36982Y-34042D01*
X36996Y-34028D01*
X37010Y-34000D01*
X37010Y-33761D01*
X37291Y-33761D02*
X37151Y-33761D01*
X37137Y-33901D01*
X37151Y-33887D01*
X37179Y-33873D01*
X37249Y-33873D01*
X37277Y-33887D01*
X37291Y-33901D01*
X37305Y-33929D01*
X37305Y-34000D01*
X37291Y-34028D01*
X37277Y-34042D01*
X37249Y-34056D01*
X37179Y-34056D01*
X37151Y-34042D01*
X37137Y-34028D01*
G54D31*
X34930Y-34906D02*
X34983Y-35063D01*
X35035Y-34906D01*
X35088Y-35063D02*
X35088Y-34906D01*
X35178Y-35063D01*
X35178Y-34906D01*
X35328Y-34906D02*
X35253Y-34906D01*
X35245Y-34981D01*
X35253Y-34973D01*
X35268Y-34966D01*
X35305Y-34966D01*
X35320Y-34973D01*
X35328Y-34981D01*
X35335Y-34996D01*
X35335Y-35033D01*
X35328Y-35048D01*
X35320Y-35056D01*
X35305Y-35063D01*
X35268Y-35063D01*
X35253Y-35056D01*
X35245Y-35048D01*
X35403Y-34981D02*
X35455Y-34981D01*
X35478Y-35063D02*
X35403Y-35063D01*
X35403Y-34906D01*
X35478Y-34906D01*
X35628Y-35063D02*
X35538Y-35063D01*
X35583Y-35063D02*
X35583Y-34906D01*
X35568Y-34928D01*
X35553Y-34943D01*
X35538Y-34951D01*
X35763Y-34906D02*
X35733Y-34906D01*
X35718Y-34913D01*
X35710Y-34921D01*
X35695Y-34943D01*
X35688Y-34973D01*
X35688Y-35033D01*
X35695Y-35048D01*
X35703Y-35056D01*
X35718Y-35063D01*
X35748Y-35063D01*
X35763Y-35056D01*
X35770Y-35048D01*
X35778Y-35033D01*
X35778Y-34996D01*
X35770Y-34981D01*
X35763Y-34973D01*
X35748Y-34966D01*
X35718Y-34966D01*
X35703Y-34973D01*
X35695Y-34981D01*
X35688Y-34996D01*
X35875Y-34906D02*
X35890Y-34906D01*
X35905Y-34913D01*
X35913Y-34921D01*
X35920Y-34936D01*
X35928Y-34966D01*
X35928Y-35003D01*
X35920Y-35033D01*
X35913Y-35048D01*
X35905Y-35056D01*
X35890Y-35063D01*
X35875Y-35063D01*
X35860Y-35056D01*
X35853Y-35048D01*
X35845Y-35033D01*
X35838Y-35003D01*
X35838Y-34966D01*
X35845Y-34936D01*
X35853Y-34921D01*
X35860Y-34913D01*
X35875Y-34906D01*
X35988Y-35018D02*
X36062Y-35018D01*
X35973Y-35063D02*
X36025Y-34906D01*
X36077Y-35063D01*
X36122Y-35056D02*
X36145Y-35063D01*
X36182Y-35063D01*
X36197Y-35056D01*
X36205Y-35048D01*
X36212Y-35033D01*
X36212Y-35018D01*
X36205Y-35003D01*
X36197Y-34996D01*
X36182Y-34988D01*
X36152Y-34981D01*
X36137Y-34973D01*
X36130Y-34966D01*
X36122Y-34951D01*
X36122Y-34936D01*
X36130Y-34921D01*
X36137Y-34913D01*
X36152Y-34906D01*
X36190Y-34906D01*
X36212Y-34913D01*
X36280Y-35003D02*
X36400Y-35003D01*
X36475Y-34981D02*
X36527Y-34981D01*
X36550Y-35063D02*
X36475Y-35063D01*
X36475Y-34906D01*
X36550Y-34906D01*
G54D30*
X30995Y-25443D02*
X31234Y-25443D01*
X31262Y-25429D01*
X31276Y-25415D01*
X31290Y-25387D01*
X31290Y-25331D01*
X31276Y-25303D01*
X31262Y-25289D01*
X31234Y-25275D01*
X30995Y-25275D01*
X31290Y-24980D02*
X31290Y-25148D01*
X31290Y-25064D02*
X30995Y-25064D01*
X31037Y-25092D01*
X31065Y-25120D01*
X31079Y-25148D01*
X30995Y-24797D02*
X30995Y-24769D01*
X31009Y-24741D01*
X31023Y-24727D01*
X31051Y-24713D01*
X31108Y-24699D01*
X31178Y-24699D01*
X31234Y-24713D01*
X31262Y-24727D01*
X31276Y-24741D01*
X31290Y-24769D01*
X31290Y-24797D01*
X31276Y-24825D01*
X31262Y-24839D01*
X31234Y-24853D01*
X31178Y-24868D01*
X31108Y-24868D01*
X31051Y-24853D01*
X31023Y-24839D01*
X31009Y-24825D01*
X30995Y-24797D01*
G54D32*
X29465Y-27048D02*
X29531Y-27245D01*
X29596Y-27048D01*
X29662Y-27245D02*
X29662Y-27048D01*
X29775Y-27245D01*
X29775Y-27048D01*
X29859Y-27235D02*
X29887Y-27245D01*
X29934Y-27245D01*
X29953Y-27235D01*
X29962Y-27226D01*
X29971Y-27207D01*
X29971Y-27188D01*
X29962Y-27170D01*
X29953Y-27160D01*
X29934Y-27151D01*
X29896Y-27141D01*
X29878Y-27132D01*
X29868Y-27123D01*
X29859Y-27104D01*
X29859Y-27085D01*
X29868Y-27066D01*
X29878Y-27057D01*
X29896Y-27048D01*
X29943Y-27048D01*
X29971Y-27057D01*
X30037Y-27048D02*
X30159Y-27048D01*
X30093Y-27123D01*
X30121Y-27123D01*
X30140Y-27132D01*
X30149Y-27141D01*
X30159Y-27160D01*
X30159Y-27207D01*
X30149Y-27226D01*
X30140Y-27235D01*
X30121Y-27245D01*
X30065Y-27245D01*
X30046Y-27235D01*
X30037Y-27226D01*
X30243Y-27245D02*
X30243Y-27048D01*
X30356Y-27245D01*
X30356Y-27048D01*
X30421Y-27048D02*
X30487Y-27245D01*
X30553Y-27048D01*
X30656Y-27048D02*
X30674Y-27048D01*
X30693Y-27057D01*
X30703Y-27066D01*
X30712Y-27085D01*
X30721Y-27123D01*
X30721Y-27170D01*
X30712Y-27207D01*
X30703Y-27226D01*
X30693Y-27235D01*
X30674Y-27245D01*
X30656Y-27245D01*
X30637Y-27235D01*
X30628Y-27226D01*
X30618Y-27207D01*
X30609Y-27170D01*
X30609Y-27123D01*
X30618Y-27085D01*
X30628Y-27066D01*
X30637Y-27057D01*
X30656Y-27048D01*
X30890Y-27113D02*
X30890Y-27245D01*
X30843Y-27038D02*
X30796Y-27179D01*
X30918Y-27179D01*
X30993Y-27245D02*
X30993Y-27048D01*
X31040Y-27048D01*
X31068Y-27057D01*
X31087Y-27076D01*
X31096Y-27095D01*
X31106Y-27132D01*
X31106Y-27160D01*
X31096Y-27198D01*
X31087Y-27216D01*
X31068Y-27235D01*
X31040Y-27245D01*
X30993Y-27245D01*
G54D30*
X31022Y-33151D02*
X31022Y-33389D01*
X31036Y-33418D01*
X31050Y-33432D01*
X31078Y-33446D01*
X31134Y-33446D01*
X31163Y-33432D01*
X31177Y-33418D01*
X31191Y-33389D01*
X31191Y-33151D01*
X31486Y-33446D02*
X31317Y-33446D01*
X31401Y-33446D02*
X31401Y-33151D01*
X31373Y-33193D01*
X31345Y-33221D01*
X31317Y-33235D01*
X31738Y-33249D02*
X31738Y-33446D01*
X31668Y-33137D02*
X31598Y-33347D01*
X31781Y-33347D01*
G54D32*
X29081Y-34311D02*
X29147Y-34508D01*
X29213Y-34311D01*
X29278Y-34508D02*
X29278Y-34311D01*
X29391Y-34508D01*
X29391Y-34311D01*
X29475Y-34499D02*
X29503Y-34508D01*
X29550Y-34508D01*
X29569Y-34499D01*
X29578Y-34490D01*
X29588Y-34471D01*
X29588Y-34452D01*
X29578Y-34433D01*
X29569Y-34424D01*
X29550Y-34415D01*
X29513Y-34405D01*
X29494Y-34396D01*
X29484Y-34386D01*
X29475Y-34368D01*
X29475Y-34349D01*
X29484Y-34330D01*
X29494Y-34321D01*
X29513Y-34311D01*
X29559Y-34311D01*
X29588Y-34321D01*
X29653Y-34311D02*
X29775Y-34311D01*
X29709Y-34386D01*
X29738Y-34386D01*
X29756Y-34396D01*
X29766Y-34405D01*
X29775Y-34424D01*
X29775Y-34471D01*
X29766Y-34490D01*
X29756Y-34499D01*
X29738Y-34508D01*
X29681Y-34508D01*
X29663Y-34499D01*
X29653Y-34490D01*
X29859Y-34508D02*
X29859Y-34311D01*
X29972Y-34508D01*
X29972Y-34311D01*
X30037Y-34311D02*
X30103Y-34508D01*
X30169Y-34311D01*
X30272Y-34311D02*
X30291Y-34311D01*
X30309Y-34321D01*
X30319Y-34330D01*
X30328Y-34349D01*
X30337Y-34386D01*
X30337Y-34433D01*
X30328Y-34471D01*
X30319Y-34490D01*
X30309Y-34499D01*
X30291Y-34508D01*
X30272Y-34508D01*
X30253Y-34499D01*
X30244Y-34490D01*
X30234Y-34471D01*
X30225Y-34433D01*
X30225Y-34386D01*
X30234Y-34349D01*
X30244Y-34330D01*
X30253Y-34321D01*
X30272Y-34311D01*
X30506Y-34377D02*
X30506Y-34508D01*
X30459Y-34302D02*
X30412Y-34443D01*
X30534Y-34443D01*
X30609Y-34508D02*
X30609Y-34311D01*
X30656Y-34311D01*
X30684Y-34321D01*
X30703Y-34340D01*
X30712Y-34358D01*
X30722Y-34396D01*
X30722Y-34424D01*
X30712Y-34461D01*
X30703Y-34480D01*
X30684Y-34499D01*
X30656Y-34508D01*
X30609Y-34508D01*
G54D15*
X27097Y-18561D02*
X27114Y-18578D01*
X27131Y-18629D01*
X27131Y-18662D01*
X27114Y-18713D01*
X27080Y-18747D01*
X27047Y-18764D01*
X26979Y-18780D01*
X26929Y-18780D01*
X26861Y-18764D01*
X26827Y-18747D01*
X26794Y-18713D01*
X26777Y-18662D01*
X26777Y-18629D01*
X26794Y-18578D01*
X26811Y-18561D01*
X27097Y-18207D02*
X27114Y-18224D01*
X27131Y-18274D01*
X27131Y-18308D01*
X27114Y-18359D01*
X27080Y-18392D01*
X27047Y-18409D01*
X26979Y-18426D01*
X26929Y-18426D01*
X26861Y-18409D01*
X26827Y-18392D01*
X26794Y-18359D01*
X26777Y-18308D01*
X26777Y-18274D01*
X26794Y-18224D01*
X26811Y-18207D01*
X27114Y-16538D02*
X27131Y-16487D01*
X27131Y-16403D01*
X27114Y-16369D01*
X27097Y-16352D01*
X27064Y-16335D01*
X27030Y-16335D01*
X26996Y-16352D01*
X26979Y-16369D01*
X26962Y-16403D01*
X26946Y-16470D01*
X26929Y-16504D01*
X26912Y-16521D01*
X26878Y-16538D01*
X26844Y-16538D01*
X26811Y-16521D01*
X26794Y-16504D01*
X26777Y-16470D01*
X26777Y-16386D01*
X26794Y-16335D01*
X26726Y-16437D02*
X27182Y-16437D01*
X26985Y-17587D02*
X27002Y-17536D01*
X27019Y-17519D01*
X27052Y-17502D01*
X27103Y-17502D01*
X27137Y-17519D01*
X27154Y-17536D01*
X27170Y-17570D01*
X27170Y-17705D01*
X26816Y-17705D01*
X26816Y-17587D01*
X26833Y-17553D01*
X26850Y-17536D01*
X26884Y-17519D01*
X26917Y-17519D01*
X26951Y-17536D01*
X26968Y-17553D01*
X26985Y-17587D01*
X26985Y-17705D01*
X27002Y-17283D02*
X27170Y-17283D01*
X26816Y-17401D02*
X27002Y-17283D01*
X26816Y-17165D01*
M02*
