G04 (created by PCBNEW (2013-jul-07)-stable) date Sun 25 May 2014 01:06:24 AM EDT*
%MOIN*%
G04 Gerber Fmt 3.4, Leading zero omitted, Abs format*
%FSLAX34Y34*%
G01*
G70*
G90*
G04 APERTURE LIST*
%ADD10C,0.00393701*%
%ADD11C,0.001*%
%ADD12R,0.0236X0.0394*%
%ADD13R,0.0077X0.0313*%
%ADD14R,0.007X0.072*%
%ADD15R,0.072X0.007*%
%ADD16R,0.008X0.042*%
%ADD17R,0.112X0.057*%
%ADD18R,0.232X0.232*%
%ADD19R,0.0787X0.0236*%
%ADD20R,0.059X0.0512*%
%ADD21R,0.063X0.071*%
%ADD22R,0.0531X0.0157*%
%ADD23R,0.061X0.061*%
%ADD24R,0.071X0.063*%
%ADD25R,0.063X0.126*%
%ADD26R,0.2559X0.2756*%
%ADD27R,0.0236X0.0787*%
G04 APERTURE END LIST*
G54D10*
G54D11*
X13760Y-39080D02*
X13760Y-9080D01*
X63760Y-39080D02*
X13760Y-39080D01*
X63760Y-9080D02*
X63760Y-39080D01*
X13760Y-9080D02*
X63760Y-9080D01*
G54D12*
X59897Y-26821D03*
X60272Y-25989D03*
X60647Y-26821D03*
G54D13*
X45635Y-15412D03*
X45885Y-15412D03*
X46135Y-15412D03*
X46385Y-15412D03*
X46635Y-15412D03*
X46885Y-15412D03*
X47135Y-15412D03*
X47385Y-15412D03*
X47385Y-13248D03*
X47135Y-13248D03*
X46885Y-13248D03*
X46635Y-13248D03*
X46385Y-13248D03*
X46135Y-13248D03*
X45885Y-13248D03*
X45635Y-13248D03*
G54D14*
X44965Y-18505D03*
X44710Y-18505D03*
X44455Y-18505D03*
X44200Y-18505D03*
X43945Y-18505D03*
X43685Y-18505D03*
X43430Y-18505D03*
X43175Y-18505D03*
X42920Y-18505D03*
X42665Y-18505D03*
X42405Y-18505D03*
X42150Y-18505D03*
X41895Y-18505D03*
X41640Y-18505D03*
X41380Y-18505D03*
X41125Y-18505D03*
X40870Y-18505D03*
X40615Y-18505D03*
X40355Y-18505D03*
X40100Y-18505D03*
X39845Y-18505D03*
X39590Y-18505D03*
X39335Y-18505D03*
X39075Y-18505D03*
X38820Y-18505D03*
X38565Y-18505D03*
X38310Y-18505D03*
X38055Y-18505D03*
G54D15*
X37185Y-19375D03*
X37185Y-19630D03*
X37185Y-19885D03*
X37185Y-20140D03*
X37185Y-20395D03*
X37185Y-20655D03*
X37185Y-20910D03*
X37185Y-21165D03*
X37185Y-21420D03*
X37185Y-21675D03*
X37185Y-21935D03*
X37185Y-22190D03*
X37185Y-22445D03*
X37185Y-22700D03*
X37185Y-22960D03*
X37185Y-23215D03*
X37185Y-23470D03*
X37185Y-23725D03*
X37185Y-23985D03*
X37185Y-24240D03*
X37185Y-24495D03*
X37185Y-24750D03*
X37185Y-25005D03*
X37185Y-25265D03*
X37185Y-25520D03*
X37185Y-25775D03*
X37185Y-26030D03*
X37185Y-26285D03*
G54D14*
X38055Y-27155D03*
X38310Y-27155D03*
X38565Y-27155D03*
X38820Y-27155D03*
X39075Y-27155D03*
X39335Y-27155D03*
X39590Y-27155D03*
X39845Y-27155D03*
X40100Y-27155D03*
X40355Y-27155D03*
X40615Y-27155D03*
X40870Y-27155D03*
X41125Y-27155D03*
X41380Y-27155D03*
X41640Y-27155D03*
X41895Y-27155D03*
X42150Y-27155D03*
X42405Y-27155D03*
X42665Y-27155D03*
X42920Y-27155D03*
X43175Y-27155D03*
X43430Y-27155D03*
X43685Y-27155D03*
X43945Y-27155D03*
X44200Y-27155D03*
X44455Y-27155D03*
X44710Y-27155D03*
X44965Y-27155D03*
G54D15*
X45835Y-26285D03*
X45835Y-26030D03*
X45835Y-25775D03*
X45835Y-25520D03*
X45835Y-25265D03*
X45835Y-25005D03*
X45835Y-24750D03*
X45835Y-24495D03*
X45835Y-24240D03*
X45835Y-23985D03*
X45835Y-23725D03*
X45835Y-23470D03*
X45835Y-23215D03*
X45835Y-22960D03*
X45835Y-22700D03*
X45835Y-22445D03*
X45835Y-22190D03*
X45835Y-21935D03*
X45835Y-21675D03*
X45835Y-21420D03*
X45835Y-21165D03*
X45835Y-20910D03*
X45835Y-20655D03*
X45835Y-20395D03*
X45835Y-20140D03*
X45835Y-19885D03*
X45835Y-19630D03*
X45835Y-19375D03*
G54D16*
X53110Y-18480D03*
X53360Y-18480D03*
X53620Y-18480D03*
X53880Y-18480D03*
X54130Y-18480D03*
X54390Y-18480D03*
X54650Y-18480D03*
X54900Y-18480D03*
X55160Y-18480D03*
X55410Y-18480D03*
X55670Y-18480D03*
X55930Y-18480D03*
X56180Y-18480D03*
X56440Y-18480D03*
X56440Y-15680D03*
X56180Y-15680D03*
X55940Y-15680D03*
X55670Y-15680D03*
X55410Y-15680D03*
X55160Y-15680D03*
X54900Y-15680D03*
X54650Y-15680D03*
X54390Y-15680D03*
X54130Y-15680D03*
X53880Y-15680D03*
X53620Y-15680D03*
X53360Y-15680D03*
X53110Y-15680D03*
G54D17*
X22043Y-16695D03*
G54D18*
X19543Y-15795D03*
G54D17*
X22043Y-14895D03*
X22048Y-22730D03*
G54D18*
X19548Y-21830D03*
G54D17*
X22048Y-20930D03*
X22048Y-19730D03*
G54D18*
X19548Y-18830D03*
G54D17*
X22048Y-17930D03*
X22048Y-28730D03*
G54D18*
X19548Y-27830D03*
G54D17*
X22048Y-26930D03*
X22048Y-31730D03*
G54D18*
X19548Y-30830D03*
G54D17*
X22048Y-29930D03*
X22067Y-37687D03*
G54D18*
X19567Y-36787D03*
G54D17*
X22067Y-35887D03*
X22048Y-34730D03*
G54D18*
X19548Y-33830D03*
G54D17*
X22048Y-32930D03*
X22058Y-25710D03*
G54D18*
X19558Y-24810D03*
G54D17*
X22058Y-23910D03*
G54D19*
X50280Y-22070D03*
X50280Y-22570D03*
X50280Y-23070D03*
X50280Y-23570D03*
X52480Y-23570D03*
X52480Y-23070D03*
X52480Y-22570D03*
X52480Y-22070D03*
G54D20*
X56358Y-19546D03*
X56358Y-20296D03*
G54D19*
X31553Y-12738D03*
X31553Y-12238D03*
X31553Y-11738D03*
X31553Y-11238D03*
X29353Y-11238D03*
X29353Y-11738D03*
X29353Y-12238D03*
X29353Y-12738D03*
X20923Y-12797D03*
X20923Y-12297D03*
X20923Y-11797D03*
X20923Y-11297D03*
X18723Y-11297D03*
X18723Y-11797D03*
X18723Y-12297D03*
X18723Y-12797D03*
G54D21*
X50081Y-37079D03*
X48981Y-37079D03*
G54D22*
X62126Y-16828D03*
X62126Y-16571D03*
X62126Y-16315D03*
X62126Y-16059D03*
X62126Y-15803D03*
G54D23*
X63189Y-16719D03*
X63189Y-15911D03*
G54D20*
X61886Y-29392D03*
X61886Y-30142D03*
X61634Y-26753D03*
X61634Y-26003D03*
X61886Y-30892D03*
X61886Y-31642D03*
X61886Y-27912D03*
X61886Y-28662D03*
G54D24*
X58272Y-26206D03*
X58272Y-27306D03*
G54D25*
X59799Y-22777D03*
X61611Y-22777D03*
G54D26*
X60705Y-20317D03*
G54D27*
X36500Y-33950D03*
X36000Y-33950D03*
X35500Y-33950D03*
X35000Y-33950D03*
X35000Y-36150D03*
X35500Y-36150D03*
X36000Y-36150D03*
X36500Y-36150D03*
X31061Y-26128D03*
X30561Y-26128D03*
X30061Y-26128D03*
X29561Y-26128D03*
X29561Y-28328D03*
X30061Y-28328D03*
X30561Y-28328D03*
X31061Y-28328D03*
X30670Y-33360D03*
X30170Y-33360D03*
X29670Y-33360D03*
X29170Y-33360D03*
X29170Y-35560D03*
X29670Y-35560D03*
X30170Y-35560D03*
X30670Y-35560D03*
M02*
