G04 (created by PCBNEW (2013-jul-07)-stable) date Sun 25 May 2014 01:06:24 AM EDT*
%MOIN*%
G04 Gerber Fmt 3.4, Leading zero omitted, Abs format*
%FSLAX34Y34*%
G01*
G70*
G90*
G04 APERTURE LIST*
%ADD10C,0.00393701*%
%ADD11C,0.001*%
%ADD12R,0.125X0.053*%
%ADD13R,0.06X0.1*%
%ADD14R,0.1X0.06*%
%ADD15R,0.0512X0.059*%
%ADD16R,0.0472X0.0472*%
G04 APERTURE END LIST*
G54D10*
G54D11*
X13760Y-39080D02*
X13760Y-9080D01*
X63760Y-39080D02*
X13760Y-39080D01*
X63760Y-9080D02*
X63760Y-39080D01*
X13760Y-9080D02*
X63760Y-9080D01*
G54D12*
X20709Y-33719D03*
X20709Y-36029D03*
X20709Y-30719D03*
X20709Y-33029D03*
X20709Y-27719D03*
X20709Y-30029D03*
X20709Y-24699D03*
X20709Y-27009D03*
X20709Y-21719D03*
X20709Y-24029D03*
X20709Y-18719D03*
X20709Y-21029D03*
X20709Y-15723D03*
X20709Y-18033D03*
G54D13*
X62252Y-25355D03*
X61252Y-25355D03*
X60252Y-25355D03*
X59252Y-25355D03*
X59252Y-18755D03*
X60252Y-18755D03*
X61252Y-18755D03*
X62252Y-18755D03*
G54D14*
X56574Y-30728D03*
X56574Y-29728D03*
X56574Y-28728D03*
X56574Y-27728D03*
X63174Y-27728D03*
X63174Y-28728D03*
X63174Y-29728D03*
X63174Y-30728D03*
G54D15*
X30325Y-13025D03*
X29575Y-13025D03*
X30325Y-10675D03*
X29575Y-10675D03*
X19850Y-13150D03*
X19100Y-13150D03*
X19850Y-10700D03*
X19100Y-10700D03*
G54D16*
X30327Y-12228D03*
X31153Y-12228D03*
X30327Y-11440D03*
X31153Y-11440D03*
X19838Y-12330D03*
X20664Y-12330D03*
X19838Y-11551D03*
X20664Y-11551D03*
M02*
